<svg width="667" height="667" viewBox="0 0 667 667" fill="none" xmlns="http://www.w3.org/2000/svg">
<mask id="mask0_723_140" style="mask-type:luminance" maskUnits="userSpaceOnUse" x="0" y="0" width="667" height="667">
<path d="M0 0.00203419H666.665V666.667H0V0.00203419Z" fill="white"/>
</mask>
<g mask="url(#mask0_723_140)">
<path d="M633.441 546.891C633.441 569.717 503.872 588.221 344.039 588.221C184.208 588.221 54.6372 569.717 54.6372 546.891C54.6372 524.066 184.208 505.563 344.039 505.563C503.872 505.563 633.441 524.066 633.441 546.891Z" fill="#D4E3FF"/>
<path d="M392.522 437.63H386.694V351.142H392.522V437.63ZM392.522 525.269H386.694V438.781H392.522V525.269Z" fill="#4C606C"/>
<path d="M478.059 523.207L473.937 527.329L387.478 440.869L391.599 436.748L478.059 523.207Z" fill="#4C606C"/>
<path d="M301.157 523.207L305.278 527.329L391.737 440.869L387.615 436.748L301.157 523.207Z" fill="#4C606C"/>
<path d="M400.896 438.877C400.896 441.042 395.843 442.796 389.608 442.796C383.374 442.796 378.319 441.042 378.319 438.877C378.319 436.712 383.374 434.958 389.608 434.958C395.843 434.958 400.896 436.712 400.896 438.877Z" fill="#4C606C"/>
<path d="M255.029 147.475H524.188V355.424H255.029V147.475Z" fill="#4C606C"/>
<path d="M259.781 152.906H519.435V349.994H259.781V152.906Z" fill="#7C98F7"/>
<path d="M329.733 219.561H347.065L355.733 204.551L347.065 189.539H329.733L321.066 204.551L329.733 219.561ZM347.962 221.116H328.834L319.271 204.551L328.834 187.984H347.962L357.527 204.551L347.962 221.116Z" fill="#4C606C"/>
<path d="M308.497 256.387H319.854L325.534 246.549L319.854 236.712H308.497L302.817 246.549L308.497 256.387ZM320.751 257.941H307.598L301.022 246.549L307.598 235.159H320.751L327.329 246.549L320.751 257.941Z" fill="#4C606C"/>
<path d="M357.038 281.375H379.443L390.647 261.969L379.443 242.565H357.038L345.834 261.969L357.038 281.375ZM380.342 282.929H356.139L344.039 261.969L356.139 241.011H380.342L392.44 261.969L380.342 282.929Z" fill="#4C606C"/>
<path d="M377.432 277.115L376.087 276.337L384.607 261.583L385.951 262.36L377.432 277.115Z" fill="#4C606C"/>
<path d="M389.404 221.869H406.98L415.767 206.648L406.98 191.428H389.404L380.615 206.648L389.404 221.869ZM407.878 223.424H388.506L378.822 206.648L388.506 189.874H407.878L417.562 206.648L407.878 223.424Z" fill="#4C606C"/>
<path d="M410.056 207.038L403.788 196.182L405.133 195.404L411.401 206.26L410.056 207.038Z" fill="#4C606C"/>
<path d="M404.46 218.283H391.924V216.728H404.46V218.283Z" fill="#4C606C"/>
<path d="M391.115 325.5H405.271L412.354 313.239L405.271 300.976H391.115L384.034 313.239L391.115 325.5ZM406.17 327.055H390.216L382.242 313.239L390.216 299.423H406.17L414.146 313.239L406.17 327.055Z" fill="#4C606C"/>
<path d="M415.664 281.375H423.37L427.223 274.701L423.37 268.028H415.664L411.811 274.701L415.664 281.375ZM424.268 282.929H414.766L410.018 274.701L414.766 266.473H424.268L429.018 274.701L424.268 282.929Z" fill="#4C606C"/>
<path d="M308.947 319.889H324.289L331.959 306.603L324.289 293.317H308.947L301.278 306.603L308.947 319.889ZM325.186 321.444H308.049L299.483 306.603L308.049 291.763H325.186L333.754 306.603L325.186 321.444Z" fill="#4C606C"/>
<path d="M355.872 242.092L346.798 220.641L348.231 220.036L357.304 241.487L355.872 242.092Z" fill="#4C606C"/>
<path d="M380.595 242.121L379.19 241.456L388.254 222.315L389.659 222.98L380.595 242.121Z" fill="#4C606C"/>
<path d="M389.998 300.599L379.226 282.552L380.56 281.755L391.334 299.803L389.998 300.599Z" fill="#4C606C"/>
<path d="M406.407 300.561L405.032 299.837L414.527 281.789L415.902 282.513L406.407 300.561Z" fill="#4C606C"/>
<path d="M320.845 236.721L319.494 235.952L328.609 219.952L329.959 220.721L320.845 236.721Z" fill="#4C606C"/>
</g>
<path d="M429.461 175.723H430.823V188.778H429.461V175.723ZM421.293 188.778H419.913V175.723H421.293V188.778ZM429.592 182.754H421.144V181.542H429.592V182.754ZM435.084 188.778V175.723H436.221L445.229 187.062H444.632V175.723H445.994V188.778H444.856L435.867 177.439H436.464V188.778H435.084Z" fill="#4C606C"/>
<path d="M433.269 191.56V190.582L435.784 188.207C435.983 188.027 436.129 187.866 436.222 187.723C436.315 187.58 436.377 187.45 436.408 187.332C436.445 187.214 436.464 187.105 436.464 187.006C436.464 186.745 436.374 186.546 436.194 186.41C436.02 186.267 435.762 186.196 435.421 186.196C435.148 186.196 434.893 186.248 434.657 186.354C434.427 186.459 434.232 186.624 434.07 186.848L432.971 186.14C433.22 185.767 433.567 185.472 434.014 185.255C434.461 185.038 434.977 184.929 435.56 184.929C436.045 184.929 436.467 185.01 436.827 185.171C437.193 185.326 437.476 185.547 437.675 185.832C437.88 186.118 437.982 186.459 437.982 186.857C437.982 187.068 437.954 187.279 437.898 187.49C437.849 187.695 437.743 187.912 437.582 188.142C437.426 188.372 437.197 188.63 436.892 188.915L434.806 190.88L434.517 190.331H438.196V191.56H433.269Z" fill="#4C606C"/>
<path d="M289.621 180.866H290.983V193.921H289.621V180.866ZM281.453 193.921H280.073V180.866H281.453V193.921ZM289.752 187.897H281.304V186.685H289.752V187.897ZM295.243 193.921V180.866H300.13C301.236 180.866 302.187 181.047 302.983 181.407C303.779 181.755 304.388 182.265 304.81 182.936C305.246 183.595 305.463 184.397 305.463 185.342C305.463 186.262 305.246 187.058 304.81 187.729C304.388 188.388 303.779 188.898 302.983 189.259C302.187 189.607 301.236 189.781 300.13 189.781H296.008L296.623 189.147V193.921H295.243ZM304.158 193.921L300.801 189.184H302.293L305.668 193.921H304.158ZM296.623 189.259L296.008 188.606H300.092C301.398 188.606 302.386 188.32 303.057 187.748C303.741 187.176 304.083 186.374 304.083 185.342C304.083 184.298 303.741 183.49 303.057 182.918C302.386 182.346 301.398 182.06 300.092 182.06H296.008L296.623 181.407V189.259Z" fill="#4C606C"/>
<path d="M293.429 196.702V195.724L295.944 193.349C296.143 193.169 296.289 193.008 296.382 192.865C296.475 192.722 296.537 192.592 296.568 192.474C296.605 192.356 296.624 192.247 296.624 192.148C296.624 191.887 296.534 191.688 296.354 191.552C296.18 191.409 295.922 191.338 295.581 191.338C295.308 191.338 295.053 191.39 294.817 191.496C294.587 191.601 294.392 191.766 294.23 191.99L293.131 191.282C293.38 190.909 293.727 190.614 294.175 190.397C294.622 190.18 295.137 190.071 295.721 190.071C296.205 190.071 296.627 190.152 296.987 190.313C297.354 190.468 297.636 190.689 297.835 190.974C298.04 191.26 298.142 191.601 298.142 191.999C298.142 192.21 298.114 192.421 298.058 192.632C298.009 192.837 297.903 193.054 297.742 193.284C297.586 193.514 297.357 193.772 297.052 194.057L294.966 196.022L294.677 195.473H298.356V196.702H293.429Z" fill="#4C606C"/>
<path d="M342.438 325.781C341.455 325.781 340.542 325.619 339.696 325.296C338.863 324.96 338.136 324.494 337.514 323.897C336.905 323.288 336.426 322.586 336.078 321.79C335.743 320.982 335.575 320.099 335.575 319.142C335.575 318.184 335.743 317.308 336.078 316.512C336.426 315.704 336.905 315.002 337.514 314.405C338.136 313.796 338.863 313.329 339.696 313.006C340.529 312.67 341.443 312.503 342.438 312.503C343.42 312.503 344.327 312.67 345.16 313.006C345.993 313.329 346.714 313.789 347.324 314.386C347.945 314.983 348.424 315.685 348.76 316.493C349.108 317.302 349.282 318.184 349.282 319.142C349.282 320.099 349.108 320.982 348.76 321.79C348.424 322.598 347.945 323.3 347.324 323.897C346.714 324.494 345.993 324.96 345.16 325.296C344.327 325.619 343.42 325.781 342.438 325.781ZM342.438 324.55C343.221 324.55 343.942 324.419 344.601 324.158C345.272 323.885 345.85 323.506 346.335 323.021C346.833 322.523 347.218 321.951 347.492 321.305C347.765 320.646 347.902 319.925 347.902 319.142C347.902 318.358 347.765 317.644 347.492 316.997C347.218 316.338 346.833 315.766 346.335 315.281C345.85 314.784 345.272 314.405 344.601 314.144C343.942 313.87 343.221 313.733 342.438 313.733C341.654 313.733 340.927 313.87 340.256 314.144C339.584 314.405 339 314.784 338.503 315.281C338.018 315.766 337.632 316.338 337.346 316.997C337.073 317.644 336.936 318.358 336.936 319.142C336.936 319.912 337.073 320.627 337.346 321.286C337.632 321.945 338.018 322.523 338.503 323.021C339 323.506 339.584 323.885 340.256 324.158C340.927 324.419 341.654 324.55 342.438 324.55ZM352.375 325.669V312.614H353.513L362.52 323.953H361.924V312.614H363.285V325.669H362.147L353.158 314.33H353.755V325.669H352.375Z" fill="#4C606C"/>
<path d="M350.087 328.451V327.473L352.602 325.098C352.801 324.918 352.946 324.757 353.04 324.614C353.133 324.471 353.195 324.341 353.226 324.223C353.263 324.105 353.282 323.996 353.282 323.897C353.282 323.636 353.192 323.437 353.012 323.301C352.838 323.158 352.58 323.087 352.239 323.087C351.965 323.087 351.711 323.139 351.475 323.245C351.245 323.35 351.05 323.515 350.888 323.739L349.789 323.031C350.037 322.658 350.385 322.363 350.832 322.146C351.279 321.929 351.795 321.82 352.378 321.82C352.863 321.82 353.285 321.901 353.645 322.062C354.011 322.217 354.294 322.438 354.493 322.723C354.697 323.009 354.8 323.35 354.8 323.748C354.8 323.959 354.772 324.17 354.716 324.381C354.666 324.586 354.561 324.803 354.399 325.033C354.244 325.263 354.014 325.521 353.71 325.806L351.624 327.771L351.335 327.222H355.014V328.451H350.087Z" fill="#4C606C"/>
<path d="M444.825 281.586C443.843 281.586 442.935 281.424 442.102 281.101C441.269 280.765 440.548 280.299 439.939 279.702C439.33 279.105 438.851 278.403 438.503 277.595C438.167 276.787 438 275.904 438 274.947C438 273.989 438.167 273.107 438.503 272.298C438.851 271.49 439.33 270.788 439.939 270.191C440.561 269.594 441.288 269.134 442.121 268.811C442.954 268.475 443.862 268.308 444.844 268.308C445.789 268.308 446.678 268.469 447.511 268.792C448.344 269.103 449.046 269.576 449.618 270.21L448.741 271.086C448.207 270.539 447.616 270.148 446.97 269.911C446.323 269.663 445.627 269.538 444.881 269.538C444.098 269.538 443.37 269.675 442.699 269.949C442.028 270.21 441.443 270.589 440.946 271.086C440.449 271.571 440.057 272.143 439.771 272.802C439.498 273.448 439.361 274.163 439.361 274.947C439.361 275.73 439.498 276.451 439.771 277.11C440.057 277.756 440.449 278.328 440.946 278.826C441.443 279.311 442.028 279.69 442.699 279.963C443.37 280.224 444.098 280.355 444.881 280.355C445.627 280.355 446.323 280.231 446.97 279.982C447.616 279.733 448.207 279.335 448.741 278.788L449.618 279.665C449.046 280.299 448.344 280.778 447.511 281.101C446.678 281.424 445.782 281.586 444.825 281.586ZM462.108 268.419H463.47V281.474H462.108V268.419ZM453.94 281.474H452.56V268.419H453.94V281.474ZM462.239 275.45H453.791V274.238H462.239V275.45Z" fill="#4C606C"/>
<path d="M465.815 285.256V284.278L468.33 281.903C468.529 281.723 468.674 281.562 468.768 281.419C468.861 281.276 468.923 281.146 468.954 281.028C468.991 280.91 469.01 280.801 469.01 280.702C469.01 280.441 468.92 280.242 468.74 280.106C468.566 279.963 468.308 279.892 467.967 279.892C467.693 279.892 467.439 279.944 467.203 280.05C466.973 280.155 466.778 280.32 466.616 280.544L465.517 279.836C465.765 279.463 466.113 279.168 466.56 278.951C467.007 278.734 467.523 278.625 468.106 278.625C468.591 278.625 469.013 278.706 469.373 278.867C469.739 279.022 470.022 279.243 470.221 279.528C470.425 279.814 470.528 280.155 470.528 280.553C470.528 280.764 470.5 280.975 470.444 281.186C470.394 281.391 470.289 281.608 470.127 281.838C469.972 282.068 469.742 282.326 469.438 282.611L467.352 284.576L467.063 284.027H470.742V285.256H465.815Z" fill="#4C606C"/>
<mask id="mask1_723_140" style="mask-type:luminance" maskUnits="userSpaceOnUse" x="0" y="0" width="667" height="667">
<path d="M0 0.00203419H666.665V666.667H0V0.00203419Z" fill="white"/>
</mask>
<g mask="url(#mask1_723_140)">
<path d="M487.879 211.295H431.931V206.649H487.879V211.295ZM474.515 223.768H431.931V219.123H474.515V223.768ZM474.515 233.387H431.931V228.741H474.515V233.387ZM474.515 243.007H431.931V238.361H474.515V243.007ZM474.515 252.627H431.931V247.981H474.515V252.627Z" fill="#4F78DC"/>
<path d="M503.245 422.505C503.245 422.505 540.306 407.004 577.01 422.505L573.625 360.85L506.63 362.578L503.245 422.505Z" fill="#9BB9E7"/>
<path d="M510.212 536.931C510.212 536.931 510.615 542.775 498.256 543.13C485.9 543.487 487.651 551.09 487.651 551.09L506.871 550.765L513.759 547.942V550.647L522.761 550.495L523.38 535.173L510.212 536.931Z" fill="#2D2D3D"/>
<path d="M584.12 536.931C584.12 536.931 583.718 542.775 596.074 543.13C608.43 543.487 606.681 551.09 606.681 551.09L587.461 550.765L580.573 547.942V550.647L571.57 550.495L570.952 535.173L584.12 536.931Z" fill="#2D2D3D"/>
<path d="M511.727 373.27L507.688 538.379H524.793L540.235 393.464L545.699 393.938L568.896 539.406L585.741 537.429L570.764 368.82L511.727 373.27Z" fill="#4C606C"/>
<path d="M559.905 241.371C559.905 241.371 570.577 205.621 549.421 207.86C525.267 188.612 483.444 197.451 513.824 242.737L559.905 241.371Z" fill="#E8724A"/>
<path d="M547.244 273.981C546.935 266.251 546.687 258.184 549.923 251.156C551.572 247.569 554.079 244.393 555.404 240.675C557.448 234.939 556.464 228.596 555.081 222.667C554.419 219.825 553.568 216.832 551.391 214.891C548.811 212.592 545.039 212.347 541.583 212.397C533.039 212.52 524.089 213.945 515.844 216.197C513.937 226.221 511.727 233.959 513.481 244.011C514.183 248.035 515.608 252.168 518.729 254.801C521.177 256.867 524.393 257.779 527.04 259.584C531.129 262.373 533.487 269.74 533.645 274.868C533.645 274.868 514.113 281.925 525.875 297.425C537.633 312.927 557.617 303.484 557.617 296.357C557.617 289.231 562.021 279.769 547.244 273.981Z" fill="#FCD1C7"/>
<path d="M522.376 234.591C522.376 235.984 521.717 237.115 520.904 237.115C520.093 237.115 519.435 235.984 519.435 234.591C519.435 233.197 520.093 232.067 520.904 232.067C521.717 232.067 522.376 233.197 522.376 234.591Z" fill="#2D2D3D"/>
<path d="M521.779 234.088C521.779 234.501 521.584 234.837 521.343 234.837C521.101 234.837 520.905 234.501 520.905 234.088C520.905 233.673 521.101 233.339 521.343 233.339C521.584 233.339 521.779 233.673 521.779 234.088Z" fill="white"/>
<path d="M531.705 234.591C531.705 235.984 531.047 237.115 530.235 237.115C529.423 237.115 528.764 235.984 528.764 234.591C528.764 233.197 529.423 232.067 530.235 232.067C531.047 232.067 531.705 233.197 531.705 234.591Z" fill="#2D2D3D"/>
<path d="M531.109 234.088C531.109 234.501 530.915 234.837 530.673 234.837C530.432 234.837 530.237 234.501 530.237 234.088C530.237 233.673 530.432 233.339 530.673 233.339C530.915 233.339 531.109 233.673 531.109 234.088Z" fill="white"/>
<path d="M523.628 242.309C523.537 242.31 523.45 242.279 523.38 242.221C522.913 241.835 522.596 241.401 522.437 240.935C522.232 240.341 522.308 239.708 522.637 239.245C523.026 238.699 523.76 238.468 524.333 238.705C524.421 238.749 524.49 238.825 524.525 238.917C524.559 239.009 524.558 239.111 524.521 239.202C524.483 239.293 524.413 239.367 524.323 239.408C524.234 239.449 524.132 239.455 524.038 239.424C523.792 239.323 523.448 239.444 523.27 239.695C523.089 239.951 523.05 240.329 523.172 240.684C523.284 241.013 523.521 241.328 523.876 241.621C523.936 241.673 523.98 241.742 524 241.819C524.02 241.895 524.017 241.977 523.99 242.051C523.963 242.126 523.914 242.191 523.849 242.237C523.784 242.283 523.707 242.308 523.628 242.309Z" fill="#D99B8E"/>
<path d="M525.045 245.117C524.164 245.117 523.279 244.967 522.44 244.655C522.344 244.618 522.266 244.546 522.223 244.452C522.18 244.358 522.175 244.251 522.211 244.155C522.247 244.059 522.32 243.981 522.413 243.938C522.506 243.895 522.613 243.89 522.709 243.925C525.307 244.893 528.499 244.077 530.311 241.996C530.379 241.918 530.474 241.871 530.577 241.863C530.68 241.856 530.782 241.89 530.859 241.958C530.937 242.026 530.985 242.122 530.992 242.225C530.999 242.327 530.965 242.429 530.897 242.507C529.433 244.187 527.243 245.117 525.045 245.117Z" fill="#D99B8E"/>
<path d="M528.702 228.727C529.162 228.216 529.738 227.824 530.383 227.585C531.027 227.347 531.72 227.269 532.401 227.357C533.06 227.454 533.685 227.708 534.223 228.1C534.762 228.491 535.197 229.007 535.492 229.604C535.514 229.65 535.527 229.7 535.53 229.751C535.534 229.802 535.527 229.853 535.51 229.901C535.493 229.949 535.467 229.994 535.433 230.032C535.399 230.07 535.358 230.101 535.312 230.123C535.222 230.165 535.121 230.172 535.026 230.143C534.932 230.113 534.852 230.049 534.802 229.964C534.541 229.519 534.177 229.143 533.739 228.869C533.301 228.595 532.804 228.431 532.289 228.391C531.296 228.324 530.273 228.801 529.701 229.56C529.651 229.633 529.587 229.695 529.513 229.742C529.439 229.789 529.356 229.821 529.269 229.836C529.182 229.85 529.093 229.847 529.007 229.826C528.922 229.805 528.841 229.766 528.771 229.714C528.701 229.661 528.642 229.594 528.598 229.518C528.554 229.441 528.526 229.357 528.515 229.269C528.505 229.182 528.512 229.093 528.537 229.009C528.562 228.924 528.604 228.845 528.66 228.777L528.694 228.735L528.702 228.727Z" fill="#643B2D"/>
<path d="M522.664 229.521C522.215 228.807 521.369 228.312 520.531 228.393C519.689 228.464 518.865 229.103 518.449 229.941C518.403 230.034 518.323 230.104 518.225 230.138C518.128 230.171 518.021 230.164 517.928 230.119C517.841 230.075 517.773 229.999 517.738 229.908C517.703 229.816 517.704 229.715 517.74 229.624C518.176 228.549 519.116 227.6 520.387 227.364C521.665 227.135 522.963 227.764 523.723 228.763L523.735 228.779C523.839 228.916 523.885 229.09 523.862 229.261C523.839 229.432 523.748 229.587 523.611 229.692C523.543 229.744 523.465 229.782 523.382 229.804C523.299 229.825 523.213 229.831 523.128 229.819C522.957 229.796 522.802 229.706 522.697 229.568L522.664 229.521Z" fill="#643B2D"/>
<path d="M552.741 239.967C551.978 239.203 545.701 230.551 545.701 221.899C545.701 221.899 544.437 223.456 544.429 225.673C544.429 225.673 542.297 224.383 542.648 221.22C542.648 221.22 540.541 225.037 535.148 224.613C535.148 224.613 538.66 222.917 539.254 220.117C539.254 220.117 529.245 225.632 513.468 222.408L514.656 214.604C514.656 214.604 542.988 204.324 553.165 212.391C563.345 220.457 556.572 241.155 556.572 241.155L552.741 239.967Z" fill="#E8724A"/>
<path d="M556.572 246.752C556.572 246.752 549.639 259.895 547.643 258.979C545.645 258.061 551.353 247.179 551.353 247.179L556.572 246.752Z" fill="#E8724A"/>
<path d="M558.705 246.201C555.393 249.515 551.01 250.503 548.916 248.408C546.822 246.315 547.81 241.932 551.122 238.619C554.436 235.307 558.818 234.319 560.912 236.412C563.006 238.507 562.017 242.889 558.705 246.201Z" fill="#FCD1C7"/>
<path d="M555.393 245.875C555.329 245.875 555.266 245.859 555.21 245.829C555.153 245.799 555.105 245.755 555.07 245.701C554.326 244.587 553.237 243.793 552.078 243.523C551.997 243.505 551.924 243.462 551.87 243.399C551.816 243.337 551.783 243.258 551.776 243.176C551.77 243.093 551.79 243.011 551.834 242.94C551.877 242.87 551.943 242.816 552.02 242.785C554.304 241.837 556.168 240.095 557.269 237.88C557.316 237.789 557.396 237.719 557.493 237.686C557.59 237.653 557.696 237.659 557.789 237.703C557.882 237.748 557.952 237.828 557.986 237.926C558.019 238.023 558.013 238.13 557.968 238.223C556.931 240.307 555.263 242.01 553.201 243.091C554.225 243.57 555.096 244.325 555.716 245.271C555.755 245.329 555.777 245.397 555.781 245.467C555.784 245.538 555.769 245.608 555.736 245.67C555.702 245.732 555.653 245.783 555.593 245.82C555.532 245.856 555.463 245.875 555.393 245.875Z" fill="#D99B8E"/>
<path d="M456.27 300.371C456.168 300.156 450.354 295.101 449.624 290.709C448.895 286.317 451.302 280.38 449.775 279.263C448.247 278.147 446.508 286.132 446.508 286.132C446.508 286.132 448.035 276.343 446.655 275.979C445.274 275.612 443.304 285.612 443.304 285.612C443.304 285.612 444.492 274.064 442.864 273.696C440.288 273.113 440.04 286.895 440.04 286.895C440.04 286.895 438.538 274.255 436.134 274.151C433.111 274.021 437.214 294.539 437.214 294.539C437.214 294.539 434.872 292.059 432.799 291.583C430.726 291.107 429.187 291.639 429.588 293.024C429.991 294.411 431.927 293.393 435.851 299.308C439.774 305.223 444.838 302.037 450.875 306.604L456.27 300.371Z" fill="#FCD1C7"/>
<path d="M586.013 382.176C586.013 382.176 586.452 390.273 583.412 392.829C583.412 392.829 585.629 390.606 587.653 393.038C589.678 395.472 582.201 400.401 579.777 400.037C577.353 399.674 571.032 393.282 571.497 390.54C571.965 387.797 576.618 376.233 576.618 376.233L586.013 382.176Z" fill="#FCD1C7"/>
<path d="M533.645 274.868C533.645 274.868 523.368 275.153 516.479 282.519C509.589 289.883 511.728 373.27 511.728 373.27C511.728 373.27 550.45 379.446 572.545 368.756C572.545 368.756 569.693 287.032 564.466 281.568C559.24 276.104 547.244 273.981 547.244 273.981C544.998 279.312 535.852 279.015 533.645 274.868Z" fill="#7C98F7"/>
<path d="M538.985 282.093C538.523 283.061 534.129 334.07 534.129 334.07L541.495 342.505L548.265 333.952L543.057 281.816L543.039 278.836L540.964 277.948L538.644 279.557L538.985 282.093Z" fill="#E8724A"/>
<path d="M533.645 274.868C533.645 274.868 535.505 277.772 540.964 277.948L537.323 285.577C537.323 285.577 529.66 280 533.645 274.868Z" fill="#4F78DC"/>
<path d="M540.964 277.948C540.964 277.948 545.361 277.443 547.244 273.981C547.244 273.981 552.155 280.989 544.849 285.132L540.964 277.948Z" fill="#4F78DC"/>
<path d="M533.645 274.868C533.645 274.868 526.229 282.281 526.229 323.796C526.229 365.31 525.048 426.96 525.048 426.96C516.897 428.081 508.76 427.216 500.638 423.574C500.638 414.941 499.252 295.347 514.292 282.043C519.709 277.253 525.555 275.268 533.645 274.868Z" fill="#D4E3FF"/>
<path d="M514.292 282.043C502.632 295.183 499.593 302.236 485.674 322.015C473.302 313.195 465.727 306.281 455.316 294.932L445.558 308.635C445.558 308.635 477.755 351.234 493.433 343.394C509.113 335.554 513.468 318.08 513.468 318.08L514.292 282.043Z" fill="#D4E3FF"/>
<path d="M566.367 280.223C566.367 280.223 595.003 303.228 605.519 325.597C614.428 344.546 586.705 383.694 586.705 383.694L571.475 376.034C579.392 361.738 586.159 348.033 590.253 335.693L567.567 311.145L566.367 280.223Z" fill="#D4E3FF"/>
<path d="M548.892 274.308C548.892 274.308 556.308 281.721 556.308 323.236C556.308 364.752 556.5 426.958 556.5 426.958C564.649 428.08 572.788 427.214 580.911 423.573C580.911 414.329 583.783 291.308 565.444 279.556C562.423 277.619 557.167 275.608 548.892 274.308Z" fill="#D4E3FF"/>
<path d="M502.68 334.785L502.654 334.784C502.603 334.781 502.553 334.767 502.508 334.745C502.462 334.722 502.421 334.691 502.387 334.652C502.354 334.613 502.328 334.569 502.312 334.52C502.296 334.471 502.289 334.42 502.293 334.369C503.175 321.386 505.945 308.6 510.516 296.416C510.533 296.368 510.561 296.324 510.595 296.286C510.63 296.249 510.672 296.219 510.719 296.198C510.766 296.176 510.816 296.165 510.867 296.163C510.918 296.161 510.969 296.17 511.017 296.188C511.113 296.224 511.191 296.297 511.234 296.391C511.277 296.485 511.281 296.591 511.245 296.688C506.7 308.802 503.946 321.515 503.068 334.424C503.061 334.522 503.017 334.614 502.945 334.681C502.873 334.748 502.778 334.785 502.68 334.785Z" fill="#9BB9E7"/>
<path d="M578.362 321.419C574.891 317.984 571.873 314.121 569.38 309.923C569.176 310.095 568.982 310.275 568.784 310.451C571.298 314.655 574.333 318.526 577.816 321.972C577.89 322.039 577.987 322.075 578.088 322.072C578.188 322.069 578.283 322.027 578.353 321.956C578.424 321.885 578.464 321.789 578.465 321.689C578.467 321.589 578.43 321.492 578.362 321.419Z" fill="#9BB9E7"/>
<path d="M523.998 313.628C523.932 313.628 523.867 313.611 523.809 313.579C523.751 313.547 523.703 313.5 523.668 313.444C521.177 309.407 518.773 306.363 516.32 304.137C516.268 304.09 516.23 304.029 516.21 303.962C516.19 303.894 516.188 303.823 516.205 303.755C518.362 295.259 522.499 287.394 528.278 280.804C528.311 280.764 528.352 280.731 528.399 280.707C528.445 280.682 528.495 280.668 528.547 280.664C528.599 280.66 528.651 280.666 528.701 280.683C528.75 280.699 528.796 280.725 528.835 280.76C528.874 280.794 528.905 280.836 528.928 280.883C528.95 280.93 528.963 280.981 528.966 281.033C528.968 281.085 528.96 281.137 528.942 281.186C528.923 281.235 528.896 281.279 528.86 281.317C523.214 287.756 519.157 295.429 517.016 303.72C519.462 305.981 521.857 309.031 524.329 313.036C524.365 313.095 524.385 313.162 524.387 313.231C524.388 313.3 524.371 313.369 524.338 313.429C524.304 313.489 524.255 313.54 524.195 313.575C524.135 313.61 524.068 313.628 523.998 313.628Z" fill="#9BB9E7"/>
<path d="M558.204 313.628C558.134 313.629 558.066 313.611 558.006 313.576C557.946 313.541 557.896 313.491 557.862 313.43C557.828 313.37 557.811 313.301 557.813 313.232C557.815 313.162 557.835 313.095 557.872 313.036C560.343 309.033 562.737 305.983 565.185 303.72C563.045 295.429 558.988 287.755 553.343 281.317C553.274 281.24 553.24 281.139 553.246 281.036C553.25 280.985 553.263 280.936 553.285 280.89C553.308 280.844 553.339 280.803 553.377 280.769C553.415 280.736 553.46 280.71 553.508 280.693C553.556 280.677 553.608 280.67 553.658 280.673C553.761 280.68 553.857 280.727 553.925 280.804C559.704 287.395 563.84 295.259 565.997 303.755C566.014 303.823 566.012 303.895 565.992 303.962C565.972 304.029 565.933 304.09 565.881 304.137C563.427 306.367 561.023 309.409 558.535 313.444C558.5 313.5 558.451 313.546 558.393 313.579C558.335 313.611 558.27 313.628 558.204 313.628Z" fill="#9BB9E7"/>
<path d="M155.15 218.693C153.125 220.912 152.218 223.935 151.774 226.905C151.33 229.876 151.288 232.904 150.685 235.847C149.63 241.004 146.926 245.645 144.82 250.469C142.714 255.295 141.177 260.72 142.609 265.785C143.442 268.732 145.265 271.581 144.79 274.605C144.062 279.24 138.553 281.408 136.209 285.472C133.65 289.912 135.54 295.872 139.273 299.381C143.006 302.891 148.126 304.464 153.114 305.637C161.226 307.548 169.578 308.697 177.896 308.179C186.213 307.66 194.52 305.416 201.548 300.936C203.614 299.617 205.601 298.073 206.944 296.021C208.286 293.969 208.907 291.332 208.106 289.015C206.675 284.88 201.253 282.717 200.821 278.363C200.508 275.209 203.002 272.58 204.445 269.757C206.586 265.568 206.446 260.624 206.218 255.925C205.818 247.671 205.282 239.304 202.6 231.488C199.918 223.672 194.802 216.352 187.36 212.763C181.896 210.128 175.081 209.9 169.588 212.58C167.864 213.356 166.256 214.576 165.008 215.989C162.29 215.491 157.337 216.299 155.15 218.693Z" fill="#2D2D3D"/>
<path d="M166.626 277.405C166.915 270.188 167.146 262.656 164.126 256.096C162.585 252.747 160.245 249.781 159.007 246.309C157.098 240.955 158.018 235.033 159.309 229.496C159.927 226.844 160.721 224.049 162.754 222.237C165.162 220.091 168.685 219.861 171.91 219.908C179.889 220.023 188.243 221.355 195.941 223.457C197.722 232.816 199.785 240.04 198.147 249.424C197.491 253.18 196.161 257.04 193.247 259.499C190.962 261.427 187.959 262.279 185.489 263.963C181.67 266.568 179.47 273.445 179.321 278.233C179.321 278.233 197.557 284.821 186.577 299.293C175.598 313.767 156.941 304.949 156.941 298.295C156.941 291.641 152.83 282.809 166.626 277.405Z" fill="#EFC07D"/>
<path d="M189.843 240.628C189.843 241.929 190.458 242.985 191.217 242.985C191.974 242.985 192.589 241.929 192.589 240.628C192.589 239.327 191.974 238.272 191.217 238.272C190.458 238.272 189.843 239.327 189.843 240.628Z" fill="#2D2D3D"/>
<path d="M190.401 240.159C190.401 240.545 190.584 240.859 190.809 240.859C191.033 240.859 191.216 240.545 191.216 240.159C191.216 239.772 191.033 239.459 190.809 239.459C190.584 239.459 190.401 239.772 190.401 240.159Z" fill="white"/>
<path d="M181.133 240.628C181.133 241.929 181.747 242.985 182.506 242.985C183.263 242.985 183.879 241.929 183.879 240.628C183.879 239.327 183.263 238.272 182.506 238.272C181.747 238.272 181.133 239.327 181.133 240.628Z" fill="#2D2D3D"/>
<path d="M181.69 240.159C181.69 240.545 181.873 240.859 182.098 240.859C182.323 240.859 182.505 240.545 182.505 240.159C182.505 239.772 182.323 239.459 182.098 239.459C181.873 239.459 181.69 239.772 181.69 240.159Z" fill="white"/>
<path d="M188.674 247.836C188.599 247.836 188.526 247.813 188.465 247.77C188.404 247.727 188.358 247.666 188.332 247.596C188.307 247.526 188.304 247.449 188.324 247.377C188.344 247.305 188.386 247.241 188.443 247.193C188.774 246.92 188.994 246.627 189.099 246.319C189.213 245.988 189.177 245.633 189.007 245.393C188.842 245.161 188.522 245.048 188.289 245.143C188.245 245.161 188.197 245.17 188.15 245.17C188.102 245.17 188.055 245.16 188.011 245.142C187.967 245.123 187.927 245.096 187.893 245.062C187.86 245.028 187.833 244.988 187.815 244.944C187.78 244.855 187.78 244.755 187.818 244.667C187.855 244.578 187.925 244.508 188.014 244.471C188.558 244.248 189.238 244.467 189.599 244.975C189.906 245.408 189.975 245.997 189.786 246.553C189.637 246.989 189.341 247.392 188.905 247.753C188.84 247.807 188.758 247.837 188.674 247.836Z" fill="#C68E45"/>
<path d="M183.005 235.933C182.471 235.224 181.515 234.779 180.587 234.841C180.107 234.879 179.643 235.032 179.234 235.288C178.826 235.543 178.485 235.894 178.241 236.309C178.218 236.351 178.186 236.388 178.149 236.417C178.112 236.447 178.069 236.468 178.023 236.481C177.977 236.494 177.929 236.498 177.882 236.492C177.835 236.487 177.789 236.472 177.747 236.448C177.667 236.402 177.608 236.328 177.58 236.24C177.552 236.152 177.559 236.057 177.598 235.973C177.873 235.416 178.28 234.935 178.782 234.569C179.285 234.204 179.869 233.966 180.483 233.876C181.12 233.793 181.766 233.867 182.368 234.089C182.969 234.312 183.508 234.678 183.937 235.155L183.943 235.161C183.997 235.221 184.038 235.29 184.064 235.366C184.091 235.441 184.102 235.521 184.098 235.6C184.094 235.68 184.074 235.758 184.039 235.83C184.005 235.902 183.956 235.967 183.897 236.02C183.837 236.073 183.768 236.114 183.693 236.141C183.617 236.168 183.537 236.179 183.458 236.175C183.378 236.17 183.3 236.15 183.228 236.116C183.156 236.081 183.091 236.033 183.038 235.973C183.026 235.961 183.015 235.947 183.005 235.933Z" fill="#2D2D3D"/>
<path d="M188.586 235.189C189.295 234.256 190.506 233.669 191.701 233.883C192.887 234.104 193.765 234.989 194.171 235.992C194.189 236.036 194.199 236.083 194.198 236.131C194.198 236.179 194.189 236.226 194.17 236.27C194.152 236.314 194.125 236.354 194.091 236.387C194.057 236.421 194.017 236.447 193.973 236.465C193.888 236.499 193.793 236.499 193.707 236.467C193.622 236.434 193.551 236.371 193.51 236.289C193.119 235.505 192.353 234.911 191.565 234.844C190.782 234.768 189.994 235.231 189.574 235.896C189.53 235.965 189.473 236.024 189.405 236.07C189.338 236.116 189.262 236.148 189.182 236.164C189.102 236.18 189.02 236.179 188.94 236.163C188.86 236.146 188.784 236.114 188.717 236.068C188.65 236.021 188.593 235.962 188.549 235.893C188.506 235.824 188.476 235.747 188.463 235.667C188.449 235.586 188.452 235.504 188.472 235.425C188.491 235.346 188.526 235.271 188.574 235.205L188.586 235.189Z" fill="#2D2D3D"/>
<path d="M190.801 251.028C190.649 251.747 188.199 252.913 185.601 252.361C183.002 251.808 181.239 249.748 181.391 249.029C181.545 248.309 183.555 249.205 186.154 249.757C188.753 250.309 190.954 250.309 190.801 251.028Z" fill="white"/>
<path d="M162.394 245.433C162.394 245.433 167.886 244.547 168.803 226.248C168.803 226.248 184.505 234.565 184.099 228.133C184.099 228.133 199.82 236.007 198.745 231.016C197.667 226.025 196.447 221.48 196.447 221.48C196.447 221.48 172.589 212.56 162.394 219.904C152.199 227.245 158.506 246.668 158.506 246.668L162.394 245.433Z" fill="#2D2D3D"/>
<path d="M155.925 251.468C159.017 254.56 163.109 255.483 165.063 253.528C167.019 251.573 166.097 247.481 163.003 244.388C159.911 241.296 155.819 240.373 153.865 242.329C151.91 244.283 152.831 248.375 155.925 251.468Z" fill="#EFC07D"/>
<path d="M159.018 251.164C158.953 251.164 158.889 251.145 158.833 251.112C158.777 251.078 158.731 251.029 158.7 250.972C158.669 250.914 158.655 250.849 158.658 250.784C158.661 250.718 158.681 250.655 158.717 250.6C159.296 249.718 160.109 249.013 161.064 248.564C159.139 247.556 157.582 245.965 156.614 244.02C156.572 243.934 156.566 243.834 156.596 243.743C156.627 243.651 156.693 243.576 156.78 243.533C156.961 243.447 157.177 243.52 157.266 243.699C158.293 245.767 160.034 247.394 162.168 248.279C162.24 248.307 162.301 248.358 162.342 248.424C162.383 248.489 162.402 248.566 162.396 248.644C162.39 248.721 162.359 248.794 162.308 248.853C162.257 248.911 162.189 248.951 162.113 248.968C161.032 249.22 160.014 249.961 159.321 251.001C159.288 251.052 159.243 251.093 159.19 251.121C159.138 251.15 159.078 251.164 159.018 251.164Z" fill="#C68E45"/>
<path d="M201.573 376.148L196.534 536.895L183.456 535.149L173.261 396.202L167.834 396.674L154.932 535.239L141.844 536.983L142.941 371.729L201.573 376.148Z" fill="#EFC07D"/>
<path d="M215.249 550.997L195.786 550.271L190.045 542.03L188.826 550.487L184.982 550.426L183.454 535.193L191.117 534.867L193.993 535.285L196.542 536.937C196.542 537.045 196.098 540.597 203.967 542.91C204.214 542.971 204.461 543.033 204.722 543.094C205.139 543.189 205.555 543.297 205.942 543.418C213.458 545.657 215.249 550.997 215.249 550.997Z" fill="#EFC07D"/>
<path d="M205.942 543.374C205.71 545.227 199.985 545.381 196.234 543.05C195.554 542.63 195.026 542.113 194.615 541.545C192.242 538.267 188.858 535.865 184.846 535.333L183.454 535.149L184.982 550.382L188.826 550.443L190.045 541.986L195.786 550.227L215.249 550.953C215.249 550.953 213.458 545.613 205.942 543.374Z" fill="#2D2D3D"/>
<path d="M123.137 551.09L142.599 550.363L148.341 542.122L149.559 550.579L153.403 550.518L154.931 535.285L147.258 535.834L145.101 536.287L141.843 536.985C141.843 537.093 141.978 540.791 134.419 543.002C134.168 543.065 133.916 543.127 133.663 543.187C133.252 543.278 132.845 543.386 132.443 543.511C124.927 545.749 123.137 551.09 123.137 551.09Z" fill="#EFC07D"/>
<path d="M132.443 543.467C132.675 545.319 138.401 545.473 142.151 543.143C142.831 542.722 143.359 542.205 143.77 541.638C146.143 538.359 149.527 535.957 153.539 535.425L154.931 535.241L153.403 550.474L149.559 550.535L148.341 542.078L142.599 550.319L123.137 551.045C123.137 551.045 124.927 545.705 132.443 543.467Z" fill="#2D2D3D"/>
<path d="M141.173 357.258L136.295 462.74C136.295 462.74 168.347 474.842 207.189 461.584L204.273 357.334C204.273 357.334 172.209 365.177 141.173 357.258Z" fill="#4C606C"/>
<path d="M179.321 278.232C179.321 278.232 189.79 278.779 196.631 285.205C203.474 291.633 201.571 359.621 201.571 359.621C201.571 359.621 163.114 365.012 141.173 355.681C141.173 355.681 144.004 288.933 149.194 284.165C154.385 279.396 166.626 277.404 166.626 277.404C167.741 279.731 172.959 303.367 175.783 303.431C178.607 303.495 178.225 280.041 179.321 278.232Z" fill="#7C98F7"/>
<path d="M165.043 277.704C165.043 277.704 157.298 285.232 157.298 326.461C157.298 367.69 157.107 429.47 157.107 429.47C149.014 430.584 140.931 429.724 132.865 426.108C132.865 416.926 132.823 293.485 151.035 281.815C154.035 279.892 156.825 278.995 165.043 277.704Z" fill="#D4E3FF"/>
<path d="M87.845 302.235C88.517 299.151 86.9503 296.173 84.073 293.256C84.073 293.256 70.6957 282.612 69.017 283.469C66.7104 284.649 76.5037 292.884 76.5037 292.884C76.5037 292.884 64.2011 289.035 63.4891 291.003C62.7811 292.963 74.6077 296.228 74.6077 296.228C74.6077 296.228 64.6024 294.825 64.5051 296.48C64.4077 298.135 74.6624 300.456 74.6624 300.456C74.6624 300.456 65.3984 299.801 65.3411 301.255C65.2664 303.135 82.2503 307.355 82.2503 307.355L87.845 302.235Z" fill="#FAAE8D"/>
<mask id="mask2_723_140" style="mask-type:luminance" maskUnits="userSpaceOnUse" x="60" y="284" width="25" height="40">
<path d="M60.6318 284.704H84.9038V323.997H60.6318V284.704Z" fill="white"/>
</mask>
<g mask="url(#mask2_723_140)">
<g opacity="0.699997">
<path d="M61.341 308.38C58.9876 314.816 62.6876 322.003 69.5383 323.669C74.8129 324.973 80.4276 322.293 82.7463 317.389C83.8532 315.076 84.1617 312.461 83.6236 309.953C83.2709 308.258 82.5388 306.665 81.4823 305.293C79.7929 303.081 79.4489 300.112 80.4036 297.503L84.9036 287.037L78.5249 284.705L75.8263 295.683C74.8143 298.451 72.4343 300.375 69.573 301.053C67.1237 301.632 64.9301 302.994 63.325 304.932C62.466 305.956 61.7943 307.123 61.341 308.38Z" fill="#D4E3FF"/>
</g>
</g>
<mask id="mask3_723_140" style="mask-type:luminance" maskUnits="userSpaceOnUse" x="60" y="304" width="24" height="20">
<path d="M60.6318 304.931H83.8824V323.997H60.6318V304.931Z" fill="white"/>
</mask>
<g mask="url(#mask3_723_140)">
<g opacity="0.979996">
<path d="M61.341 308.38C58.9876 314.816 62.6876 322.003 69.5383 323.669C74.8129 324.973 80.4276 322.293 82.7463 317.389C83.8532 315.076 84.1617 312.461 83.6236 309.953C82.8183 310.448 82.8023 312.02 81.6783 312.085C80.9343 312.141 80.4076 311.243 79.6636 311.168C78.9236 311.079 78.2969 311.803 77.5556 311.811C76.5836 311.816 75.8689 310.668 74.9036 310.792C74.5609 310.831 74.2663 311.052 73.9236 311.091C73.1343 311.18 72.5756 310.417 71.9903 309.908C71.5871 309.558 71.1134 309.299 70.6013 309.149C70.0891 308.998 69.5506 308.96 69.0223 309.036C68.3596 309.139 67.7116 309.428 67.061 309.321C66.181 309.164 65.5903 308.356 65.1023 307.619C64.5076 306.728 63.9196 305.823 63.325 304.932C62.466 305.956 61.7943 307.123 61.341 308.38Z" fill="#00CD40"/>
</g>
</g>
<path d="M88.1786 298.285C88.1786 298.285 83.8266 287.012 80.9239 286.96C78.0213 286.909 84.3972 299.524 84.3972 299.524L88.1786 298.285Z" fill="#FAAE8D"/>
<path d="M149.213 283.42C137.234 296.104 133.693 303.365 119.268 322.569C107.259 313.435 99.2559 307.269 89.2706 295.683L79.1626 308.985C79.1626 308.985 107.891 351.794 123.696 344.494C139.502 337.196 146.282 320.451 146.282 320.451L149.213 283.42Z" fill="#D4E3FF"/>
<path d="M153.814 329.481C153.694 329.481 153.574 329.424 153.498 329.317C150.469 325.015 147.014 321.009 143.509 317.731C143.451 317.677 143.412 317.606 143.395 317.529C143.379 317.452 143.386 317.371 143.417 317.299C147.786 306.867 152.638 296.645 157.96 286.665C158.008 286.575 158.09 286.507 158.188 286.478C158.285 286.448 158.391 286.458 158.482 286.506C158.572 286.554 158.639 286.636 158.669 286.734C158.699 286.832 158.689 286.938 158.641 287.028C153.373 296.908 148.565 307.026 144.232 317.351C147.708 320.629 151.125 324.608 154.13 328.873C154.189 328.957 154.212 329.061 154.195 329.162C154.177 329.263 154.12 329.353 154.037 329.412C153.971 329.457 153.894 329.481 153.814 329.481Z" fill="#9BB9E7"/>
<path d="M136.986 330.673L136.935 330.67C136.822 330.657 136.719 330.599 136.649 330.509C136.579 330.42 136.547 330.306 136.561 330.193C137.641 321.185 139.169 312.237 141.139 303.381C141.151 303.326 141.174 303.274 141.207 303.228C141.239 303.182 141.28 303.142 141.328 303.112C141.375 303.082 141.428 303.061 141.484 303.051C141.539 303.041 141.596 303.042 141.651 303.055C141.706 303.067 141.759 303.09 141.805 303.122C141.851 303.154 141.89 303.195 141.921 303.243C141.951 303.29 141.972 303.343 141.982 303.399C141.991 303.455 141.99 303.511 141.978 303.567C140.014 312.395 138.489 321.315 137.411 330.294C137.399 330.399 137.349 330.495 137.271 330.565C137.192 330.635 137.091 330.673 136.986 330.673Z" fill="#9BB9E7"/>
<path d="M179.803 278.26C179.803 278.26 187.167 285.787 187.167 327.016C187.167 368.245 188.343 429.47 188.343 429.47C196.437 430.584 204.519 429.725 212.584 426.109C212.584 417.533 211.4 297.919 196.425 284.749C191.294 280.237 188.817 279.013 179.803 278.26Z" fill="#D4E3FF"/>
<mask id="mask4_723_140" style="mask-type:luminance" maskUnits="userSpaceOnUse" x="253" y="235" width="24" height="41">
<path d="M253.626 235.715H276.874V275.472H253.626V235.715Z" fill="white"/>
</mask>
<g mask="url(#mask4_723_140)">
<g opacity="0.699997">
<path d="M253.626 263.851C253.626 270.704 259.569 276.183 266.575 275.396C271.978 274.809 276.33 270.364 276.823 264.961C277.068 262.409 276.461 259.848 275.095 257.677C274.182 256.206 272.947 254.96 271.483 254.035C269.138 252.537 267.794 249.868 267.794 247.089L268.427 235.715H261.637L262.871 246.951C262.871 249.899 261.297 252.521 258.843 254.143C256.741 255.527 255.148 257.559 254.305 259.931C253.85 261.187 253.621 262.514 253.626 263.851Z" fill="#D4E3FF"/>
</g>
</g>
<path d="M253.626 263.851C253.626 270.704 259.569 276.183 266.575 275.396C271.978 274.809 276.33 270.364 276.823 264.961C277.068 262.409 276.461 259.848 275.095 257.677C274.509 258.417 275.033 259.9 273.999 260.348C273.321 260.656 272.518 259.992 271.793 260.177C271.067 260.348 270.727 261.241 270.033 261.505C269.122 261.844 268.057 261.011 267.193 261.459C266.885 261.612 266.683 261.921 266.375 262.076C265.665 262.431 264.878 261.907 264.153 261.628C263.654 261.438 263.12 261.357 262.588 261.392C262.055 261.426 261.536 261.575 261.066 261.828C260.479 262.153 259.97 262.647 259.321 262.769C258.442 262.924 257.609 262.369 256.898 261.844C256.034 261.212 255.17 260.563 254.305 259.931C253.85 261.187 253.621 262.514 253.626 263.851Z" fill="#E8724A"/>
<path d="M263.005 286.063C263.005 286.063 270.598 283.093 272.339 281.225C274.083 279.356 280.103 271.141 278.727 269.401C277.351 267.661 271.517 276.259 271.517 276.259C271.517 276.259 276.697 263.904 275.169 262.729C273.641 261.556 270.098 272.125 270.098 272.125C270.098 272.125 271.565 260.605 270.215 260.447C268.866 260.288 267.25 270.42 267.25 270.42C267.25 270.42 266.925 258.913 264.933 259.012C262.941 259.111 264.235 269.132 264.235 269.132C264.235 269.132 256.255 271.452 254.558 280.688L263.005 286.063Z" fill="#FAAE8D"/>
<path d="M191.343 280.943C206.234 290.032 213.11 296.96 232.076 311.696C241.262 299.725 247.362 291.673 253.951 277.869L267.2 288.048C267.2 288.048 250.735 336.902 233.566 334.014C216.398 331.126 205.455 316.753 205.455 316.753L191.343 280.943Z" fill="#D4E3FF"/>
<path d="M191.496 329.481C191.416 329.481 191.338 329.457 191.273 329.412C191.19 329.352 191.133 329.262 191.116 329.162C191.098 329.061 191.121 328.957 191.18 328.873C194.184 324.611 197.602 320.631 201.078 317.351C196.745 307.026 191.938 296.908 186.67 287.028C186.646 286.983 186.632 286.934 186.627 286.884C186.622 286.833 186.627 286.782 186.642 286.734C186.657 286.685 186.681 286.64 186.713 286.601C186.745 286.562 186.785 286.53 186.83 286.506C186.874 286.482 186.923 286.467 186.974 286.462C187.024 286.458 187.075 286.463 187.124 286.478C187.172 286.492 187.217 286.516 187.256 286.549C187.295 286.581 187.328 286.621 187.352 286.665C192.672 296.645 197.525 306.867 201.894 317.299C201.925 317.371 201.932 317.452 201.916 317.529C201.9 317.606 201.86 317.677 201.802 317.731C198.296 321.009 194.841 325.016 191.812 329.317C191.776 329.368 191.728 329.409 191.673 329.437C191.618 329.466 191.557 329.481 191.496 329.481Z" fill="#9BB9E7"/>
<path d="M205.474 315.172C205.381 315.172 205.29 315.142 205.216 315.086C205.141 315.03 205.087 314.952 205.061 314.863C203.88 310.805 202.854 306.705 201.983 302.571C201.96 302.459 201.982 302.343 202.044 302.247C202.106 302.152 202.204 302.085 202.315 302.061C202.371 302.049 202.428 302.047 202.484 302.057C202.54 302.067 202.593 302.089 202.641 302.12C202.688 302.151 202.729 302.191 202.761 302.238C202.792 302.286 202.814 302.339 202.825 302.395C203.689 306.508 204.711 310.587 205.887 314.623C205.905 314.687 205.908 314.754 205.895 314.819C205.883 314.884 205.856 314.946 205.816 314.999C205.776 315.052 205.724 315.095 205.665 315.125C205.606 315.155 205.54 315.171 205.474 315.172Z" fill="#9BB9E7"/>
<path d="M338.617 396.293H56.3652V389.534H338.617V396.293Z" fill="#4C606C"/>
<path d="M338.617 540.269H56.3652V533.509H338.617V540.269Z" fill="#7C98F7"/>
<path d="M144.09 561.997H56.3638V396.293H144.09V561.997Z" fill="#7C98F7"/>
<path d="M137.67 446.896H61.7305V402.352H137.67V446.896Z" fill="#4F78DC"/>
<path d="M118.944 410.904H80.457V407.34H118.944V410.904Z" fill="#D4E3FF"/>
<path d="M137.67 497.497H61.7305V452.953H137.67V497.497Z" fill="#4F78DC"/>
<path d="M118.944 461.506H80.457V457.942H118.944V461.506Z" fill="#D4E3FF"/>
<path d="M137.67 548.101H61.7305V503.557H137.67V548.101Z" fill="#4F78DC"/>
<path d="M118.944 512.107H80.457V508.543H118.944V512.107Z" fill="#D4E3FF"/>
<path d="M335.235 420.526H144.09V396.293H335.235V420.526Z" fill="#4F78DC"/>
<path d="M331.856 389.534H338.616V561.998H331.856V389.534ZM222.649 389.534H213.978V386.197H222.649V389.534ZM252.159 389.534H243.487V386.197H252.159V389.534Z" fill="#4C606C"/>
<path d="M252.159 384.77H213.978V386.732H252.159V384.77Z" fill="#4C606C"/>
<path d="M234.29 386.732H231.846V316.471H234.29V386.732Z" fill="#4C606C"/>
<mask id="mask5_723_140" style="mask-type:luminance" maskUnits="userSpaceOnUse" x="243" y="347" width="20" height="24">
<path d="M243.618 347.082H262.734V370.816H243.618V347.082Z" fill="white"/>
</mask>
<g mask="url(#mask5_723_140)">
<g opacity="0.699997">
<path d="M262.733 368.981C256.89 371.466 250.502 371.39 243.618 368.981L247.394 363.06L249.01 360.526C250.475 358.225 251.137 355.503 250.891 352.786L250.362 347.084H254.745L254.59 352.632C254.514 355.153 255.225 357.635 256.625 359.733L258.319 362.297L262.733 368.981Z" fill="#D4E3FF"/>
</g>
</g>
<mask id="mask6_723_140" style="mask-type:luminance" maskUnits="userSpaceOnUse" x="243" y="362" width="20" height="9">
<path d="M243.618 362.297H262.734V370.816H243.618V362.297Z" fill="white"/>
</mask>
<g mask="url(#mask6_723_140)">
<g opacity="0.979996">
<path d="M262.733 368.981C256.89 371.466 250.502 371.39 243.618 368.981L247.394 363.06C247.487 363.232 247.534 363.401 247.611 363.572C247.721 363.837 247.875 364.101 248.139 364.209C248.389 364.302 248.653 364.24 248.917 364.209C249.166 364.178 249.461 364.194 249.631 364.381C249.725 364.489 249.771 364.629 249.881 364.69C250.082 364.816 250.331 364.614 250.518 364.457C251.233 363.837 252.351 363.742 253.175 364.225C253.393 364.349 253.594 364.52 253.843 364.629C254.077 364.737 254.371 364.769 254.59 364.629C254.714 364.552 254.807 364.412 254.931 364.334C255.242 364.117 255.662 364.272 256.019 364.397C256.377 364.536 256.843 364.598 257.075 364.302C257.262 364.069 257.215 363.697 257.433 363.509C257.542 363.417 257.682 363.386 257.806 363.324C258.086 363.169 258.257 362.857 258.303 362.546C258.319 362.469 258.319 362.376 258.319 362.297L262.733 368.981Z" fill="#00CD40"/>
</g>
</g>
<path d="M232.686 353.532H256.102V355.492H232.686V353.532Z" fill="#4C606C"/>
<path d="M229.509 354.51C229.509 355.741 231.026 356.738 232.898 356.738C234.77 356.738 236.287 355.741 236.287 354.51C236.287 353.281 234.77 352.284 232.898 352.284C231.026 352.284 229.509 353.281 229.509 354.51Z" fill="#4C606C"/>
<mask id="mask7_723_140" style="mask-type:luminance" maskUnits="userSpaceOnUse" x="204" y="329" width="16" height="26">
<path d="M204.702 329.293H219.709V354.957H204.702V329.293Z" fill="white"/>
</mask>
<g mask="url(#mask7_723_140)">
<g opacity="0.699997">
<path d="M219.709 347.456C219.709 348.513 219.485 349.559 219.053 350.524C218.62 351.489 217.988 352.351 217.199 353.055C216.41 353.759 215.481 354.287 214.473 354.607C213.465 354.926 212.4 355.029 211.35 354.908C207.863 354.529 205.054 351.66 204.735 348.173C204.576 346.525 204.968 344.871 205.85 343.47C206.44 342.521 207.237 341.717 208.182 341.12C209.697 340.152 210.563 338.429 210.563 336.636L210.154 329.293H214.538L213.741 336.545C213.741 338.449 214.758 340.144 216.342 341.189C217.699 342.082 218.727 343.394 219.27 344.925C219.564 345.736 219.712 346.593 219.709 347.456Z" fill="#D4E3FF"/>
</g>
</g>
<path d="M219.709 347.456C219.709 348.513 219.485 349.559 219.053 350.524C218.62 351.489 217.988 352.351 217.199 353.055C216.41 353.759 215.481 354.287 214.473 354.607C213.465 354.926 212.4 355.029 211.35 354.908C207.863 354.529 205.054 351.66 204.735 348.173C204.576 346.525 204.968 344.871 205.85 343.47C206.23 343.949 205.89 344.905 206.558 345.194C206.997 345.393 207.514 344.965 207.983 345.085C208.451 345.194 208.67 345.772 209.119 345.941C209.706 346.16 210.394 345.622 210.951 345.912C211.151 346.01 211.281 346.209 211.479 346.31C211.938 346.54 212.446 346.201 212.914 346.021C213.236 345.898 213.581 345.846 213.925 345.869C214.269 345.891 214.604 345.987 214.907 346.15C215.286 346.36 215.614 346.678 216.033 346.758C216.601 346.858 217.138 346.498 217.597 346.16C218.154 345.752 218.713 345.333 219.27 344.925C219.564 345.736 219.712 346.593 219.709 347.456Z" fill="#E8724A"/>
<path d="M233.281 335.737H209.865V337.697H233.281V335.737Z" fill="#4C606C"/>
<path d="M236.457 336.716C236.457 337.946 234.94 338.944 233.068 338.944C231.196 338.944 229.678 337.946 229.678 336.716C229.678 335.486 231.196 334.489 233.068 334.489C234.94 334.489 236.457 335.486 236.457 336.716Z" fill="#4C606C"/>
<mask id="mask8_723_140" style="mask-type:luminance" maskUnits="userSpaceOnUse" x="278" y="346" width="16" height="27">
<path d="M278.606 346.417H293.613V372.08H278.606V346.417Z" fill="white"/>
</mask>
<g mask="url(#mask8_723_140)">
<g opacity="0.699997">
<path d="M293.612 364.58C293.612 365.637 293.388 366.682 292.956 367.647C292.523 368.612 291.892 369.475 291.103 370.178C290.313 370.882 289.384 371.411 288.376 371.73C287.368 372.05 286.304 372.152 285.254 372.032C281.767 371.653 278.956 368.784 278.639 365.297C278.48 363.649 278.872 361.995 279.754 360.594C280.343 359.644 281.141 358.84 282.086 358.242C283.6 357.276 284.467 355.553 284.467 353.76L284.058 346.417H288.442L287.644 353.669C287.644 355.573 288.662 357.268 290.246 358.313C291.602 359.207 292.63 360.518 293.174 362.049C293.468 362.86 293.616 363.717 293.612 364.58Z" fill="#D4E3FF"/>
</g>
</g>
<path d="M293.612 364.58C293.612 365.637 293.388 366.682 292.956 367.647C292.523 368.612 291.892 369.475 291.103 370.178C290.313 370.882 289.384 371.411 288.376 371.73C287.368 372.05 286.304 372.152 285.254 372.032C281.767 371.653 278.956 368.784 278.639 365.297C278.48 363.649 278.872 361.995 279.754 360.594C280.132 361.072 279.794 362.029 280.462 362.318C280.9 362.517 281.418 362.089 281.886 362.209C282.355 362.318 282.574 362.896 283.022 363.065C283.61 363.284 284.298 362.746 284.855 363.036C285.055 363.134 285.184 363.333 285.383 363.434C285.842 363.664 286.35 363.325 286.818 363.145C287.466 362.896 288.212 362.945 288.81 363.274C289.19 363.484 289.518 363.802 289.936 363.882C290.503 363.982 291.042 363.622 291.5 363.284C292.058 362.876 292.616 362.457 293.174 362.049C293.468 362.86 293.616 363.717 293.612 364.58Z" fill="#E8724A"/>
<path d="M299.543 390.394L294.056 369.696H277.818L272.68 390.372L269.663 389.622L275.388 366.588H296.448L302.548 389.598L299.543 390.394Z" fill="#4C606C"/>
<path d="M286.091 381.576C284.852 381.576 283.73 380.621 283.102 379.553C282.475 378.486 282.458 377.038 283.21 376.054C283.126 376.502 283.196 376.824 283.355 377.25C283.242 376.648 283.732 375.946 284.184 375.532C284.636 375.116 285.183 374.805 285.595 374.35C286.008 373.897 286.271 373.218 286.004 372.666C286.254 372.779 286.471 372.952 286.637 373.169C286.802 373.387 286.911 373.643 286.952 373.913C287.048 374.469 286.914 375.048 286.662 375.553C286.838 375.508 286.998 375.415 287.124 375.285C287.251 375.155 287.338 374.992 287.378 374.814C287.65 375.509 287.635 376.249 287.259 376.894C287.716 376.686 288.063 376.332 288.2 375.849C288.4 376.308 288.489 376.807 288.46 377.306C288.432 377.806 288.287 378.292 288.038 378.725C288.285 378.665 288.508 378.532 288.679 378.344C288.849 378.155 288.959 377.92 288.994 377.668C289.056 378.641 289.039 379.614 288.508 380.432C287.979 381.249 287.17 381.576 286.091 381.576Z" fill="#E8724A"/>
<path d="M288.886 389.997H283.333V381.385H288.886V389.997Z" fill="#4C606C"/>
</g>
</svg>
