<svg width="667" height="667" fill="none" xmlns="http://www.w3.org/2000/svg"><mask id="a" style="mask-type:luminance" maskUnits="userSpaceOnUse" x="0" y="0" width="667" height="667"><path d="M0 0h666.667v666.667H0V0Z" fill="#fff"/></mask><g mask="url(#a)"><mask id="b" style="mask-type:luminance" maskUnits="userSpaceOnUse" x="10" y="116" width="645" height="437"><path d="M10.821 116.544h643.603v435.812H10.821V116.544Z" fill="#fff"/></mask><g mask="url(#b)"><path d="M352.527 550.619c-57.094 5.909-171.978-3.892-226.63-19.712-52.83-15.292-86.42-46.808-103.84-82.264-17.42-35.456-15.595-82.523 12.63-110.166 19.707-19.302 50.207-28.177 62.629-52.81 7.285-14.448 6.662-31.394 8.062-47.514 3.338-38.433 20.346-76.749 50.972-100.209 30.627-23.459 75.578-29.281 108.495-9.161 28.57 17.462 49.099 52.846 82.572 53.697 23.173.589 42.503-16.221 62.587-27.796 31.529-18.173 71.015-24.212 105.025-11.263 34.01 12.95 60.545 46.554 60.445 82.947-.045 16.815-5.208 34.728 2.313 49.768 3.699 7.397 10.059 13.056 16.276 18.512 16.63 14.596 33.596 29.456 44.984 48.427 21.004 34.986 19.694 80.953.927 117.189-18.765 36.239-53.265 62.924-91.574 76.984-38.31 14.059-142.263 11.025-195.873 13.371Z" fill="url(#c)" opacity=".22"/></g><mask id="d" style="mask-type:luminance" maskUnits="userSpaceOnUse" x="106" y="543" width="457" height="23"><path d="M106.367 543.943h456.629v21.465H106.367v-21.465Z" fill="#fff"/></mask><g mask="url(#d)"><path d="M562.997 554.676c0 5.927-102.221 10.733-228.315 10.733-126.095 0-228.315-4.806-228.315-10.733 0-5.928 102.22-10.733 228.315-10.733 126.094 0 228.315 4.805 228.315 10.733Z" fill="url(#e)" opacity=".56"/></g><path d="M264.108 269.971c-.377-6.152.136-12.366 1.238-18.5a72.318 72.318 0 0 1 2.244-9.118c.954-3 2.129-5.946 3.498-8.826a59.633 59.633 0 0 1 4.959-8.248c1.917-2.612 4.132-5.021 6.54-7.256l1.893-1.58c.32-.26.628-.536.96-.78l1.011-.71c.681-.466 1.341-.967 2.044-1.4l2.139-1.258c.702-.442 1.454-.782 2.198-1.145.748-.352 1.484-.739 2.247-1.06l2.312-.896 1.161-.436 1.187-.349 2.376-.694c.796-.22 1.604-.354 2.408-.534.807-.162 1.607-.354 2.421-.487.818-.112 1.638-.265 2.456-.341 3.28-.378 6.56-.435 9.796-.303 6.483.261 12.779 1.372 18.912 2.741 6.14 1.378 12.112 3.116 18.028 4.852 5.908 1.768 11.736 3.606 17.563 5.278 5.815 1.702 11.624 3.276 17.448 4.481 5.813 1.241 11.655 2.096 17.457 2.363 5.802.281 11.566-.127 17.128-1.36a52.34 52.34 0 0 0 15.808-6.378 63.215 63.215 0 0 0 7.07-5.017l1.666-1.419c.547-.484 1.074-.988 1.614-1.481l.402-.372.167-.153.164-.166c.229-.238.472-.49.708-.753.479-.521.948-1.071 1.411-1.629 1.853-2.238 3.544-4.666 5.118-7.171 1.583-2.503 2.994-5.125 4.286-7.815 2.586-5.378 4.581-11.076 6.033-16.95 1.431-5.883 2.239-11.948 2.585-18.094.338 3.059.499 6.144.516 9.244a92.184 92.184 0 0 1-.565 9.303c-.717 6.197-2.197 12.34-4.361 18.269-2.192 5.923-5.043 11.628-8.754 16.912a49.312 49.312 0 0 1-1.456 1.968c-.253.327-.514.654-.796.986l-.225.258-.237.255-.415.437c-.555.582-1.101 1.171-1.667 1.744l-1.732 1.682c-2.357 2.198-4.87 4.264-7.568 6.098a59.321 59.321 0 0 1-8.525 4.862 59.238 59.238 0 0 1-9.271 3.329c-6.349 1.729-12.928 2.325-19.377 2.219-6.461-.116-12.811-.987-19.012-2.18-6.201-1.232-12.252-2.839-18.213-4.555-5.952-1.755-11.82-3.617-17.644-5.432-5.816-1.841-11.614-3.577-17.403-5.067-11.553-2.917-23.309-4.808-34.343-1.924-5.532 1.294-10.664 3.847-15.226 7.27a48.747 48.747 0 0 0-6.25 5.929 56.992 56.992 0 0 0-5.164 7.091c-1.53 2.525-2.884 5.18-4.097 7.916-1.221 2.737-2.221 5.581-3.147 8.461a89.792 89.792 0 0 0-2.278 8.823 83.142 83.142 0 0 0-1.446 9.066Z" fill="#F69A2B"/><path d="M444.078 127.916a82.877 82.877 0 0 0-9.169-.481 89.85 89.85 0 0 0-9.103.385c-3.01.303-6.001.687-8.93 1.309-2.932.615-5.81 1.384-8.6 2.352a56.804 56.804 0 0 0-8.011 3.571 48.532 48.532 0 0 0-7.105 4.872c-4.3 3.747-7.87 8.232-10.291 13.372-5.125 10.187-5.732 22.08-5.293 33.987.248 5.973.734 12.005 1.318 18.077.558 6.076 1.156 12.201 1.627 18.389.432 6.19.74 12.443.649 18.763-.128 6.315-.604 12.705-1.841 19.049-1.241 6.33-3.199 12.638-6.217 18.486a59.02 59.02 0 0 1-5.192 8.37 59.38 59.38 0 0 1-6.536 7.322c-2.358 2.254-4.902 4.281-7.546 6.126l-2.006 1.343c-.676.433-1.368.844-2.052 1.265l-.514.314-.3.18-.301.165c-.384.207-.756.395-1.128.573-.744.363-1.485.694-2.229 1.014-5.942 2.525-12.119 4.118-18.368 5.026-6.251.878-12.567 1.042-18.778.447a91.939 91.939 0 0 1-9.214-1.388 89.683 89.683 0 0 1-8.932-2.437c6.081.945 12.181 1.421 18.233 1.25 6.049-.19 12.037-.952 17.837-2.358 2.9-.702 5.76-1.532 8.539-2.558 2.777-1.016 5.505-2.162 8.081-3.508.642-.334 1.279-.68 1.887-1.037.307-.177.605-.361.887-.536l.194-.125.186-.132.448-.316c.594-.424 1.197-.836 1.785-1.268l1.735-1.334a63.099 63.099 0 0 0 6.385-5.865 52.423 52.423 0 0 0 9.539-14.127c2.368-5.181 3.97-10.733 4.909-16.465.949-5.732 1.335-11.621 1.335-17.567.038-5.948-.286-11.956-.738-17.998-.417-6.047-.996-12.132-1.49-18.278-.462-6.146-.915-12.352-.98-18.644-.058-6.284.172-12.673 1.27-19.068.548-3.192 1.29-6.388 2.343-9.516.247-.785.567-1.554.848-2.33.3-.77.655-1.512.981-2.267.344-.748.646-1.511 1.026-2.243l1.176-2.18.588-1.086.67-1.044 1.359-2.075c.472-.677 1.004-1.317 1.505-1.975.511-.652 1-1.317 1.58-1.912l1.676-1.828c.571-.596 1.199-1.138 1.796-1.706l.907-.84c.308-.275.643-.518.963-.776l1.941-1.52c2.688-1.89 5.508-3.552 8.463-4.882a59.667 59.667 0 0 1 9.102-3.125 69.578 69.578 0 0 1 9.36-1.577 72.262 72.262 0 0 1 9.387-.29c6.227.203 12.412 1 18.349 2.655Z" fill="#F69A2B"/><path d="m471.741 170.024-42.934-42.98 1.096-1.094 42.933 42.98-1.095 1.094ZM468.289 186.267l-58.773-58.836 1.096-1.095 58.772 58.836-1.095 1.095ZM462.343 197.717l-63.339-62.272 1.085-1.104 63.338 62.272-1.084 1.104ZM455.416 210.971l-67.736-66.756 1.088-1.103 67.734 66.756-1.086 1.103ZM444.535 220.619l-66.847-65.624 1.086-1.105 66.845 65.624-1.084 1.105ZM433.083 229.025l-58.772-58.836 1.094-1.095 58.774 58.836-1.096 1.095ZM419.047 232.85l-46.388-44.35 1.071-1.12 46.387 44.352-1.07 1.118ZM309.853 311.484l-45.747-48.721 1.131-1.059 45.745 48.72-1.129 1.06ZM326.738 308.969l-58.876-61.666 1.12-1.07 58.875 61.667-1.119 1.069ZM340.619 304.384l-67.424-70.435 1.119-1.069 67.423 70.433-1.118 1.071ZM352.359 295.955l-68.966-73.226 1.128-1.061 68.965 73.225-1.127 1.062ZM362.165 285.844l-66.324-70.007 1.125-1.065 66.323 70.008-1.124 1.064ZM369.138 272.227l-58.046-59.554 1.108-1.08 58.046 59.552-1.108 1.082ZM373.126 258.218l-43.728-46.975 1.134-1.056 43.728 46.975-1.134 1.056ZM286.631 206.95a7.01 7.01 0 0 1 2.288 9.648 7.01 7.01 0 0 1-9.646 2.289 7.012 7.012 0 0 1 7.358-11.937ZM232.56 252.179a7.012 7.012 0 1 1-7.36 11.936 7.012 7.012 0 0 1 7.36-11.936ZM257.651 275.884a7.01 7.01 0 0 1 2.288 9.647 7.012 7.012 0 1 1-2.288-9.647ZM104.567 175.665a7.011 7.011 0 1 1 13.812 2.42 7.011 7.011 0 0 1-13.812-2.42ZM242.941 217.185a7.01 7.01 0 0 1 2.288 9.648 7.01 7.01 0 0 1-9.647 2.288 7.01 7.01 0 1 1 7.359-11.936ZM217.76 188.145a7.012 7.012 0 1 1-7.36 11.937 7.012 7.012 0 0 1 7.36-11.937ZM230.549 153.417a7.012 7.012 0 1 1-7.36 11.938 7.012 7.012 0 0 1 7.36-11.938ZM170.539 238.02a7.01 7.01 0 1 1-7.358 11.936 7.01 7.01 0 0 1-2.29-9.646 7.012 7.012 0 0 1 9.648-2.29ZM176.716 201.279a7.012 7.012 0 1 1-7.36 11.938 7.012 7.012 0 0 1 7.36-11.938ZM194.406 260.97a7.01 7.01 0 0 1 2.288 9.648 7.01 7.01 0 0 1-9.648 2.288 7.012 7.012 0 0 1 7.36-11.936ZM141.539 171.893a7.01 7.01 0 0 1 13.812 2.419 7.011 7.011 0 0 1-13.812-2.419Z" fill="#F69A2B"/><path d="M311.037 233.822a7.01 7.01 0 1 1-7.359 11.936 7.012 7.012 0 0 1 7.359-11.936ZM297.098 269.791a7.012 7.012 0 1 1-7.36 11.937 7.012 7.012 0 0 1 7.36-11.937ZM190.906 266.212l37.447-8.626 10.165-34.272-24.653-28.432-40.244 12.88-6.979 37.502 24.264 20.948Zm38.503-7.501-38.863 8.953-.254-.221-25.102-21.669 7.266-39.04 41.84-13.39 25.709 29.647-10.596 35.72Z" fill="#F69A2B"/><path d="m293.901 276.36-40.158 6.202-22.88-22.428.932-.952 22.404 21.96 38.738-5.982 13.649-35.226-23.867-26.279-39.657 9.02-.297-1.3 40.418-9.192 24.944 27.464-14.226 36.713ZM148.772 172.4l24.83 35.991-1.098.757-24.382-35.341-36.58 3.732-.136-1.328 37.366-3.811ZM216.106 191.448l-1.254-.449 11.39-31.839 1.255.451-11.391 31.837Z" fill="#F69A2B"/></g><path d="M574.368 187.955s-8.051 6.17-9.587 7.116a209.628 209.628 0 0 1-44.455 20.573c-20.077 6.568-41.16 10.103-60.609 18.345-35.044 14.85-62.815 44.776-77.732 79.79-14.917 35.013-15.68 82.341-8.2 119.658 15.244-19.885 39.184-30.934 62.755-39.437 23.569-8.501 48.216-15.447 68.668-29.92 24.542-17.371 40.966-44.351 50.829-72.755 9.859-28.404 13.729-58.478 17.544-88.305.485-3.796 2.375-15.065.788-15.065h-.001Z" fill="url(#f)"/><mask id="g" style="mask-type:luminance" maskUnits="userSpaceOnUse" x="0" y="0" width="667" height="667"><path d="M0 0h666.667v666.667H0V0Z" fill="#fff"/></mask><g mask="url(#g)" fill="#fff"><path d="M381.127 421.313c3.592-18.122 10.862-35.278 20.334-51.086 9.578-15.986 21.29-30.606 33.972-44.225 13.954-14.988 29.044-28.941 45.001-41.773 14.692-11.814 30.304-22.402 45.269-33.856 14.451-11.06 28.391-23.036 39.579-37.482a137.337 137.337 0 0 0 3.877-5.258c.574-.818-.768-1.591-1.336-.782-10.585 15.09-24.294 27.603-38.72 38.943-14.636 11.507-30.085 21.929-44.764 33.38a433.62 433.62 0 0 0-46.088 41.596c-12.854 13.393-24.828 27.737-34.849 43.389-9.901 15.464-17.865 32.302-22.303 50.17a141.606 141.606 0 0 0-1.464 6.572c-.193.973 1.298 1.388 1.492.412Z"/><path d="M402.836 367.931c6.557-8.169 14.368-15.244 22.916-21.28 8.542-6.03 17.752-11.062 27.205-15.506 4.956-2.33 9.976-4.548 15.077-6.539 5.69-2.221 11.479-4.167 17.268-6.104 10.868-3.637 21.807-7.273 31.983-12.616 9.059-4.757 17.609-10.887 24.013-18.951a59.097 59.097 0 0 0 2.271-3.056c.569-.818-.771-1.593-1.336-.78-5.897 8.499-14.171 15.004-23.125 20.036-9.876 5.551-20.595 9.304-31.3 12.899-5.788 1.943-11.592 3.848-17.312 5.984-5.242 1.957-10.388 4.156-15.478 6.476-9.488 4.324-18.758 9.188-27.42 15.012-8.578 5.766-16.552 12.485-23.334 20.305-.86.992-1.7 2.001-2.523 3.027-.617.768.471 1.869 1.095 1.093ZM419.372 344.314c.208-7.173 1.06-14.317 2.416-21.36a158.19 158.19 0 0 1 5.894-21.877c2.506-7.222 5.526-14.266 9.076-21.036 3.489-6.658 7.49-13.059 12.072-19.023 4.332-5.643 9.22-10.895 14.68-15.463a88.313 88.313 0 0 1 1.992-1.616c.33-.26.268-.82 0-1.093-.322-.328-.768-.257-1.095 0-5.632 4.428-10.668 9.581-15.16 15.157-4.737 5.882-8.896 12.216-12.527 18.836-3.725 6.79-6.905 13.879-9.573 21.147a158.87 158.87 0 0 0-6.333 21.997c-1.51 7.164-2.522 14.448-2.888 21.762-.043.857-.076 1.712-.1 2.569-.03.996 1.518.995 1.546 0ZM500.084 269.053c2.325-6.02 4.875-11.959 7.781-17.723 3.047-6.042 6.471-11.989 10.723-17.274 2.144-2.666 4.516-5.175 7.224-7.278.329-.256.268-.824 0-1.093-.327-.327-.763-.257-1.095 0-5.078 3.943-9.04 9.244-12.448 14.643-3.717 5.885-6.834 12.141-9.637 18.506a234.05 234.05 0 0 0-4.04 9.807c-.151.391.165.849.54.952.436.12.8-.149.952-.54Z"/></g><path d="M113.322 356.607c-17.464 2.434-34.081 8.938-51.277 12.841a175.031 175.031 0 0 1-40.667 4.321c-1.504-.017-9.917-.986-9.917-.986-1.143.674 5.048 7.941 7.025 10.454 15.516 19.73 31.183 39.612 50.423 55.732 19.238 16.119 42.571 28.406 67.597 30.324 20.855 1.6 41.487-3.992 62.015-8.005 20.529-4.015 42.415-6.363 61.86 1.347-10.641-29.938-31.476-63.511-57.172-82.198-21.531-15.656-47.996-24.886-74.52-24.886-5.132 0-10.265.345-15.367 1.056Z" fill="url(#h)"/><mask id="i" style="mask-type:luminance" maskUnits="userSpaceOnUse" x="0" y="0" width="667" height="667"><path d="M0 0h666.667v666.667H0V0Z" fill="#fff"/></mask><g mask="url(#i)"><path d="M249.923 457.096c-10.342-11.44-22.904-20.613-36.466-27.876-13.713-7.344-28.37-12.796-43.293-17.114-16.421-4.755-33.212-8.28-50.144-10.631-15.588-2.164-31.31-3.056-46.94-4.845-15.092-1.728-30.212-4.331-44.42-9.882a113.19 113.19 0 0 1-5.03-2.104c-.762-.338-.133-1.468.62-1.132 14.053 6.271 29.238 9.356 44.431 11.296 15.418 1.968 30.952 2.811 46.375 4.72a362.097 362.097 0 0 1 50.847 10.038c14.948 4.082 29.674 9.224 43.562 16.14 13.723 6.833 26.647 15.478 37.484 26.374 1.322 1.33 2.61 2.692 3.866 4.083.554.613-.335 1.551-.892.933Z" fill="#fff"/><path d="M211.489 428.165c-8.2-3.04-16.828-4.758-25.537-5.418-8.706-.659-17.46-.315-26.136.556-4.55.454-9.096 1.017-13.604 1.778-5.027.848-10.008 1.938-14.986 3.031-9.344 2.053-18.737 4.139-28.317 4.675-8.53.474-17.281-.251-25.325-3.28a49.637 49.637 0 0 1-2.938-1.216c-.758-.343-.13-1.474.623-1.132 7.868 3.56 16.583 4.672 25.155 4.438 9.454-.257 18.74-2.164 27.949-4.18 4.979-1.089 9.953-2.212 14.967-3.134 4.593-.846 9.224-1.476 13.864-1.996 8.649-.971 17.374-1.46 26.074-1.002 8.619.454 17.211 1.848 25.42 4.54a86.45 86.45 0 0 1 3.106 1.088c.772.284.464 1.54-.315 1.252ZM189.518 418.337c-3.224-5.048-6.896-9.801-10.889-14.264a131.69 131.69 0 0 0-13.599-13.145 128.81 128.81 0 0 0-15.519-11.176c-5.354-3.275-10.965-6.144-16.802-8.452-5.523-2.185-11.275-3.852-17.144-4.783a72.564 72.564 0 0 0-2.12-.304c-.348-.044-.543-.472-.468-.784.089-.372.438-.512.782-.468 5.934.758 11.751 2.291 17.358 4.358 5.914 2.182 11.609 4.937 17.048 8.122 5.578 3.266 10.897 6.98 15.924 11.044a132.809 132.809 0 0 1 13.966 13.043c4.152 4.484 8 9.268 11.398 14.349.398.595.788 1.194 1.173 1.796.448.702-.661 1.364-1.108.664ZM99.44 399.029c-4.249-3.315-8.62-6.478-13.173-9.36-4.773-3.022-9.774-5.814-15.085-7.778-2.68-.989-5.453-1.77-8.295-2.114-.346-.043-.546-.476-.47-.784.096-.374.438-.511.785-.47 5.328.647 10.439 2.748 15.195 5.151 5.185 2.623 10.1 5.769 14.837 9.127a194.17 194.17 0 0 1 7.097 5.293c.275.215.246.68.022.912-.262.273-.638.237-.914.023Z" fill="#fff"/><mask id="j" style="mask-type:luminance" maskUnits="userSpaceOnUse" x="47" y="191" width="206" height="246"><path d="M47.126 191.175h205.849v245.484H47.126V191.175Z" fill="#fff"/></mask><g mask="url(#j)"><path d="M248.334 436.659c7.478-37.316 6.717-84.644-8.2-119.659-14.918-35.013-42.69-64.941-77.732-79.791-19.45-8.241-40.534-11.777-60.608-18.345a209.498 209.498 0 0 1-44.456-20.573c-1.538-.944-9.588-7.116-9.588-7.116-1.59-.008.302 11.269.788 15.066 3.813 29.826 7.685 59.9 17.545 88.306 9.86 28.404 26.284 55.384 50.827 72.753 20.452 14.475 45.1 21.419 68.669 29.921 23.571 8.503 47.511 19.552 62.755 39.438Z" fill="url(#k)" opacity=".6"/></g><path d="M240.99 424.533c-3.592-18.122-10.861-35.278-20.333-51.086-9.578-15.985-21.29-30.606-33.972-44.225-13.955-14.988-29.044-28.941-45.002-41.773-14.693-11.814-30.304-22.402-45.268-33.855-14.45-11.061-28.392-23.037-39.58-37.483a136.148 136.148 0 0 1-3.877-5.257c-.573-.817.768-1.592 1.336-.781 10.585 15.089 24.296 27.601 38.72 38.941 14.636 11.507 30.085 21.929 44.764 33.381a433.838 433.838 0 0 1 46.089 41.595c12.854 13.393 24.828 27.737 34.848 43.389 9.902 15.466 17.867 32.303 22.303 50.171a137.513 137.513 0 0 1 1.464 6.571c.193.973-1.297 1.389-1.492.412Z" fill="#fff"/><path d="M219.282 371.151c-6.557-8.168-14.368-15.244-22.916-21.279-8.542-6.03-17.752-11.064-27.205-15.506-4.956-2.33-9.977-4.548-15.079-6.54-5.688-2.22-11.477-4.166-17.266-6.103-10.868-3.637-21.808-7.273-31.983-12.616-9.058-4.757-17.61-10.887-24.013-18.951a59.2 59.2 0 0 1-2.27-3.056c-.57-.82.77-1.594 1.335-.781 5.897 8.499 14.17 15.004 23.125 20.037 9.876 5.551 20.595 9.304 31.3 12.898 5.788 1.944 11.591 3.848 17.312 5.984 5.242 1.957 10.388 4.157 15.479 6.476 9.487 4.324 18.757 9.189 27.417 15.012 8.58 5.768 16.552 12.486 23.335 20.305.861.992 1.701 2.001 2.524 3.027.617.769-.471 1.87-1.095 1.093ZM202.746 347.534c-.208-7.172-1.059-14.316-2.416-21.36a158.166 158.166 0 0 0-5.894-21.878 154.167 154.167 0 0 0-9.076-21.036c-3.489-6.657-7.492-13.058-12.07-19.022-4.334-5.643-9.222-10.895-14.682-15.463a77.93 77.93 0 0 0-1.992-1.615c-.33-.261-.266-.821 0-1.094.322-.328.768-.256 1.095 0 5.632 4.429 10.668 9.582 15.16 15.157 4.737 5.881 8.896 12.217 12.527 18.836 3.725 6.789 6.905 13.879 9.573 21.148a158.857 158.857 0 0 1 6.333 21.996c1.51 7.164 2.522 14.448 2.888 21.763.043.856.076 1.71.102 2.568.028.996-1.519.996-1.548 0ZM122.034 272.273c-2.327-6.02-4.875-11.958-7.781-17.722-3.048-6.043-6.471-11.99-10.723-17.275-2.145-2.665-4.516-5.175-7.224-7.277-.33-.256-.27-.824 0-1.094.327-.326.763-.257 1.095 0 5.078 3.943 9.04 9.244 12.448 14.643 3.717 5.885 6.834 12.141 9.637 18.507a232.903 232.903 0 0 1 4.04 9.806c.151.391-.165.85-.54.952-.437.12-.801-.149-.952-.54Z" fill="#fff"/><mask id="l" style="mask-type:luminance" maskUnits="userSpaceOnUse" x="369" y="353" width="256" height="116"><path d="M369.234 353.475H624.9v115.048H369.234V353.475Z" fill="#fff"/></mask><g mask="url(#l)"><path d="M369.234 456.961c11.923-29.912 34.311-63.114 61.05-81.054 26.74-17.939 60.245-26.338 91.946-20.691 17.594 3.135 34.174 10.36 51.44 14.971a177.294 177.294 0 0 0 41.018 5.933c1.524.04 10.081-.619 10.081-.619 1.132.728-5.416 7.851-7.515 10.319-16.47 19.385-33.098 38.923-53.201 54.511-20.101 15.586-44.201 27.134-69.621 28.12-21.183.821-41.863-5.632-62.499-10.483-20.636-4.853-42.711-8.069-62.699-1.007Z" fill="url(#m)" opacity=".6"/></g><path d="M380.038 451.753c10.913-11.191 23.985-19.998 37.998-26.835 14.17-6.912 29.223-11.871 44.502-15.675 16.812-4.184 33.953-7.112 51.19-8.844 15.87-1.593 31.826-1.894 47.724-3.108 15.351-1.172 30.763-3.228 45.364-8.304a117.727 117.727 0 0 0 5.176-1.937c.784-.316.19-1.484-.586-1.171-14.471 5.811-29.967 8.355-45.43 9.736-15.688 1.402-31.453 1.662-47.146 3.004a366.869 366.869 0 0 0-51.879 8.216c-15.296 3.562-30.407 8.206-44.737 14.676-14.159 6.395-27.579 14.658-38.972 25.276a117.734 117.734 0 0 0-4.071 3.986c-.587.6.279 1.584.867.98Z" fill="#fff"/><path d="M420.07 423.925c8.42-2.764 17.224-4.175 26.072-4.508 8.84-.334 17.692.35 26.447 1.564 4.589.636 9.173 1.38 13.709 2.322 5.057 1.052 10.061 2.346 15.06 3.646 9.384 2.437 18.819 4.908 28.499 5.817 8.62.808 17.512.409 25.774-2.352a48.893 48.893 0 0 0 3.022-1.119c.78-.317.188-1.485-.588-1.169-8.104 3.304-16.974 4.097-25.646 3.532-9.565-.624-18.896-2.911-28.145-5.305-5.001-1.292-9.996-2.622-15.037-3.747-4.62-1.033-9.284-1.849-13.964-2.553-8.723-1.316-17.542-2.144-26.37-2.015-8.745.129-17.498 1.212-25.917 3.627a84.863 84.863 0 0 0-3.187.98c-.793.26-.53 1.542.271 1.28ZM442.698 414.814c3.458-4.989 7.36-9.661 11.574-14.028a133.618 133.618 0 0 1 14.276-12.792 130.552 130.552 0 0 1 16.144-10.725c5.548-3.11 11.34-5.802 17.342-7.916 5.676-2 11.566-3.467 17.545-4.186a71.314 71.314 0 0 1 2.157-.225c.356-.033.57-.459.506-.776-.075-.38-.426-.537-.775-.505-6.037.54-11.988 1.869-17.745 3.748-6.075 1.984-11.947 4.556-17.578 7.573-5.774 3.093-11.302 6.652-16.549 10.575a134.383 134.383 0 0 0-14.644 12.673c-4.377 4.381-8.457 9.079-12.093 14.096a113.85 113.85 0 0 0-1.258 1.773c-.48.694.618 1.408 1.098.715ZM534.665 398.711c4.428-3.195 8.977-6.229 13.698-8.973 4.95-2.879 10.123-5.515 15.576-7.299 2.752-.9 5.591-1.585 8.482-1.825.352-.03.572-.46.504-.775-.08-.381-.422-.536-.775-.505-5.42.45-10.677 2.381-15.585 4.633-5.354 2.457-10.451 5.455-15.375 8.675a193.589 193.589 0 0 0-7.392 5.089c-.287.207-.275.677-.056.923.253.288.635.264.923.057Z" fill="#fff"/><path d="M328.454 296.643c.036.356.153.693.396.992.404.497 1.045.726 1.657.914.698.214 1.404.395 2.115.559a25.175 25.175 0 0 1-4.168-2.465Z" fill="#F46969"/><path d="M163.279 360.668c5.145-.951 8.547-5.891 7.597-11.036a9.474 9.474 0 0 0-11.036-7.599l-11.509 2.124 3.439 18.635 11.509-2.124Z" fill="#1C3077"/><path d="m148.331 344.157-11.509 2.124a9.475 9.475 0 0 0 3.438 18.634l11.51-2.123-3.439-18.635Z" fill="#F69A2B"/><path d="M151.779 296.258c3.144-4.182 2.302-10.122-1.881-13.265-4.183-3.144-10.121-2.301-13.265 1.88l-7.032 9.356 15.148 11.385 7.03-9.356Z" fill="#1C3077"/><path d="m129.601 294.229-7.032 9.356c-3.144 4.183-2.301 10.121 1.882 13.265 4.182 3.144 10.122 2.302 13.265-1.881l7.032-9.355-15.147-11.385Z" fill="#F69A2B"/><path d="M99.321 312.372a9.472 9.472 0 0 0-10.199-8.689 9.472 9.472 0 0 0-8.689 10.198l.932 11.667 18.888-1.509-.932-11.667Z" fill="#1C3077"/><path d="m81.365 325.548.932 11.666c.418 5.216 4.984 9.107 10.199 8.688 5.216-.416 9.107-4.981 8.689-10.197l-.932-11.667-18.888 1.51Z" fill="#F69A2B"/><path d="M475.18 384.413v-57.38h-45.574v57.408c0 6.148-3.725 11.692-9.429 13.984-29.684 11.926-50.805 40.656-51.575 74.42-1.026 45.118 35.11 83.057 80.228 84.124 46.33 1.094 84.232-36.136 84.232-82.218 0-33.09-19.545-61.616-47.721-74.664-6.144-2.845-10.161-8.902-10.161-15.674Z" fill="#E1EBF9"/><path d="M371.445 453.212a82.178 82.178 0 0 0-2.843 19.634c-1.026 45.117 35.11 83.057 80.228 84.122 46.33 1.096 84.232-36.134 84.232-82.217a82.241 82.241 0 0 0-3.705-24.448 6541.077 6541.077 0 0 1-157.912 2.909Z" fill="#F69A2B"/><path d="M407.844 461.757c12.615 1.509 25.185.797 37.751-.81 13.422-1.716 26.645-4.672 40.045-6.493 11.403-1.549 22.927-1.937 34.277-3.801.012-.031.027-.06.042-.091a6532.056 6532.056 0 0 1-148.131 2.647c11.749 3.773 23.74 7.078 36.016 8.548ZM532.107 462.349c-4.84 14.94-15.368 29.196-25.816 40.585-11.261 12.278-25.205 20.955-40.615 27.111-17.029 6.803-34.956 5.231-52.718 2.711-10.23-1.452-19.843-4.523-28.448-9.611 14.6 19.935 37.913 33.2 64.321 33.824 46.329 1.095 84.232-36.136 84.232-82.217a81.92 81.92 0 0 0-.956-12.403Z" fill="#EA871B"/><path d="M430.216 327.643v56.798c0 6.444-3.852 12.155-9.81 14.55-30.355 12.196-50.45 41.192-51.195 73.869-1.023 44.98 34.701 82.439 79.635 83.5 22.185.501 43.15-7.717 59.009-23.205 15.863-15.492 24.599-36.235 24.599-58.403 0-31.696-18.595-60.785-47.37-74.111-6.386-2.958-10.513-9.329-10.513-16.228v-56.77h-44.355Zm20.623 229.96c-.675 0-1.347-.01-2.023-.024-45.604-1.079-81.861-39.098-80.824-84.747a82.749 82.749 0 0 1 51.959-74.972c5.495-2.208 9.045-7.475 9.045-13.419v-58.018h46.794v57.99c0 6.427 3.849 12.362 9.806 15.122 29.204 13.524 48.076 43.049 48.076 75.217 0 22.5-8.868 43.551-24.966 59.275-15.612 15.246-36.095 23.576-57.867 23.576Z" fill="#1D3078"/><path d="M476.805 337.509h-48.824a3.874 3.874 0 0 1-3.874-3.873v-2.73a3.874 3.874 0 0 1 3.874-3.873h48.824a3.874 3.874 0 0 1 3.874 3.873v2.73a3.874 3.874 0 0 1-3.874 3.873Z" fill="#1D3078"/><mask id="n" style="mask-type:luminance" maskUnits="userSpaceOnUse" x="475" y="410" width="37" height="98"><path d="M475.274 410.303h36.627v96.976h-36.627v-96.976Z" fill="#fff"/></mask><g mask="url(#n)"><path d="M475.274 410.303s37.147 44.05 21.696 96.975c0 0 45.202-66.896-21.696-96.975Z" fill="#fff" opacity=".56"/></g><path d="M399.669 488.87a5.59 5.59 0 0 1-11.178 0 5.588 5.588 0 0 1 5.59-5.588 5.588 5.588 0 0 1 5.588 5.588ZM458.786 516.921a5.589 5.589 0 1 1-11.178-.002 5.589 5.589 0 0 1 11.178.002ZM478.344 472.652a5.588 5.588 0 1 1-11.176 0 5.588 5.588 0 0 1 11.176 0ZM487.095 499.155a3.163 3.163 0 1 1-6.326.002 3.163 3.163 0 0 1 6.326-.002ZM402.831 514.496a3.163 3.163 0 1 1-6.327 0 3.163 3.163 0 1 1 6.327 0ZM439.608 481.404a3.163 3.163 0 1 1-6.327.001 3.163 3.163 0 0 1 6.327-.001Z" fill="#EA871B"/><path d="M329.37 270.529c3.861 7.024 3.881 16.013.053 23.054-.695 1.278-1.489 2.923-.573 4.052.404.496 1.045.726 1.657.914a31.44 31.44 0 0 0 14.168.976c1.252-.203 2.553-.511 3.507-1.348.18-.158.35-.344.397-.579.093-.459-.312-.848-.657-1.163-2.546-2.322-3.767-5.817-4.019-9.252-.252-3.436.365-6.869.98-10.258" fill="#FF8181"/><path d="M332.35 280.218c1.82 6.028 6.488 8.046 11.763 8.631a18.075 18.075 0 0 1-.21-1.665c-.252-3.436.364-6.87.979-10.259l-15.512-6.396c1.543 2.808 2.463 5.932 2.777 9.12.072.184.143.371.203.569Z" fill="#F46969"/><path d="M339.629 448.452c-1.411 5.34-2.021 10.852-2.629 16.34l-7.463 67.455c-.103.926-.24 1.928-.895 2.59-.93.944-2.464.802-3.773.59-3.197-.512-6.395-1.027-9.592-1.542-.549-.088-1.152-.208-1.492-.649-.26-.339-.301-.792-.332-1.219-1.769-24.025-3.54-48.108-2.653-72.182.414-11.242 1.408-22.462 1.496-33.708" fill="#1C3077"/><path d="M315.062 531.609c-.29 2.11-1.099 6.428-1.39 8.536-.196 1.434-.365 3 .404 4.224 1.03 1.639 3.247 1.95 5.179 2.068 6.207.382 12.428.472 18.645.562l6.354.092c.641.009 2.328-.336 2.761-.81.943-1.032-.049-2.81-.18-3.004-2.668-3.912-7.156-3.392-11.789-4.364-3.047-.641-6.298-1.588-8.627-3.654M345.261 448.647c1.037 5.423 1.266 10.966 1.493 16.483.927 22.603 1.856 45.207 2.784 67.808.037.932.105 1.94.712 2.647.865 1.005 2.404.969 3.724.85l9.675-.876c.554-.05 1.165-.128 1.533-.545.284-.32.356-.769.417-1.192 3.426-23.847 6.856-47.751 7.635-71.827.364-11.242.148-22.504.837-33.73" fill="#1C3077"/><path d="M351.733 535.107c-.289 2.109-.58 4.217-.868 6.326-.197 1.431-.367 2.999.401 4.223 1.031 1.639 3.248 1.949 5.179 2.068 6.208.381 12.428.471 18.648.563l6.352.09c.643.011 2.328-.336 2.76-.809.944-1.032-.048-2.812-.179-3.004-2.668-3.912-7.154-3.392-11.789-4.365-3.047-.64-9.719-2.451-9.777-5.959" fill="#1C3077"/><path d="M423.456 298.672a195.643 195.643 0 0 1 3.552-3.733c.491-.504.993-1.011 1.601-1.364 1.58-.92 3.543-.659 5.366-.532a30.71 30.71 0 0 0 13.305-2.044c.664-.26 1.379-.55 2.068-.367.899.237 1.425 1.247 1.383 2.175-.066 1.368-1.124 2.529-2.359 3.118-1.236.591-2.635.718-3.999.835l-5.01.433c-2.055.178-4.138.362-6.078 1.062-1.94.7-3.753 1.99-4.637 3.853" fill="#FF8181"/><path d="m368.431 298.409 25.376 24.61 28.279-28.469 11.518 9.161s-23.066 29.963-37.424 41.068a3.854 3.854 0 0 1-4.114.415c-4.644-2.297-15.615-8.203-20.83-15.04-6.718-8.807-2.805-31.745-2.805-31.745Z" fill="#F5F7FD"/><path d="M331.84 291.458c2.384 1.406 7.448 3.542 12.553.308a2.654 2.654 0 0 1 2.376-.225l3.953 1.529-2.114 61.107-22.487-59.037 3.043-3.272c.69-.743 1.802-.926 2.676-.41Z" fill="#1131C6"/><path d="M328.379 292.522s14.394 26.949 18.048 36.349l4.332 125.383s-21.056 2.821-52.261-2.815c0 0 12.629-82.029 12.048-102.117-.473-16.367-2.416-36.098-3.117-42.842a3.62 3.62 0 0 1 1.874-3.557l19.076-10.401Z" fill="#F5F7FD"/><path d="m347.704 291.977-1.307 37.764 4.362 124.514 34.072-2.347s-7.862-53.977-11.027-92.371c-2.535-30.745-3.811-51.557-4.219-58.628a3.775 3.775 0 0 0-2.73-3.412l-19.151-5.52Z" fill="#F5F7FD"/><path d="m346.427 328.871-18.14-14.295 4.299-6.684-8.423-1.105-.269-11.82 4.485-2.445s15.345 27.713 18.048 36.349ZM346.428 328.871l10.524-18.292-5.524-3.771 6.578-1.616-3.422-11.233-6.879-1.981s-1.699 30.098-1.277 36.893ZM332.589 392.008l-24.076-.834 1.253-7.766 23.093.798-.27 7.802ZM365.431 391.682l11.912-.565-.857-7.773-11.424.542.369 7.796Z" fill="#DFE4EF"/><path d="m346.477 328.404.748 126.184 1.988-.166-2.003-128.415-.733 2.397Z" fill="#DFE4EF"/><path d="m309.637 366.345 1.138-9.818 36.166-11.284s-10.426 13.992-37.304 21.102Z" fill="#DFE4EF"/><path d="M314.601 330.872s.55 2.974 1.288 7.842c.74 4.868 22.587-.556 22.587-.556s-18.781 18.796-26.056 15.906c-7.275-2.89-2.852-18.087-2.852-18.087l2.545-11.184 2.488 6.079Z" fill="#DFE4EF"/><path d="m365.456 360.536-27.899 2.231a2.14 2.14 0 0 1-2.303-1.963l-3.333-41.7a2.14 2.14 0 0 1 1.961-2.304l27.9-2.229a2.142 2.142 0 0 1 2.304 1.963l3.332 41.698a2.139 2.139 0 0 1-1.962 2.304Z" fill="#11215E"/><path d="M340.712 339.616c1.398.413 2.914-.251 4.008-1.213 1.095-.963 1.902-2.206 2.894-3.275 1.766-1.904 4.05-2.635 6.598-3.137.703-.139 1.78-.628 1.886.08.036.24-.054.478-.163.694-.995 1.943-4.404 1.906-4.275 4.084 4.778-1.644 10.151-2.172 14.927-3.816.628-.214 1.44-.382 1.855.136.41.512.078 1.263-.264 1.823-3.212 5.228-6.712 8.955-12.635 10.548-2.803.755-6.384 2.148-9.281 2.288-2.899.141-5.932.641-8.204 2.445" fill="#FF8181"/><path d="M308.01 304.113s6.901 13.278 6.589 28.56l-1.6 12.147 28.837-7.539 1.947 11.686s-16.216 14.026-43.925 15.81c-2.418.156-4.459-1.786-4.45-4.208.042-11.114 2.03-40.608 12.602-56.456Z" fill="#F5F7FD"/><path d="M326.492 249.098c-3.878 10.408-1.398 22.907 6.16 31.046 2.34 2.518 5.474 4.748 8.899 4.466 4.571-.373 7.559-4.902 9.335-9.129 2.144-5.105 2.432-11.347 1.893-16.857-.54-5.512-2.151-10.294-6.908-13.13-4.756-2.836-11.532-2.397-15.235 1.719" fill="#FF8181"/><path d="M326.491 264.856c-1.04-1.584-2.833-1.944-3.851-.891-1.017 1.054-1.206 3.28-.545 5.154.661 1.874 2.068 3.313 3.484 3.749.692.212 1.409.199 1.961-.215.955-.714 1.218-2.418 1.274-4.02" fill="#FF8181"/><path d="M326.601 268.271c.31.996.134 1.936-.395 2.101-.529.166-1.211-.506-1.521-1.501-.311-.996-.135-1.936.394-2.101.53-.166 1.211.506 1.522 1.501Z" fill="#F46969"/><path d="M350.723 265.072c-.027.75-.498 1.34-1.055 1.32-.556-.018-.985-.641-.96-1.389.027-.748.497-1.34 1.053-1.32.558.019.988.641.962 1.389ZM338.773 264.659c-.027.749-.498 1.34-1.055 1.32-.556-.019-.985-.642-.96-1.39.027-.748.497-1.34 1.055-1.32.556.019.986.642.96 1.39Z" fill="#0F1E57"/><path d="M343.571 264.359c-.184.672-.169 1.421-.11 2.108.161 1.898.834 3.706 1.745 5.369l.18-.604c-.784.46-1.752.816-2.668.696-.568-.075-.596.817-.031.891 1.059.138 2.216-.27 3.123-.802a.453.453 0 0 0 .18-.604c-.841-1.537-1.505-3.233-1.644-4.996a7.574 7.574 0 0 1 .009-1.38l.027-.212c.02-.149-.008.034.011-.065.009-.044.018-.091.03-.135.151-.553-.7-.821-.852-.266Z" fill="#F46969"/><path d="M340.489 259.96s-1.781-.893-3.98-.722c-2.2.17-4.038 1.457-3.568 1.63.472.174 2.703-.918 4.858-.372 2.157.547 2.572.472 2.901.355.328-.115.315-.672-.211-.891ZM346.505 260.168s1.539-.779 3.36-.468c1.82.311 3.267 1.709 2.864 1.853-.403.143-2.192-1.088-4.02-.678-1.829.408-2.171.306-2.436.17-.265-.137-.219-.692.232-.877Z" fill="#0F1E57"/><path d="M338.234 270.001c-.045 1.287-1.399 2.284-3.024 2.228-1.624-.057-2.905-1.145-2.861-2.43.045-1.288 1.398-2.286 3.024-2.228 1.624.056 2.905 1.144 2.861 2.43ZM352.367 270.134a2.331 2.331 0 1 1-4.66-.162 2.331 2.331 0 0 1 4.66.162ZM345.592 275.704s-2.488-.851-5.839-.203c0 0 2.809 3.291 5.839.203Z" fill="#F46969"/><path d="M360.711 248.115c-.645-2.575-2.433-4.713-4.632-5.541-3.581-1.351-7.684.676-11.22-.823-2.146-.909-3.805-3.02-5.992-3.793-2.76-.978-5.768.385-8.186 2.261a17.277 17.277 0 0 0-3.042 3.032c-.748.963-1.793 1.587-2.954 1.704-4.29.437-5.074 6.895-4.828 10.192.254 3.425 1.404 6.7 3.289 9.335 1.103 1.542 2.848 3.026 4.431 2.182 1.264-.674 1.404-2.548 1.744-4.114.388-1.786.652-3.423 1.216-4.898 1.168-3.053 3.694-1.51 6.488-.796 3.828.982 7.134 1.898 11.057 2.339 5.083.573 8.824.107 11.301-3.46 1.463-2.105 1.975-5.045 1.328-7.62Z" fill="#0F1E57"/><path d="M425.313 286.184a5.57 5.57 0 0 1-5.713-5.422l-.906-34.743 11.138-.291.904 34.743a5.569 5.569 0 0 1-5.423 5.713Z" fill="#fff"/><path d="m419.002 246.311.898 34.443a5.274 5.274 0 0 0 5.406 5.129 5.274 5.274 0 0 0 5.13-5.405l-.898-34.441-10.536.274Zm6.318 40.174a5.876 5.876 0 0 1-6.02-5.716l-.914-35.043 11.738-.305.912 35.041a5.876 5.876 0 0 1-5.716 6.023Z" fill="#1133A2"/><path d="m429.627 247.188-10.531.274a1.334 1.334 0 0 1-.071-2.664l10.532-.274a1.333 1.333 0 0 1 .07 2.664Z" fill="#1133A2"/></g><mask id="o" style="mask-type:luminance" maskUnits="userSpaceOnUse" x="420" y="267" width="10" height="19"><path d="m420.016 267.316.34 13.054c.07 2.708 2.277 4.846 4.929 4.776 2.652-.07 4.744-2.319 4.675-5.027l-.342-13.053-9.602.25Z" fill="#fff"/></mask><g mask="url(#o)"><path d="m429.628 267.397-9.608.073-.004-.153 9.604-.251.008.331Z" fill="#3FD12F"/><path d="m429.638 267.76-9.608.073-.01-.363 9.608-.073.01.363Z" fill="#ADB0F8"/><path d="m429.648 268.123-9.608.074-.01-.363 9.608-.073.01.362Z" fill="#ADAFF7"/><path d="m429.656 268.486-9.608.075-.009-.364 9.608-.074.009.363Z" fill="#ACAEF7"/><path d="m429.665 268.849-9.608.073-.009-.362 9.608-.074.009.363Z" fill="#ABADF6"/><path d="m429.675 269.212-9.608.074-.01-.363 9.608-.073.01.362Z" fill="#6CFC19"/><path d="m429.685 269.576-9.608.073-.01-.363 9.608-.073.01.363Z" fill="#21D61B"/><path d="m429.694 269.939-9.608.073-.009-.362 9.608-.074.009.363Z" fill="#36EB7E"/><path d="m429.705 270.302-9.608.073-.011-.362 9.608-.074.011.363Z" fill="#199A28"/><path d="m429.714 270.665-9.608.074-.009-.363 9.608-.073.009.362Z" fill="#B7F3A6"/><path d="m429.723 271.028-9.608.075-.01-.364 9.608-.074.01.363Z" fill="#A5A7F3"/><path d="m429.732 271.391-9.608.075-.01-.364 9.608-.073.01.362Z" fill="#A4A6F2"/><path d="m429.742 271.755-9.608.073-.011-.363 9.608-.073.011.363Z" fill="#0D9F14"/><path d="m429.751 272.118-9.608.073-.009-.362 9.608-.074.009.363Z" fill="#A3A4F1"/><path d="m429.761 272.481-9.608.073-.009-.362 9.608-.074.009.363Z" fill="#A2A3F0"/><path d="m429.77 272.844-9.607.074-.011-.363 9.608-.073.01.362Z" fill="#A1A2F0"/><path d="m429.78 273.208-9.608.073-.009-.362 9.607-.074.01.363Z" fill="#A0A1EF"/><path d="m429.789 273.571-9.608.073-.009-.362 9.608-.074.009.363Z" fill="#9FA0EF"/><path d="m429.798 273.934-9.608.074-.009-.364 9.608-.073.009.363Z" fill="#9E9FEE"/><path d="m429.808 274.297-9.608.073-.011-.362 9.608-.074.011.363Z" fill="#9D9EEE"/><path d="m429.818 274.66-9.608.073-.01-.362 9.608-.074.01.363Z" fill="#9C9DED"/><path d="m429.826 275.024-9.608.073-.009-.363 9.608-.073.009.363Z" fill="#9C9CED"/><path d="m429.836 275.387-9.608.073-.009-.363 9.608-.073.009.363Z" fill="#9B9BEC"/><path d="m429.846 275.75-9.608.073-.01-.362 9.608-.074.01.363Z" fill="#9A9AEB"/><path d="m429.856 276.113-9.608.074-.01-.363 9.608-.073.01.362Z" fill="#9999EB"/><path d="m429.864 276.476-9.608.074-.009-.363 9.608-.073.009.362Z" fill="#9898EA"/><path d="m429.875 276.839-9.61.074-.009-.363 9.608-.073.011.362Z" fill="#9797EA"/><path d="m429.884 277.203-9.608.073-.01-.363 9.609-.073.009.363Z" fill="#9696E9"/><path d="m429.893 277.566-9.608.073-.01-.363 9.608-.073.01.363Z" fill="#9595E9"/><path d="m429.902 277.929-9.608.073-.009-.362 9.608-.074.009.363Z" fill="#9494E8"/><path d="m429.913 278.292-9.608.074-.011-.363 9.608-.073.011.362Z" fill="#9493E8"/><path d="m429.922 278.656-9.608.073-.009-.363 9.608-.073.009.363Z" fill="#9392E7"/><path d="m429.931 279.019-9.608.073-.01-.362 9.608-.074.01.363Z" fill="#9291E6"/><path d="m429.941 279.382-9.608.074-.01-.363 9.608-.073.01.362Z" fill="#9190E6"/><path d="m429.951 279.745-9.608.073-.011-.363 9.608-.073.011.363Z" fill="#908FE5"/><path d="m429.959 280.108-9.608.074-.009-.363 9.608-.073.009.362Z" fill="#8F8EE5"/><path d="m429.969 280.471-9.608.074-.009-.363 9.608-.073.009.362Z" fill="#8E8DE4"/><path d="m429.979 280.835-9.609.073-.01-.362 9.608-.074.011.363Z" fill="#8D8CE4"/><path d="m429.989 281.198-9.608.073-.011-.362 9.609-.074.01.363Z" fill="#8C8BE3"/><path d="m429.997 281.561-9.608.074-.009-.363 9.608-.073.009.362Z" fill="#8C8AE3"/><path d="m430.007 281.924-9.608.075-.009-.364 9.608-.074.009.363Z" fill="#8B89E2"/><path d="m430.017 282.287-9.608.075-.011-.364 9.608-.074.011.363Z" fill="#8A88E1"/><path d="m430.026 282.651-9.608.073-.01-.363 9.608-.073.01.363Z" fill="#8987E1"/><path d="m430.035 283.014-9.608.073-.009-.363 9.608-.073.009.363Z" fill="#8886E0"/><path d="m430.044 283.377-9.608.073-.009-.362 9.608-.074.009.363Z" fill="#8784E0"/><path d="m430.054 283.74-9.608.074-.01-.363 9.608-.073.01.362Z" fill="#8683DF"/><path d="m430.064 284.103-9.608.074-.01-.363 9.608-.073.01.362Z" fill="#8582DF"/><path d="m430.073 284.467-9.608.073-.009-.362 9.608-.074.009.363Z" fill="#8481DE"/><path d="m430.082 284.83-9.608.074-.009-.364 9.608-.073.009.363Z" fill="#8380DD"/><path d="m420.735 285.265-.25.001-.01-.362 9.608-.075.005.192-9.353.244Z" fill="#77CF5F"/></g><mask id="p" style="mask-type:luminance" maskUnits="userSpaceOnUse" x="0" y="0" width="667" height="667"><path d="M0 0h666.667v666.667H0V0Z" fill="#fff"/></mask><g mask="url(#p)"><path d="M443.405 285.712a5.57 5.57 0 0 1-5.714-5.422l-.905-34.743 11.137-.291.904 34.743a5.567 5.567 0 0 1-5.422 5.713Z" fill="#fff"/><path d="m437.094 245.84.898 34.441a5.275 5.275 0 0 0 5.407 5.131 5.274 5.274 0 0 0 5.129-5.405l-.898-34.442-10.536.275Zm6.32 40.173a5.879 5.879 0 0 1-6.023-5.716l-.913-35.042 11.737-.306.913 35.042a5.875 5.875 0 0 1-5.714 6.022Z" fill="#1133A2"/><path d="m447.718 246.716-10.532.274a1.332 1.332 0 0 1-.069-2.664l10.531-.273a1.333 1.333 0 1 1 .07 2.663Z" fill="#1133A2"/></g><mask id="q" style="mask-type:luminance" maskUnits="userSpaceOnUse" x="438" y="266" width="11" height="19"><path d="m438.108 266.845.342 13.054c.07 2.705 2.277 4.845 4.929 4.776 2.652-.07 4.743-2.32 4.673-5.027l-.338-13.055-9.606.252Z" fill="#fff"/></mask><g mask="url(#q)"><path d="m447.761 268.473-.414-1.87.366-.009.048 1.879Z" fill="#B0B3F9"/><path d="m447.917 274.441-1.734-7.806 1.164-.031.414 1.868.156 5.969Z" fill="#AFB2F9"/><path d="m448.073 280.411-3.052-13.747 1.162-.03 1.735 7.808.155 5.969Z" fill="#3FD12F"/><path d="m447.823 284.559-3.967-17.864 1.163-.031 3.053 13.747.108 4.138-.357.01Z" fill="#ADB0F8"/><path d="m446.661 284.589-3.967-17.864 1.163-.03 3.967 17.864-1.163.03Z" fill="#ADAFF7"/><path d="m445.498 284.619-3.967-17.864 1.163-.031 3.967 17.864-1.163.031Z" fill="#ACAEF7"/><path d="m444.336 284.649-3.967-17.864 1.163-.029 3.966 17.864-1.162.029Z" fill="#ABADF6"/><path d="m443.173 284.68-3.967-17.864 1.163-.031 3.966 17.864-1.162.031Z" fill="#6CFC19"/><path d="m442.01 284.71-3.892-17.528-.01-.337 1.098-.029 3.966 17.864-1.162.03Z" fill="#21D61B"/><path d="m440.847 284.74-2.573-11.588-.156-5.969 3.892 17.528-1.163.029Z" fill="#36EB7E"/><path d="m439.683 284.771-1.254-5.649-.156-5.97 2.574 11.588-1.164.031Z" fill="#199A28"/><path d="m438.429 279.121 1.253 5.649-1.105.03-.148-5.679Z" fill="#B7F3A6"/></g><mask id="r" style="mask-type:luminance" maskUnits="userSpaceOnUse" x="0" y="0" width="667" height="667"><path d="M0 0h666.667v666.667H0V0Z" fill="#fff"/></mask><g mask="url(#r)"><path d="M461.855 285.231a5.569 5.569 0 0 1-5.713-5.422l-.907-34.743 11.138-.291.905 34.743a5.569 5.569 0 0 1-5.423 5.713Z" fill="#fff"/><path d="m455.544 245.359.897 34.441a5.277 5.277 0 0 0 5.407 5.131 5.274 5.274 0 0 0 5.129-5.405l-.897-34.442-10.536.275Zm6.319 40.173a5.879 5.879 0 0 1-6.022-5.716l-.914-35.042 11.738-.306.914 35.042a5.877 5.877 0 0 1-5.716 6.022Z" fill="#1133A2"/><path d="m466.17 246.235-10.532.274a1.332 1.332 0 1 1-.07-2.664l10.531-.273a1.331 1.331 0 1 1 .071 2.663Z" fill="#1133A2"/><path d="m456.559 266.363.34 13.054c.072 2.706 2.278 4.845 4.929 4.777 2.652-.071 4.745-2.32 4.675-5.027l-.342-13.054-9.602.25Z" fill="#F69A2B"/><path d="m476.103 292.16-70.135 1.829a2.54 2.54 0 0 1-.13-5.075l70.132-1.828a2.538 2.538 0 1 1 .133 5.074ZM475.96 252.335l-71.921 1.875a1.643 1.643 0 1 1-.087-3.285l71.923-1.875a1.643 1.643 0 0 1 .085 3.285Z" fill="#1133A2"/><path d="m411.005 250.742-2.209.057.991 38.013 2.21-.057-.992-38.013ZM471.57 249.162l-2.21.058.991 38.013 2.211-.057-.992-38.014Z" fill="#1133A2"/><path d="m278.224 412.223.676 4.862a2.386 2.386 0 0 0 2.131 2.046c2.153.218 5.745.221 8.599-1.571a2.399 2.399 0 0 0 1.057-2.579l-1.18-4.993a2.383 2.383 0 0 0-2.799-1.785l-6.604 1.358a2.383 2.383 0 0 0-1.88 2.662Z" fill="#1D3078"/><path d="m267.855 395.283 2.051 14.752a2.374 2.374 0 0 0 1.978 2.025c4.17.667 14.912 1.64 22.242-4.325a2.414 2.414 0 0 0 .832-2.423l-3.498-14.8a2.383 2.383 0 0 0-2.8-1.785l-18.925 3.894a2.38 2.38 0 0 0-1.88 2.662Z" fill="#091847"/><path d="m260.027 377.441 2.913 20.954a2.373 2.373 0 0 0 1.94 2.017c5.116.889 20.6 2.657 30.743-6.091.653-.564.908-1.464.709-2.304l-4.949-20.941a2.381 2.381 0 0 0-2.799-1.785l-26.677 5.489a2.38 2.38 0 0 0-1.88 2.661ZM251.246 365.352s-43.065-3.558-40.22 57.712c2.847 61.269 57.252 40.846 57.252 40.846l-43.524 46.287s-43.022-25.195-39.508-85.124c3.516-59.931 41.015-82.864 58.256-82.696 17.244.167 7.744 22.975 7.744 22.975Z" fill="#1D3078"/><path d="m268.279 463.91-38.207 40.631c.672-5.224.218-10.672-.937-15.64-2.413-10.377-10.527-18.083-14.892-27.591-5.109-11.126-7.823-23.742-6.903-35.989.659-8.753 2.999-17.312 5.242-25.825-1.36 6.536-1.986 14.306-1.555 23.568 2.845 61.269 57.252 40.846 57.252 40.846Z" fill="#091847"/><path d="m243.961 300.488 36.752-6.611a2.842 2.842 0 0 1 3.292 2.24l14.296 71.272a2.841 2.841 0 0 1-2.216 3.345l-40.903 8.418a2.845 2.845 0 0 1-3.39-2.396l-10.144-73.078a2.842 2.842 0 0 1 2.313-3.19Z" fill="#1D3078"/><path d="M298.17 366.735c-13.082-.504-26.143-1.251-35.79-11.25-6.472-6.709-10.881-15.152-13.284-24.109-2.561-9.549-3.016-19.781-6.893-28.959a6.994 6.994 0 0 1-.196-.538 2.824 2.824 0 0 0-.36 1.8l10.144 73.077a2.845 2.845 0 0 0 3.391 2.396l40.904-8.417a2.845 2.845 0 0 0 2.216-3.346l-.132-.654Z" fill="#091847"/><path d="M264.261 332.864c0 10.252-8.311 18.563-18.563 18.563-10.252 0-18.562-8.311-18.562-18.563 0-10.252 8.31-18.563 18.562-18.563s18.563 8.311 18.563 18.563Z" fill="#5067B2"/><path d="M256.114 332.864c0 5.752-4.664 10.416-10.416 10.416-5.753 0-10.416-4.664-10.416-10.416 0-5.752 4.663-10.416 10.416-10.416 5.752 0 10.416 4.664 10.416 10.416Z" fill="#1D3078"/><path d="m247.048 299.932-10.464-47.061 32.476-5.803 6.979 47.648-28.991 5.216Z" fill="#091847"/><path d="m233.103 252.898-1.017-3.75a1.466 1.466 0 0 1 1.134-1.824l35.26-6.867a1.466 1.466 0 0 1 1.739 1.297l.385 3.984a1.462 1.462 0 0 1-1.182 1.58l-34.628 6.636a1.466 1.466 0 0 1-1.691-1.056ZM239.978 282.596l-1.017-3.75a1.466 1.466 0 0 1 1.134-1.824l35.26-6.867a1.465 1.465 0 0 1 1.739 1.297l.385 3.983a1.462 1.462 0 0 1-1.182 1.581l-34.628 6.636a1.467 1.467 0 0 1-1.691-1.056Z" fill="#5067B2"/><path d="M353.785 459.139c-1.448-13.145-26.545-23.61-57.3-23.61-30.753 0-55.85 10.465-57.298 23.61h-.003v.058c-.04.378-.067.758-.067 1.141 0 .395.023.785.067 1.175v7.13c-.044.39-.067.782-.067 1.175 0 .383.027.763.067 1.141v.679h.103c2.158 12.852 26.933 22.991 57.198 22.991 30.267 0 55.042-10.139 57.2-22.991h.171v-12.499h-.071Z" fill="#091847"/><path d="M345.451 459.139c0 11.695-21.921 21.176-48.965 21.176-27.043 0-48.965-9.481-48.965-21.176 0-11.694 21.922-21.177 48.965-21.177 27.044 0 48.965 9.483 48.965 21.177Z" fill="#ADC3EF"/><path d="m213.236 537.787 13.936-49.314a6.144 6.144 0 0 1 5.914-4.474h17.151a6.144 6.144 0 0 1 5.913 4.474l13.938 49.314c1.108 3.921-1.839 7.816-5.915 7.816H219.15c-4.077 0-7.024-3.895-5.914-7.816Z" fill="#1D3078"/><path d="m270.088 537.787-13.938-49.314a6.109 6.109 0 0 0-1.17-2.208c.045.406.056.834.02 1.291-.46 5.757-.764 11.379-.09 17.132.595 5.084 1.471 10.151 1.067 15.288-.511 6.523-3.36 11.813-8.835 15.5-9.492 6.392-22.213 6.713-33.484 6.724.995 1.983 3.035 3.403 5.492 3.403h45.023c4.076 0 7.023-3.895 5.915-7.816Z" fill="#091847"/><path d="M249.446 502.413c0 4.3-3.485 7.784-7.784 7.784a7.783 7.783 0 0 1-7.784-7.784c0-4.3 3.484-7.784 7.784-7.784a7.783 7.783 0 0 1 7.784 7.784Z" fill="#5067B2"/><path d="M317.3 547.625H164.311a2.52 2.52 0 0 1-2.52-2.519v-2.328a2.518 2.518 0 0 1 2.52-2.517H317.3a2.52 2.52 0 0 1 2.52 2.517v2.328a2.52 2.52 0 0 1-2.52 2.519Z" fill="#1D3078"/><mask id="s" style="mask-type:luminance" maskUnits="userSpaceOnUse" x="264" y="442" width="67" height="38"><path d="M264.26 442.013h65.84v37.279h-65.84v-37.279Z" fill="#fff"/></mask><g mask="url(#s)"><path d="m330.099 443.749-48.673 35.543-17.165-4.211 61.01-33.068" fill="#fff" opacity=".24"/></g></g><defs><linearGradient id="c" x1="424.184" y1="177.376" x2="169.049" y2="807.374" gradientUnits="userSpaceOnUse"><stop stop-color="#B9BDFF"/><stop offset="1" stop-color="#564DC1"/></linearGradient><linearGradient id="e" x1="106.368" y1="554.676" x2="562.997" y2="554.676" gradientUnits="userSpaceOnUse"><stop stop-color="#B9BDFF"/><stop offset="1" stop-color="#564DC1"/></linearGradient><linearGradient id="f" x1="551.712" y1="224.852" x2="367.446" y2="406.937" gradientUnits="userSpaceOnUse"><stop stop-color="#26D83B"/><stop offset="1" stop-color="#564DC1"/></linearGradient><linearGradient id="h" x1="43.508" y1="389.499" x2="253.56" y2="440.934" gradientUnits="userSpaceOnUse"><stop stop-color="#26D83B"/><stop offset="1" stop-color="#564DC1"/></linearGradient><linearGradient id="k" x1="70.407" y1="228.072" x2="254.672" y2="410.158" gradientUnits="userSpaceOnUse"><stop stop-color="#26D83B"/><stop offset="1" stop-color="#564DC1"/></linearGradient><linearGradient id="m" x1="591.673" y1="391.203" x2="376.973" y2="435.245" gradientUnits="userSpaceOnUse"><stop stop-color="#26D83B"/><stop offset="1" stop-color="#564DC1"/></linearGradient></defs></svg>