<svg width="200" height="150" viewBox="0 0 667 667" fill="none" xmlns="http://www.w3.org/2000/svg">
<g clip-path="url(#clip0_721_140)">
<mask id="mask0_721_140" style="mask-type:luminance" maskUnits="userSpaceOnUse" x="0" y="0" width="667" height="667">
<path d="M0 0.00203419H666.665V666.667H0V0.00203419Z" fill="white"/>
</mask>
<g mask="url(#mask0_721_140)">
<path d="M346.632 519.342C364.318 508.247 380.404 502.114 404.447 502.443C441.097 502.945 470.047 506.474 503.983 489.903C533.45 475.514 559.365 453.784 578.358 427.022C651.386 324.127 612.305 181.312 517.141 107.748C480.023 79.0538 429.524 65.3539 384.778 79.4552C358.876 87.6191 334.884 104.647 307.734 104.095C288.53 103.706 270.734 94.4551 252.009 90.1818C200.303 78.3845 140.879 118.904 123.188 168.567C108.392 210.096 116.304 235.325 112.484 257.428C108.456 280.737 86.8769 296.899 74.4956 317.056C41.8037 370.285 41.781 438.74 78.1556 490.201C121.288 551.223 219.011 584.247 289.719 556.007C306.298 549.386 320.122 537.522 334.747 527.285C338.851 524.413 342.779 521.759 346.632 519.342Z" fill="#414781"/>
<path d="M405.519 527.17C388.457 527.241 371.491 533.574 358.556 544.699C353.815 548.779 349.517 553.614 347.275 559.453C345.033 565.293 345.12 572.275 348.639 577.447C353.764 584.982 364.375 586.601 373.343 584.978C382.309 583.354 390.713 579.253 399.733 577.951C409.197 576.587 418.8 578.374 428.36 578.587C437.919 578.801 448.276 577.053 454.916 570.173C479.412 544.795 421.748 527.103 405.519 527.17Z" fill="#414781"/>
<path d="M490.684 534.002C489.761 537.31 489.818 541.023 491.528 544.002C494.254 548.75 500.312 550.437 505.785 550.575C522.342 550.995 562.294 524.549 544.86 504.463C533.472 491.343 494.237 521.273 490.684 534.002Z" fill="#414781"/>
</g>
<mask id="mask1_721_140" style="mask-type:luminance" maskUnits="userSpaceOnUse" x="50" y="73" width="567" height="494">
<path d="M384.778 79.4551C358.877 87.6191 334.886 104.647 307.734 104.096C288.531 103.707 270.735 94.4551 252.009 90.1817C200.304 78.3858 140.88 118.904 123.186 168.567C108.392 210.097 116.304 235.325 112.484 257.429C108.457 280.739 86.8772 296.9 74.4973 317.056C41.804 370.286 41.7813 438.741 78.1559 490.201C121.289 551.223 219.013 584.247 289.721 556.007C306.298 549.386 320.122 537.522 334.747 527.285C338.851 524.413 342.781 521.761 346.633 519.342C364.318 508.249 380.405 502.114 404.447 502.443C441.099 502.945 470.046 506.473 503.983 489.903C533.452 475.514 559.367 453.784 578.359 427.022C651.388 324.128 612.305 181.312 517.143 107.748C490.064 86.8164 455.859 73.8631 421.967 73.8618C409.4 73.8604 396.882 75.6418 384.778 79.4551Z" fill="white"/>
</mask>
<g mask="url(#mask1_721_140)">
<path d="M70.153 264.2L64.0117 418.197" stroke="white" stroke-width="2.44666" stroke-miterlimit="10"/>
<path d="M141.077 274.597L129.393 175.569" stroke="white" stroke-width="2.44666" stroke-miterlimit="10"/>
<path d="M64.0105 418.196L0.436035 463.467L118.148 489.742L64.0105 418.196Z" stroke="white" stroke-width="2.44666" stroke-miterlimit="10"/>
<path d="M70.153 264.2L141.077 274.597L150.442 359.842L64.0117 418.197" stroke="white" stroke-width="2.44666" stroke-miterlimit="10"/>
<path d="M184.444 158.148L129.393 175.571" stroke="white" stroke-width="2.44666" stroke-miterlimit="10"/>
<path d="M118.806 355.634C122.073 340.997 136.586 331.781 151.224 335.048C165.861 338.314 175.077 352.829 171.81 367.465C168.544 382.102 154.029 391.318 139.393 388.052C124.756 384.785 115.54 370.272 118.806 355.634Z" fill="#08E700"/>
<path d="M191.927 158.798L153.702 104.11" stroke="white" stroke-width="2.44666" stroke-miterlimit="10"/>
<path d="M105.52 165.284C108.096 153.744 119.538 146.478 131.078 149.054C142.618 151.63 149.885 163.072 147.309 174.612C144.734 186.152 133.29 193.419 121.75 190.843C110.21 188.267 102.944 176.824 105.52 165.284Z" fill="#08E700"/>
<path d="M49.8345 415.032C51.5825 407.202 59.3452 402.272 67.1745 404.02C75.0038 405.766 79.9345 413.53 78.1878 421.36C76.4398 429.19 68.6758 434.12 60.8465 432.372C53.0172 430.625 48.0865 422.861 49.8345 415.032Z" fill="#5D9766"/>
<path d="M107.493 485.951C107.81 484.531 108.404 483.187 109.24 481.996C110.077 480.805 111.139 479.791 112.368 479.011C113.596 478.231 114.966 477.7 116.4 477.45C117.833 477.199 119.302 477.233 120.722 477.55C122.143 477.867 123.487 478.461 124.678 479.297C125.868 480.134 126.883 481.196 127.663 482.425C128.443 483.653 128.974 485.023 129.224 486.457C129.475 487.89 129.441 489.359 129.124 490.779C128.807 492.2 128.213 493.544 127.377 494.735C126.54 495.925 125.478 496.94 124.249 497.72C123.021 498.5 121.651 499.031 120.217 499.281C118.784 499.532 117.315 499.498 115.894 499.181C114.474 498.864 113.13 498.27 111.939 497.434C110.749 496.597 109.734 495.535 108.954 494.306C108.174 493.078 107.643 491.708 107.393 490.274C107.142 488.841 107.176 487.372 107.493 485.951Z" fill="#5D9766"/>
<path d="M126.9 271.433C128.648 263.604 136.411 258.673 144.24 260.421C152.069 262.169 157 269.933 155.253 277.763C153.505 285.592 145.741 290.521 137.912 288.775C130.083 287.027 125.152 279.263 126.9 271.433Z" fill="#5D9766"/>
<path d="M180.105 156.252C180.425 154.819 181.024 153.463 181.868 152.262C182.712 151.06 183.784 150.037 185.023 149.25C186.263 148.463 187.645 147.927 189.092 147.675C190.538 147.422 192.02 147.456 193.453 147.776C194.886 148.096 196.242 148.695 197.444 149.539C198.645 150.382 199.669 151.454 200.456 152.694C201.243 153.933 201.779 155.315 202.032 156.762C202.285 158.208 202.25 159.69 201.93 161.123C201.611 162.556 201.012 163.912 200.168 165.114C199.324 166.316 198.252 167.339 197.012 168.126C195.773 168.914 194.39 169.449 192.944 169.702C191.498 169.955 190.015 169.92 188.582 169.6C187.149 169.281 185.793 168.682 184.591 167.838C183.39 166.994 182.366 165.922 181.579 164.682C180.792 163.443 180.256 162.06 180.003 160.614C179.751 159.167 179.785 157.685 180.105 156.252Z" fill="#5D9766"/>
<path d="M43.6505 258.284C46.9185 243.648 61.4318 234.431 76.0678 237.699C90.7051 240.965 99.9224 255.479 96.6544 270.116C93.3877 284.752 78.8731 293.969 64.2371 290.701C49.6012 287.435 40.3839 272.921 43.6505 258.284Z" fill="#08E700"/>
<path d="M608.931 200.048L519.071 156.824" stroke="white" stroke-width="2.44666" stroke-miterlimit="10"/>
<path d="M574.999 392.148L579.135 470.085L636.829 412.39L574.999 392.148Z" stroke="white" stroke-width="2.44666" stroke-miterlimit="10"/>
<path d="M533.875 101.012L519.071 156.824L562.131 254.345L608.931 200.048" stroke="white" stroke-width="2.44666" stroke-miterlimit="10"/>
<path d="M225.461 104.047C213.565 92.1511 213.565 72.8631 225.461 60.9658C237.357 49.0698 256.645 49.0698 268.542 60.9658C280.438 72.8631 280.438 92.1511 268.542 104.047C256.645 115.943 237.357 115.943 225.461 104.047Z" fill="#08E700"/>
<path d="M559.933 489.285C549.329 478.679 549.329 461.487 559.933 450.882C570.539 440.278 587.731 440.278 598.335 450.882C608.939 461.487 608.939 478.679 598.335 489.285C587.731 499.889 570.539 499.889 559.933 489.285Z" fill="#08E700"/>
<path d="M512.647 163.248C511.773 162.411 511.075 161.408 510.593 160.298C510.112 159.188 509.858 157.992 509.845 156.782C509.832 155.572 510.06 154.372 510.518 153.252C510.975 152.131 511.651 151.113 512.507 150.258C513.362 149.402 514.38 148.726 515.501 148.269C516.621 147.812 517.822 147.584 519.032 147.597C520.242 147.61 521.437 147.865 522.547 148.347C523.658 148.828 524.661 149.526 525.497 150.4C527.14 152.117 528.046 154.408 528.02 156.784C527.994 159.16 527.038 161.431 525.358 163.111C523.677 164.791 521.406 165.746 519.03 165.772C516.654 165.798 514.363 164.892 512.647 163.248Z" fill="#5D9766"/>
<path d="M542.932 273.547C532.327 262.943 532.327 245.749 542.932 235.145C553.536 224.54 570.729 224.54 581.333 235.145C591.937 245.749 591.937 262.943 581.333 273.547C570.729 284.151 553.536 284.151 542.932 273.547Z" fill="#08E700"/>
<path d="M608.93 200.048L636.829 319.439L574.999 392.148" stroke="white" stroke-width="2.44666" stroke-miterlimit="10"/>
<path d="M564.728 402.418C559.056 396.746 559.056 387.549 564.728 381.876C570.4 376.204 579.597 376.204 585.271 381.876C590.943 387.549 590.943 396.746 585.271 402.418C579.597 408.09 570.4 408.09 564.728 402.418Z" fill="#5D9766"/>
<path d="M451.387 96.8644C443.458 95.6484 438.015 88.2351 439.231 80.3058C440.447 72.3765 447.86 66.9338 455.79 68.1498C463.72 69.3645 469.161 76.7791 467.945 84.7084C466.731 92.6377 459.316 98.0804 451.387 96.8644Z" fill="#5D9766"/>
<path d="M598.66 210.319C592.988 204.645 592.988 195.449 598.66 189.776C604.332 184.104 613.529 184.104 619.201 189.776C624.874 195.449 624.874 204.645 619.201 210.319C613.529 215.991 604.332 215.991 598.66 210.319Z" fill="#5D9766"/>
</g>
<mask id="mask2_721_140" style="mask-type:luminance" maskUnits="userSpaceOnUse" x="0" y="0" width="667" height="667">
<path d="M0 0.00201416H666.665V666.667H0V0.00201416Z" fill="white"/>
</mask>
<g mask="url(#mask2_721_140)">
<mask id="mask3_721_140" style="mask-type:luminance" maskUnits="userSpaceOnUse" x="50" y="73" width="567" height="494">
<path d="M50.4077 73.8618H616.257V566.221H50.4077V73.8618Z" fill="white"/>
</mask>
<g mask="url(#mask3_721_140)">
<mask id="mask4_721_140" style="mask-type:luminance" maskUnits="userSpaceOnUse" x="50" y="73" width="567" height="494">
<path d="M346.632 519.342C364.317 508.249 380.404 502.114 404.447 502.443C441.097 502.945 470.046 506.474 503.982 489.903C533.452 475.515 559.366 453.784 578.358 427.024C651.387 324.128 612.305 181.312 517.142 107.748C480.022 79.0551 429.524 65.3538 384.777 79.4565C358.876 87.6191 334.885 104.647 307.734 104.096C288.531 103.706 270.734 94.4551 252.008 90.1831C200.303 78.3858 140.879 118.904 123.187 168.567C108.391 210.096 116.303 235.325 112.483 257.429C108.455 280.739 86.8767 296.9 74.4968 317.056C41.8035 370.285 41.7822 438.741 78.1554 490.201C121.289 551.223 219.011 584.247 289.72 556.007C306.298 549.386 320.122 537.522 334.747 527.285C338.851 524.413 342.78 521.759 346.632 519.342Z" fill="white"/>
</mask>
<g mask="url(#mask4_721_140)">
<mask id="mask5_721_140" style="mask-type:luminance" maskUnits="userSpaceOnUse" x="-43691" y="-43023" width="87381" height="87381">
<path d="M-43690.6 -43022.6H43689.2V44357.2H-43690.6V-43022.6Z" fill="url(#paint0_linear_721_140)"/>
</mask>
<g mask="url(#mask5_721_140)">
<path d="M346.63 519.343C364.315 508.25 380.402 502.115 404.445 502.445C441.095 502.946 470.045 506.475 503.98 489.905C533.45 475.517 559.364 453.785 578.356 427.025C651.385 324.129 612.303 181.313 517.14 107.75C480.02 79.0564 429.522 65.3551 384.775 79.4577C358.874 87.6204 334.884 104.648 307.732 104.098C288.529 103.707 270.732 94.4563 252.006 90.1843C200.301 78.387 140.877 118.906 123.185 168.568C108.389 210.097 116.301 235.327 112.481 257.431C108.453 280.74 86.8748 296.901 74.4948 317.057C41.8016 370.286 41.7802 438.742 78.1535 490.202C121.287 551.225 219.009 584.248 289.718 556.009C306.296 549.387 320.12 537.523 334.745 527.286C338.849 524.414 342.778 521.761 346.63 519.343Z" fill="url(#paint1_linear_721_140)"/>
</g>
</g>
</g>
<path d="M70.0464 214.995C60.0491 224.097 55.4238 238.715 58.3651 251.911C58.8984 254.307 59.7024 256.724 61.3184 258.571C66.0344 263.959 75.0384 261.989 80.8437 257.799C88.705 252.121 94.1397 243.053 94.9877 233.395C95.565 226.811 93.8303 219.701 88.969 215.224C84.1077 210.745 75.7784 209.881 70.9717 214.419" fill="#414781"/>
<path d="M363.876 434.474H284.708V666.667H363.876V434.474Z" fill="#1D174F"/>
<path d="M343.768 483.099L323.323 502.023L314.503 666.667" stroke="#6F75E1" stroke-width="2.09999" stroke-miterlimit="10" stroke-linecap="round"/>
<path d="M323.323 502.023L311.111 489.811" stroke="#6F75E1" stroke-width="2.09999" stroke-miterlimit="10" stroke-linecap="round"/>
<path d="M268.719 355.732C261.574 359.397 253.834 362.104 245.826 362.696C237.816 363.289 229.508 361.656 222.803 357.237C217.239 353.57 212.994 348.162 209.806 342.31C205.136 333.738 202.847 322.975 204.622 313.375C198.311 312.927 192.622 308.751 189.402 303.305C186.182 297.859 185.218 291.303 185.664 284.992C186.946 266.921 202.362 249.683 219.746 244.585C209.926 240.249 206.03 227.293 209.426 217.109C212.822 206.927 221.823 199.478 231.564 194.966C240.38 190.892 249.979 188.792 259.691 188.812C266.527 188.832 273.638 190.027 279.171 194.039C284.462 197.876 290.258 199.149 294.786 203.861C303.941 213.392 309.871 225.717 313.024 238.551C317.113 255.2 317.081 273.444 315.095 290.367C313.431 304.552 307.475 316.845 298.902 328.077C295.03 333.152 292.65 338.113 287.771 342.533C282.025 347.747 275.62 352.185 268.719 355.732Z" fill="#6F75E1"/>
<path d="M293.145 246.78L320.914 241.061C320.914 241.061 364.562 302.287 364.562 348.536V427.904C364.562 426.326 297.551 427.904 297.551 427.904L293.145 246.78Z" fill="#D8E2E6"/>
<path d="M450.199 241.591L438.021 214.267L448.256 172.152L432.283 168.27L422.048 210.384L398.688 229.072C393.501 233.221 395.341 241.519 401.795 243.087L441.005 252.616C447.46 254.185 452.903 247.657 450.199 241.591Z" fill="#86D9F7"/>
<path d="M445.223 241.484L435.807 220.355C432.399 221.924 429.406 224.864 425.707 224.584C423.24 224.397 421.135 222.768 419.347 221.056C418.831 220.561 418.319 220.051 417.8 219.548L403.159 231.261C400.024 233.769 401.136 238.785 405.036 239.733L439.667 248.149C443.568 249.097 446.858 245.151 445.223 241.484Z" fill="#FFB100"/>
<path d="M430.047 177.475L435.166 178.719" stroke="white" stroke-width="1.24533" stroke-miterlimit="10"/>
<path d="M428.655 183.203L433.773 184.447" stroke="white" stroke-width="1.24533" stroke-miterlimit="10"/>
<path d="M427.263 188.932L432.381 190.176" stroke="white" stroke-width="1.24533" stroke-miterlimit="10"/>
<path d="M425.871 194.66L430.989 195.904" stroke="white" stroke-width="1.24533" stroke-miterlimit="10"/>
<path d="M424.479 200.388L429.597 201.632" stroke="white" stroke-width="1.24533" stroke-miterlimit="10"/>
<path d="M423.087 206.116L428.206 207.36" stroke="white" stroke-width="1.24533" stroke-miterlimit="10"/>
<path d="M454.368 255.305L428.22 222.048L457.664 199.474L462.477 205.227C470.338 214.622 476.327 225.435 480.12 237.083L454.368 255.305Z" fill="#FF9E9E"/>
<path d="M445.718 235.748C444.776 236.536 443.559 236.918 442.336 236.809C441.112 236.7 439.982 236.11 439.193 235.168L421.859 214.449C421.092 213.505 420.728 212.296 420.845 211.085C420.962 209.874 421.55 208.757 422.484 207.977C423.417 207.196 424.62 206.813 425.833 206.912C427.045 207.011 428.171 207.583 428.965 208.504L446.298 229.223C446.689 229.689 446.984 230.228 447.166 230.809C447.348 231.389 447.414 232 447.361 232.606C447.307 233.212 447.134 233.801 446.852 234.34C446.57 234.879 446.185 235.358 445.718 235.748Z" fill="#FF9E9E"/>
<path d="M459.108 222.839C458.642 223.229 458.103 223.524 457.522 223.706C456.942 223.888 456.331 223.954 455.725 223.9C455.119 223.846 454.53 223.674 453.991 223.392C453.452 223.11 452.973 222.725 452.583 222.259L435.248 201.54C434.482 200.595 434.117 199.387 434.234 198.176C434.351 196.964 434.94 195.848 435.873 195.067C436.806 194.286 438.009 193.904 439.222 194.003C440.435 194.102 441.56 194.673 442.355 195.595L459.689 216.313C460.08 216.78 460.374 217.319 460.556 217.899C460.738 218.48 460.804 219.091 460.75 219.697C460.696 220.302 460.524 220.892 460.242 221.431C459.96 221.97 459.575 222.449 459.108 222.839Z" fill="#FF9E9E"/>
<path d="M462.287 212.327C461.82 212.717 461.281 213.012 460.701 213.194C460.12 213.376 459.51 213.442 458.904 213.388C458.298 213.334 457.708 213.161 457.169 212.879C456.63 212.597 456.152 212.212 455.761 211.745L443.187 196.606C442.423 195.661 442.06 194.453 442.178 193.244C442.296 192.035 442.884 190.92 443.816 190.14C444.748 189.36 445.949 188.978 447.16 189.076C448.371 189.173 449.496 189.743 450.291 190.662L462.867 205.801C463.257 206.268 463.552 206.807 463.734 207.387C463.917 207.968 463.983 208.578 463.929 209.184C463.875 209.79 463.702 210.38 463.421 210.919C463.139 211.458 462.753 211.937 462.287 212.327Z" fill="#FF9E9E"/>
<path d="M450.107 226.523C449.64 226.913 449.101 227.208 448.521 227.39C447.94 227.572 447.329 227.638 446.723 227.584C446.117 227.53 445.528 227.357 444.989 227.075C444.45 226.793 443.971 226.408 443.581 225.941L426.247 205.223C425.469 204.279 425.096 203.067 425.209 201.85C425.322 200.632 425.912 199.509 426.849 198.725C427.787 197.94 428.997 197.558 430.215 197.662C431.433 197.766 432.561 198.347 433.352 199.279L450.687 219.997C451.077 220.464 451.372 221.003 451.554 221.583C451.736 222.164 451.802 222.774 451.748 223.38C451.694 223.986 451.522 224.576 451.24 225.115C450.958 225.654 450.573 226.132 450.107 226.523Z" fill="#FF9E9E"/>
<path d="M428.965 208.503L441.551 223.545" stroke="#EF5956" stroke-width="2.06266" stroke-miterlimit="10" stroke-linecap="round"/>
<path d="M435.77 202.082L448.355 217.124" stroke="#EF5956" stroke-width="2.06266" stroke-miterlimit="10" stroke-linecap="round"/>
<path d="M443.717 197.396L456.303 212.439" stroke="#EF5956" stroke-width="2.06266" stroke-miterlimit="10" stroke-linecap="round"/>
<path d="M313.024 238.551C313.024 238.551 346.506 237.773 366.823 250.703C387.139 263.632 438.101 336.081 438.101 336.081L443.128 241.785C443.128 241.785 461.051 239.664 480.12 237.359C480.12 237.359 503.861 385.484 471.259 408.14C438.655 430.796 381.662 355.894 381.662 355.894V666.667H350.082V354.105C350.082 274.209 313.024 238.551 313.024 238.551Z" fill="white"/>
<path d="M330.548 245.081L361.382 291.853L348.46 325.965" stroke="#D8E2E6" stroke-width="2.09999" stroke-miterlimit="10" stroke-linecap="round"/>
<path d="M476.71 307.141H466.72V289.836H476.71V307.141Z" fill="#D8E2E6"/>
<path d="M466.72 289.836C465.56 289.836 464.428 290.191 463.476 290.854C462.524 291.517 461.798 292.456 461.396 293.544L438.558 355.29H450.663L472.044 297.481C473.415 293.775 470.672 289.836 466.72 289.836Z" fill="#6F75E1"/>
<path d="M542.796 299.319H437.831C437.119 299.319 436.425 299.537 435.842 299.944C435.258 300.35 434.813 300.926 434.567 301.593L387.223 429.789C386.383 432.061 388.065 434.474 390.488 434.474H495.452C496.909 434.474 498.212 433.568 498.716 432.2L546.06 304.004C546.254 303.478 546.318 302.913 546.247 302.356C546.176 301.8 545.971 301.27 545.651 300.809C545.33 300.349 544.903 299.973 544.406 299.714C543.909 299.454 543.356 299.319 542.796 299.319Z" fill="#D32828"/>
<path d="M559.67 289.836H474.872L450.664 355.29H548.996L568.509 302.531C570.786 296.376 566.232 289.836 559.67 289.836Z" fill="#D8E2E6"/>
<path d="M381.66 382.517L422.944 370.178L433.324 406.514L393.761 421.721L381.66 382.517Z" fill="#FF9E9E"/>
<path d="M396.563 390.248C395.997 389.996 395.486 389.635 395.059 389.186C394.633 388.736 394.299 388.207 394.077 387.629C393.855 387.051 393.749 386.434 393.765 385.815C393.781 385.196 393.919 384.586 394.171 384.02L405.355 358.881C405.606 358.315 405.967 357.804 406.417 357.377C406.866 356.951 407.395 356.617 407.973 356.395C408.551 356.172 409.168 356.066 409.787 356.082C410.406 356.098 411.017 356.236 411.583 356.488C412.149 356.74 412.66 357.1 413.086 357.55C413.513 357.999 413.847 358.528 414.069 359.106C414.291 359.684 414.398 360.301 414.382 360.92C414.366 361.54 414.228 362.15 413.976 362.716L402.791 387.854C402.539 388.42 402.178 388.931 401.729 389.358C401.28 389.785 400.751 390.119 400.172 390.341C399.594 390.563 398.978 390.669 398.358 390.653C397.739 390.637 397.129 390.5 396.563 390.248Z" fill="#FF9E9E"/>
<path d="M403.423 381.637C403.028 380.45 403.122 379.154 403.682 378.035C404.243 376.917 405.225 376.067 406.412 375.672L432.523 366.996C433.71 366.601 435.005 366.695 436.124 367.255C437.242 367.816 438.092 368.798 438.487 369.985C438.881 371.172 438.788 372.468 438.227 373.586C437.667 374.705 436.685 375.555 435.497 375.949L409.388 384.626C408.201 385.021 406.905 384.928 405.786 384.367C404.668 383.806 403.818 382.824 403.423 381.637Z" fill="#FF9E9E"/>
<path d="M410.647 399.148C410.451 398.56 410.373 397.939 410.418 397.321C410.462 396.703 410.628 396.1 410.906 395.546C411.183 394.992 411.567 394.498 412.036 394.092C412.504 393.687 413.048 393.378 413.636 393.182L439.747 384.506C440.335 384.311 440.955 384.233 441.573 384.278C442.191 384.322 442.794 384.488 443.348 384.765C443.902 385.043 444.396 385.427 444.801 385.895C445.206 386.364 445.515 386.908 445.711 387.496C445.906 388.084 445.984 388.704 445.939 389.322C445.895 389.94 445.729 390.543 445.452 391.097C445.174 391.651 444.79 392.145 444.322 392.55C443.853 392.955 443.309 393.265 442.721 393.46L416.611 402.137C415.423 402.531 414.128 402.438 413.01 401.877C411.891 401.317 411.041 400.335 410.647 399.148Z" fill="#FF9E9E"/>
<path d="M412.355 408.512C411.96 407.324 412.054 406.029 412.614 404.91C413.175 403.791 414.157 402.941 415.344 402.546L441.455 393.87C442.043 393.675 442.663 393.597 443.281 393.642C443.899 393.686 444.502 393.852 445.056 394.129C445.61 394.407 446.104 394.791 446.509 395.259C446.915 395.728 447.224 396.272 447.419 396.86C447.614 397.447 447.692 398.068 447.648 398.686C447.603 399.304 447.438 399.907 447.16 400.461C446.883 401.014 446.499 401.508 446.031 401.914C445.562 402.319 445.019 402.628 444.431 402.824L418.32 411.501C417.133 411.895 415.837 411.802 414.719 411.242C413.6 410.681 412.75 409.699 412.355 408.512Z" fill="#FF9E9E"/>
<path d="M410.523 389.242C410.128 388.055 410.222 386.759 410.782 385.641C411.343 384.522 412.325 383.672 413.512 383.277L439.623 374.601C440.211 374.406 440.831 374.328 441.449 374.372C442.067 374.417 442.67 374.583 443.224 374.86C443.778 375.138 444.272 375.521 444.677 375.99C445.083 376.458 445.392 377.002 445.587 377.59C445.783 378.178 445.861 378.798 445.816 379.416C445.772 380.034 445.606 380.637 445.328 381.191C445.051 381.745 444.667 382.239 444.199 382.644C443.73 383.05 443.187 383.359 442.599 383.554L416.488 392.232C415.301 392.626 414.005 392.533 412.887 391.972C411.768 391.412 410.918 390.43 410.523 389.242Z" fill="#FF9E9E"/>
<path d="M435.499 375.948L416.542 382.248" stroke="#EF5956" stroke-width="2.09999" stroke-miterlimit="10" stroke-linecap="round"/>
<path d="M439.039 384.796L420.082 391.096" stroke="#EF5956" stroke-width="2.09999" stroke-miterlimit="10" stroke-linecap="round"/>
<path d="M440.505 394.078L421.548 400.378" stroke="#EF5956" stroke-width="2.09999" stroke-miterlimit="10" stroke-linecap="round"/>
<path d="M293.144 246.78C293.144 246.78 237.766 269.013 222.958 298.783C208.148 328.552 234.81 474.563 273.942 467.381C313.074 460.198 404.745 420.958 404.745 420.958L391.492 378.021L293.482 404.304L293.144 246.78Z" fill="white"/>
<path d="M363.876 385.428L381.66 379.894V344.849C381.66 344.849 400.888 327.523 381.66 307.143C381.66 307.143 377.008 287.345 365.67 266.504" stroke="#D8E2E6" stroke-width="2.09999" stroke-miterlimit="10" stroke-linecap="round"/>
<path d="M323.323 360.221C323.323 360.221 342.551 342.894 323.323 322.515" stroke="white" stroke-width="2.09999" stroke-miterlimit="10" stroke-linecap="round"/>
<path d="M372.863 166.764C372.863 166.764 372.919 273.921 320.914 241.063L318.883 251.945C318.406 254.499 317.183 256.854 315.367 258.713C313.551 260.571 311.225 261.848 308.683 262.384H308.682C299.382 264.341 291.147 256.073 293.143 246.781L312.566 156.354C312.566 156.354 375.041 133.228 372.863 166.764Z" fill="#FF9E9E"/>
<path d="M335.106 198.236C335.09 200.37 334.166 202.091 333.043 202.082C331.92 202.072 331.024 200.336 331.042 198.204C331.058 196.071 331.982 194.35 333.104 194.359C334.226 194.368 335.123 196.103 335.106 198.236Z" fill="#1D174F"/>
<path d="M365.908 198.218C365.891 200.351 364.968 202.072 363.846 202.063C362.723 202.053 361.827 200.319 361.844 198.186C361.86 196.052 362.784 194.331 363.907 194.34C365.028 194.35 365.926 196.084 365.908 198.218Z" fill="#1D174F"/>
<path d="M349.422 196.545L351.78 214.768C351.835 215.191 351.886 215.64 351.706 216.025C351.382 216.721 350.483 216.901 349.716 216.917C347.644 216.96 345.595 216.467 343.77 215.485" stroke="#EF5956" stroke-width="2.59199" stroke-miterlimit="10" stroke-linecap="round"/>
<path d="M343.21 177.796C338.021 174.118 331.691 173.034 325.551 174.644C323.627 175.15 324.443 178.134 326.374 177.627C331.779 176.208 337.098 177.242 341.649 180.467C343.275 181.62 344.822 178.939 343.21 177.796Z" fill="#1D174F"/>
<path d="M373.207 177.439C368.325 174.098 360.676 174.759 355.916 177.971C354.275 179.078 355.82 181.76 357.477 180.642C361.388 178.004 367.613 177.35 371.645 180.11C373.292 181.238 374.841 178.558 373.207 177.439Z" fill="#1D174F"/>
<path d="M305.051 194.9C305.051 194.9 324.328 178.558 332.475 156.687C332.475 156.687 348.948 176.31 377.665 180.194C406.384 184.078 410.924 135.563 393.143 132.044C375.363 128.527 335.858 141.92 335.858 141.92C335.858 141.92 311.312 124.328 294.132 144.687C247.874 199.499 297.551 226.265 297.551 226.265L305.051 194.9Z" fill="#6F75E1"/>
<path d="M274.526 191.39C276.197 214.76 297.55 226.265 297.55 226.265" stroke="#1D174F" stroke-width="4.20132" stroke-miterlimit="10"/>
<path d="M295.563 184.646C297.012 184.157 298.542 183.959 300.067 184.063C301.592 184.166 303.082 184.569 304.451 185.248C305.821 185.927 307.043 186.869 308.048 188.021C309.053 189.172 309.822 190.51 310.31 191.959C310.798 193.407 310.996 194.938 310.893 196.463C310.789 197.988 310.387 199.478 309.708 200.847C309.029 202.216 308.086 203.439 306.935 204.444C305.783 205.449 304.445 206.217 302.997 206.705C300.081 207.654 296.909 207.413 294.17 206.037C291.43 204.66 289.345 202.258 288.366 199.353C287.387 196.448 287.594 193.274 288.941 190.52C290.289 187.766 292.668 185.655 295.563 184.646Z" fill="#FF9E9E"/>
<path d="M355.012 202.532C357.375 211.231 366.344 216.367 375.043 214.004C383.742 211.64 388.878 202.671 386.515 193.972C384.151 185.274 375.183 180.138 366.484 182.502C357.784 184.866 352.648 193.834 355.012 202.532Z" stroke="#1D174F" stroke-width="2.59199" stroke-miterlimit="10"/>
<path d="M313.066 202.172C315.428 210.871 324.398 216.007 333.096 213.644C341.795 211.28 346.931 202.311 344.567 193.612C342.204 184.914 333.236 179.778 324.538 182.142C315.838 184.506 310.702 193.474 313.066 202.172Z" stroke="#1D174F" stroke-width="2.59199" stroke-miterlimit="10"/>
<path d="M354.048 199.816L345.071 199.2" stroke="#1D174F" stroke-width="2.59199" stroke-miterlimit="10"/>
<path d="M350.195 229.353C350.195 229.353 339.214 238.809 325.928 223.137" stroke="#EF5956" stroke-width="2.59199" stroke-miterlimit="10" stroke-linecap="round"/>
<path d="M330.548 245.081C330.548 245.081 322.376 242.675 311.278 235.623" stroke="#EF5956" stroke-width="2.59199" stroke-miterlimit="10" stroke-linecap="round"/>
<path d="M293.144 246.78C293.144 246.78 314.504 302.375 314.504 422.306C314.504 542.237 301.712 666.667 301.712 666.667H218.809C218.809 666.667 173.521 510.187 190.835 459.584C208.149 408.98 265.111 412.445 265.111 412.445L293.144 246.78Z" fill="white"/>
<path d="M363.877 385.428L287.641 405.772L277.625 340.948C276.057 330.802 272.318 321.114 266.662 312.547C261.007 303.979 253.569 296.733 244.855 291.304" stroke="#D8E2E6" stroke-width="2.09999" stroke-miterlimit="10" stroke-linecap="round"/>
<path d="M233.989 417.201C243.847 447.352 257.838 470.337 273.941 467.381C302.227 462.189 352.787 442.358 381.511 430.594" stroke="#D8E2E6" stroke-width="2.09999" stroke-miterlimit="10" stroke-linecap="round"/>
<path d="M278.468 174.775C278.468 176.952 274.526 192.302 274.526 192.302C274.526 192.302 270.583 176.952 270.583 174.775C270.583 173.729 270.998 172.726 271.738 171.987C272.477 171.248 273.48 170.832 274.526 170.832C275.571 170.832 276.574 171.248 277.314 171.987C278.053 172.726 278.468 173.729 278.468 174.775Z" stroke="#1D174F" stroke-width="4.20132" stroke-miterlimit="10" stroke-linecap="round" stroke-linejoin="round"/>
<path d="M258.67 182.947C260.77 183.524 274.527 191.391 274.527 191.391C274.527 191.391 258.682 191.127 256.582 190.551C255.597 190.253 254.768 189.583 254.27 188.683C253.773 187.782 253.647 186.723 253.919 185.731C254.191 184.739 254.841 183.893 255.728 183.373C256.616 182.852 257.671 182.7 258.67 182.947Z" stroke="#1D174F" stroke-width="4.20132" stroke-miterlimit="10" stroke-linecap="round" stroke-linejoin="round"/>
<path d="M274.526 191.39L264.104 208.251" stroke="#1D174F" stroke-width="4.20132" stroke-miterlimit="10" stroke-linecap="round" stroke-linejoin="round"/>
<path d="M282.104 251.745L284.71 307.141L309.939 331.961" stroke="#D8E2E6" stroke-width="2.09999" stroke-miterlimit="10" stroke-linecap="round"/>
<path d="M299.279 321.476L293.484 334.509L309.938 399.892" stroke="#D8E2E6" stroke-width="2.09999" stroke-miterlimit="10" stroke-linecap="round"/>
<path d="M355.59 307.141L364.562 322.563L356.697 387.945" stroke="#D8E2E6" stroke-width="2.09999" stroke-miterlimit="10" stroke-linecap="round"/>
<path d="M272.034 541.019H269.735C257.087 541.019 246.835 530.766 246.835 518.118V476.181H294.934V518.118C294.934 530.766 284.681 541.019 272.034 541.019Z" stroke="#D8E2E6" stroke-width="2.09999" stroke-miterlimit="10" stroke-linecap="round"/>
<path d="M380.931 539.166C372.254 535.535 366.156 526.965 366.156 516.97V476.182H381.66" stroke="#D8E2E6" stroke-width="2.09999" stroke-miterlimit="10" stroke-linecap="round"/>
<path d="M204.671 312.888C208.845 313.311 213.189 312.223 216.533 309.675" stroke="#414781" stroke-width="2.09999" stroke-miterlimit="10" stroke-linecap="round"/>
<path d="M218.809 244.777C223.717 247.523 229.653 248.373 235.134 247.116C240.614 245.859 245.586 242.505 248.807 237.896" stroke="#414781" stroke-width="2.09999" stroke-miterlimit="10" stroke-linecap="round"/>
<path d="M249.551 237.86C252.263 241.935 257.098 244.508 261.993 244.48" stroke="#414781" stroke-width="2.09999" stroke-miterlimit="10" stroke-linecap="round"/>
<path d="M463.947 161.738C463.947 163.4 463.287 164.994 462.111 166.169C460.936 167.344 459.342 168.004 457.68 168.004C456.018 168.004 454.424 167.344 453.249 166.169C452.074 164.994 451.414 163.4 451.414 161.738C451.414 160.076 452.074 158.482 453.249 157.306C454.424 156.131 456.018 155.471 457.68 155.471C459.342 155.471 460.936 156.131 462.111 157.306C463.287 158.482 463.947 160.076 463.947 161.738Z" fill="#FFB100"/>
<path d="M474.846 148.582C474.846 149.23 474.588 149.851 474.13 150.31C473.671 150.768 473.05 151.026 472.402 151.026C471.753 151.026 471.132 150.768 470.673 150.31C470.215 149.851 469.958 149.23 469.958 148.582C469.958 147.933 470.215 147.312 470.673 146.854C471.132 146.395 471.753 146.138 472.402 146.138C473.05 146.138 473.671 146.395 474.13 146.854C474.588 147.312 474.846 147.933 474.846 148.582Z" fill="#FFB100"/>
<path d="M448.096 141.472C448.096 142.121 447.839 142.742 447.38 143.201C446.922 143.659 446.3 143.916 445.652 143.916C445.004 143.916 444.382 143.659 443.924 143.201C443.465 142.742 443.208 142.121 443.208 141.472C443.208 140.824 443.465 140.203 443.924 139.744C444.382 139.286 445.004 139.028 445.652 139.028C446.3 139.028 446.922 139.286 447.38 139.744C447.839 140.203 448.096 140.824 448.096 141.472Z" fill="#FFB100"/>
</g>
</g>
<defs>
<linearGradient id="paint0_linear_721_140" x1="337.872" y1="196.625" x2="323.7" y2="683.265" gradientUnits="userSpaceOnUse">
<stop stop-color="white" stop-opacity="0"/>
<stop offset="0.999" stop-color="white"/>
<stop offset="1" stop-color="white"/>
</linearGradient>
<linearGradient id="paint1_linear_721_140" x1="337.874" y1="196.626" x2="323.702" y2="683.265" gradientUnits="userSpaceOnUse">
<stop stop-color="#2132D2"/>
<stop offset="0.999" stop-color="#2132D2"/>
<stop offset="1" stop-color="#2132D2"/>
</linearGradient>
<clipPath id="clip0_721_140">
<rect width="666.667" height="666.667" fill="white"/>
</clipPath>
</defs>
</svg>
