<svg width="234" height="62" viewBox="0 0 234 62" fill="none" xmlns="http://www.w3.org/2000/svg">
<path opacity="0.7" d="M43.3752 32.3291C37.4981 31.0125 2.90534 36.7359 0.901276 36.6245C-1.24851 36.2606 0.894476 24.9147 2.68191 23.0465C3.31334 22.3866 4.09632 22.1691 5.94787 22.2349C7.83537 22.3028 28.3044 19.465 46.2594 17.6127C46.2594 17.6127 73.8326 14.7813 115.458 13.6451C118.61 13.5591 116.119 14.2678 119.83 13.9888C127.74 13.3926 144.967 14.1023 150.958 13.696C160.138 13.0733 152.302 13.7703 178.351 14.6487C180.103 14.7081 192.345 15.0963 193.969 14.7452C194.68 14.5914 195.207 14.7006 195.195 14.9457C195.42 14.9743 212.743 16.5593 212.823 16.8065C212.94 17.0621 213.464 17.234 213.973 17.1024C214.912 16.8595 233.667 17.9045 233.908 18.6503C234.6 20.7847 231.228 29.1115 228.915 31.0147C226.523 32.9826 215.196 29.2875 204.878 29.7819C204.878 29.7819 204.173 29.713 202.937 29.627C158.278 26.5335 158.893 27.2581 149.916 27.778C148.822 27.0056 144.518 28.7041 141.949 27.4045C140.871 26.8582 133.163 26.7245 131.442 27.2114C131.073 27.3154 128.328 27.3345 124.357 27.3175C120.288 27.3005 90.312 27.1542 86.4768 28.7964C77.6717 27.7705 51.7568 31.2523 43.3752 32.3291Z" fill="#FEEF38"/>
<path opacity="0.7" d="M192.575 28.1365C196.567 30.0885 228.999 34.1483 232.252 35.3523C234.097 36.2699 229.395 45.4418 227.392 46.5525C226.678 46.9477 225.936 46.9123 224.314 46.3428C221.94 45.51 201.546 42.2576 187.386 40.4728C186.968 40.0989 185.487 40.9212 185.279 40.5117C185.107 40.2736 181.498 39.5962 176.094 38.8175C156.9 36.0519 142.55 34.7714 123.938 33.1014C121.045 32.8417 123.373 32.4885 119.951 32.3839C112.668 32.161 96.8735 30.281 91.347 30.4452C81.3467 30.7429 87.6953 29.5653 66.1595 28.8849C59.5408 28.6754 53.1304 28.6134 51.8162 28.9337C51.1708 29.0908 50.6826 29.0056 50.6831 28.784C50.588 28.7749 34.4489 27.8376 34.4118 27.7498C34.287 27.525 33.7946 27.4025 33.3374 27.539C32.4898 27.6876 15.2632 28.1009 14.9676 27.4541C14.1143 25.5824 16.3608 17.8482 18.3391 15.9674C19.37 14.9877 22.7194 15.1098 26.9615 15.3882C42.6647 16.4172 33.277 15.3534 47.5448 15.9425C87.0438 17.5734 74.0653 17.9605 92.5588 17.8045C93.5683 18.5382 97.6477 17.2161 100.032 18.5826C101.027 19.1521 108.251 19.8054 109.886 19.4669C110.238 19.3939 112.813 19.6335 116.534 20.0086C135.842 21.9544 149.503 23.767 152.087 23.2227C156.245 24.4836 168.746 25.6824 192.575 28.1365Z" fill="#FEEF38"/>
<path opacity="0.7" d="M55.6152 47.3928C53.4493 46.6251 44.1483 46.6771 41.6913 46.7121C33.6066 46.8266 36.4346 46.7725 28.3105 47.0641C25.5488 47.1627 16.9813 47.5942 15.8781 47.4023C13.9027 46.8128 16.614 35.7554 18.399 34.0887C19.0304 33.4992 19.7761 33.3635 21.4936 33.6275C22.9297 33.848 40.0181 33.3847 41.4223 33.3507C50.5316 33.1323 59.3056 32.9924 59.3056 32.9924C59.7675 33.3401 61.1631 32.2025 61.4186 32.6223C61.8203 33.1069 76.2307 33.1917 91.1348 33.39C96.7958 33.4652 122.651 33.9794 123.86 34.0144C126.795 34.0993 124.436 34.6665 127.903 34.5721C135.288 34.3728 151.264 35.7883 156.861 35.5327C161.352 35.327 162.312 35.3652 166.554 36.0279C170.226 36.6015 194.08 37.8982 196.844 37.3023C197.516 37.157 198 37.2588 197.976 37.5038C198.207 37.5356 214.279 39.0931 214.331 39.2892C214.431 39.5437 214.91 39.6953 215.392 39.5744C216.265 39.3539 233.733 40.0473 233.936 40.7873C234.511 42.8983 231.093 51.2786 228.868 53.2157C226.541 55.2408 215.752 51.7281 206.403 52.306C160.121 48.6947 165.227 49.2567 155.12 49.5599C154.142 48.7573 150.038 50.3297 147.706 48.9195C146.734 48.3321 139.553 47.8836 137.916 48.3194C137.566 48.4127 135.006 48.2961 131.306 48.0915C127.605 47.8879 122.763 47.591 117.84 47.3821C115.161 47.2687 98.4542 46.4608 95.9309 47.3567C87.98 45.7069 58.168 47.3164 55.6152 47.3928Z" fill="#FEEF38"/>
<path opacity="0.7" d="M179.822 38.8013C180.718 40.3756 187.905 39.7582 188.727 40.819C189.032 41.5256 185.733 52.8811 185.449 53.5972C185.236 54.1361 185.107 54.1923 184.894 53.8518C184.369 53.0137 179.625 53.1177 178.571 53.1718C178.5 52.8217 178.237 53.9473 178.195 53.5271C178.138 52.9787 175.381 52.9861 174.876 52.9967C170.623 53.0826 168.089 53.8104 167.091 53.9653C166.567 54.047 166.904 53.3659 166.31 53.6884C165.073 54.361 162.086 54.2411 161.225 55.0442C160.537 55.685 160.385 55.7157 159.533 55.4898C158.675 55.2617 154.793 56.8286 154.596 57.7356C154.557 57.9722 154.453 57.9276 154.375 57.6974C154.371 57.6847 151.612 58.3573 151.57 58.2756C151.457 58.0613 151.336 57.986 151.327 58.1706C151.317 58.2427 151.16 58.422 150.924 58.6342C150.489 59.0257 149.011 60.3846 148.696 59.8743C147.514 57.9552 144.186 50.6459 143.614 48.3491C143.063 46.1255 146.485 47.18 147.897 45.2301C150.456 44.2626 154.111 42.9991 156.76 42.4761L158.495 41.2604C158.855 41.9234 159.339 39.981 160.111 41.1744C160.421 41.6529 161.947 41.48 162.195 40.8859C162.25 40.7724 162.793 40.6917 163.582 40.6132C164.371 40.5337 165.405 40.4647 166.453 40.3926C168.545 40.2494 170.695 40.0828 171.052 39.3179C172.252 40.2133 175.409 39.477 179.822 38.8013Z" fill="#FEEF38"/>
</svg>
