<svg width="62" height="10" viewBox="0 0 62 10" fill="none" xmlns="http://www.w3.org/2000/svg">
<path d="M3.32312 3.30225C3.42091 2.42454 3.82586 1.15004 4.12301 0.876212C4.23494 0.773252 4.36109 0.724892 4.5764 0.724892C4.66872 0.724892 4.77748 0.733732 4.9086 0.7511C4.95595 0.75708 5.05558 0.760044 5.19886 0.760044C6.65112 0.760044 12.6104 0.466426 14.5121 0.379586C14.5121 0.379586 28.5844 0.082926 30.9405 0.054898C30.9608 0.054586 30.9797 0.0545862 30.9982 0.0545862C31.2756 0.0545862 31.3411 0.0813924 31.3877 0.108406C31.4342 0.13542 31.4623 0.162252 31.6648 0.162252C31.7408 0.162252 31.8411 0.158586 31.9766 0.149538C32.534 0.112384 33.287 0.101412 34.1068 0.101412C34.6673 0.101412 35.2593 0.106586 35.8417 0.111552C36.4239 0.11644 36.9969 0.121718 37.5193 0.121718C38.2818 0.121718 38.9368 0.110746 39.358 0.0738783C39.911 0.0252323 40.2532 3.83764e-05 40.5836 3.83764e-05C40.9338 3.83764e-05 41.2708 0.0283783 41.8316 0.0878923C42.3066 0.138072 44.1134 0.174213 45.8671 0.174213C47.5672 0.174213 49.2177 0.140412 49.558 0.0522463C49.6202 0.0361003 49.6766 0.0285862 49.7229 0.0285862C49.8014 0.0285862 49.8505 0.050426 49.8498 0.088412C49.8968 0.09226 54.0261 0.288066 54.0425 0.332552C54.0638 0.376232 54.1333 0.404572 54.2149 0.404572C54.2479 0.404572 54.283 0.399892 54.3176 0.389752C54.4182 0.360086 55.4171 0.336218 56.472 0.336218C57.7077 0.336218 59.0207 0.369212 59.0564 0.4651C59.1988 0.847898 58.8424 2.11792 58.4324 2.94191C57.8926 2.90991 57.3861 2.89121 57.0005 2.89121C56.7101 2.89121 56.4881 2.9019 56.3719 2.92525C56.3313 2.93643 56.2902 2.94139 56.2515 2.94139C56.16 2.94139 56.082 2.91326 56.0573 2.87041C56.032 2.81139 54.8041 2.79759 53.6039 2.79759C53.0613 2.79759 52.5246 2.80042 52.1071 2.80338C51.689 2.80622 51.3908 2.80905 51.3266 2.80905C51.3216 2.80905 51.318 2.80905 51.3159 2.80905C51.3143 2.77554 51.2701 2.75726 51.1994 2.75726C51.143 2.75726 51.0699 2.76875 50.9886 2.79322C50.4407 2.95704 46.6437 3.22505 44.5075 3.22505C44.434 3.22505 44.3622 3.22477 44.293 3.22404C42.076 3.20321 42.2617 3.02904 40.899 3.02904C40.6356 3.02904 40.3145 3.03554 39.9071 3.05088C39.8119 3.05454 39.7085 3.05626 39.5972 3.05626C38.7319 3.05626 37.4033 2.9539 35.9959 2.85172C34.5888 2.74925 33.1026 2.64707 31.922 2.64707C31.8653 2.64707 31.8091 2.64738 31.7538 2.64788C31.7213 2.64809 31.6903 2.64809 31.6612 2.64809C30.8133 2.64809 31.4103 2.53057 30.6048 2.50254C28.5305 2.43054 26.3866 2.40343 24.3279 2.40343C17.9075 2.40343 12.3234 2.66839 12.3234 2.66839C7.97031 2.95104 5.00945 3.18343 3.32312 3.30225Z" fill="#E974FE"/>
<path d="M0.263752 6.85669C0.242016 6.85669 0.224752 6.85617 0.21235 6.85487C-0.350004 6.74252 0.32844 3.98603 0.815134 3.54788C0.950204 3.42651 1.10732 3.37238 1.40297 3.37238C1.48432 3.37238 1.57602 3.37654 1.68075 3.38436C1.70847 3.3865 1.74484 3.38751 1.78982 3.38751C2.03633 3.38751 2.54351 3.35704 3.32312 3.3022C3.27245 3.75752 3.30432 4.10586 3.47688 4.15269C3.50988 4.15786 3.57264 4.16052 3.66182 4.16052C4.18213 4.16052 5.59822 4.07622 7.21358 3.99222C8.82891 3.90803 10.6433 3.82402 11.9613 3.82402C12.7678 3.82402 13.3885 3.85551 13.6633 3.93767C14.3891 3.8937 19.2478 3.50472 22.1858 3.50472C22.9504 3.50472 23.5851 3.53103 23.9826 3.59684C24.4293 3.42966 26.3798 3.38772 28.4993 3.38772C29.5661 3.38772 30.6755 3.39838 31.6578 3.40904C32.6401 3.41972 33.4952 3.43018 34.0524 3.43018C34.4385 3.43018 34.6816 3.42521 34.7256 3.41138C34.9013 3.35686 35.3402 3.33187 35.8048 3.33187C36.4234 3.33187 37.0877 3.37604 37.2348 3.45222C37.4137 3.54504 37.6269 3.57471 37.8461 3.57471C38.0416 3.57471 38.2421 3.55102 38.4264 3.52736C38.6107 3.5037 38.7795 3.47984 38.9121 3.47984C39.0098 3.47984 39.0878 3.49284 39.138 3.52817C40.5537 3.42521 40.8051 3.36234 42.0477 3.36234C43.2655 3.36234 45.435 3.42287 50.5835 3.56504C51.2067 3.58222 51.6638 3.5882 52.0153 3.5882C52.4204 3.5882 52.6856 3.58038 52.9037 3.57237C53.1219 3.56434 53.2924 3.55651 53.5085 3.55651C53.9143 3.55651 54.4796 3.58454 55.8168 3.69353C56.2959 3.73253 56.7301 3.76422 57.0889 3.76422C57.5359 3.76422 57.8658 3.71506 58.0192 3.56922C58.1518 3.44338 58.2951 3.2177 58.4324 2.94187C59.977 3.03316 61.7955 3.23385 61.8446 3.41952C61.9161 3.68885 61.6696 4.30921 61.335 4.91735C60.6013 6.25086 60.2368 6.4605 59.7854 6.4605C59.6749 6.4605 59.5592 6.448 59.4318 6.43622C58.5832 6.35884 57.9672 6.26987 57.9672 6.26987C57.4628 6.20669 57.031 6.16535 56.6547 6.13956C56.6521 6.01351 56.6365 5.91084 56.6059 5.84056C56.59 5.80369 56.3841 5.78887 56.0679 5.78887C54.8961 5.78887 52.2082 5.993 52.0434 6.03922C52.0052 6.05404 51.9656 6.06054 51.929 6.06054C51.8575 6.06054 51.7969 6.03556 51.7756 5.99604C51.7644 5.96884 47.7599 5.94302 47.7302 5.94152C47.7295 5.90636 47.6873 5.88637 47.6205 5.88637C47.5732 5.88637 47.5139 5.89622 47.4479 5.91754C46.9518 6.0777 43.5302 6.20274 41.4271 6.20274C40.7999 6.20274 40.2898 6.19187 40.0098 6.16717C39.4903 6.12118 39.17 6.09567 38.8471 6.09567C38.5158 6.09567 38.1815 6.1224 37.6266 6.1817C37.481 6.19736 37.3063 6.20934 37.1082 6.21816C36.6275 6.12604 35.6785 6.04835 35.0711 6.04835C34.867 6.04835 34.7014 6.05719 34.6052 6.07721C34.5966 6.07903 34.5771 6.07984 34.5472 6.07984C34.2209 6.07984 32.6648 5.97706 30.7798 5.87467C28.8951 5.772 26.6809 5.66922 25.038 5.66922C23.9652 5.66922 23.1358 5.71321 22.8004 5.82917C22.2898 5.74571 21.5376 5.71188 20.6546 5.71188C19.1796 5.71188 17.3384 5.80603 15.6437 5.91968C14.8028 5.87672 14.2567 5.82634 14.2116 5.76734C14.2017 5.74956 14.1835 5.74236 14.1595 5.74236C14.1108 5.74236 14.0383 5.77171 13.9635 5.80104C13.8887 5.8305 13.8116 5.85985 13.7535 5.85985C13.7287 5.85985 13.7074 5.85468 13.6912 5.84168C12.8958 5.82756 5.19736 5.66537 4.43927 5.49036C4.26562 5.45035 4.13237 5.43036 4.0239 5.43036C3.87377 5.43036 3.7711 5.46884 3.67433 5.54572C3.50309 5.68201 3.27011 6.12219 3.06647 6.63488C1.65535 6.75766 0.553496 6.85669 0.263752 6.85669Z" fill="#E974FE"/>
<path d="M3.66185 4.16064C3.57267 4.16064 3.5099 4.15799 3.47691 4.15282C3.30435 4.10599 3.27247 3.75764 3.32314 3.30233C5.00948 3.18351 7.97033 2.95112 12.3234 2.66848C12.3234 2.66848 17.9075 2.40351 24.3279 2.40351C26.3866 2.40351 28.5306 2.43063 30.6048 2.50262C31.4103 2.53065 30.8134 2.64817 31.6612 2.64817C31.6903 2.64817 31.7213 2.64817 31.7538 2.64796C31.8092 2.64747 31.8653 2.64716 31.922 2.64716C33.1027 2.64716 34.5888 2.74934 35.9959 2.8518C37.4033 2.95398 38.7319 3.05635 39.5972 3.05635C39.7085 3.05635 39.812 3.05463 39.9071 3.05096C40.3145 3.03562 40.6356 3.02912 40.899 3.02912C42.2617 3.02912 42.076 3.2033 44.2931 3.22412C44.3622 3.22485 44.434 3.22514 44.5076 3.22514C46.6437 3.22514 50.4408 2.95713 50.9886 2.7933C51.07 2.76884 51.143 2.75735 51.1994 2.75735C51.2702 2.75735 51.3144 2.77562 51.3159 2.80914C51.318 2.80914 51.3216 2.80914 51.3266 2.80914C51.3908 2.80914 51.689 2.8063 52.1071 2.80347C52.5247 2.80051 53.0613 2.79767 53.6039 2.79767C54.8041 2.79767 56.0321 2.81148 56.0573 2.8705C56.082 2.91335 56.16 2.94148 56.2515 2.94148C56.2902 2.94148 56.3313 2.93651 56.3719 2.92533C56.4881 2.90198 56.7101 2.8913 57.0006 2.8913C57.3861 2.8913 57.8926 2.90999 58.4324 2.942C58.2951 3.21783 58.1518 3.44351 58.0192 3.56935C57.8658 3.71519 57.5359 3.76435 57.089 3.76435C56.7302 3.76435 56.296 3.73266 55.8168 3.69366C54.4796 3.58467 53.9144 3.55664 53.5085 3.55664C53.2924 3.55664 53.1219 3.56446 52.9037 3.5725C52.6856 3.58051 52.4204 3.58833 52.0153 3.58833C51.6638 3.58833 51.2067 3.58235 50.5835 3.56517C45.435 3.423 43.2655 3.36247 42.0477 3.36247C40.8052 3.36247 40.5537 3.42534 39.138 3.5283C39.0879 3.49296 39.0099 3.47996 38.9121 3.47996C38.7795 3.47996 38.6108 3.50383 38.4264 3.52749C38.2421 3.55115 38.0416 3.57484 37.8461 3.57484C37.6269 3.57484 37.4137 3.54517 37.2348 3.45235C37.0877 3.37617 36.4234 3.332 35.8048 3.332C35.3402 3.332 34.9013 3.35698 34.7256 3.41151C34.6816 3.42534 34.4385 3.4303 34.0524 3.4303C33.4953 3.4303 32.6401 3.41985 31.6578 3.40917C30.6756 3.39851 29.5661 3.38785 28.4994 3.38785C26.3798 3.38785 24.4293 3.42978 23.9826 3.59696C23.5851 3.53116 22.9504 3.50485 22.1858 3.50485C19.2478 3.50485 14.3891 3.89383 13.6633 3.9378C13.3885 3.85564 12.7679 3.82415 11.9613 3.82415C10.6434 3.82415 8.82893 3.90816 7.2136 3.99235C5.59825 4.07635 4.18216 4.16064 3.66185 4.16064Z" fill="#B334EA"/>
<path d="M36.1775 9.69604C35.9679 9.69604 35.7643 9.66641 35.5925 9.57468C35.4515 9.49923 34.8244 9.45841 34.2311 9.45841C33.7688 9.45841 33.3268 9.48318 33.1511 9.5362C33.1113 9.54787 32.9529 9.55305 32.7028 9.55305C31.8732 9.55305 30.0326 9.49741 28.1487 9.45219C26.9511 9.42357 25.7356 9.39684 24.7499 9.39684C23.718 9.39684 22.9385 9.42619 22.6954 9.51303C21.9201 9.34557 19.9106 9.30352 17.7347 9.30352C15.956 9.30352 14.0664 9.33155 12.647 9.34221C11.6092 8.92956 3.46241 8.92122 2.74884 8.75102C2.44708 8.63634 2.71247 7.52606 3.06653 6.63506C3.51654 6.59586 3.99796 6.55421 4.49458 6.51258C6.5484 6.34054 8.86139 6.16839 10.2807 6.16839C10.8137 6.16839 11.2207 6.19254 11.4406 6.25024C12.3173 6.17356 13.903 6.03634 15.6437 5.91986C18.8727 6.08418 26.4451 6.13618 26.6516 6.1369C28.1276 6.1439 29.2209 6.14239 29.5176 6.1439C30.1387 6.14684 29.7986 6.25939 30.2375 6.25939C30.3074 6.25939 30.3974 6.25653 30.5144 6.24972C30.9595 6.22424 31.5333 6.21621 32.1662 6.21621C32.7278 6.21621 33.3357 6.2227 33.9412 6.22902C34.5467 6.23542 35.1497 6.24202 35.7011 6.24202C36.2326 6.24202 36.7162 6.23602 37.1083 6.21834C37.2359 6.24273 37.3308 6.26821 37.3774 6.2934C37.6257 6.42818 37.9436 6.4624 38.2598 6.4624C38.422 6.4624 38.5838 6.45335 38.7353 6.44423C38.8869 6.43539 39.0284 6.42634 39.1498 6.42634C39.3053 6.42634 39.428 6.44108 39.4977 6.48952C41.3044 6.45286 42.184 6.4422 42.6538 6.4422C42.9713 6.4422 43.1015 6.44706 43.2042 6.45174C43.3069 6.45671 43.3821 6.46139 43.5893 6.46139C44.1826 6.46139 45.8567 6.42218 52.3461 6.23074C52.8996 6.21418 53.3598 6.20404 53.6796 6.20006C54.3049 6.19255 54.8046 6.10339 55.6603 6.10339C55.946 6.10339 56.2718 6.11353 56.6548 6.13974C56.6722 6.90754 56.2183 8.54352 55.8036 9.00156C55.6086 9.21689 55.0652 9.26624 54.3439 9.26624C54.0389 9.26624 53.7022 9.2574 53.3463 9.24856C52.9906 9.23972 52.6162 9.23091 52.2358 9.23091C51.5604 9.23091 50.8662 9.25872 50.225 9.36374C36.8524 9.54472 41.3608 9.3022 37.4452 9.63856C37.3979 9.60536 37.3259 9.59285 37.2359 9.59285C37.1059 9.59285 36.9387 9.61885 36.7552 9.64457C36.5719 9.67036 36.3722 9.69604 36.1775 9.69604Z" fill="#E974FE"/>
<path d="M3.06653 6.63501C3.27016 6.12232 3.50315 5.68214 3.67438 5.54584C3.77115 5.46896 3.87383 5.43048 4.02395 5.43048C4.13242 5.43048 4.26567 5.45048 4.43933 5.49049C5.19741 5.6655 12.8958 5.82768 13.6913 5.8418C13.7074 5.8548 13.7288 5.85998 13.7535 5.85998C13.8116 5.85998 13.8887 5.83062 13.9636 5.80116C14.0383 5.77184 14.1108 5.74248 14.1596 5.74248C14.1836 5.74248 14.2017 5.74968 14.2117 5.76747C14.2568 5.82646 14.8029 5.87685 15.6437 5.9198C13.903 6.03628 12.3173 6.17351 11.4406 6.25018C11.2207 6.19249 10.8137 6.16834 10.2807 6.16834C8.86138 6.16834 6.5484 6.34048 4.49458 6.51252C3.99795 6.55415 3.51654 6.5958 3.06653 6.63501ZM39.4976 6.48946C39.428 6.44102 39.3052 6.42628 39.1498 6.42628C39.0283 6.42628 38.8869 6.43533 38.7353 6.44417C38.5837 6.4533 38.422 6.46234 38.2598 6.46234C37.9436 6.46234 37.6256 6.42813 37.3773 6.29334C37.3308 6.26815 37.2359 6.24267 37.1082 6.21828C37.3064 6.20947 37.4811 6.19748 37.6267 6.18183C38.1815 6.12252 38.5159 6.0958 38.8471 6.0958C39.17 6.0958 39.4904 6.1213 40.0098 6.1673C40.2899 6.192 40.8 6.20286 41.4271 6.20286C43.5302 6.20286 46.9518 6.07783 47.4479 5.91767C47.514 5.89635 47.5732 5.8865 47.6206 5.8865C47.6874 5.8865 47.7295 5.90649 47.7303 5.94164C47.7599 5.94315 51.7644 5.96897 51.7756 5.99616C51.7969 6.03568 51.8575 6.06067 51.929 6.06067C51.9657 6.06067 52.0052 6.05417 52.0434 6.03935C52.2083 5.99312 54.8961 5.789 56.068 5.789C56.3841 5.789 56.59 5.80382 56.6059 5.84068C56.6366 5.91096 56.6522 6.01364 56.6548 6.13968C56.2718 6.11348 55.946 6.10334 55.6603 6.10334C54.8046 6.10334 54.3049 6.19249 53.6796 6.2C53.3598 6.20398 52.8996 6.21412 52.3461 6.23068C45.8567 6.42212 44.1826 6.46133 43.5893 6.46133C43.382 6.46133 43.3069 6.45665 43.2042 6.45168C43.1015 6.447 42.9712 6.44214 42.6538 6.44214C42.184 6.44214 41.3044 6.4528 39.4976 6.48946Z" fill="#B334EA"/>
</svg>
