<svg width="20" height="19" viewBox="0 0 20 19" fill="none" xmlns="http://www.w3.org/2000/svg">
<path d="M4.90405 2.97561C4.90379 3.50604 4.69282 4.01465 4.31756 4.38953C3.9423 4.76442 3.43349 4.97487 2.90305 4.97461C2.37262 4.97434 1.86402 4.76338 1.48913 4.38812C1.11425 4.01286 0.903788 3.50404 0.904053 2.97361C0.904318 2.44318 1.11529 1.93457 1.49055 1.55969C1.86581 1.1848 2.37462 0.974344 2.90505 0.97461C3.43549 0.974875 3.94409 1.18584 4.31897 1.5611C4.69386 1.93636 4.90432 2.44518 4.90405 2.97561ZM4.96405 6.45561H0.964053V18.9756H4.96405V6.45561ZM11.2841 6.45561H7.30405V18.9756H11.2441V12.4056C11.2441 8.74561 16.0141 8.40561 16.0141 12.4056V18.9756H19.9641V11.0456C19.9641 4.87561 12.9041 5.10561 11.2441 8.13561L11.2841 6.45561Z" fill="#FCFCFC"/>
</svg>
