<svg width="661" height="192" fill="none" xmlns="http://www.w3.org/2000/svg"><g clip-path="url(#a)"><path d="M202.2 127.8h18.7V61.4h24.8V44.9h-68.5v16.5h25v66.4ZM270.3 92.5h30.9v35.3h18.7V44.9h-18.7v31.7h-30.9V44.9h-18.9v82.9h18.9V92.5Z" fill="#1A2357"/><path d="M352 44.9h-19.7v23.4l19.7-5.5V44.9Z" fill="#C02626"/><path d="M352 69.5 332.3 75v52.8H352V69.5ZM416.4 93.2l-37.2-48.3h-15.1v82.9h18.6V74.3l37.3 53.5h15.1V44.9h-18.7v48.3ZM482.1 83.3s31.7-33 34.6-38.4h-22.3l-27.7 31.2V44.9h-18.9v82.9h18.9V93.2s20.1 16.3 29.3 34.7h22.7c-.1-.1-20.5-32.4-36.6-44.6Z" fill="#1A2357"/><path d="M544.7 63.5c-33.8 0-30.5 38.7-30.5 38.7s.3 38 54.9 23.3l-2.3-14.6s-30.2 11-34.3-8.7h40.1s5.9-38.7-27.9-38.7ZM532.5 90s1.4-12 11.8-12 11.8 12 11.8 12h-23.6Z" fill="#1A2357"/><path d="m605.7 106-13.3-41.2h-19l23.5 60.2c-5.2 15.4-20.7 7.6-20.7 7.6l-3.1 14.2s4.5 2.3 19.4 2c14.9-.3 28.2-38 28.2-38l15.5-46h-18.6L605.7 106ZM217.1 165.9c-5.1-2-7.4-3.4-7.4-6.4 0-2.2 2-4.6 6.4-4.6 3.6 0 6.3 1.1 7.7 1.8l1.7-5.7c-2-1-5.1-2-9.3-2-8.4 0-13.6 4.8-13.6 11.1 0 5.6 4.1 8.9 10.4 11.2 4.9 1.8 6.9 3.5 6.9 6.4 0 3.2-2.5 5.3-7 5.3-3.6 0-7-1.1-9.3-2.5l-1.5 5.9c2.1 1.3 6.4 2.5 10.4 2.5 10 0 14.7-5.4 14.7-11.6-.1-5.5-3.4-8.9-10.1-11.4ZM229.9 155.6h11v32.8h7v-32.8H259v-5.9h-29.1v5.9ZM270.6 171.2h14.6v-5.7h-14.6v-10H286v-5.8h-22.4v38.7h23.3v-5.8h-16.3v-11.4ZM302.6 149.7l-12.4 38.6h7.3l3.3-11h12.3l3.5 11h7.6l-12.5-38.6h-9.1Zm-.6 22.4 3-9.5c.7-2.3 1.3-5 1.8-7.2h.1c.6 2.2 1.2 4.9 2 7.2l3 9.5H302ZM358.2 149.7l-5.3 15.5c-1.5 4.5-2.8 9.3-3.8 13.5h-.2c-1-4.3-2.2-8.9-3.5-13.4l-5-15.5H331l-2.6 38.6h6.6l.9-15.5c.3-5.3.5-11.4.7-16.5h.1c1 4.9 2.4 10.1 3.9 15.1l5.2 16.5h5.4l5.6-16.7c1.7-4.9 3.3-10.1 4.6-14.8h.2c-.1 5.3.2 11.3.5 16.3l.7 15.8h6.9l-2.2-38.6h-9.3v-.3Z" fill="#1A2357"/><path d="M389 176.4h5.4l1-26.7H388l1 26.8v-.1ZM391.7 180.1c-2.5 0-4.3 1.8-4.3 4.5-.1 2.6 1.7 4.5 4.2 4.5h.1c2.6 0 4.4-1.9 4.4-4.5-.1-2.7-1.9-4.5-4.4-4.5Z" fill="#C02626"/><path d="M148 89.9c-.7-.6-8.8-7.5-8.7-20 .4-.8 2.4-6.1-1.4-17.5 0-.1-1.4-5.9-1.8-9.8 0-.1 0-1.3-.4-3.4-4.6-20.3-32.5-30.8-44.3-34.4-1.4-.4-3-.8-4.6-1.3-1.8-.5-3.8-1-6-1.5-.5-.1-.9-.2-1.3-.3C67-1 55.3-1.2 45.1 1.3c-2.3.5-4.5 1.2-6.7 2-2.7 1-5.3 2.2-8 3.7-1.6 1-3.2 2-4.6 3C12.4 19.4 7.3 32.1 7.3 32.1s-2 4-4 10.1C-.1 52.7-4.4 72.4 5.7 87.1c3.9 5.6 7.2 11.1 9.9 16.1 4.5 8.1 6.5 13.6 7.3 16.1l.3 1.2c0 .1 2.7 11.6-6.9 37.7l-.2.4 81.1 34 2.7-19.2c.8-.8 5.3-5.6 5.1-8.7 0 0-.9-3.6.7-8.5 1.3.2 5.8.7 11.1.7 2.9 0 5.6-.2 8-.5h.2c8.2-1 13.5-3.6 15.7-7.8 2-3.6 1.6-8.4-1.2-14.2l.4-.6c4.4-5.9 4.4-7.2 4.4-7.6v-.2l-.2-.1c-.1-.1-1.7-1.5-.8-3.2.5-.4 3.2-2.8 3.1-5.5 0-1.2-.6-2.2-1.7-3.1-.2-.4-.9-2.1-.3-4 .5-1.7 1.9-3.2 4.1-4.4.3-.1.6-.3.9-.4 3.3-1.5 5.1-3.9 5.1-6.8.1-3.4-2.6-7-6.5-8.6Zm-12.7-39.8-4.6-2.3 3.3-4.9c.3 2.3.9 5.2 1.3 7.2Zm-1.6-10.5v.2l-4.5 6.7-16.9-19-.6-.6L95.1 8.1c30.6 10.4 37.2 25.4 38.6 31.5ZM91.3 95 74.9 66.7h.9v-6.3l2.4-1.9c.4 0 .8.1 1.2.1 4.2 0 8.1-1.2 11.4-3.3L113 70.9 102.3 89l-1.1 1.9-9.9 4.1Zm8.1-1.3-5.9 10-1.5-6.8 7.4-3.2ZM42 167.2l1.4-43.2 23.1 24.9-20.7 19.9-3.8-1.6Zm18.6-73.1-17.9 25.3-7.9-21.6 6.6-13.3 16.3.2 2.9 9.4ZM59 81.8v-6.2h6.2l.7 1.7-.1.3-4 13.3-2.3-7.4-.5-1.7Zm8.7 65.5-23.9-25.8 17.9-25.4 17.9 31-11.9 20.2Zm-4.8-53.2 4.3-14.6L90 96.9l2 9.3-11.2 18.9-17.9-31Zm9.6-27.4 14.9 25.8-19.7-15L71 66.7h1.5ZM71.9 14l2.4 4.3c-.6.1-1.1.3-1.7.5l-.7-4.8Zm-4.4 57.7v-5.1H69l-1.5 5.1Zm7.9-33.6c0-2.4 2-4.3 4.3-4.3s4.3 1.9 4.3 4.3-1.9 4.3-4.3 4.3-4.3-1.9-4.3-4.3Zm23.7-6.5 11.4-2.5 2.6 39.4L92.5 54c4.7-3.7 7.7-9.5 7.7-15.9 0-2.3-.4-4.5-1.1-6.5Zm15.2 40.8 15.5 38.9-25.5-22.1 10-16.8Zm-1.7-41.6L128 48.3l-13 19.3-2.4-36.8Zm-25.2-25c1.2.3 2.3.6 3.4 1 .2 0 .4.1.6.1l18 20.3-11.1 2.5c-2.7-5.9-8.3-10.4-14.9-11.6l4-12.3Zm-7-2c1.9.5 3.5 1 5.1 1.4l-4 12.5c-.7-.1-1.3-.1-2-.1-1 0-2 .1-2.9.2l-5-8.9 7.7-5.3c.4.1.7.2 1.1.2ZM60.5 1.5V1h.1l-.1.5c5.1 0 10.4.5 15.9 1.6l-6.5 4.5-19.1-5.4c3.1-.5 6.4-.7 9.7-.7Zm-15 1.7c.3-.1.6-.1.9-.2l22.8 6.5 1.5 10c-6.8 3-11.6 9.5-12.1 17.2l-18.1-32c1.7-.5 3.3-1.1 5-1.5Zm-6.9 2.2 20.2 35.7c.1.4.1.8.2 1.2L48.4 52.7 32.2 8.3c2.1-1.1 4.3-2.1 6.4-2.9Zm-8.1 3.9 16.3 45-4.3 4.3L28 36.2l-.7-24.9c1-.7 2.1-1.3 3.2-2Zm-5.1 3.5.6 22.5-16.3-3.6c1.5-3.2 6.3-11.8 15.7-18.9ZM8.8 33.5l16.9 3.8-12 30.9-8.5-25.5c1.5-4.6 3-8 3.6-9.2ZM7.3 86c-8.6-12.6-6.1-29.4-3.1-40l9.1 26.3L15 98c-2.3-3.8-4.8-7.9-7.7-12Zm7.5-15 12.5-32.2L41.1 60l-7.5 7.5V84l5.9-.1-6 11.9-18.4-24.4-.3-.4Zm2.6 31.2c0-.1-.1-.1-.1-.2l-1.8-26.7 17.1 22.6-8.6 18.2c-1.2-3-3.2-7.7-6.6-13.9Zm1.4 55.3c9.3-26.1 6.5-37.4 6.5-37.5-.1-.3-.2-.9-.4-1.2l8.7-18.4 7.8 21.4-1.4 44.8-21.2-9.1Zm29 12.2 19.5-18.9 9 30.8-28.5-11.9Zm30.9 12.9L69 149.1l11.8-20 14.8 60.6-16.9-7.1Zm38.2-27.6c-6.2 0-11.2-.7-11.2-.7h-.2c-.6 0-1.2.4-1.4 1-1.8 5.2-1.1 9.1-.9 9.8 0 1.7-2.7 5.2-4.6 7.1-.2.2-.4.5-.4.9l-1.7 11.8-14.2-58.2v-.1L93 108.4l30.1 46.3c-1.9.2-4 .3-6.2.3Zm7.7-1.6-30.5-46.9 8.5-14.3.7-1.3 28.1 24.3.1.4-6.9 37.8Zm14.4-5.6c-1.8 3.3-6 5.5-12.5 6.5l6.4-35.2 5.4 13.6-.5.8c-.3.5-.4 1.1-.2 1.6 2.6 5.3 3.1 9.6 1.4 12.7Zm3.7-38.2c-.9 3 .5 5.5.5 5.6.1.2.2.3.4.5.7.5 1 1 1 1.6 0 1.4-1.7 3.3-2.5 3.9-.1.1-.2.2-.3.4-1.3 2.2-.2 4.2.5 5.1-.2.5-.8 1.8-2.5 4.1l-6.1-15.4-.5-1.3-15.5-38.7 29.1 29.2c-2.2 1.4-3.5 3-4.1 5Zm5.9-6.1c.1.1.1.1 0 .1l-32.9-33.1-.1-.1 14.1-20.9 6.2 3.2V53c3.7 11.2 1.5 16.1 1.5 16.1-.1.2-.2.4-.2.7-.2 14.1 9.1 21.4 9.5 21.7.1.1.2.2.3.2 3.1 1.3 5.4 4.2 5.5 6.9 0 2.6-2.1 4.1-3.9 4.9Z" fill="#1A2357"/></g><defs><clipPath id="a"><path fill="#fff" d="M0 0h660.3v191.9H0z"/></clipPath></defs></svg>