<svg width="15" height="18" viewBox="0 0 15 18" fill="none" xmlns="http://www.w3.org/2000/svg">
<path d="M8.69907 16.9392C10.8179 15.0744 14.5874 11.2648 14.5874 7.76869C14.5874 5.83431 13.819 3.97916 12.4512 2.61134C11.0834 1.24353 9.22822 0.475098 7.29384 0.475098C5.35946 0.475098 3.5043 1.24353 2.13649 2.61134C0.768674 3.97916 0.000244169 5.83431 0.000244141 7.76869C0.000244141 11.2648 3.7686 15.0744 5.88861 16.9392C6.27531 17.2843 6.77551 17.4751 7.29384 17.4751C7.81217 17.4751 8.31238 17.2843 8.69907 16.9392ZM4.86264 7.76869C4.86264 7.1239 5.11878 6.50551 5.57472 6.04958C6.03066 5.59364 6.64905 5.33749 7.29384 5.33749C7.93863 5.33749 8.55702 5.59364 9.01296 6.04958C9.4689 6.50551 9.72504 7.1239 9.72504 7.76869C9.72504 8.41349 9.4689 9.03187 9.01296 9.48781C8.55702 9.94375 7.93863 10.1999 7.29384 10.1999C6.64905 10.1999 6.03066 9.94375 5.57472 9.48781C5.11878 9.03187 4.86264 8.41349 4.86264 7.76869Z" fill="#FCFCFC"/>
</svg>
