<svg xmlns="http://www.w3.org/2000/svg" width="21" height="17" fill="none"><path fill="#fff" d="M17 8.052h2C19 3.462 15.127 0 9.99 0v1.79c4.062 0 7.01 2.633 7.01 6.262Z"/><path fill="#fff" d="M10 5.369c2.103 0 3 .802 3 2.684h2c0-2.886-1.775-4.474-5-4.474v1.79Zm3.422 4.87a1.072 1.072 0 0 0-.704-.233c-.26.007-.506.104-.687.271L9.638 12.48c-.576-.098-1.734-.421-2.926-1.485C5.52 9.926 5.16 8.888 5.052 8.376l2.46-2.142a.854.854 0 0 0 .302-.615.842.842 0 0 0-.26-.63L3.86 1.354a1.05 1.05 0 0 0-.678-.291 1.077 1.077 0 0 0-.713.213L.298 2.941a.855.855 0 0 0-.29.58c-.015.225-.3 5.523 4.291 9.634C8.305 16.738 13.323 17 14.705 17c.202 0 .326-.005.36-.007.244-.012.475-.105.647-.26l1.86-1.943a.837.837 0 0 0 .24-.638.862.862 0 0 0-.326-.606l-4.064-3.307Z"/></svg>