<?xml version="1.0" encoding="UTF-8" standalone="no"?>
<!-- Created with Inkscape (http://www.inkscape.org/) -->

<svg
   version="1.1"
   id="svg2"
   width="666.66669"
   height="666.66669"
   viewBox="0 0 666.66669 666.66669"
   sodipodi:docname="5143416.ai"
   xmlns:inkscape="http://www.inkscape.org/namespaces/inkscape"
   xmlns:sodipodi="http://sodipodi.sourceforge.net/DTD/sodipodi-0.dtd"
   xmlns="http://www.w3.org/2000/svg"
   xmlns:svg="http://www.w3.org/2000/svg">
  <defs
     id="defs6">
    <clipPath
       clipPathUnits="userSpaceOnUse"
       id="clipPath16">
      <path
         d="M 0,500 H 500 V 0 H 0 Z"
         id="path14" />
    </clipPath>
    <clipPath
       clipPathUnits="userSpaceOnUse"
       id="clipPath24">
      <path
         d="M 8.11566,412.592 H 490.818 V 85.733 H 8.11566 Z"
         id="path22" />
    </clipPath>
    <linearGradient
       x1="0"
       y1="0"
       x2="1"
       y2="0"
       gradientUnits="userSpaceOnUse"
       gradientTransform="matrix(-191.35066,-472.49799,-472.49799,191.35066,318.13712,366.96787)"
       spreadMethod="pad"
       id="linearGradient34">
      <stop
         style="stop-opacity:1;stop-color:#b9bdff"
         offset="0"
         id="stop30" />
      <stop
         style="stop-opacity:1;stop-color:#564dc1"
         offset="1"
         id="stop32" />
    </linearGradient>
    <clipPath
       clipPathUnits="userSpaceOnUse"
       id="clipPath56">
      <path
         d="M 79.7753,92.0429 H 422.247 V 75.9438 H 79.7753 Z"
         id="path54" />
    </clipPath>
    <linearGradient
       x1="0"
       y1="0"
       x2="1"
       y2="0"
       gradientUnits="userSpaceOnUse"
       gradientTransform="matrix(342.47189,0,0,-342.47189,79.775299,83.993347)"
       spreadMethod="pad"
       id="linearGradient66">
      <stop
         style="stop-opacity:1;stop-color:#b9bdff"
         offset="0"
         id="stop62" />
      <stop
         style="stop-opacity:1;stop-color:#564dc1"
         offset="1"
         id="stop64" />
    </linearGradient>
    <linearGradient
       x1="0"
       y1="0"
       x2="1"
       y2="0"
       gradientUnits="userSpaceOnUse"
       gradientTransform="matrix(-138.19937,-136.56407,-136.56407,138.19937,413.7839,331.36124)"
       spreadMethod="pad"
       id="linearGradient230">
      <stop
         style="stop-opacity:1;stop-color:#b9bdff"
         offset="0"
         id="stop226" />
      <stop
         style="stop-opacity:1;stop-color:#564dc1"
         offset="1"
         id="stop228" />
    </linearGradient>
    <clipPath
       clipPathUnits="userSpaceOnUse"
       id="clipPath240">
      <path
         d="M 0,500 H 500 V 0 H 0 Z"
         id="path238" />
    </clipPath>
    <linearGradient
       x1="0"
       y1="0"
       x2="1"
       y2="0"
       gradientUnits="userSpaceOnUse"
       gradientTransform="matrix(157.53865,-38.576107,38.576107,157.53865,32.631706,207.8756)"
       spreadMethod="pad"
       id="linearGradient274">
      <stop
         style="stop-opacity:1;stop-color:#b9bdff"
         offset="0"
         id="stop270" />
      <stop
         style="stop-opacity:1;stop-color:#564dc1"
         offset="1"
         id="stop272" />
    </linearGradient>
    <clipPath
       clipPathUnits="userSpaceOnUse"
       id="clipPath284">
      <path
         d="M 0,500 H 500 V 0 H 0 Z"
         id="path282" />
    </clipPath>
    <clipPath
       clipPathUnits="userSpaceOnUse"
       id="clipPath308">
      <path
         d="M 35.3441,356.619 H 189.731 V 172.506 H 35.3441 Z"
         id="path306" />
    </clipPath>
    <linearGradient
       x1="0"
       y1="0"
       x2="1"
       y2="0"
       gradientUnits="userSpaceOnUse"
       gradientTransform="matrix(138.1994,-136.5641,136.5641,138.1994,52.80471,328.94571)"
       spreadMethod="pad"
       id="linearGradient318">
      <stop
         style="stop-opacity:1;stop-color:#b9bdff"
         offset="0"
         id="stop314" />
      <stop
         style="stop-opacity:1;stop-color:#564dc1"
         offset="1"
         id="stop316" />
    </linearGradient>
    <clipPath
       clipPathUnits="userSpaceOnUse"
       id="clipPath356">
      <path
         d="M 276.926,234.894 H 468.675 V 148.608 H 276.926 Z"
         id="path354" />
    </clipPath>
    <linearGradient
       x1="0"
       y1="0"
       x2="1"
       y2="0"
       gradientUnits="userSpaceOnUse"
       gradientTransform="matrix(-161.02464,-33.031296,-33.031296,161.02464,443.75473,206.5976)"
       spreadMethod="pad"
       id="linearGradient366">
      <stop
         style="stop-opacity:1;stop-color:#b9bdff"
         offset="0"
         id="stop362" />
      <stop
         style="stop-opacity:1;stop-color:#564dc1"
         offset="1"
         id="stop364" />
    </linearGradient>
    <clipPath
       clipPathUnits="userSpaceOnUse"
       id="clipPath456">
      <path
         d="m 356.456,192.273 h 27.47 v -72.732 h -27.47 z"
         id="path454" />
    </clipPath>
    <clipPath
       clipPathUnits="userSpaceOnUse"
       id="clipPath640">
      <path
         d="m 315.012,299.513 0.255,-9.79 c 0.053,-2.031 1.708,-3.635 3.697,-3.582 v 0 c 1.989,0.052 3.558,1.739 3.506,3.77 v 0 l -0.256,9.79 z"
         id="path638" />
    </clipPath>
    <clipPath
       clipPathUnits="userSpaceOnUse"
       id="clipPath852">
      <path
         d="M 0,500 H 500 V 0 H 0 Z"
         id="path850" />
    </clipPath>
    <clipPath
       clipPathUnits="userSpaceOnUse"
       id="clipPath872">
      <path
         d="m 328.581,299.866 0.256,-9.79 c 0.053,-2.029 1.708,-3.634 3.697,-3.582 v 0 c 1.989,0.052 3.557,1.74 3.505,3.77 v 0 l -0.254,9.791 z"
         id="path870" />
    </clipPath>
    <clipPath
       clipPathUnits="userSpaceOnUse"
       id="clipPath928">
      <path
         d="M 0,500 H 500 V 0 H 0 Z"
         id="path926" />
    </clipPath>
    <clipPath
       clipPathUnits="userSpaceOnUse"
       id="clipPath1040">
      <path
         d="m 198.195,168.49 h 49.38 v -27.959 h -49.38 z"
         id="path1038" />
    </clipPath>
  </defs>
  <sodipodi:namedview
     id="namedview4"
     pagecolor="#ffffff"
     bordercolor="#000000"
     borderopacity="0.25"
     inkscape:showpageshadow="2"
     inkscape:pageopacity="0.0"
     inkscape:pagecheckerboard="0"
     inkscape:deskcolor="#d1d1d1" />
  <g
     id="g8"
     inkscape:groupmode="layer"
     inkscape:label="5143416"
     transform="matrix(1.3333333,0,0,-1.3333333,0,666.66667)">
    <g
       id="g10">
      <g
         id="g12"
         clip-path="url(#clipPath16)">
        <g
           id="g18">
          <g
             id="g20" />
          <g
             id="g48">
            <g
               clip-path="url(#clipPath24)"
               opacity="0.220001"
               id="g46">
              <g
                 id="g44">
                <g
                   id="g42">
                  <g
                     id="g40">
                    <g
                       id="g38">
                      <path
                         d="M 264.395,87.036 C 221.574,82.604 135.411,89.955 94.422,101.82 54.8,113.289 29.607,136.926 16.542,163.518 3.477,190.11 4.846,225.41 26.014,246.142 c 14.781,14.477 37.656,21.133 46.972,39.608 5.464,10.836 4.997,23.545 6.047,35.635 2.503,28.825 15.259,57.562 38.229,75.157 22.97,17.594 56.683,21.961 81.371,6.871 21.428,-13.097 36.824,-39.635 61.929,-40.273 17.38,-0.442 31.877,12.166 46.94,20.847 23.647,13.63 53.262,18.159 78.769,8.447 25.508,-9.712 45.409,-34.915 45.334,-62.21 -0.034,-12.611 -3.906,-26.046 1.735,-37.326 2.774,-5.548 7.544,-9.792 12.207,-13.884 12.472,-10.947 25.197,-22.092 33.738,-36.32 15.753,-26.24 14.77,-60.715 0.695,-87.892 C 465.906,127.623 440.031,107.609 411.299,97.064 382.567,86.52 304.602,88.795 264.395,87.036"
                         style="fill:url(#linearGradient34);stroke:none"
                         id="path36" />
                    </g>
                  </g>
                </g>
              </g>
            </g>
          </g>
        </g>
        <g
           id="g50">
          <g
             id="g52" />
          <g
             id="g80">
            <g
               clip-path="url(#clipPath56)"
               opacity="0.559998"
               id="g78">
              <g
                 id="g76">
                <g
                   id="g74">
                  <g
                     id="g72">
                    <g
                       id="g70">
                      <path
                         d="m 422.247,83.993 c 0,-4.445 -76.665,-8.05 -171.236,-8.05 -94.571,0 -171.236,3.605 -171.236,8.05 0,4.446 76.665,8.05 171.236,8.05 94.571,0 171.236,-3.604 171.236,-8.05"
                         style="fill:url(#linearGradient66);stroke:none"
                         id="path68" />
                    </g>
                  </g>
                </g>
              </g>
            </g>
          </g>
        </g>
        <g
           id="g82"
           transform="translate(198.0806,297.5215)">
          <path
             d="m 0,0 c -0.283,4.614 0.102,9.275 0.928,13.875 0.414,2.302 0.968,4.589 1.683,6.839 0.716,2.25 1.597,4.459 2.624,6.619 1.059,2.144 2.307,4.21 3.719,6.186 1.438,1.959 3.099,3.766 4.905,5.442 l 1.42,1.185 c 0.24,0.195 0.471,0.402 0.72,0.585 l 0.758,0.533 c 0.511,0.349 1.006,0.725 1.533,1.05 l 1.604,0.943 c 0.527,0.332 1.091,0.587 1.649,0.859 0.561,0.264 1.113,0.554 1.685,0.795 l 1.734,0.672 0.871,0.327 0.89,0.262 1.782,0.52 c 0.597,0.165 1.203,0.266 1.806,0.401 0.605,0.121 1.205,0.265 1.816,0.365 0.613,0.084 1.228,0.199 1.842,0.256 2.46,0.283 4.92,0.326 7.347,0.227 4.862,-0.196 9.584,-1.029 14.184,-2.056 4.605,-1.033 9.084,-2.337 13.521,-3.639 4.431,-1.326 8.802,-2.704 13.172,-3.958 4.361,-1.277 8.718,-2.457 13.086,-3.361 4.36,-0.931 8.741,-1.572 13.093,-1.772 4.351,-0.211 8.674,0.095 12.846,1.02 4.168,0.936 8.174,2.537 11.856,4.783 1.839,1.124 3.612,2.38 5.302,3.763 l 1.25,1.064 c 0.41,0.363 0.805,0.741 1.21,1.111 l 0.302,0.279 0.125,0.115 0.123,0.124 c 0.172,0.179 0.354,0.368 0.531,0.565 0.359,0.391 0.711,0.803 1.058,1.222 1.39,1.678 2.658,3.499 3.839,5.378 1.187,1.877 2.245,3.844 3.214,5.861 1.94,4.034 3.436,8.307 4.525,12.713 1.073,4.412 1.679,8.961 1.939,13.57 0.253,-2.294 0.374,-4.608 0.387,-6.933 -0.024,-2.323 -0.164,-4.652 -0.424,-6.977 -0.538,-4.648 -1.648,-9.255 -3.271,-13.702 -1.644,-4.442 -3.782,-8.721 -6.565,-12.684 -0.351,-0.496 -0.709,-0.987 -1.092,-1.476 -0.19,-0.245 -0.386,-0.49 -0.597,-0.739 l -0.169,-0.194 -0.178,-0.191 -0.311,-0.328 c -0.416,-0.436 -0.826,-0.878 -1.25,-1.308 l -1.299,-1.261 c -1.768,-1.649 -3.653,-3.198 -5.676,-4.574 -2.018,-1.38 -4.157,-2.609 -6.394,-3.646 -2.239,-1.027 -4.574,-1.856 -6.953,-2.497 -4.762,-1.297 -9.696,-1.744 -14.533,-1.664 -4.846,0.087 -9.608,0.74 -14.259,1.635 -4.651,0.924 -9.189,2.129 -13.66,3.416 -4.464,1.316 -8.865,2.713 -13.233,4.074 -4.362,1.381 -8.71,2.683 -13.052,3.8 -8.665,2.188 -17.482,3.606 -25.757,1.443 -4.149,-0.97 -7.998,-2.885 -11.42,-5.452 C 15.109,34.135 13.54,32.65 12.099,31.018 10.683,29.365 9.391,27.583 8.226,25.7 7.078,23.806 6.063,21.815 5.153,19.763 4.237,17.71 3.487,15.577 2.793,13.417 2.11,11.251 1.547,9.04 1.084,6.8 0.601,4.563 0.235,2.295 0,0"
             style="fill:#f69a2b;fill-opacity:1;fill-rule:nonzero;stroke:none"
             id="path84" />
        </g>
        <g
           id="g86"
           transform="translate(333.0586,404.063)">
          <path
             d="m 0,0 c -2.293,0.25 -4.587,0.366 -6.877,0.361 -2.286,0.015 -4.567,-0.074 -6.827,-0.289 -2.258,-0.227 -4.501,-0.515 -6.698,-0.982 -2.199,-0.461 -4.357,-1.038 -6.45,-1.764 -2.085,-0.746 -4.096,-1.638 -6.008,-2.678 -1.898,-1.067 -3.678,-2.292 -5.329,-3.654 -3.225,-2.81 -5.902,-6.174 -7.718,-10.029 -3.844,-7.64 -4.299,-16.56 -3.97,-25.49 0.186,-4.48 0.551,-9.004 0.989,-13.558 0.418,-4.557 0.867,-9.151 1.22,-13.792 0.324,-4.642 0.555,-9.332 0.487,-14.072 -0.096,-4.736 -0.453,-9.529 -1.381,-14.287 -0.931,-4.747 -2.399,-9.478 -4.663,-13.864 -1.123,-2.193 -2.421,-4.302 -3.894,-6.278 -1.482,-1.971 -3.13,-3.806 -4.902,-5.491 -1.768,-1.691 -3.676,-3.211 -5.659,-4.595 l -1.505,-1.007 c -0.507,-0.325 -1.026,-0.633 -1.539,-0.949 l -0.385,-0.235 -0.225,-0.135 -0.226,-0.124 c -0.288,-0.155 -0.567,-0.296 -0.846,-0.43 -0.558,-0.272 -1.114,-0.52 -1.672,-0.76 -4.456,-1.894 -9.089,-3.089 -13.776,-3.77 -4.688,-0.658 -9.425,-0.781 -14.083,-0.335 -2.328,0.23 -4.635,0.58 -6.911,1.041 -2.271,0.5 -4.509,1.102 -6.699,1.828 4.561,-0.709 9.136,-1.066 13.675,-0.938 4.537,0.143 9.028,0.714 13.378,1.769 2.175,0.526 4.32,1.149 6.404,1.918 2.083,0.762 4.129,1.622 6.061,2.631 0.481,0.251 0.959,0.51 1.415,0.778 0.23,0.133 0.454,0.271 0.665,0.402 l 0.146,0.094 0.139,0.099 0.336,0.237 c 0.446,0.318 0.898,0.627 1.339,0.951 l 1.301,1 c 1.707,1.363 3.305,2.836 4.789,4.399 2.964,3.131 5.367,6.714 7.154,10.595 1.776,3.886 2.978,8.05 3.682,12.349 0.712,4.299 1.001,8.716 1.001,13.175 0.029,4.461 -0.214,8.967 -0.553,13.499 -0.313,4.535 -0.747,9.099 -1.118,13.708 -0.346,4.61 -0.686,9.264 -0.735,13.983 -0.043,4.713 0.129,9.505 0.953,14.301 0.411,2.394 0.967,4.791 1.757,7.137 0.185,0.589 0.425,1.166 0.636,1.748 0.225,0.577 0.491,1.134 0.736,1.7 0.258,0.561 0.484,1.133 0.769,1.682 l 0.882,1.635 0.441,0.815 0.503,0.783 1.019,1.556 c 0.354,0.508 0.753,0.988 1.129,1.481 0.383,0.489 0.75,0.988 1.185,1.434 l 1.257,1.371 c 0.428,0.447 0.899,0.854 1.347,1.28 l 0.68,0.63 c 0.231,0.206 0.482,0.388 0.722,0.582 l 1.456,1.14 c 2.016,1.417 4.131,2.664 6.347,3.661 2.226,0.967 4.507,1.756 6.827,2.344 2.326,0.554 4.67,0.953 7.02,1.183 2.35,0.23 4.702,0.293 7.04,0.217 C -9.092,1.839 -4.453,1.241 0,0"
             style="fill:#f69a2b;fill-opacity:1;fill-rule:nonzero;stroke:none"
             id="path88" />
        </g>
        <g
           id="g90"
           transform="translate(353.8057,372.4819)">
          <path
             d="m 0,0 -32.201,32.235 0.822,0.821 32.2,-32.235 z"
             style="fill:#f69a2b;fill-opacity:1;fill-rule:nonzero;stroke:none"
             id="path92" />
        </g>
        <g
           id="g94"
           transform="translate(351.2168,360.2998)">
          <path
             d="m 0,0 -44.08,44.127 0.822,0.821 L 0.821,0.821 Z"
             style="fill:#f69a2b;fill-opacity:1;fill-rule:nonzero;stroke:none"
             id="path96" />
        </g>
        <g
           id="g98"
           transform="translate(346.7568,351.7124)">
          <path
             d="M 0,0 -47.504,46.704 -46.69,47.532 0.813,0.828 Z"
             style="fill:#f69a2b;fill-opacity:1;fill-rule:nonzero;stroke:none"
             id="path100" />
        </g>
        <g
           id="g102"
           transform="translate(341.5615,341.772)">
          <path
             d="m 0,0 -50.802,50.067 0.816,0.827 L 0.815,0.827 Z"
             style="fill:#f69a2b;fill-opacity:1;fill-rule:nonzero;stroke:none"
             id="path104" />
        </g>
        <g
           id="g106"
           transform="translate(333.4014,334.5356)">
          <path
             d="m 0,0 -50.135,49.218 0.814,0.829 L 0.813,0.829 Z"
             style="fill:#f69a2b;fill-opacity:1;fill-rule:nonzero;stroke:none"
             id="path108" />
        </g>
        <g
           id="g110"
           transform="translate(324.8115,328.2314)">
          <path
             d="m 0,0 -44.079,44.127 0.821,0.821 44.08,-44.127 z"
             style="fill:#f69a2b;fill-opacity:1;fill-rule:nonzero;stroke:none"
             id="path112" />
        </g>
        <g
           id="g114"
           transform="translate(314.2852,325.3623)">
          <path
             d="m 0,0 -34.791,33.263 0.803,0.84 34.79,-33.264 z"
             style="fill:#f69a2b;fill-opacity:1;fill-rule:nonzero;stroke:none"
             id="path116" />
        </g>
        <g
           id="g118"
           transform="translate(232.3892,266.3872)">
          <path
             d="m 0,0 -34.31,36.541 0.848,0.794 34.309,-36.54 z"
             style="fill:#f69a2b;fill-opacity:1;fill-rule:nonzero;stroke:none"
             id="path120" />
        </g>
        <g
           id="g122"
           transform="translate(245.0537,268.2729)">
          <path
             d="m 0,0 -44.157,46.25 0.84,0.802 44.156,-46.25 z"
             style="fill:#f69a2b;fill-opacity:1;fill-rule:nonzero;stroke:none"
             id="path124" />
        </g>
        <g
           id="g126"
           transform="translate(255.4639,271.7124)">
          <path
             d="m 0,0 -50.568,52.826 0.839,0.802 L 0.838,0.803 Z"
             style="fill:#f69a2b;fill-opacity:1;fill-rule:nonzero;stroke:none"
             id="path128" />
        </g>
        <g
           id="g130"
           transform="translate(264.2695,278.0342)">
          <path
             d="m 0,0 -51.725,54.919 0.846,0.796 L 0.845,0.796 Z"
             style="fill:#f69a2b;fill-opacity:1;fill-rule:nonzero;stroke:none"
             id="path132" />
        </g>
        <g
           id="g134"
           transform="translate(271.623,285.6172)">
          <path
             d="m 0,0 -49.743,52.505 0.844,0.799 L 0.843,0.798 Z"
             style="fill:#f69a2b;fill-opacity:1;fill-rule:nonzero;stroke:none"
             id="path136" />
        </g>
        <g
           id="g138"
           transform="translate(276.8535,295.8301)">
          <path
             d="m 0,0 -43.535,44.665 0.831,0.81 L 0.831,0.811 Z"
             style="fill:#f69a2b;fill-opacity:1;fill-rule:nonzero;stroke:none"
             id="path140" />
        </g>
        <g
           id="g142"
           transform="translate(279.8447,306.3369)">
          <path
             d="m 0,0 -32.796,35.231 0.85,0.792 L 0.85,0.792 Z"
             style="fill:#f69a2b;fill-opacity:1;fill-rule:nonzero;stroke:none"
             id="path144" />
        </g>
        <g
           id="g146"
           transform="translate(214.9731,344.7876)">
          <path
             d="M 0,0 C 2.472,-1.524 3.241,-4.764 1.716,-7.236 0.192,-9.708 -3.047,-10.477 -5.519,-8.953 -7.991,-7.428 -8.76,-4.189 -7.236,-1.717 -5.712,0.755 -2.472,1.524 0,0"
             style="fill:#f69a2b;fill-opacity:1;fill-rule:nonzero;stroke:none"
             id="path148" />
        </g>
        <g
           id="g150"
           transform="translate(174.4199,310.8657)">
          <path
             d="M 0,0 C 2.472,-1.524 3.24,-4.764 1.716,-7.236 0.192,-9.708 -3.047,-10.477 -5.52,-8.953 -7.991,-7.428 -8.76,-4.189 -7.236,-1.717 -5.712,0.755 -2.473,1.524 0,0"
             style="fill:#f69a2b;fill-opacity:1;fill-rule:nonzero;stroke:none"
             id="path152" />
        </g>
        <g
           id="g154"
           transform="translate(193.2378,293.0869)">
          <path
             d="M 0,0 C 2.472,-1.524 3.241,-4.763 1.716,-7.235 0.192,-9.708 -3.047,-10.476 -5.519,-8.952 -7.991,-7.428 -8.76,-4.188 -7.236,-1.716 -5.712,0.756 -2.472,1.524 0,0"
             style="fill:#f69a2b;fill-opacity:1;fill-rule:nonzero;stroke:none"
             id="path156" />
        </g>
        <g
           id="g158"
           transform="translate(78.4253,368.2515)">
          <path
             d="M 0,0 C 0.501,2.86 3.226,4.773 6.087,4.272 8.947,3.771 10.86,1.046 10.359,-1.814 9.858,-4.675 7.133,-6.588 4.272,-6.087 1.412,-5.586 -0.501,-2.861 0,0"
             style="fill:#f69a2b;fill-opacity:1;fill-rule:nonzero;stroke:none"
             id="path160" />
        </g>
        <g
           id="g162"
           transform="translate(182.2051,337.1113)">
          <path
             d="M 0,0 C 2.472,-1.524 3.241,-4.764 1.716,-7.236 0.192,-9.708 -3.047,-10.477 -5.519,-8.952 -7.991,-7.428 -8.76,-4.189 -7.236,-1.717 -5.712,0.755 -2.472,1.524 0,0"
             style="fill:#f69a2b;fill-opacity:1;fill-rule:nonzero;stroke:none"
             id="path164" />
        </g>
        <g
           id="g166"
           transform="translate(163.3193,358.8911)">
          <path
             d="m 0,0 c 2.472,-1.524 3.241,-4.764 1.717,-7.236 -1.524,-2.472 -4.764,-3.24 -7.236,-1.716 -2.472,1.524 -3.241,4.764 -1.716,7.235 C -5.711,0.755 -2.472,1.524 0,0"
             style="fill:#f69a2b;fill-opacity:1;fill-rule:nonzero;stroke:none"
             id="path168" />
        </g>
        <g
           id="g170"
           transform="translate(172.9116,384.937)">
          <path
             d="M 0,0 C 2.472,-1.524 3.241,-4.764 1.717,-7.236 0.192,-9.708 -3.047,-10.477 -5.519,-8.953 -7.991,-7.429 -8.76,-4.189 -7.236,-1.717 -5.711,0.755 -2.472,1.524 0,0"
             style="fill:#f69a2b;fill-opacity:1;fill-rule:nonzero;stroke:none"
             id="path172" />
        </g>
        <g
           id="g174"
           transform="translate(127.9043,321.4849)">
          <path
             d="M 0,0 C 2.472,-1.524 3.241,-4.764 1.717,-7.236 0.192,-9.708 -3.047,-10.477 -5.519,-8.952 -7.991,-7.428 -8.76,-4.189 -7.236,-1.717 -5.712,0.755 -2.472,1.524 0,0"
             style="fill:#f69a2b;fill-opacity:1;fill-rule:nonzero;stroke:none"
             id="path176" />
        </g>
        <g
           id="g178"
           transform="translate(132.5371,349.0405)">
          <path
             d="M 0,0 C 2.472,-1.524 3.241,-4.764 1.717,-7.236 0.192,-9.708 -3.047,-10.477 -5.519,-8.953 -7.991,-7.428 -8.76,-4.189 -7.236,-1.717 -5.712,0.755 -2.472,1.524 0,0"
             style="fill:#f69a2b;fill-opacity:1;fill-rule:nonzero;stroke:none"
             id="path180" />
        </g>
        <g
           id="g182"
           transform="translate(145.8042,304.2725)">
          <path
             d="M 0,0 C 2.472,-1.524 3.241,-4.764 1.716,-7.236 0.192,-9.708 -3.047,-10.477 -5.52,-8.952 -7.991,-7.428 -8.76,-4.189 -7.236,-1.717 -5.712,0.755 -2.472,1.524 0,0"
             style="fill:#f69a2b;fill-opacity:1;fill-rule:nonzero;stroke:none"
             id="path184" />
        </g>
        <g
           id="g186"
           transform="translate(106.1538,371.0801)">
          <path
             d="M 0,0 C 0.501,2.861 3.226,4.773 6.087,4.272 8.947,3.771 10.86,1.046 10.359,-1.814 9.858,-4.675 7.133,-6.587 4.272,-6.086 1.412,-5.585 -0.501,-2.86 0,0"
             style="fill:#f69a2b;fill-opacity:1;fill-rule:nonzero;stroke:none"
             id="path188" />
        </g>
        <g
           id="g190"
           transform="translate(233.2769,324.6333)">
          <path
             d="M 0,0 C 2.472,-1.524 3.241,-4.763 1.717,-7.235 0.193,-9.708 -3.047,-10.476 -5.519,-8.952 -7.991,-7.428 -8.76,-4.188 -7.236,-1.716 -5.711,0.755 -2.472,1.524 0,0"
             style="fill:#f69a2b;fill-opacity:1;fill-rule:nonzero;stroke:none"
             id="path192" />
        </g>
        <g
           id="g194"
           transform="translate(222.8232,297.6567)">
          <path
             d="M 0,0 C 2.472,-1.524 3.241,-4.764 1.717,-7.236 0.193,-9.708 -3.047,-10.477 -5.519,-8.953 -7.991,-7.428 -8.76,-4.189 -7.235,-1.717 -5.711,0.755 -2.472,1.524 0,0"
             style="fill:#f69a2b;fill-opacity:1;fill-rule:nonzero;stroke:none"
             id="path196" />
        </g>
        <g
           id="g198"
           transform="translate(143.1792,300.3408)">
          <path
             d="m 0,0 28.085,6.47 7.624,25.704 -18.49,21.324 -30.183,-9.66 -5.234,-28.127 z m 28.877,5.626 -29.147,-6.715 -0.191,0.166 -18.826,16.252 5.449,29.28 31.38,10.042 19.282,-22.235 z"
             style="fill:#f69a2b;fill-opacity:1;fill-rule:nonzero;stroke:none"
             id="path200" />
        </g>
        <g
           id="g202"
           transform="translate(220.4253,292.73)">
          <path
             d="m 0,0 -30.118,-4.651 -17.16,16.821 0.699,0.714 16.803,-16.47 29.053,4.486 10.237,26.42 -17.9,19.709 -29.743,-6.765 -0.223,0.975 30.314,6.894 18.708,-20.598 z"
             style="fill:#f69a2b;fill-opacity:1;fill-rule:nonzero;stroke:none"
             id="path204" />
        </g>
        <g
           id="g206"
           transform="translate(111.5781,370.7002)">
          <path
             d="m 0,0 18.623,-26.993 -0.824,-0.568 -18.286,26.506 -27.435,-2.799 -0.102,0.996 z"
             style="fill:#f69a2b;fill-opacity:1;fill-rule:nonzero;stroke:none"
             id="path208" />
        </g>
        <g
           id="g210"
           transform="translate(162.0796,356.4141)">
          <path
             d="M 0,0 -0.941,0.337 7.602,24.216 8.543,23.878 Z"
             style="fill:#f69a2b;fill-opacity:1;fill-rule:nonzero;stroke:none"
             id="path212" />
        </g>
      </g>
    </g>
    <g
       id="g214">
      <g
         id="g216">
        <g
           id="g222">
          <g
             id="g224">
            <path
               d="m 430.776,359.034 c 0,0 -6.038,-4.628 -7.19,-5.337 v 0 c -10.46,-6.423 -21.676,-11.613 -33.341,-15.43 v 0 c -15.058,-4.926 -30.87,-7.577 -45.457,-13.759 v 0 c -26.283,-11.137 -47.111,-33.582 -58.299,-59.842 v 0 c -11.188,-26.26 -11.76,-61.756 -6.15,-89.744 v 0 c 11.433,14.914 29.388,23.201 47.066,29.578 v 0 c 17.677,6.376 36.162,11.585 51.501,22.44 v 0 c 18.407,13.028 30.725,33.263 38.122,54.566 v 0 c 7.394,21.303 10.297,43.859 13.158,66.229 v 0 c 0.364,2.847 1.781,11.299 0.591,11.299 v 0 c 0,0 -10e-4,0 -10e-4,0"
               style="fill:url(#linearGradient230);stroke:none"
               id="path232" />
          </g>
        </g>
      </g>
    </g>
    <g
       id="g234">
      <g
         id="g236"
         clip-path="url(#clipPath240)">
        <g
           id="g242"
           transform="translate(285.8457,184.0156)">
          <path
             d="m 0,0 c 2.694,13.591 8.146,26.458 15.25,38.314 7.184,11.99 15.968,22.955 25.479,33.169 10.466,11.241 21.783,21.706 33.751,31.33 11.019,8.86 22.728,16.801 33.952,25.392 10.838,8.295 21.293,17.277 29.684,28.111 1,1.292 1.97,2.606 2.908,3.944 0.43,0.613 -0.576,1.193 -1.002,0.586 -7.939,-11.317 -18.221,-20.702 -29.04,-29.207 C 100.005,123.009 88.418,115.192 77.409,106.604 65.162,97.048 53.599,86.615 42.843,75.407 33.202,65.362 24.222,54.604 16.706,42.865 9.28,31.267 3.307,18.639 -0.021,5.238 -0.428,3.604 -0.791,1.96 -1.119,0.309 -1.264,-0.421 -0.146,-0.732 0,0"
             style="fill:#ffffff;fill-opacity:1;fill-rule:nonzero;stroke:none"
             id="path244" />
        </g>
        <g
           id="g246"
           transform="translate(302.127,224.0518)">
          <path
             d="m 0,0 c 4.918,6.127 10.776,11.433 17.187,15.96 6.407,4.523 13.314,8.297 20.404,11.63 3.717,1.747 7.482,3.411 11.308,4.904 4.267,1.666 8.609,3.125 12.951,4.578 8.151,2.728 16.355,5.455 23.987,9.462 6.794,3.568 13.207,8.165 18.01,14.213 0.591,0.745 1.16,1.509 1.703,2.292 0.427,0.614 -0.578,1.195 -1.002,0.585 C 100.125,57.25 93.92,52.371 87.204,48.597 79.797,44.434 71.758,41.619 63.729,38.923 59.388,37.466 55.035,36.037 50.745,34.435 46.814,32.967 42.954,31.318 39.137,29.578 32.021,26.335 25.068,22.687 18.572,18.319 12.138,13.994 6.158,8.955 1.071,3.09 0.426,2.346 -0.204,1.589 -0.821,0.82 -1.284,0.244 -0.468,-0.582 0,0"
             style="fill:#ffffff;fill-opacity:1;fill-rule:nonzero;stroke:none"
             id="path248" />
        </g>
        <g
           id="g250"
           transform="translate(314.5293,241.7646)">
          <path
             d="m 0,0 c 0.156,5.38 0.795,10.738 1.812,16.02 1.074,5.566 2.562,11.053 4.42,16.408 1.88,5.416 4.145,10.699 6.807,15.777 2.617,4.993 5.618,9.794 9.054,14.267 3.249,4.232 6.915,8.171 11.01,11.597 0.492,0.412 0.99,0.815 1.494,1.212 0.248,0.195 0.201,0.615 0,0.82 -0.241,0.246 -0.576,0.193 -0.821,0 C 29.552,72.78 25.775,68.915 22.406,64.733 18.853,60.322 15.734,55.571 13.011,50.606 10.217,45.514 7.832,40.197 5.831,34.746 3.857,29.37 2.262,23.852 1.081,18.248 -0.051,12.875 -0.81,7.412 -1.085,1.927 -1.117,1.284 -1.142,0.643 -1.16,0 -1.182,-0.747 -0.021,-0.746 0,0"
             style="fill:#ffffff;fill-opacity:1;fill-rule:nonzero;stroke:none"
             id="path252" />
        </g>
        <g
           id="g254"
           transform="translate(375.0635,298.2104)">
          <path
             d="m 0,0 c 1.744,4.515 3.656,8.969 5.836,13.292 2.285,4.532 4.853,8.992 8.042,12.956 1.608,1.999 3.387,3.881 5.418,5.458 0.247,0.192 0.201,0.618 0,0.82 -0.245,0.245 -0.572,0.193 -0.821,0 C 14.666,29.569 11.695,25.593 9.139,21.544 6.351,17.13 4.013,12.438 1.911,7.664 0.843,5.236 -0.163,2.782 -1.119,0.309 -1.232,0.016 -0.995,-0.328 -0.714,-0.405 -0.387,-0.495 -0.114,-0.293 0,0"
             style="fill:#ffffff;fill-opacity:1;fill-rule:nonzero;stroke:none"
             id="path256" />
        </g>
      </g>
    </g>
    <g
       id="g258">
      <g
         id="g260">
        <g
           id="g266">
          <g
             id="g268">
            <path
               d="m 84.992,232.545 c -13.098,-1.826 -25.561,-6.704 -38.458,-9.631 v 0 c -9.993,-2.267 -20.253,-3.357 -30.5,-3.241 v 0 c -1.128,0.013 -7.438,0.74 -7.438,0.74 v 0 c -0.857,-0.506 3.786,-5.956 5.269,-7.841 v 0 c 11.637,-14.797 23.387,-29.709 37.817,-41.799 v 0 C 66.111,158.684 83.61,149.469 102.38,148.03 v 0 c 15.641,-1.2 31.115,2.994 46.511,6.004 v 0 c 15.397,3.011 31.811,4.772 46.395,-1.01 v 0 c -7.981,22.453 -23.607,47.633 -42.879,61.648 v 0 c -16.148,11.742 -35.997,18.665 -55.89,18.665 v 0 c -3.849,0 -7.699,-0.259 -11.525,-0.792"
               style="fill:url(#linearGradient274);stroke:none"
               id="path276" />
          </g>
        </g>
      </g>
    </g>
    <g
       id="g278">
      <g
         id="g280"
         clip-path="url(#clipPath284)">
        <g
           id="g286"
           transform="translate(187.4419,157.1777)">
          <path
             d="m 0,0 c -7.756,8.58 -17.178,15.46 -27.349,20.907 -10.285,5.508 -21.278,9.597 -32.47,12.836 -12.316,3.566 -24.909,6.21 -37.608,7.973 -11.691,1.623 -23.482,2.292 -35.205,3.634 -11.319,1.296 -22.659,3.248 -33.315,7.411 -1.27,0.496 -2.528,1.022 -3.773,1.578 -0.571,0.254 -0.099,1.101 0.466,0.849 10.539,-4.703 21.928,-7.017 33.323,-8.472 11.563,-1.476 23.214,-2.108 34.781,-3.54 12.87,-1.595 25.625,-4.111 38.135,-7.528 11.211,-3.062 22.256,-6.918 32.672,-12.105 C -20.051,18.418 -10.358,11.934 -2.23,3.762 -1.239,2.765 -0.273,1.743 0.669,0.7 1.085,0.24 0.418,-0.463 0,0"
             style="fill:#ffffff;fill-opacity:1;fill-rule:nonzero;stroke:none"
             id="path288" />
        </g>
        <g
           id="g290"
           transform="translate(158.6167,178.876)">
          <path
             d="M 0,0 C -6.15,2.28 -12.621,3.569 -19.153,4.064 -25.682,4.558 -32.248,4.3 -38.755,3.647 -42.167,3.306 -45.577,2.884 -48.958,2.313 -52.728,1.677 -56.464,0.86 -60.197,0.04 -67.205,-1.5 -74.25,-3.064 -81.435,-3.466 c -6.397,-0.356 -12.961,0.188 -18.994,2.46 -0.744,0.28 -1.478,0.584 -2.203,0.912 -0.569,0.257 -0.098,1.105 0.467,0.849 5.901,-2.67 12.437,-3.504 18.866,-3.329 7.091,0.193 14.055,1.623 20.962,3.135 3.734,0.817 7.465,1.659 11.225,2.351 3.445,0.634 6.918,1.107 10.398,1.497 6.487,0.728 13.031,1.095 19.556,0.751 C -14.694,4.82 -8.25,3.774 -2.093,1.755 -1.311,1.498 -0.535,1.226 0.236,0.939 0.815,0.726 0.584,-0.216 0,0"
             style="fill:#ffffff;fill-opacity:1;fill-rule:nonzero;stroke:none"
             id="path292" />
        </g>
        <g
           id="g294"
           transform="translate(142.1387,186.2471)">
          <path
             d="m 0,0 c -2.418,3.786 -5.172,7.351 -8.167,10.698 -3.154,3.528 -6.572,6.82 -10.199,9.859 -3.669,3.073 -7.555,5.886 -11.639,8.382 -4.016,2.456 -8.224,4.608 -12.602,6.339 -4.142,1.639 -8.456,2.889 -12.858,3.587 -0.529,0.084 -1.059,0.16 -1.59,0.228 -0.261,0.033 -0.407,0.354 -0.351,0.588 0.067,0.279 0.329,0.384 0.587,0.351 4.45,-0.568 8.813,-1.718 13.018,-3.268 4.436,-1.637 8.707,-3.703 12.786,-6.092 4.184,-2.449 8.173,-5.235 11.943,-8.283 3.718,-3.005 7.226,-6.273 10.475,-9.782 3.114,-3.363 6,-6.951 8.548,-10.762 C 0.25,1.399 0.542,0.95 0.831,0.498 1.167,-0.028 0.335,-0.525 0,0"
             style="fill:#ffffff;fill-opacity:1;fill-rule:nonzero;stroke:none"
             id="path296" />
        </g>
        <g
           id="g298"
           transform="translate(74.5796,200.7285)">
          <path
             d="m 0,0 c -3.186,2.486 -6.464,4.858 -9.879,7.02 -3.58,2.266 -7.331,4.36 -11.314,5.833 -2.01,0.742 -4.09,1.328 -6.221,1.586 -0.26,0.032 -0.41,0.357 -0.352,0.588 0.071,0.28 0.328,0.383 0.588,0.352 3.996,-0.485 7.829,-2.061 11.396,-3.863 C -11.893,9.549 -8.207,7.189 -4.654,4.671 -2.849,3.39 -1.076,2.063 0.669,0.701 0.875,0.54 0.853,0.191 0.685,0.017 0.489,-0.188 0.207,-0.161 0,0"
             style="fill:#ffffff;fill-opacity:1;fill-rule:nonzero;stroke:none"
             id="path300" />
        </g>
        <g
           id="g302">
          <g
             id="g304" />
          <g
             id="g332">
            <g
               clip-path="url(#clipPath308)"
               opacity="0.600006"
               id="g330">
              <g
                 id="g328">
                <g
                   id="g326">
                  <g
                     id="g324">
                    <g
                       id="g322">
                      <path
                         d="m 186.25,172.506 c 5.609,27.987 5.038,63.483 -6.15,89.744 -11.188,26.26 -32.017,48.706 -58.299,59.843 -14.587,6.181 -30.4,8.833 -45.456,13.759 -11.667,3.816 -22.883,9.007 -33.342,15.43 -1.153,0.708 -7.191,5.337 -7.191,5.337 -1.192,0.006 0.227,-8.452 0.591,-11.3 2.86,-22.369 5.764,-44.925 13.159,-66.229 7.395,-21.303 19.713,-41.538 38.12,-54.565 15.339,-10.856 33.825,-16.064 51.502,-22.441 17.678,-6.377 35.633,-14.664 47.066,-29.578"
                         style="fill:url(#linearGradient318);stroke:none"
                         id="path320" />
                    </g>
                  </g>
                </g>
              </g>
            </g>
          </g>
        </g>
        <g
           id="g334"
           transform="translate(180.7427,181.6006)">
          <path
             d="m 0,0 c -2.694,13.591 -8.146,26.458 -15.25,38.314 -7.183,11.989 -15.967,22.955 -25.479,33.169 -10.466,11.241 -21.783,21.706 -33.751,31.33 -11.02,8.86 -22.728,16.801 -33.951,25.391 -10.838,8.296 -21.294,17.278 -29.685,28.112 -1.001,1.291 -1.97,2.606 -2.908,3.943 -0.43,0.613 0.576,1.194 1.002,0.586 7.939,-11.317 18.222,-20.701 29.04,-29.206 10.977,-8.63 22.564,-16.447 33.573,-25.036 12.247,-9.556 23.81,-19.989 34.567,-31.196 9.64,-10.045 18.621,-20.803 26.136,-32.542 C -9.28,31.266 -3.306,18.638 0.021,5.237 0.428,3.604 0.792,1.96 1.119,0.309 1.264,-0.421 0.146,-0.733 0,0"
             style="fill:#ffffff;fill-opacity:1;fill-rule:nonzero;stroke:none"
             id="path336" />
        </g>
        <g
           id="g338"
           transform="translate(164.4619,221.6367)">
          <path
             d="m 0,0 c -4.918,6.126 -10.776,11.433 -17.187,15.959 -6.407,4.523 -13.314,8.298 -20.404,11.63 -3.717,1.747 -7.483,3.411 -11.309,4.905 -4.266,1.665 -8.608,3.124 -12.95,4.577 -8.151,2.728 -16.356,5.455 -23.987,9.462 -6.794,3.568 -13.207,8.165 -18.01,14.213 -0.592,0.746 -1.16,1.51 -1.703,2.292 -0.427,0.615 0.578,1.196 1.002,0.586 4.423,-6.374 10.628,-11.253 17.344,-15.028 7.407,-4.163 15.446,-6.978 23.475,-9.673 4.341,-1.458 8.693,-2.886 12.984,-4.488 3.931,-1.468 7.791,-3.118 11.609,-4.857 7.115,-3.243 14.068,-6.892 20.563,-11.259 C -12.138,13.993 -6.159,8.954 -1.072,3.09 -0.426,2.346 0.204,1.589 0.821,0.82 1.284,0.243 0.468,-0.583 0,0"
             style="fill:#ffffff;fill-opacity:1;fill-rule:nonzero;stroke:none"
             id="path340" />
        </g>
        <g
           id="g342"
           transform="translate(152.0591,239.3496)">
          <path
             d="m 0,0 c -0.156,5.379 -0.794,10.737 -1.812,16.02 -1.074,5.566 -2.562,11.053 -4.42,16.408 -1.88,5.416 -4.145,10.698 -6.807,15.777 -2.617,4.993 -5.619,9.794 -9.053,14.267 -3.25,4.232 -6.916,8.171 -11.011,11.597 -0.491,0.411 -0.989,0.815 -1.494,1.211 -0.248,0.196 -0.2,0.616 0,0.821 0.241,0.246 0.576,0.192 0.821,0 4.224,-3.322 8.001,-7.187 11.37,-11.368 3.553,-4.411 6.672,-9.163 9.395,-14.127 2.794,-5.092 5.179,-10.409 7.18,-15.861 1.974,-5.376 3.569,-10.893 4.75,-16.497 C 0.051,12.875 0.81,7.412 1.085,1.926 1.117,1.284 1.142,0.643 1.161,0 1.182,-0.747 0.022,-0.747 0,0"
             style="fill:#ffffff;fill-opacity:1;fill-rule:nonzero;stroke:none"
             id="path344" />
        </g>
        <g
           id="g346"
           transform="translate(91.5254,295.7949)">
          <path
             d="m 0,0 c -1.745,4.515 -3.656,8.969 -5.836,13.292 -2.286,4.532 -4.853,8.992 -8.042,12.956 -1.609,1.999 -3.387,3.881 -5.418,5.458 -0.247,0.192 -0.202,0.618 0,0.82 0.245,0.245 0.572,0.193 0.821,0 3.809,-2.957 6.78,-6.933 9.336,-10.982 2.788,-4.414 5.126,-9.106 7.228,-13.88 C -0.843,5.237 0.163,2.782 1.119,0.309 1.232,0.016 0.995,-0.328 0.714,-0.405 0.386,-0.495 0.113,-0.293 0,0"
             style="fill:#ffffff;fill-opacity:1;fill-rule:nonzero;stroke:none"
             id="path348" />
        </g>
        <g
           id="g350">
          <g
             id="g352" />
          <g
             id="g380">
            <g
               clip-path="url(#clipPath356)"
               opacity="0.600006"
               id="g378">
              <g
                 id="g376">
                <g
                   id="g374">
                  <g
                     id="g372">
                    <g
                       id="g370">
                      <path
                         d="m 276.926,157.279 c 8.942,22.434 25.733,47.336 45.787,60.791 20.055,13.454 45.184,19.753 68.96,15.518 13.195,-2.351 25.63,-7.77 38.58,-11.228 10.033,-2.679 20.381,-4.176 30.763,-4.45 1.143,-0.03 7.561,0.464 7.561,0.464 0.849,-0.546 -4.062,-5.888 -5.636,-7.739 -12.353,-14.539 -24.824,-29.192 -39.901,-40.883 -15.076,-11.69 -33.151,-20.351 -52.216,-21.09 -15.887,-0.616 -31.397,4.224 -46.874,7.862 -15.477,3.64 -32.033,6.052 -47.024,0.755"
                         style="fill:url(#linearGradient366);stroke:none"
                         id="path368" />
                    </g>
                  </g>
                </g>
              </g>
            </g>
          </g>
        </g>
        <g
           id="g382"
           transform="translate(285.0283,161.1855)">
          <path
             d="m 0,0 c 8.185,8.393 17.989,14.998 28.499,20.126 10.627,5.184 21.917,8.903 33.376,11.756 12.609,3.138 25.465,5.334 38.393,6.633 11.902,1.195 23.869,1.421 35.793,2.331 11.513,0.879 23.072,2.421 34.023,6.228 1.306,0.454 2.6,0.939 3.882,1.453 0.588,0.237 0.142,1.113 -0.44,0.878 -10.853,-4.358 -22.475,-6.266 -34.072,-7.302 -11.766,-1.051 -23.59,-1.246 -35.36,-2.253 C 90.999,38.729 77.985,36.669 65.185,33.688 53.713,31.017 42.38,27.534 31.632,22.681 21.013,17.885 10.948,11.688 2.403,3.724 1.361,2.753 0.344,1.755 -0.65,0.735 -1.09,0.285 -0.441,-0.453 0,0"
             style="fill:#ffffff;fill-opacity:1;fill-rule:nonzero;stroke:none"
             id="path384" />
        </g>
        <g
           id="g386"
           transform="translate(315.0527,182.0566)">
          <path
             d="m 0,0 c 6.315,2.073 12.918,3.131 19.554,3.381 6.63,0.25 13.269,-0.263 19.835,-1.173 3.442,-0.477 6.88,-1.035 10.282,-1.742 3.793,-0.789 7.546,-1.759 11.295,-2.734 7.038,-1.828 14.114,-3.681 21.374,-4.363 6.465,-0.606 13.134,-0.307 19.331,1.764 0.764,0.255 1.519,0.534 2.266,0.839 0.585,0.238 0.141,1.114 -0.441,0.877 C 97.418,-5.629 90.766,-6.224 84.262,-5.8 77.088,-5.332 70.09,-3.617 63.153,-1.821 59.402,-0.852 55.656,0.145 51.875,0.989 48.41,1.764 44.912,2.376 41.402,2.904 34.86,3.891 28.246,4.512 21.625,4.415 15.066,4.318 8.501,3.506 2.187,1.695 1.386,1.466 0.589,1.22 -0.203,0.96 -0.798,0.765 -0.601,-0.197 0,0"
             style="fill:#ffffff;fill-opacity:1;fill-rule:nonzero;stroke:none"
             id="path388" />
        </g>
        <g
           id="g390"
           transform="translate(332.0234,188.8896)">
          <path
             d="m 0,0 c 2.594,3.742 5.52,7.246 8.681,10.521 3.33,3.452 6.918,6.655 10.707,9.594 3.833,2.972 7.877,5.672 12.108,8.044 4.161,2.332 8.505,4.351 13.006,5.937 4.257,1.5 8.675,2.6 13.159,3.139 0.539,0.065 1.078,0.121 1.618,0.169 0.267,0.025 0.427,0.344 0.379,0.582 -0.056,0.285 -0.319,0.403 -0.581,0.379 C 54.549,37.96 50.086,36.963 45.768,35.554 41.212,34.066 36.808,32.137 32.585,29.874 28.254,27.554 24.108,24.885 20.173,21.943 16.292,19.042 12.614,15.867 9.19,12.438 5.907,9.152 2.847,5.629 0.12,1.866 -0.199,1.426 -0.513,0.982 -0.823,0.536 -1.183,0.016 -0.36,-0.52 0,0"
             style="fill:#ffffff;fill-opacity:1;fill-rule:nonzero;stroke:none"
             id="path392" />
        </g>
        <g
           id="g394"
           transform="translate(400.998,200.9668)">
          <path
             d="m 0,0 c 3.321,2.396 6.733,4.672 10.274,6.73 3.712,2.159 7.592,4.136 11.682,5.474 2.064,0.675 4.193,1.189 6.361,1.369 0.264,0.022 0.429,0.345 0.378,0.581 -0.06,0.286 -0.316,0.402 -0.581,0.379 C 24.049,14.195 20.106,12.747 16.425,11.058 12.41,9.215 8.587,6.967 4.894,4.552 3.016,3.324 1.169,2.048 -0.65,0.735 -0.865,0.58 -0.856,0.227 -0.692,0.043 -0.502,-0.173 -0.216,-0.155 0,0"
             style="fill:#ffffff;fill-opacity:1;fill-rule:nonzero;stroke:none"
             id="path396" />
        </g>
        <g
           id="g398"
           transform="translate(246.3403,277.5181)">
          <path
             d="M 0,0 C 0.027,-0.267 0.115,-0.52 0.297,-0.744 0.6,-1.117 1.081,-1.289 1.54,-1.43 2.063,-1.59 2.593,-1.726 3.126,-1.849 2.021,-1.33 0.977,-0.715 0,0"
             style="fill:#f46969;fill-opacity:1;fill-rule:nonzero;stroke:none"
             id="path400" />
        </g>
        <g
           id="g402"
           transform="translate(122.459,229.499)">
          <path
             d="m 0,0 c 3.859,0.713 6.41,4.418 5.698,8.277 -0.712,3.86 -4.418,6.411 -8.277,5.699 l -8.632,-1.593 2.579,-13.976 z"
             style="fill:#1c3077;fill-opacity:1;fill-rule:nonzero;stroke:none"
             id="path404" />
        </g>
        <g
           id="g406"
           transform="translate(111.248,241.8818)">
          <path
             d="m 0,0 -8.632,-1.593 c -3.859,-0.712 -6.41,-4.418 -5.698,-8.277 0.712,-3.859 4.418,-6.41 8.277,-5.698 l 8.632,1.592 z"
             style="fill:#f69a2b;fill-opacity:1;fill-rule:nonzero;stroke:none"
             id="path408" />
        </g>
        <g
           id="g410"
           transform="translate(113.8345,277.8062)">
          <path
             d="m 0,0 c 2.358,3.137 1.726,7.592 -1.411,9.949 -3.137,2.358 -7.591,1.726 -9.949,-1.41 l -5.274,-7.017 11.361,-8.539 z"
             style="fill:#1c3077;fill-opacity:1;fill-rule:nonzero;stroke:none"
             id="path412" />
        </g>
        <g
           id="g414"
           transform="translate(97.2007,279.3281)">
          <path
             d="m 0,0 -5.274,-7.017 c -2.358,-3.137 -1.726,-7.591 1.411,-9.949 3.137,-2.358 7.592,-1.726 9.949,1.411 l 5.274,7.016 z"
             style="fill:#f69a2b;fill-opacity:1;fill-rule:nonzero;stroke:none"
             id="path416" />
        </g>
        <g
           id="g418"
           transform="translate(74.4907,265.7212)">
          <path
             d="m 0,0 c -0.312,3.912 -3.737,6.83 -7.649,6.517 v 0 c -3.912,-0.312 -6.83,-3.737 -6.517,-7.649 l 0.699,-8.75 14.166,1.132 z"
             style="fill:#1c3077;fill-opacity:1;fill-rule:nonzero;stroke:none"
             id="path420" />
        </g>
        <g
           id="g422"
           transform="translate(61.0239,255.8394)">
          <path
             d="m 0,0 0.699,-8.75 c 0.313,-3.912 3.738,-6.83 7.649,-6.516 3.912,0.312 6.83,3.736 6.517,7.648 l -0.699,8.75 z"
             style="fill:#f69a2b;fill-opacity:1;fill-rule:nonzero;stroke:none"
             id="path424" />
        </g>
        <g
           id="g426"
           transform="translate(356.3848,211.6904)">
          <path
             d="M 0,0 V 43.035 H -34.18 V -0.021 c 0,-4.611 -2.794,-8.769 -7.072,-10.488 -22.263,-8.945 -38.104,-30.492 -38.681,-55.815 -0.77,-33.839 26.332,-62.293 60.171,-63.093 34.747,-0.821 63.174,27.102 63.174,61.663 0,24.818 -14.659,46.212 -35.791,55.998 C 3.013,-9.622 0,-5.079 0,0"
             style="fill:#e1ebf9;fill-opacity:1;fill-rule:nonzero;stroke:none"
             id="path428" />
        </g>
        <g
           id="g430"
           transform="translate(278.584,160.0908)">
          <path
             d="m 0,0 c -1.275,-4.709 -2.017,-9.639 -2.132,-14.725 -0.77,-33.838 26.332,-62.293 60.171,-63.092 34.747,-0.822 63.174,27.101 63.174,61.663 0,6.385 -0.978,12.542 -2.779,18.336 C 78.967,0.979 39.485,0.25 0,0"
             style="fill:#f69a2b;fill-opacity:1;fill-rule:nonzero;stroke:none"
             id="path432" />
        </g>
        <g
           id="g434"
           transform="translate(305.8828,153.6826)">
          <path
             d="m 0,0 c 9.461,-1.132 18.889,-0.598 28.313,0.607 10.067,1.287 19.984,3.504 30.034,4.87 8.552,1.162 17.195,1.453 25.708,2.851 0.009,0.023 0.02,0.045 0.031,0.068 C 47.062,7.32 10.026,6.647 -27.012,6.411 -18.2,3.581 -9.207,1.102 0,0"
             style="fill:#ea871b;fill-opacity:1;fill-rule:nonzero;stroke:none"
             id="path436" />
        </g>
        <g
           id="g438"
           transform="translate(399.0801,153.2383)">
          <path
             d="m 0,0 c -3.63,-11.205 -11.526,-21.897 -19.362,-30.439 -8.446,-9.208 -18.904,-15.716 -30.461,-20.333 -12.772,-5.102 -26.217,-3.923 -39.539,-2.033 -7.672,1.089 -14.882,3.392 -21.336,7.208 10.95,-14.951 28.435,-24.9 48.241,-25.368 C -27.71,-71.786 0.717,-43.863 0.717,-9.302 0.717,-6.138 0.464,-3.034 0,0"
             style="fill:#ea871b;fill-opacity:1;fill-rule:nonzero;stroke:none"
             id="path440" />
        </g>
        <g
           id="g442"
           transform="translate(322.6621,254.2681)">
          <path
             d="m 0,0 v -42.599 c 0,-4.833 -2.889,-9.116 -7.358,-10.912 -22.766,-9.147 -37.837,-30.894 -38.396,-55.402 -0.767,-33.735 26.026,-61.829 59.726,-62.625 16.639,-0.376 32.363,5.788 44.257,17.404 11.897,11.619 18.449,27.176 18.449,43.802 0,23.772 -13.946,45.589 -35.527,55.583 -4.79,2.219 -7.885,6.997 -7.885,12.171 V 0 Z m 15.467,-172.47 c -0.506,0 -1.01,0.007 -1.517,0.018 -34.203,0.809 -61.396,29.323 -60.618,63.56 0.567,24.875 15.862,46.946 38.969,56.229 4.121,1.656 6.784,5.606 6.784,10.064 V 0.915 H 34.18 v -43.493 c 0,-4.82 2.887,-9.271 7.355,-11.341 21.903,-10.143 36.057,-32.287 36.057,-56.413 0,-16.875 -6.651,-32.663 -18.725,-44.456 -11.709,-11.435 -27.071,-17.682 -43.4,-17.682"
             style="fill:#1d3078;fill-opacity:1;fill-rule:nonzero;stroke:none"
             id="path444" />
        </g>
        <g
           id="g446"
           transform="translate(357.6035,246.8682)">
          <path
             d="m 0,0 h -36.618 c -1.605,0 -2.905,1.301 -2.905,2.905 v 2.047 c 0,1.604 1.3,2.905 2.905,2.905 L 0,7.857 c 1.605,0 2.906,-1.301 2.906,-2.905 V 2.905 C 2.906,1.301 1.605,0 0,0"
             style="fill:#1d3078;fill-opacity:1;fill-rule:nonzero;stroke:none"
             id="path448" />
        </g>
        <g
           id="g450">
          <g
             id="g452" />
          <g
             id="g464">
            <g
               clip-path="url(#clipPath456)"
               opacity="0.559998"
               id="g462">
              <g
                 transform="translate(356.4561,192.2725)"
                 id="g460">
                <path
                   d="m 0,0 c 0,0 27.86,-33.037 16.272,-72.731 0,0 33.901,50.172 -16.272,72.731"
                   style="fill:#ffffff;fill-opacity:1;fill-rule:nonzero;stroke:none"
                   id="path458" />
              </g>
            </g>
          </g>
        </g>
        <g
           id="g466"
           transform="translate(299.751,133.3477)">
          <path
             d="m 0,0 c 0,-2.314 -1.877,-4.191 -4.191,-4.191 -2.316,0 -4.192,1.877 -4.192,4.191 0,2.315 1.876,4.191 4.192,4.191 C -1.877,4.191 0,2.315 0,0"
             style="fill:#ea871b;fill-opacity:1;fill-rule:nonzero;stroke:none"
             id="path468" />
        </g>
        <g
           id="g470"
           transform="translate(344.0889,112.3096)">
          <path
             d="m 0,0 c 0,-2.315 -1.877,-4.191 -4.191,-4.191 -2.315,0 -4.192,1.876 -4.192,4.191 0,2.314 1.877,4.191 4.192,4.191 C -1.877,4.191 0,2.314 0,0"
             style="fill:#ea871b;fill-opacity:1;fill-rule:nonzero;stroke:none"
             id="path472" />
        </g>
        <g
           id="g474"
           transform="translate(358.7578,145.5107)">
          <path
             d="m 0,0 c 0,-2.314 -1.877,-4.191 -4.191,-4.191 -2.316,0 -4.192,1.877 -4.192,4.191 0,2.315 1.876,4.191 4.192,4.191 C -1.877,4.191 0,2.315 0,0"
             style="fill:#ea871b;fill-opacity:1;fill-rule:nonzero;stroke:none"
             id="path476" />
        </g>
        <g
           id="g478"
           transform="translate(365.3213,125.6338)">
          <path
             d="m 0,0 c 0,-1.311 -1.062,-2.373 -2.372,-2.373 -1.311,0 -2.373,1.062 -2.373,2.373 0,1.31 1.062,2.372 2.373,2.372 C -1.062,2.372 0,1.31 0,0"
             style="fill:#ea871b;fill-opacity:1;fill-rule:nonzero;stroke:none"
             id="path480" />
        </g>
        <g
           id="g482"
           transform="translate(302.123,114.1279)">
          <path
             d="m 0,0 c 0,-1.311 -1.062,-2.373 -2.372,-2.373 -1.311,0 -2.373,1.062 -2.373,2.373 0,1.311 1.062,2.373 2.373,2.373 C -1.062,2.373 0,1.311 0,0"
             style="fill:#ea871b;fill-opacity:1;fill-rule:nonzero;stroke:none"
             id="path484" />
        </g>
        <g
           id="g486"
           transform="translate(329.7061,138.9473)">
          <path
             d="m 0,0 c 0,-1.311 -1.062,-2.373 -2.373,-2.373 -1.311,0 -2.372,1.062 -2.372,2.373 0,1.31 1.061,2.372 2.372,2.372 C -1.062,2.372 0,1.31 0,0"
             style="fill:#ea871b;fill-opacity:1;fill-rule:nonzero;stroke:none"
             id="path488" />
        </g>
        <g
           id="g490"
           transform="translate(247.0273,297.1035)">
          <path
             d="m 0,0 c 2.896,-5.268 2.911,-12.01 0.04,-17.291 -0.521,-0.958 -1.117,-2.192 -0.43,-3.039 0.303,-0.372 0.784,-0.544 1.243,-0.685 3.423,-1.05 7.089,-1.303 10.626,-0.732 0.939,0.152 1.915,0.383 2.63,1.011 0.135,0.118 0.263,0.258 0.298,0.434 0.07,0.344 -0.234,0.636 -0.493,0.872 -1.909,1.742 -2.825,4.363 -3.014,6.939 -0.189,2.577 0.274,5.152 0.735,7.694"
             style="fill:#ff8181;fill-opacity:1;fill-rule:nonzero;stroke:none"
             id="path492" />
        </g>
        <g
           id="g494"
           transform="translate(249.2627,289.8364)">
          <path
             d="M 0,0 C 1.365,-4.521 4.866,-6.034 8.822,-6.473 8.753,-6.058 8.695,-5.641 8.665,-5.224 8.476,-2.647 8.938,-0.072 9.399,2.47 L -2.235,7.267 C -1.078,5.161 -0.388,2.818 -0.152,0.427 -0.098,0.289 -0.045,0.149 0,0"
             style="fill:#f46969;fill-opacity:1;fill-rule:nonzero;stroke:none"
             id="path496" />
        </g>
        <g
           id="g498"
           transform="translate(254.7217,163.6611)">
          <path
             d="m 0,0 c -1.058,-4.005 -1.516,-8.139 -1.972,-12.255 -1.865,-16.864 -3.732,-33.727 -5.597,-50.591 -0.077,-0.695 -0.18,-1.446 -0.671,-1.943 -0.698,-0.708 -1.848,-0.601 -2.83,-0.442 -2.398,0.384 -4.796,0.77 -7.194,1.156 -0.412,0.066 -0.864,0.156 -1.119,0.487 -0.195,0.254 -0.226,0.594 -0.249,0.914 -1.327,18.019 -2.655,36.081 -1.99,54.137 0.311,8.431 1.056,16.846 1.122,25.281"
             style="fill:#1c3077;fill-opacity:1;fill-rule:nonzero;stroke:none"
             id="path500" />
        </g>
        <g
           id="g502"
           transform="translate(236.2964,101.293)">
          <path
             d="m 0,0 c -0.217,-1.582 -0.824,-4.821 -1.042,-6.402 -0.147,-1.075 -0.274,-2.25 0.303,-3.168 0.772,-1.229 2.435,-1.462 3.884,-1.551 4.655,-0.286 9.321,-0.354 13.984,-0.421 1.903,-0.028 2.863,-0.042 4.765,-0.069 0.481,-0.007 1.746,0.252 2.071,0.607 0.707,0.774 -0.037,2.108 -0.135,2.253 -2.001,2.934 -5.367,2.544 -8.842,3.273 -2.285,0.481 -4.723,1.191 -6.47,2.741"
             style="fill:#1c3077;fill-opacity:1;fill-rule:nonzero;stroke:none"
             id="path504" />
        </g>
        <g
           id="g506"
           transform="translate(258.9453,163.5146)">
          <path
             d="m 0,0 c 0.778,-4.067 0.95,-8.224 1.12,-12.362 0.695,-16.952 1.392,-33.905 2.088,-50.856 0.028,-0.699 0.079,-1.455 0.534,-1.985 0.649,-0.754 1.803,-0.727 2.793,-0.638 2.419,0.22 4.838,0.439 7.256,0.657 0.416,0.038 0.874,0.096 1.15,0.409 0.213,0.24 0.267,0.577 0.313,0.894 2.569,17.885 5.142,35.813 5.726,53.87 0.273,8.432 0.111,16.878 0.628,25.298"
             style="fill:#1c3077;fill-opacity:1;fill-rule:nonzero;stroke:none"
             id="path508" />
        </g>
        <g
           id="g510"
           transform="translate(263.7998,98.6699)">
          <path
             d="m 0,0 c -0.217,-1.582 -0.435,-3.163 -0.651,-4.745 -0.148,-1.073 -0.275,-2.249 0.301,-3.167 0.773,-1.229 2.436,-1.462 3.884,-1.551 4.656,-0.286 9.321,-0.353 13.986,-0.422 1.902,-0.027 2.862,-0.041 4.764,-0.068 0.482,-0.008 1.746,0.252 2.07,0.607 0.708,0.774 -0.036,2.109 -0.134,2.253 -2.001,2.934 -5.366,2.544 -8.842,3.274 -2.285,0.48 -7.289,1.838 -7.333,4.469"
             style="fill:#1c3077;fill-opacity:1;fill-rule:nonzero;stroke:none"
             id="path512" />
        </g>
        <g
           id="g514"
           transform="translate(317.5918,275.9961)">
          <path
             d="M 0,0 C 0.876,0.945 1.764,1.879 2.664,2.8 3.032,3.178 3.409,3.558 3.865,3.823 5.05,4.513 6.522,4.317 7.889,4.222 11.274,3.986 14.71,4.514 17.868,5.755 18.366,5.95 18.902,6.167 19.419,6.03 20.093,5.852 20.488,5.095 20.456,4.399 20.407,3.373 19.613,2.502 18.687,2.06 17.76,1.617 16.711,1.522 15.688,1.434 14.436,1.325 13.183,1.217 11.93,1.109 10.389,0.976 8.827,0.838 7.372,0.313 5.917,-0.212 4.557,-1.18 3.894,-2.577"
             style="fill:#ff8181;fill-opacity:1;fill-rule:nonzero;stroke:none"
             id="path516" />
        </g>
        <g
           id="g518"
           transform="translate(276.3232,276.1934)">
          <path
             d="M 0,0 19.032,-18.458 40.241,2.894 48.88,-3.977 c 0,0 -17.3,-22.472 -28.068,-30.801 -0.908,-0.701 -2.08,-0.809 -3.086,-0.311 -3.483,1.723 -11.711,6.152 -15.622,11.28 C -2.935,-17.204 0,0 0,0"
             style="fill:#f5f7fd;fill-opacity:1;fill-rule:nonzero;stroke:none"
             id="path520" />
        </g>
        <g
           id="g522"
           transform="translate(248.8794,281.4062)">
          <path
             d="m 0,0 c 1.788,-1.054 5.586,-2.656 9.415,-0.231 0.532,0.336 1.195,0.397 1.782,0.169 l 2.965,-1.147 -1.586,-45.83 -16.865,44.278 2.282,2.454 C -1.489,0.25 -0.655,0.387 0,0"
             style="fill:#1131c6;fill-opacity:1;fill-rule:nonzero;stroke:none"
             id="path524" />
        </g>
        <g
           id="g526"
           transform="translate(246.2847,280.6089)">
          <path
             d="m 0,0 c 0,0 10.795,-20.212 13.536,-27.262 l 3.249,-94.037 c 0,0 -15.792,-2.116 -39.196,2.111 0,0 9.472,61.522 9.036,76.588 -0.355,12.275 -1.812,27.073 -2.338,32.131 -0.114,1.094 0.441,2.142 1.406,2.668 z"
             style="fill:#f5f7fd;fill-opacity:1;fill-rule:nonzero;stroke:none"
             id="path528" />
        </g>
        <g
           id="g530"
           transform="translate(260.7783,281.0171)">
          <path
             d="m 0,0 -0.98,-28.323 3.271,-93.385 25.554,1.76 c 0,0 -5.896,40.483 -8.27,69.278 -1.901,23.059 -2.858,38.668 -3.164,43.971 -0.069,1.203 -0.89,2.225 -2.048,2.559 z"
             style="fill:#f5f7fd;fill-opacity:1;fill-rule:nonzero;stroke:none"
             id="path532" />
        </g>
        <g
           id="g534"
           transform="translate(259.8203,253.3467)">
          <path
             d="m 0,0 -13.605,10.721 3.224,5.013 -6.317,0.829 -0.202,8.865 3.364,1.834 C -13.536,27.262 -2.027,6.477 0,0"
             style="fill:#dfe4ef;fill-opacity:1;fill-rule:nonzero;stroke:none"
             id="path536" />
        </g>
        <g
           id="g538"
           transform="translate(259.8203,253.3467)">
          <path
             d="M 0,0 7.893,13.719 3.75,16.547 8.684,17.759 6.117,26.184 0.958,27.67 C 0.958,27.67 -0.316,5.096 0,0"
             style="fill:#dfe4ef;fill-opacity:1;fill-rule:nonzero;stroke:none"
             id="path540" />
        </g>
        <g
           id="g542"
           transform="translate(249.4414,205.9941)">
          <path
             d="m 0,0 -18.057,0.625 0.94,5.825 17.32,-0.599 z"
             style="fill:#dfe4ef;fill-opacity:1;fill-rule:nonzero;stroke:none"
             id="path544" />
        </g>
        <g
           id="g546"
           transform="translate(274.0732,206.2383)">
          <path
             d="M 0,0 8.934,0.424 8.291,6.254 -0.277,5.847 Z"
             style="fill:#dfe4ef;fill-opacity:1;fill-rule:nonzero;stroke:none"
             id="path548" />
        </g>
        <g
           id="g550"
           transform="translate(259.8574,253.6968)">
          <path
             d="M 0,0 0.561,-94.638 2.052,-94.513 0.55,1.798 Z"
             style="fill:#dfe4ef;fill-opacity:1;fill-rule:nonzero;stroke:none"
             id="path552" />
        </g>
        <g
           id="g554"
           transform="translate(232.2275,225.2412)">
          <path
             d="m 0,0 0.854,7.364 27.124,8.463 C 27.978,15.827 20.159,5.333 0,0"
             style="fill:#dfe4ef;fill-opacity:1;fill-rule:nonzero;stroke:none"
             id="path556" />
        </g>
        <g
           id="g558"
           transform="translate(235.9512,251.8462)">
          <path
             d="m 0,0 c 0,0 0.412,-2.231 0.966,-5.882 0.555,-3.651 16.94,0.417 16.94,0.417 0,0 -14.086,-14.097 -19.542,-11.929 -5.456,2.167 -2.139,13.565 -2.139,13.565 l 1.909,8.388 z"
             style="fill:#dfe4ef;fill-opacity:1;fill-rule:nonzero;stroke:none"
             id="path560" />
        </g>
        <g
           id="g562"
           transform="translate(274.0918,229.5977)">
          <path
             d="m 0,0 -20.924,-1.673 c -0.884,-0.07 -1.657,0.589 -1.727,1.472 l -2.5,31.275 c -0.071,0.884 0.588,1.657 1.471,1.728 l 20.925,1.672 c 0.883,0.07 1.656,-0.588 1.728,-1.472 L 1.472,1.728 C 1.542,0.844 0.884,0.07 0,0"
             style="fill:#11215e;fill-opacity:1;fill-rule:nonzero;stroke:none"
             id="path564" />
        </g>
        <g
           id="g566"
           transform="translate(255.5342,245.2881)">
          <path
             d="m 0,0 c 1.048,-0.31 2.185,0.188 3.006,0.91 0.821,0.722 1.426,1.654 2.17,2.456 1.325,1.428 3.038,1.976 4.949,2.353 0.527,0.104 1.335,0.471 1.414,-0.06 C 11.566,5.479 11.499,5.3 11.417,5.138 10.671,3.681 8.114,3.709 8.211,2.075 c 3.583,1.233 7.613,1.629 11.195,2.862 0.471,0.161 1.08,0.287 1.391,-0.102 C 21.105,4.451 20.856,3.888 20.599,3.468 18.19,-0.453 15.565,-3.248 11.123,-4.443 9.021,-5.009 6.335,-6.054 4.162,-6.159 1.988,-6.265 -0.287,-6.64 -1.991,-7.993"
             style="fill:#ff8181;fill-opacity:1;fill-rule:nonzero;stroke:none"
             id="path568" />
        </g>
        <g
           id="g570"
           transform="translate(231.0073,271.915)">
          <path
             d="m 0,0 c 0,0 5.176,-9.958 4.942,-21.42 l -1.2,-9.11 21.628,5.654 1.46,-8.764 c 0,0 -12.162,-10.52 -32.944,-11.858 -1.813,-0.117 -3.344,1.34 -3.337,3.156 C -9.42,-34.006 -7.929,-11.886 0,0"
             style="fill:#f5f7fd;fill-opacity:1;fill-rule:nonzero;stroke:none"
             id="path572" />
        </g>
        <g
           id="g574"
           transform="translate(244.8691,313.1763)">
          <path
             d="m 0,0 c -2.909,-7.806 -1.049,-17.18 4.62,-23.284 1.755,-1.889 4.105,-3.561 6.674,-3.35 3.428,0.28 5.669,3.677 7.001,6.847 1.608,3.829 1.824,8.51 1.42,12.643 C 19.31,-3.01 18.102,0.576 14.534,2.703 10.967,4.83 5.885,4.501 3.108,1.414"
             style="fill:#ff8181;fill-opacity:1;fill-rule:nonzero;stroke:none"
             id="path576" />
        </g>
        <g
           id="g578"
           transform="translate(244.8682,301.3579)">
          <path
             d="m 0,0 c -0.78,1.188 -2.125,1.458 -2.888,0.668 -0.763,-0.79 -0.905,-2.46 -0.409,-3.865 0.496,-1.406 1.551,-2.485 2.613,-2.812 0.519,-0.159 1.057,-0.149 1.471,0.161 0.716,0.536 0.913,1.814 0.955,3.015"
             style="fill:#ff8181;fill-opacity:1;fill-rule:nonzero;stroke:none"
             id="path580" />
        </g>
        <g
           id="g582"
           transform="translate(244.9502,298.7969)">
          <path
             d="M 0,0 C 0.233,-0.747 0.101,-1.452 -0.296,-1.576 -0.693,-1.7 -1.204,-1.196 -1.437,-0.45 -1.67,0.297 -1.538,1.002 -1.141,1.126 -0.744,1.25 -0.233,0.746 0,0"
             style="fill:#f46969;fill-opacity:1;fill-rule:nonzero;stroke:none"
             id="path584" />
        </g>
        <g
           id="g586"
           transform="translate(263.042,301.1958)">
          <path
             d="m 0,0 c -0.02,-0.562 -0.373,-1.005 -0.791,-0.99 -0.417,0.014 -0.739,0.481 -0.72,1.042 0.02,0.561 0.373,1.005 0.79,0.99 C -0.303,1.028 0.02,0.561 0,0"
             style="fill:#0f1e57;fill-opacity:1;fill-rule:nonzero;stroke:none"
             id="path588" />
        </g>
        <g
           id="g590"
           transform="translate(254.0791,301.5059)">
          <path
             d="m 0,0 c -0.02,-0.562 -0.373,-1.005 -0.791,-0.99 -0.417,0.014 -0.739,0.481 -0.72,1.042 0.02,0.561 0.373,1.005 0.791,0.99 C -0.303,1.028 0.02,0.561 0,0"
             style="fill:#0f1e57;fill-opacity:1;fill-rule:nonzero;stroke:none"
             id="path592" />
        </g>
        <g
           id="g594"
           transform="translate(257.6787,301.731)">
          <path
             d="m 0,0 c -0.138,-0.504 -0.127,-1.066 -0.083,-1.581 0.121,-1.424 0.626,-2.78 1.309,-4.027 0.045,0.151 0.09,0.302 0.135,0.453 C 0.773,-5.5 0.047,-5.767 -0.64,-5.677 c -0.426,0.056 -0.447,-0.613 -0.023,-0.668 0.794,-0.104 1.662,0.202 2.342,0.601 0.155,0.091 0.224,0.29 0.135,0.453 -0.631,1.153 -1.129,2.425 -1.233,3.747 -0.027,0.344 -0.029,0.691 0.007,1.035 0.006,0.053 0.013,0.106 0.02,0.159 0.015,0.112 -0.006,-0.025 0.008,0.049 C 0.623,-0.268 0.63,-0.233 0.639,-0.2 0.752,0.215 0.114,0.416 0,0"
             style="fill:#f46969;fill-opacity:1;fill-rule:nonzero;stroke:none"
             id="path596" />
        </g>
        <g
           id="g598"
           transform="translate(255.3672,305.0298)">
          <path
             d="m 0,0 c 0,0 -1.336,0.67 -2.985,0.542 -1.65,-0.128 -3.029,-1.093 -2.676,-1.223 0.354,-0.13 2.027,0.689 3.643,0.279 1.618,-0.41 1.929,-0.354 2.176,-0.266 C 0.404,-0.582 0.394,-0.164 0,0"
             style="fill:#0f1e57;fill-opacity:1;fill-rule:nonzero;stroke:none"
             id="path600" />
        </g>
        <g
           id="g602"
           transform="translate(259.8789,304.874)">
          <path
             d="M 0,0 C 0,0 1.154,0.584 2.52,0.351 3.885,0.118 4.97,-0.931 4.668,-1.039 4.366,-1.146 3.024,-0.223 1.653,-0.53 0.281,-0.836 0.025,-0.76 -0.174,-0.658 -0.373,-0.555 -0.338,-0.139 0,0"
             style="fill:#0f1e57;fill-opacity:1;fill-rule:nonzero;stroke:none"
             id="path604" />
        </g>
        <g
           id="g606"
           transform="translate(253.6758,297.499)">
          <path
             d="m 0,0 c -0.034,-0.965 -1.049,-1.713 -2.268,-1.671 -1.218,0.043 -2.179,0.859 -2.146,1.823 0.034,0.966 1.049,1.714 2.268,1.671 C -0.928,1.781 0.033,0.965 0,0"
             style="fill:#f46969;fill-opacity:1;fill-rule:nonzero;stroke:none"
             id="path608" />
        </g>
        <g
           id="g610"
           transform="translate(264.2754,297.3994)">
          <path
             d="m 0,0 c -0.033,-0.965 -0.843,-1.72 -1.808,-1.687 -0.964,0.034 -1.719,0.843 -1.686,1.808 0.033,0.964 0.843,1.72 1.807,1.687 C -0.722,1.774 0.034,0.965 0,0"
             style="fill:#f46969;fill-opacity:1;fill-rule:nonzero;stroke:none"
             id="path612" />
        </g>
        <g
           id="g614"
           transform="translate(259.1934,293.2222)">
          <path
             d="m 0,0 c 0,0 -1.866,0.638 -4.379,0.152 0,0 2.107,-2.468 4.379,-0.152"
             style="fill:#f46969;fill-opacity:1;fill-rule:nonzero;stroke:none"
             id="path616" />
        </g>
        <g
           id="g618"
           transform="translate(270.5332,313.9136)">
          <path
             d="m 0,0 c -0.484,1.931 -1.825,3.535 -3.474,4.156 -2.686,1.013 -5.763,-0.507 -8.415,0.617 -1.61,0.682 -2.854,2.265 -4.494,2.845 -2.07,0.733 -4.326,-0.289 -6.14,-1.696 -0.821,-0.636 -1.607,-1.406 -2.281,-2.274 -0.561,-0.722 -1.345,-1.19 -2.216,-1.278 -3.217,-0.328 -3.805,-5.171 -3.621,-7.644 0.191,-2.569 1.053,-5.025 2.467,-7.001 0.827,-1.157 2.136,-2.27 3.323,-1.637 0.948,0.506 1.053,1.911 1.308,3.086 0.291,1.339 0.489,2.567 0.912,3.673 0.876,2.29 2.771,1.133 4.866,0.597 2.871,-0.736 5.351,-1.423 8.293,-1.754 3.812,-0.43 6.618,-0.08 8.476,2.595 C 0.101,-4.136 0.485,-1.931 0,0"
             style="fill:#0f1e57;fill-opacity:1;fill-rule:nonzero;stroke:none"
             id="path620" />
        </g>
        <g
           id="g622"
           transform="translate(318.9844,285.3618)">
          <path
             d="M 0,0 V 0 C -2.307,-0.06 -4.225,1.761 -4.285,4.067 L -4.964,30.124 3.389,30.342 4.067,4.285 C 4.128,1.979 2.307,0.06 0,0"
             style="fill:#ffffff;fill-opacity:1;fill-rule:nonzero;stroke:none"
             id="path624" />
        </g>
        <g
           id="g626"
           transform="translate(314.251,315.2666)">
          <path
             d="m 0,0 0.674,-25.832 c 0.056,-2.178 1.875,-3.904 4.054,-3.847 2.178,0.056 3.905,1.875 3.848,4.054 L 7.902,0.206 Z m 4.739,-30.13 c -2.426,-0.063 -4.453,1.859 -4.515,4.287 L -0.462,0.439 8.342,0.668 9.026,-25.613 C 9.09,-28.041 7.167,-30.067 4.739,-30.13"
             style="fill:#1133a2;fill-opacity:1;fill-rule:nonzero;stroke:none"
             id="path628" />
        </g>
        <g
           id="g630"
           transform="translate(322.2197,314.6094)">
          <path
             d="m 0,0 -7.898,-0.206 c -0.552,-0.014 -1.011,0.421 -1.026,0.973 -0.014,0.551 0.422,1.01 0.973,1.025 l 7.899,0.206 C 0.499,2.012 0.958,1.576 0.973,1.025 0.987,0.473 0.552,0.015 0,0"
             style="fill:#1133a2;fill-opacity:1;fill-rule:nonzero;stroke:none"
             id="path632" />
        </g>
      </g>
    </g>
    <g
       id="g634">
      <g
         id="g636"
         clip-path="url(#clipPath640)">
        <g
           id="g642"
           transform="translate(322.2207,299.4526)">
          <path
             d="M 0,0 -7.206,-0.055 -7.209,0.06 -0.006,0.248 Z"
             style="fill:#aeb1f8;fill-opacity:1;fill-rule:nonzero;stroke:none"
             id="path644" />
        </g>
        <g
           id="g646"
           transform="translate(322.2285,299.1802)">
          <path
             d="m 0,0 -7.206,-0.055 -0.008,0.272 7.206,0.055 z"
             style="fill:#adb0f8;fill-opacity:1;fill-rule:nonzero;stroke:none"
             id="path648" />
        </g>
        <g
           id="g650"
           transform="translate(322.2354,298.9077)">
          <path
             d="m 0,0 -7.206,-0.055 -0.007,0.272 7.206,0.055 z"
             style="fill:#adaff7;fill-opacity:1;fill-rule:nonzero;stroke:none"
             id="path652" />
        </g>
        <g
           id="g654"
           transform="translate(322.2422,298.6357)">
          <path
             d="m 0,0 -7.206,-0.056 -0.007,0.273 7.206,0.055 z"
             style="fill:#acaef7;fill-opacity:1;fill-rule:nonzero;stroke:none"
             id="path656" />
        </g>
        <g
           id="g658"
           transform="translate(322.249,298.3633)">
          <path
             d="m 0,0 -7.206,-0.055 -0.007,0.272 7.206,0.055 z"
             style="fill:#abadf6;fill-opacity:1;fill-rule:nonzero;stroke:none"
             id="path660" />
        </g>
        <g
           id="g662"
           transform="translate(322.2568,298.0908)">
          <path
             d="m 0,0 -7.206,-0.055 -0.008,0.272 7.206,0.055 z"
             style="fill:#aaacf6;fill-opacity:1;fill-rule:nonzero;stroke:none"
             id="path664" />
        </g>
        <g
           id="g666"
           transform="translate(322.2637,297.8184)">
          <path
             d="m 0,0 -7.206,-0.055 -0.007,0.272 7.206,0.055 z"
             style="fill:#a9abf5;fill-opacity:1;fill-rule:nonzero;stroke:none"
             id="path668" />
        </g>
        <g
           id="g670"
           transform="translate(322.2705,297.5459)">
          <path
             d="m 0,0 -7.206,-0.055 -0.007,0.272 7.206,0.055 z"
             style="fill:#a8aaf4;fill-opacity:1;fill-rule:nonzero;stroke:none"
             id="path672" />
        </g>
        <g
           id="g674"
           transform="translate(322.2783,297.2734)">
          <path
             d="m 0,0 -7.206,-0.055 -0.008,0.272 7.206,0.055 z"
             style="fill:#a7a9f4;fill-opacity:1;fill-rule:nonzero;stroke:none"
             id="path676" />
        </g>
        <g
           id="g678"
           transform="translate(322.2852,297.001)">
          <path
             d="m 0,0 -7.206,-0.055 -0.007,0.272 7.206,0.055 z"
             style="fill:#a6a8f3;fill-opacity:1;fill-rule:nonzero;stroke:none"
             id="path680" />
        </g>
        <g
           id="g682"
           transform="translate(322.292,296.729)">
          <path
             d="m 0,0 -7.206,-0.056 -0.007,0.273 7.206,0.055 z"
             style="fill:#a5a7f3;fill-opacity:1;fill-rule:nonzero;stroke:none"
             id="path684" />
        </g>
        <g
           id="g686"
           transform="translate(322.2988,296.4565)">
          <path
             d="m 0,0 -7.206,-0.056 -0.007,0.273 7.206,0.055 z"
             style="fill:#a4a6f2;fill-opacity:1;fill-rule:nonzero;stroke:none"
             id="path688" />
        </g>
        <g
           id="g690"
           transform="translate(322.3066,296.1841)">
          <path
             d="m 0,0 -7.206,-0.055 -0.008,0.272 7.206,0.055 z"
             style="fill:#a4a5f2;fill-opacity:1;fill-rule:nonzero;stroke:none"
             id="path692" />
        </g>
        <g
           id="g694"
           transform="translate(322.3135,295.9116)">
          <path
             d="m 0,0 -7.206,-0.055 -0.007,0.272 7.206,0.055 z"
             style="fill:#a3a4f1;fill-opacity:1;fill-rule:nonzero;stroke:none"
             id="path696" />
        </g>
        <g
           id="g698"
           transform="translate(322.3203,295.6392)">
          <path
             d="m 0,0 -7.206,-0.055 -0.007,0.272 7.206,0.055 z"
             style="fill:#a2a3f0;fill-opacity:1;fill-rule:nonzero;stroke:none"
             id="path700" />
        </g>
        <g
           id="g702"
           transform="translate(322.3271,295.3667)">
          <path
             d="m 0,0 -7.205,-0.055 -0.008,0.272 7.206,0.055 z"
             style="fill:#a1a2f0;fill-opacity:1;fill-rule:nonzero;stroke:none"
             id="path704" />
        </g>
        <g
           id="g706"
           transform="translate(322.335,295.0942)">
          <path
             d="m 0,0 -7.206,-0.055 -0.007,0.272 7.205,0.055 z"
             style="fill:#a0a1ef;fill-opacity:1;fill-rule:nonzero;stroke:none"
             id="path708" />
        </g>
        <g
           id="g710"
           transform="translate(322.3418,294.8218)">
          <path
             d="m 0,0 -7.206,-0.055 -0.007,0.272 7.206,0.055 z"
             style="fill:#9fa0ef;fill-opacity:1;fill-rule:nonzero;stroke:none"
             id="path712" />
        </g>
        <g
           id="g714"
           transform="translate(322.3486,294.5498)">
          <path
             d="m 0,0 -7.206,-0.056 -0.007,0.273 7.206,0.055 z"
             style="fill:#9e9fee;fill-opacity:1;fill-rule:nonzero;stroke:none"
             id="path716" />
        </g>
        <g
           id="g718"
           transform="translate(322.3564,294.2773)">
          <path
             d="m 0,0 -7.206,-0.055 -0.008,0.272 7.206,0.055 z"
             style="fill:#9d9eee;fill-opacity:1;fill-rule:nonzero;stroke:none"
             id="path720" />
        </g>
        <g
           id="g722"
           transform="translate(322.3633,294.0049)">
          <path
             d="m 0,0 -7.206,-0.055 -0.007,0.272 7.206,0.055 z"
             style="fill:#9c9ded;fill-opacity:1;fill-rule:nonzero;stroke:none"
             id="path724" />
        </g>
        <g
           id="g726"
           transform="translate(322.3701,293.7324)">
          <path
             d="m 0,0 -7.206,-0.055 -0.007,0.272 7.206,0.055 z"
             style="fill:#9c9ced;fill-opacity:1;fill-rule:nonzero;stroke:none"
             id="path728" />
        </g>
        <g
           id="g730"
           transform="translate(322.377,293.46)">
          <path
             d="m 0,0 -7.206,-0.055 -0.007,0.272 7.206,0.055 z"
             style="fill:#9b9bec;fill-opacity:1;fill-rule:nonzero;stroke:none"
             id="path732" />
        </g>
        <g
           id="g734"
           transform="translate(322.3848,293.1875)">
          <path
             d="m 0,0 -7.206,-0.055 -0.008,0.272 7.206,0.055 z"
             style="fill:#9a9aeb;fill-opacity:1;fill-rule:nonzero;stroke:none"
             id="path736" />
        </g>
        <g
           id="g738"
           transform="translate(322.3916,292.915)">
          <path
             d="m 0,0 -7.206,-0.055 -0.007,0.272 7.206,0.055 z"
             style="fill:#9999eb;fill-opacity:1;fill-rule:nonzero;stroke:none"
             id="path740" />
        </g>
        <g
           id="g742"
           transform="translate(322.3984,292.6426)">
          <path
             d="m 0,0 -7.206,-0.055 -0.007,0.272 7.206,0.055 z"
             style="fill:#9898ea;fill-opacity:1;fill-rule:nonzero;stroke:none"
             id="path744" />
        </g>
        <g
           id="g746"
           transform="translate(322.4062,292.3706)">
          <path
             d="m 0,0 -7.207,-0.055 -0.007,0.272 7.206,0.055 z"
             style="fill:#9797ea;fill-opacity:1;fill-rule:nonzero;stroke:none"
             id="path748" />
        </g>
        <g
           id="g750"
           transform="translate(322.4131,292.0981)">
          <path
             d="m 0,0 -7.206,-0.055 -0.008,0.272 7.207,0.055 z"
             style="fill:#9696e9;fill-opacity:1;fill-rule:nonzero;stroke:none"
             id="path752" />
        </g>
        <g
           id="g754"
           transform="translate(322.4199,291.8257)">
          <path
             d="m 0,0 -7.206,-0.055 -0.007,0.272 7.206,0.055 z"
             style="fill:#9595e9;fill-opacity:1;fill-rule:nonzero;stroke:none"
             id="path756" />
        </g>
        <g
           id="g758"
           transform="translate(322.4268,291.5532)">
          <path
             d="m 0,0 -7.206,-0.055 -0.007,0.272 7.206,0.055 z"
             style="fill:#9494e8;fill-opacity:1;fill-rule:nonzero;stroke:none"
             id="path760" />
        </g>
        <g
           id="g762"
           transform="translate(322.4346,291.2808)">
          <path
             d="m 0,0 -7.206,-0.055 -0.008,0.272 7.206,0.055 z"
             style="fill:#9493e8;fill-opacity:1;fill-rule:nonzero;stroke:none"
             id="path764" />
        </g>
        <g
           id="g766"
           transform="translate(322.4414,291.0083)">
          <path
             d="m 0,0 -7.206,-0.055 -0.007,0.272 7.206,0.055 z"
             style="fill:#9392e7;fill-opacity:1;fill-rule:nonzero;stroke:none"
             id="path768" />
        </g>
        <g
           id="g770"
           transform="translate(322.4482,290.7358)">
          <path
             d="m 0,0 -7.206,-0.055 -0.007,0.272 7.206,0.055 z"
             style="fill:#9291e6;fill-opacity:1;fill-rule:nonzero;stroke:none"
             id="path772" />
        </g>
        <g
           id="g774"
           transform="translate(322.4551,290.4634)">
          <path
             d="m 0,0 -7.206,-0.055 -0.007,0.272 7.206,0.055 z"
             style="fill:#9190e6;fill-opacity:1;fill-rule:nonzero;stroke:none"
             id="path776" />
        </g>
        <g
           id="g778"
           transform="translate(322.4629,290.1914)">
          <path
             d="m 0,0 -7.206,-0.055 -0.008,0.272 7.206,0.055 z"
             style="fill:#908fe5;fill-opacity:1;fill-rule:nonzero;stroke:none"
             id="path780" />
        </g>
        <g
           id="g782"
           transform="translate(322.4697,289.9189)">
          <path
             d="m 0,0 -7.206,-0.055 -0.007,0.272 7.206,0.055 z"
             style="fill:#8f8ee5;fill-opacity:1;fill-rule:nonzero;stroke:none"
             id="path784" />
        </g>
        <g
           id="g786"
           transform="translate(322.4766,289.6465)">
          <path
             d="m 0,0 -7.206,-0.055 -0.007,0.272 7.206,0.055 z"
             style="fill:#8e8de4;fill-opacity:1;fill-rule:nonzero;stroke:none"
             id="path788" />
        </g>
        <g
           id="g790"
           transform="translate(322.4844,289.374)">
          <path
             d="m 0,0 -7.207,-0.055 -0.007,0.272 7.206,0.055 z"
             style="fill:#8d8ce4;fill-opacity:1;fill-rule:nonzero;stroke:none"
             id="path792" />
        </g>
        <g
           id="g794"
           transform="translate(322.4912,289.1016)">
          <path
             d="m 0,0 -7.206,-0.055 -0.008,0.272 7.207,0.055 z"
             style="fill:#8c8be3;fill-opacity:1;fill-rule:nonzero;stroke:none"
             id="path796" />
        </g>
        <g
           id="g798"
           transform="translate(322.498,288.8291)">
          <path
             d="m 0,0 -7.206,-0.055 -0.007,0.272 7.206,0.055 z"
             style="fill:#8c8ae3;fill-opacity:1;fill-rule:nonzero;stroke:none"
             id="path800" />
        </g>
        <g
           id="g802"
           transform="translate(322.5049,288.5571)">
          <path
             d="m 0,0 -7.206,-0.056 -0.007,0.273 7.206,0.055 z"
             style="fill:#8b89e2;fill-opacity:1;fill-rule:nonzero;stroke:none"
             id="path804" />
        </g>
        <g
           id="g806"
           transform="translate(322.5127,288.2847)">
          <path
             d="m 0,0 -7.206,-0.056 -0.008,0.273 7.206,0.055 z"
             style="fill:#8a88e1;fill-opacity:1;fill-rule:nonzero;stroke:none"
             id="path808" />
        </g>
        <g
           id="g810"
           transform="translate(322.5195,288.0122)">
          <path
             d="m 0,0 -7.206,-0.055 -0.007,0.272 7.206,0.055 z"
             style="fill:#8987e1;fill-opacity:1;fill-rule:nonzero;stroke:none"
             id="path812" />
        </g>
        <g
           id="g814"
           transform="translate(322.5264,287.7397)">
          <path
             d="m 0,0 -7.206,-0.055 -0.007,0.272 7.206,0.055 z"
             style="fill:#8886e0;fill-opacity:1;fill-rule:nonzero;stroke:none"
             id="path816" />
        </g>
        <g
           id="g818"
           transform="translate(322.5332,287.4673)">
          <path
             d="m 0,0 -7.206,-0.055 -0.007,0.272 7.206,0.055 z"
             style="fill:#8784e0;fill-opacity:1;fill-rule:nonzero;stroke:none"
             id="path820" />
        </g>
        <g
           id="g822"
           transform="translate(322.541,287.1948)">
          <path
             d="m 0,0 -7.206,-0.055 -0.008,0.272 7.206,0.055 z"
             style="fill:#8683df;fill-opacity:1;fill-rule:nonzero;stroke:none"
             id="path824" />
        </g>
        <g
           id="g826"
           transform="translate(322.5479,286.9224)">
          <path
             d="m 0,0 -7.206,-0.055 -0.007,0.272 7.206,0.055 z"
             style="fill:#8582df;fill-opacity:1;fill-rule:nonzero;stroke:none"
             id="path828" />
        </g>
        <g
           id="g830"
           transform="translate(322.5547,286.6499)">
          <path
             d="m 0,0 -7.206,-0.055 -0.007,0.272 7.206,0.055 z"
             style="fill:#8481de;fill-opacity:1;fill-rule:nonzero;stroke:none"
             id="path832" />
        </g>
        <g
           id="g834"
           transform="translate(322.5615,286.3779)">
          <path
             d="m 0,0 -7.206,-0.056 -0.007,0.273 7.206,0.055 z"
             style="fill:#8380dd;fill-opacity:1;fill-rule:nonzero;stroke:none"
             id="path836" />
        </g>
        <g
           id="g838"
           transform="translate(315.5508,286.0513)">
          <path
             d="M 0,0 -0.187,-0.001 -0.195,0.271 7.011,0.327 7.015,0.183 Z"
             style="fill:#837fdd;fill-opacity:1;fill-rule:nonzero;stroke:none"
             id="path840" />
        </g>
        <g
           id="g842"
           transform="translate(315.3633,286.0498)">
          <path
             d="M 0,0 0.187,0.001 0,-0.003 Z"
             style="fill:#827edc;fill-opacity:1;fill-rule:nonzero;stroke:none"
             id="path844" />
        </g>
      </g>
    </g>
    <g
       id="g846">
      <g
         id="g848"
         clip-path="url(#clipPath852)">
        <g
           id="g854"
           transform="translate(332.5537,285.7158)">
          <path
             d="M 0,0 V 0 C -2.307,-0.06 -4.225,1.761 -4.285,4.067 L -4.964,30.124 3.389,30.342 4.067,4.285 C 4.128,1.979 2.307,0.06 0,0"
             style="fill:#ffffff;fill-opacity:1;fill-rule:nonzero;stroke:none"
             id="path856" />
        </g>
        <g
           id="g858"
           transform="translate(327.8203,315.6201)">
          <path
             d="m 0,0 0.674,-25.831 c 0.056,-2.179 1.875,-3.905 4.055,-3.848 2.177,0.056 3.904,1.875 3.847,4.054 L 7.902,0.206 Z m 4.74,-30.13 c -2.427,-0.063 -4.454,1.86 -4.517,4.287 L -0.462,0.439 8.341,0.668 9.026,-25.613 C 9.09,-28.041 7.167,-30.066 4.74,-30.13"
             style="fill:#1133a2;fill-opacity:1;fill-rule:nonzero;stroke:none"
             id="path860" />
        </g>
        <g
           id="g862"
           transform="translate(335.7891,314.9634)">
          <path
             d="m 0,0 -7.899,-0.206 c -0.551,-0.015 -1.01,0.421 -1.025,0.973 -0.014,0.551 0.421,1.01 0.973,1.025 l 7.898,0.205 C 0.499,2.012 0.958,1.576 0.973,1.024 0.986,0.473 0.552,0.014 0,0"
             style="fill:#1133a2;fill-opacity:1;fill-rule:nonzero;stroke:none"
             id="path864" />
        </g>
      </g>
    </g>
    <g
       id="g866">
      <g
         id="g868"
         clip-path="url(#clipPath872)">
        <g
           id="g874"
           transform="translate(335.8203,298.6455)">
          <path
             d="m 0,0 -0.311,1.402 0.275,0.007 z"
             style="fill:#b0b3f9;fill-opacity:1;fill-rule:nonzero;stroke:none"
             id="path876" />
        </g>
        <g
           id="g878"
           transform="translate(335.9375,294.1689)">
          <path
             d="m 0,0 -1.301,5.855 0.873,0.023 0.311,-1.401 z"
             style="fill:#afb2f9;fill-opacity:1;fill-rule:nonzero;stroke:none"
             id="path880" />
        </g>
        <g
           id="g882"
           transform="translate(336.0537,289.6919)">
          <path
             d="m 0,0 -2.289,10.31 0.872,0.023 1.301,-5.856 z"
             style="fill:#aeb1f8;fill-opacity:1;fill-rule:nonzero;stroke:none"
             id="path884" />
        </g>
        <g
           id="g886"
           transform="translate(335.8672,286.5811)">
          <path
             d="m 0,0 -2.975,13.398 0.872,0.023 2.29,-10.31 0.081,-3.104 z"
             style="fill:#adb0f8;fill-opacity:1;fill-rule:nonzero;stroke:none"
             id="path888" />
        </g>
        <g
           id="g890"
           transform="translate(334.9951,286.5586)">
          <path
             d="M 0,0 -2.975,13.398 -2.103,13.42 0.872,0.022 Z"
             style="fill:#adaff7;fill-opacity:1;fill-rule:nonzero;stroke:none"
             id="path892" />
        </g>
        <g
           id="g894"
           transform="translate(334.123,286.5356)">
          <path
             d="M 0,0 -2.975,13.398 -2.103,13.421 0.872,0.023 Z"
             style="fill:#acaef7;fill-opacity:1;fill-rule:nonzero;stroke:none"
             id="path896" />
        </g>
        <g
           id="g898"
           transform="translate(333.251,286.5132)">
          <path
             d="M 0,0 -2.975,13.398 -2.103,13.42 0.872,0.022 Z"
             style="fill:#abadf6;fill-opacity:1;fill-rule:nonzero;stroke:none"
             id="path900" />
        </g>
        <g
           id="g902"
           transform="translate(332.3789,286.4902)">
          <path
             d="M 0,0 -2.975,13.398 -2.103,13.421 0.872,0.023 Z"
             style="fill:#aaacf6;fill-opacity:1;fill-rule:nonzero;stroke:none"
             id="path904" />
        </g>
        <g
           id="g906"
           transform="translate(331.5068,286.4673)">
          <path
             d="m 0,0 -2.919,13.146 -0.007,0.253 0.823,0.022 2.975,-13.398 z"
             style="fill:#a9abf5;fill-opacity:1;fill-rule:nonzero;stroke:none"
             id="path908" />
        </g>
        <g
           id="g910"
           transform="translate(330.6348,286.4448)">
          <path
             d="M 0,0 -1.93,8.691 -2.047,13.168 0.872,0.022 Z"
             style="fill:#a8aaf4;fill-opacity:1;fill-rule:nonzero;stroke:none"
             id="path912" />
        </g>
        <g
           id="g914"
           transform="translate(329.7617,286.4219)">
          <path
             d="M 0,0 -0.94,4.237 -1.057,8.714 0.873,0.023 Z"
             style="fill:#a7a9f4;fill-opacity:1;fill-rule:nonzero;stroke:none"
             id="path916" />
        </g>
        <g
           id="g918"
           transform="translate(328.8213,290.6592)">
          <path
             d="M 0,0 0.94,-4.237 0.111,-4.259 Z"
             style="fill:#a6a8f3;fill-opacity:1;fill-rule:nonzero;stroke:none"
             id="path920" />
        </g>
      </g>
    </g>
    <g
       id="g922">
      <g
         id="g924"
         clip-path="url(#clipPath928)">
        <g
           id="g930"
           transform="translate(346.3916,286.0767)">
          <path
             d="M 0,0 V 0 C -2.307,-0.06 -4.226,1.761 -4.285,4.067 L -4.965,30.124 3.388,30.342 4.067,4.285 C 4.128,1.979 2.307,0.06 0,0"
             style="fill:#ffffff;fill-opacity:1;fill-rule:nonzero;stroke:none"
             id="path932" />
        </g>
        <g
           id="g934"
           transform="translate(341.6582,315.981)">
          <path
             d="m 0,0 0.673,-25.831 c 0.057,-2.179 1.876,-3.905 4.055,-3.848 2.178,0.056 3.904,1.875 3.847,4.054 L 7.902,0.206 Z m 4.739,-30.13 c -2.426,-0.063 -4.453,1.86 -4.516,4.287 L -0.463,0.439 8.341,0.668 9.026,-25.613 c 0.063,-2.428 -1.859,-4.453 -4.287,-4.517"
             style="fill:#1133a2;fill-opacity:1;fill-rule:nonzero;stroke:none"
             id="path936" />
        </g>
        <g
           id="g938"
           transform="translate(349.627,315.3242)">
          <path
             d="m 0,0 -7.899,-0.206 c -0.552,-0.015 -1.01,0.421 -1.025,0.973 -0.014,0.551 0.421,1.01 0.973,1.025 l 7.898,0.205 C 0.499,2.012 0.958,1.576 0.972,1.024 0.986,0.473 0.551,0.014 0,0"
             style="fill:#1133a2;fill-opacity:1;fill-rule:nonzero;stroke:none"
             id="path940" />
        </g>
        <g
           id="g942"
           transform="translate(342.4189,300.2275)">
          <path
             d="m 0,0 0.255,-9.79 c 0.054,-2.03 1.709,-3.634 3.697,-3.583 1.989,0.053 3.559,1.74 3.506,3.77 L 7.202,0.188 Z"
             style="fill:#f69a2b;fill-opacity:1;fill-rule:nonzero;stroke:none"
             id="path944" />
        </g>
        <g
           id="g946"
           transform="translate(357.0771,280.8804)">
          <path
             d="m 0,0 -52.601,-1.372 c -1.049,-0.027 -1.923,0.803 -1.951,1.853 -0.027,1.051 0.802,1.925 1.853,1.953 L -0.1,3.805 C 0.951,3.833 1.825,3.003 1.853,1.952 1.88,0.901 1.051,0.027 0,0"
             style="fill:#1133a2;fill-opacity:1;fill-rule:nonzero;stroke:none"
             id="path948" />
        </g>
        <g
           id="g950"
           transform="translate(356.9697,310.7485)">
          <path
             d="m 0,0 -53.941,-1.406 c -0.681,-0.018 -1.247,0.519 -1.265,1.199 -0.018,0.681 0.519,1.247 1.2,1.265 L -0.064,2.464 C 0.616,2.481 1.182,1.944 1.199,1.264 1.217,0.584 0.68,0.018 0,0"
             style="fill:#1133a2;fill-opacity:1;fill-rule:nonzero;stroke:none"
             id="path952" />
        </g>
        <g
           id="g954"
           transform="translate(308.2539,311.9438)">
          <path
             d="m 0,0 -1.657,-0.043 0.743,-28.51 1.658,0.043 z"
             style="fill:#1133a2;fill-opacity:1;fill-rule:nonzero;stroke:none"
             id="path956" />
        </g>
        <g
           id="g958"
           transform="translate(353.6768,313.1284)">
          <path
             d="m 0,0 -1.657,-0.043 0.743,-28.51 1.658,0.043 z"
             style="fill:#1133a2;fill-opacity:1;fill-rule:nonzero;stroke:none"
             id="path960" />
        </g>
        <g
           id="g962"
           transform="translate(208.668,190.833)">
          <path
             d="m 0,0 0.507,-3.647 c 0.114,-0.821 0.774,-1.451 1.598,-1.534 1.615,-0.164 4.309,-0.166 6.449,1.178 0.65,0.408 0.969,1.187 0.793,1.934 L 8.462,1.676 C 8.239,2.616 7.31,3.21 6.363,3.015 L 1.41,1.996 C 0.487,1.807 -0.13,0.933 0,0"
             style="fill:#1d3078;fill-opacity:1;fill-rule:nonzero;stroke:none"
             id="path964" />
        </g>
        <g
           id="g966"
           transform="translate(200.8911,203.5381)">
          <path
             d="m 0,0 1.538,-11.064 c 0.108,-0.78 0.708,-1.395 1.484,-1.519 3.127,-0.5 11.184,-1.23 16.681,3.244 0.537,0.438 0.784,1.143 0.624,1.817 l -2.623,11.1 c -0.223,0.941 -1.153,1.533 -2.1,1.339 L 1.41,1.996 C 0.487,1.807 -0.13,0.934 0,0"
             style="fill:#091847;fill-opacity:1;fill-rule:nonzero;stroke:none"
             id="path968" />
        </g>
        <g
           id="g970"
           transform="translate(195.02,216.9189)">
          <path
             d="m 0,0 2.185,-15.715 c 0.107,-0.767 0.691,-1.381 1.455,-1.513 3.837,-0.667 15.45,-1.993 23.057,4.568 0.49,0.423 0.681,1.098 0.532,1.728 L 23.517,4.774 C 23.294,5.715 22.365,6.308 21.418,6.113 L 1.41,1.996 C 0.487,1.807 -0.13,0.934 0,0"
             style="fill:#1d3078;fill-opacity:1;fill-rule:nonzero;stroke:none"
             id="path972" />
        </g>
        <g
           id="g974"
           transform="translate(188.4346,225.9863)">
          <path
             d="m 0,0 c 0,0 -32.299,2.668 -30.165,-43.284 2.135,-45.952 42.939,-30.635 42.939,-30.635 l -32.643,-34.715 c 0,0 -32.267,18.896 -29.631,63.843 2.637,44.948 30.761,62.148 43.692,62.022 C 7.125,17.106 0,0 0,0"
             style="fill:#1d3078;fill-opacity:1;fill-rule:nonzero;stroke:none"
             id="path976" />
        </g>
        <g
           id="g978"
           transform="translate(201.209,152.0674)">
          <path
             d="m 0,0 -28.655,-30.473 c 0.504,3.918 0.163,8.004 -0.703,11.73 -1.81,7.783 -7.895,13.562 -11.169,20.693 -3.832,8.345 -5.867,17.807 -5.177,26.992 0.494,6.565 2.249,12.984 3.931,19.369 -1.02,-4.902 -1.489,-10.73 -1.166,-17.676 C -40.805,-15.317 0,0 0,0"
             style="fill:#091847;fill-opacity:1;fill-rule:nonzero;stroke:none"
             id="path980" />
        </g>
        <g
           id="g982"
           transform="translate(182.9702,274.6343)">
          <path
             d="m 0,0 27.564,4.958 c 1.143,0.207 2.241,-0.541 2.469,-1.68 l 10.722,-53.454 c 0.231,-1.152 -0.511,-2.273 -1.662,-2.509 L 8.416,-58.998 c -1.208,-0.248 -2.374,0.576 -2.543,1.797 L -1.735,-2.393 C -1.893,-1.259 -1.127,-0.203 0,0"
             style="fill:#1d3078;fill-opacity:1;fill-rule:nonzero;stroke:none"
             id="path984" />
        </g>
        <g
           id="g986"
           transform="translate(223.627,224.9492)">
          <path
             d="m 0,0 c -9.811,0.378 -19.607,0.938 -26.842,8.437 -4.854,5.032 -8.161,11.364 -9.963,18.082 -1.921,7.162 -2.262,14.836 -5.17,21.719 -0.057,0.136 -0.103,0.269 -0.147,0.404 -0.228,-0.397 -0.337,-0.864 -0.27,-1.35 l 7.608,-54.808 c 0.169,-1.221 1.335,-2.045 2.543,-1.797 L -1.563,-3 c 1.15,0.236 1.893,1.357 1.662,2.509 z"
             style="fill:#091847;fill-opacity:1;fill-rule:nonzero;stroke:none"
             id="path988" />
        </g>
        <g
           id="g990"
           transform="translate(198.1953,250.3521)">
          <path
             d="m 0,0 c 0,-7.689 -6.233,-13.922 -13.922,-13.922 -7.689,0 -13.922,6.233 -13.922,13.922 0,7.689 6.233,13.922 13.922,13.922 C -6.233,13.922 0,7.689 0,0"
             style="fill:#5067b2;fill-opacity:1;fill-rule:nonzero;stroke:none"
             id="path992" />
        </g>
        <g
           id="g994"
           transform="translate(192.0854,250.3521)">
          <path
             d="m 0,0 c 0,-4.314 -3.498,-7.812 -7.812,-7.812 -4.315,0 -7.812,3.498 -7.812,7.812 0,4.314 3.497,7.812 7.812,7.812 C -3.498,7.812 0,4.314 0,0"
             style="fill:#1d3078;fill-opacity:1;fill-rule:nonzero;stroke:none"
             id="path996" />
        </g>
        <g
           id="g998"
           transform="translate(185.2856,275.0508)">
          <path
             d="M 0,0 -7.848,35.296 16.509,39.648 21.743,3.912 Z"
             style="fill:#091847;fill-opacity:1;fill-rule:nonzero;stroke:none"
             id="path1000" />
        </g>
        <g
           id="g1002"
           transform="translate(174.8271,310.3262)">
          <path
             d="M 0,0 -0.763,2.813 C -0.93,3.43 -0.539,4.059 0.088,4.181 l 26.445,5.15 c 0.636,0.124 1.242,-0.327 1.304,-0.973 L 28.126,5.37 C 28.181,4.805 27.797,4.292 27.239,4.185 L 1.268,-0.792 C 0.703,-0.9 0.15,-0.555 0,0"
             style="fill:#5067b2;fill-opacity:1;fill-rule:nonzero;stroke:none"
             id="path1004" />
        </g>
        <g
           id="g1006"
           transform="translate(179.9834,288.0527)">
          <path
             d="M 0,0 -0.763,2.813 C -0.93,3.43 -0.539,4.059 0.088,4.181 l 26.445,5.15 C 27.17,9.455 27.775,9.004 27.837,8.358 L 28.126,5.371 C 28.181,4.805 27.797,4.292 27.239,4.185 L 1.268,-0.792 C 0.704,-0.9 0.15,-0.555 0,0"
             style="fill:#5067b2;fill-opacity:1;fill-rule:nonzero;stroke:none"
             id="path1008" />
        </g>
        <g
           id="g1010"
           transform="translate(265.3389,155.6455)">
          <path
             d="M 0,0 C -1.086,9.859 -19.909,17.708 -42.975,17.708 -66.04,17.708 -84.863,9.859 -85.949,0 h -0.002 v -0.043 c -0.03,-0.284 -0.05,-0.569 -0.05,-0.856 0,-0.296 0.017,-0.589 0.05,-0.881 v -5.348 c -0.033,-0.292 -0.05,-0.586 -0.05,-0.881 0,-0.287 0.02,-0.572 0.05,-0.856 v -0.509 h 0.077 c 1.619,-9.639 20.2,-17.243 42.899,-17.243 22.7,0 41.281,7.604 42.9,17.243 h 0.128 l 0,9.374 z"
             style="fill:#091847;fill-opacity:1;fill-rule:nonzero;stroke:none"
             id="path1012" />
        </g>
        <g
           id="g1014"
           transform="translate(259.0879,155.6455)">
          <path
             d="m 0,0 c 0,-8.771 -16.441,-15.882 -36.724,-15.882 -20.282,0 -36.724,7.111 -36.724,15.882 0,8.771 16.442,15.883 36.724,15.883 C -16.441,15.883 0,8.771 0,0"
             style="fill:#adc3ef;fill-opacity:1;fill-rule:nonzero;stroke:none"
             id="path1016" />
        </g>
        <g
           id="g1018"
           transform="translate(159.9268,96.6602)">
          <path
             d="m 0,0 10.452,36.985 c 0.561,1.986 2.373,3.356 4.436,3.356 h 12.863 c 2.062,0 3.874,-1.37 4.435,-3.356 L 42.639,0 C 43.47,-2.941 41.26,-5.862 38.203,-5.862 H 4.436 C 1.378,-5.862 -0.832,-2.941 0,0"
             style="fill:#1d3078;fill-opacity:1;fill-rule:nonzero;stroke:none"
             id="path1020" />
        </g>
        <g
           id="g1022"
           transform="translate(202.5654,96.6602)">
          <path
             d="m 0,0 -10.453,36.985 c -0.175,0.623 -0.486,1.176 -0.878,1.656 0.034,-0.304 0.042,-0.625 0.015,-0.968 -0.345,-4.318 -0.573,-8.534 -0.067,-12.849 0.446,-3.813 1.103,-7.613 0.8,-11.466 -0.383,-4.892 -2.52,-8.86 -6.626,-11.625 -7.119,-4.794 -16.66,-5.035 -25.113,-5.043 0.746,-1.487 2.276,-2.552 4.119,-2.552 H -4.436 C -1.379,-5.862 0.831,-2.941 0,0"
             style="fill:#091847;fill-opacity:1;fill-rule:nonzero;stroke:none"
             id="path1024" />
        </g>
        <g
           id="g1026"
           transform="translate(187.084,123.1904)">
          <path
             d="m 0,0 c 0,-3.225 -2.614,-5.838 -5.838,-5.838 -3.225,0 -5.838,2.613 -5.838,5.838 0,3.225 2.613,5.838 5.838,5.838 C -2.614,5.838 0,3.225 0,0"
             style="fill:#5067b2;fill-opacity:1;fill-rule:nonzero;stroke:none"
             id="path1028" />
        </g>
        <g
           id="g1030"
           transform="translate(237.9751,89.2813)">
          <path
             d="m 0,0 h -114.742 c -1.044,0 -1.89,0.846 -1.89,1.889 v 1.746 c 0,1.043 0.846,1.888 1.89,1.888 H 0 c 1.043,0 1.89,-0.845 1.89,-1.888 V 1.889 C 1.89,0.846 1.043,0 0,0"
             style="fill:#1d3078;fill-opacity:1;fill-rule:nonzero;stroke:none"
             id="path1032" />
        </g>
        <g
           id="g1034">
          <g
             id="g1036" />
          <g
             id="g1048">
            <g
               clip-path="url(#clipPath1040)"
               opacity="0.240005"
               id="g1046">
              <g
                 transform="translate(247.5747,167.1885)"
                 id="g1044">
                <path
                   d="m 0,0 -36.505,-26.657 -12.874,3.158 45.758,24.801"
                   style="fill:#ffffff;fill-opacity:1;fill-rule:nonzero;stroke:none"
                   id="path1042" />
              </g>
            </g>
          </g>
        </g>
      </g>
    </g>
  </g>
</svg>
