<svg width="666.667" height="666.667" xmlns="http://www.w3.org/2000/svg"><defs><clipPath clipPathUnits="userSpaceOnUse" id="a"><path d="M0 500h500V0H0Z"/></clipPath><clipPath clipPathUnits="userSpaceOnUse" id="b"><path d="M22.988 302.851h79.798v-69.106H22.988Z"/></clipPath><clipPath clipPathUnits="userSpaceOnUse" id="c"><path d="M0 500h500V0H0Z"/></clipPath><clipPath clipPathUnits="userSpaceOnUse" id="d"><path d="M434.291 336.584h40.643v-35.198h-40.643z"/></clipPath><clipPath clipPathUnits="userSpaceOnUse" id="e"><path d="M0 500h500V0H0Z"/></clipPath><clipPath clipPathUnits="userSpaceOnUse" id="f"><path d="M161.987 475.197h40.643v-35.198h-40.643Z"/></clipPath><clipPath clipPathUnits="userSpaceOnUse" id="g"><path d="M298.958 59.48h40.643V24.28h-40.643z"/></clipPath><clipPath clipPathUnits="userSpaceOnUse" id="h"><path d="M204.624 86.273h59.542V34.708h-59.542z"/></clipPath><clipPath clipPathUnits="userSpaceOnUse" id="i"><path d="M0 500h500V0H0Z"/></clipPath><clipPath clipPathUnits="userSpaceOnUse" id="j"><path d="M377.701 99.54h51.495V48.706h-51.495z"/></clipPath><clipPath clipPathUnits="userSpaceOnUse" id="k"><path d="M50.49 427.703h413.884V69.27H50.49Z"/></clipPath><clipPath clipPathUnits="userSpaceOnUse" id="l"><path d="m158.842 419.25-98.59-170.763 98.59-170.764h197.18l98.59 170.764-98.59 170.763z"/></clipPath><clipPath clipPathUnits="userSpaceOnUse" id="m"><path d="M335.288 267.933h20.141V148.975h-20.141z"/></clipPath><clipPath clipPathUnits="userSpaceOnUse" id="n"><path d="M335.288 267.933h6.192V149.91h-6.192z"/></clipPath><clipPath clipPathUnits="userSpaceOnUse" id="o"><path d="M336.843 265.907h17.031v-1.272h-17.031z"/></clipPath><clipPath clipPathUnits="userSpaceOnUse" id="p"><path d="M231.209 298.925h11.381v-7.085h-11.381Z"/></clipPath><clipPath clipPathUnits="userSpaceOnUse" id="q"><path d="M51.3 390.789h197.681V75.052H51.301Z"/></clipPath><clipPath clipPathUnits="userSpaceOnUse" id="r"><path d="M0 500h500V0H0Z"/></clipPath><clipPath clipPathUnits="userSpaceOnUse" id="s"><path d="M77.093 142.947h92.603V50.344H77.093Z"/></clipPath><clipPath clipPathUnits="userSpaceOnUse" id="t"><path d="M81.37 138.67h84.049V54.621H81.37Z"/></clipPath><clipPath clipPathUnits="userSpaceOnUse" id="u"><path d="M417.012 418.703h4.777v-60.207h-4.777z"/></clipPath><clipPath clipPathUnits="userSpaceOnUse" id="v"><path d="M418.211 417.139h13.142v-.981h-13.142z"/></clipPath><clipPath clipPathUnits="userSpaceOnUse" id="w"><path d="M420.479 400.776h8.607v-25.227h-8.607z"/></clipPath><clipPath clipPathUnits="userSpaceOnUse" id="x"><path d="M398.816 417.139h13.142v-.981h-13.142z"/></clipPath><clipPath clipPathUnits="userSpaceOnUse" id="y"><path d="M401.083 400.776h8.607v-25.227h-8.607z"/></clipPath><clipPath clipPathUnits="userSpaceOnUse" id="z"><path d="M397.616 418.703h4.778v-60.207h-4.778z"/></clipPath></defs><path d="M0 0h500v500H0Z" style="fill:#fff;fill-opacity:1;fill-rule:nonzero;stroke:none" transform="matrix(1.33333 0 0 -1.33333 0 666.667)"/><g clip-path="url(#a)" transform="matrix(1.33333 0 0 -1.33333 0 666.667)"><g clip-path="url(#b)" opacity=".3"><path d="M0 0h-39.337l-19.669-34.067 19.669-34.067H0l19.668 34.067z" style="fill:none;stroke:#28965a;stroke-width:.973;stroke-linecap:butt;stroke-linejoin:miter;stroke-miterlimit:10;stroke-dasharray:none;stroke-opacity:1" transform="translate(82.556 302.365)"/></g></g><path d="M0 0h-39.337l-19.669-34.067 19.669-34.067H0l19.669 34.067z" style="fill:none;stroke:#2ceaa3;stroke-width:.973;stroke-linecap:butt;stroke-linejoin:miter;stroke-miterlimit:10;stroke-dasharray:none;stroke-opacity:1" transform="matrix(1.33333 0 0 -1.33333 431.016 38.376)"/><path d="M0 0h-39.338l-19.668-34.067 19.668-34.068H0l19.668 34.068z" style="fill:none;stroke:#2ceaa3;stroke-width:.973;stroke-linecap:butt;stroke-linejoin:miter;stroke-miterlimit:10;stroke-dasharray:none;stroke-opacity:1" transform="matrix(1.33333 0 0 -1.33333 623.445 352.155)"/><g clip-path="url(#c)" transform="matrix(1.33333 0 0 -1.33333 0 666.667)"><g clip-path="url(#d)" opacity=".3"><path d="M0 0h-19.76l-9.88-17.113 9.88-17.113H0l9.881 17.113z" style="fill:none;stroke:#28965a;stroke-width:.973;stroke-linecap:butt;stroke-linejoin:miter;stroke-miterlimit:10;stroke-dasharray:none;stroke-opacity:1" transform="translate(464.492 336.098)"/></g></g><path d="M0 0h-19.76l-9.88-17.113 9.88-17.113H0l9.88 17.113z" style="fill:none;stroke:#2ceaa3;stroke-width:.973;stroke-linecap:butt;stroke-linejoin:miter;stroke-miterlimit:10;stroke-dasharray:none;stroke-opacity:1" transform="matrix(1.33333 0 0 -1.33333 93.51 419.551)"/><g clip-path="url(#e)" transform="matrix(1.33333 0 0 -1.33333 0 666.667)"><g clip-path="url(#f)" opacity=".3"><path d="M0 0h-19.76l-9.88-17.113 9.88-17.113H0l9.88 17.113z" style="fill:none;stroke:#28965a;stroke-width:.973;stroke-linecap:butt;stroke-linejoin:miter;stroke-miterlimit:10;stroke-dasharray:none;stroke-opacity:1" transform="translate(192.189 474.711)"/></g><g clip-path="url(#g)" opacity=".5"><path d="M0 0h-19.761l-9.88-17.112 9.88-17.114H0l9.88 17.114z" style="fill:none;stroke:#2ceaa3;stroke-width:.973;stroke-linecap:butt;stroke-linejoin:miter;stroke-miterlimit:10;stroke-dasharray:none;stroke-opacity:1" transform="translate(329.16 58.993)"/></g><g clip-path="url(#h)" opacity=".3"><path d="M0 0h-29.209l-14.605-25.296 14.605-25.296H0l14.605 25.296z" style="fill:none;stroke:#28965a;stroke-width:.973;stroke-linecap:butt;stroke-linejoin:miter;stroke-miterlimit:10;stroke-dasharray:none;stroke-opacity:1" transform="translate(249 85.787)"/></g></g><path d="M0 0h-57.02l-28.509-49.38 28.509-49.381H0L28.51-49.38z" style="fill:none;stroke:#28965a;stroke-width:.885;stroke-linecap:butt;stroke-linejoin:miter;stroke-miterlimit:10;stroke-dasharray:none;stroke-opacity:1" transform="matrix(1.33333 0 0 -1.33333 149.287 98.223)"/><path d="m0 0-.5.866h-1" style="fill:none;stroke:#28965a;stroke-width:.977;stroke-linecap:butt;stroke-linejoin:miter;stroke-miterlimit:10;stroke-dasharray:none;stroke-opacity:1" transform="matrix(1.33333 0 0 -1.33333 153.912 92.523)"/><path d="M0 0h-58.006" style="fill:none;stroke:#28965a;stroke-width:.977;stroke-linecap:butt;stroke-linejoin:miter;stroke-miterlimit:10;stroke-dasharray:1.966,1.966;stroke-dashoffset:0;stroke-opacity:1" transform="matrix(1.33333 0 0 -1.33333 149.29 91.368)"/><path d="M0 0h-1l-.5-.866" style="fill:none;stroke:#28965a;stroke-width:.977;stroke-linecap:butt;stroke-linejoin:miter;stroke-miterlimit:10;stroke-dasharray:none;stroke-opacity:1" transform="matrix(1.33333 0 0 -1.33333 70.637 91.368)"/><path d="m0 0-29.003-50.235" style="fill:none;stroke:#28965a;stroke-width:.977;stroke-linecap:butt;stroke-linejoin:miter;stroke-miterlimit:10;stroke-dasharray:1.966,1.966;stroke-dashoffset:0;stroke-opacity:1" transform="matrix(1.33333 0 0 -1.33333 67.326 94.793)"/><path d="m0 0-.5-.866.5-.866" style="fill:none;stroke:#28965a;stroke-width:.977;stroke-linecap:butt;stroke-linejoin:miter;stroke-miterlimit:10;stroke-dasharray:none;stroke-opacity:1" transform="matrix(1.33333 0 0 -1.33333 28 162.91)"/><path d="m0 0 29.003-50.235" style="fill:none;stroke:#28965a;stroke-width:.977;stroke-linecap:butt;stroke-linejoin:miter;stroke-miterlimit:10;stroke-dasharray:1.966,1.966;stroke-dashoffset:0;stroke-opacity:1" transform="matrix(1.33333 0 0 -1.33333 29.31 167.489)"/><path d="m0 0 .5-.866h1" style="fill:none;stroke:#28965a;stroke-width:.977;stroke-linecap:butt;stroke-linejoin:miter;stroke-miterlimit:10;stroke-dasharray:none;stroke-opacity:1" transform="matrix(1.33333 0 0 -1.33333 68.637 235.605)"/><path d="M0 0h58.007" style="fill:none;stroke:#28965a;stroke-width:.977;stroke-linecap:butt;stroke-linejoin:miter;stroke-miterlimit:10;stroke-dasharray:1.966,1.966;stroke-dashoffset:0;stroke-opacity:1" transform="matrix(1.33333 0 0 -1.33333 73.259 236.759)"/><path d="M0 0h1l.5.866" style="fill:none;stroke:#28965a;stroke-width:.977;stroke-linecap:butt;stroke-linejoin:miter;stroke-miterlimit:10;stroke-dasharray:none;stroke-opacity:1" transform="matrix(1.33333 0 0 -1.33333 151.912 236.759)"/><path d="m0 0 29.003 50.235" style="fill:none;stroke:#28965a;stroke-width:.977;stroke-linecap:butt;stroke-linejoin:miter;stroke-miterlimit:10;stroke-dasharray:1.966,1.966;stroke-dashoffset:0;stroke-opacity:1" transform="matrix(1.33333 0 0 -1.33333 155.223 233.334)"/><path d="m0 0 .5.866-.5.866" style="fill:none;stroke:#28965a;stroke-width:.977;stroke-linecap:butt;stroke-linejoin:miter;stroke-miterlimit:10;stroke-dasharray:none;stroke-opacity:1" transform="matrix(1.33333 0 0 -1.33333 194.55 165.219)"/><path d="m0 0-29.003 50.235" style="fill:none;stroke:#28965a;stroke-width:.977;stroke-linecap:butt;stroke-linejoin:miter;stroke-miterlimit:10;stroke-dasharray:1.966,1.966;stroke-dashoffset:0;stroke-opacity:1" transform="matrix(1.33333 0 0 -1.33333 193.238 160.638)"/><g clip-path="url(#i)" transform="matrix(1.33333 0 0 -1.33333 0 666.667)"><path d="M0 0v-16.104c0-8.357 6.775-15.133 15.133-15.133 8.357 0 15.132-6.775 15.132-15.132v-21.277" style="fill:none;stroke:#2a6041;stroke-width:1.543;stroke-linecap:round;stroke-linejoin:miter;stroke-miterlimit:10;stroke-dasharray:none;stroke-opacity:1" transform="translate(68.112 411.894)"/><path d="M0 0a1.59 1.59 0 1 0-3.181 0A1.59 1.59 0 0 0 0 0" style="fill:#28965a;fill-opacity:1;fill-rule:nonzero;stroke:none" transform="translate(99.968 411.894)"/><path d="M0 0a1.591 1.591 0 1 0-3.182 0A1.591 1.591 0 0 0 0 0" style="fill:#28965a;fill-opacity:1;fill-rule:nonzero;stroke:none" transform="translate(99.968 407.825)"/><path d="M0 0a1.59 1.59 0 1 0-3.18 0A1.59 1.59 0 0 0 0 0" style="fill:#28965a;fill-opacity:1;fill-rule:nonzero;stroke:none" transform="translate(99.968 403.757)"/><path d="M0 0a1.591 1.591 0 1 0-3.182 0A1.591 1.591 0 0 0 0 0" style="fill:#28965a;fill-opacity:1;fill-rule:nonzero;stroke:none" transform="translate(99.968 399.69)"/><path d="M0 0a1.591 1.591 0 1 0-3.182 0A1.591 1.591 0 0 0 0 0" style="fill:#28965a;fill-opacity:1;fill-rule:nonzero;stroke:none" transform="translate(99.968 395.62)"/><path d="M0 0a1.591 1.591 0 1 0-3.182 0A1.591 1.591 0 0 0 0 0" style="fill:#28965a;fill-opacity:1;fill-rule:nonzero;stroke:none" transform="translate(99.469 391.554)"/><path d="M0 0a1.59 1.59 0 1 0-3.18 0A1.59 1.59 0 0 0 0 0" style="fill:#28965a;fill-opacity:1;fill-rule:nonzero;stroke:none" transform="translate(97.878 388.072)"/><path d="M0 0a1.59 1.59 0 1 0-3.181 0A1.59 1.59 0 0 0 0 0" style="fill:#28965a;fill-opacity:1;fill-rule:nonzero;stroke:none" transform="translate(95.482 384.991)"/><path d="M0 0a1.59 1.59 0 1 0-3.18-.001A1.59 1.59 0 0 0 0 0" style="fill:#28965a;fill-opacity:1;fill-rule:nonzero;stroke:none" transform="translate(92.557 382.722)"/><path d="M0 0a1.591 1.591 0 1 0-3.182 0A1.591 1.591 0 0 0 0 0" style="fill:#28965a;fill-opacity:1;fill-rule:nonzero;stroke:none" transform="translate(89.12 381.287)"/><path d="M0 0a1.591 1.591 0 1 0 3.182 0A1.591 1.591 0 0 0 0 0" style="fill:#28965a;fill-opacity:1;fill-rule:nonzero;stroke:none" transform="translate(66.54 349.743)"/><path d="M0 0a1.591 1.591 0 1 0 3.182 0A1.591 1.591 0 0 0 0 0" style="fill:#28965a;fill-opacity:1;fill-rule:nonzero;stroke:none" transform="translate(66.54 353.811)"/><path d="M0 0a1.59 1.59 0 1 0 3.18.001A1.59 1.59 0 0 0 0 0" style="fill:#28965a;fill-opacity:1;fill-rule:nonzero;stroke:none" transform="translate(66.54 357.88)"/><path d="M0 0a1.591 1.591 0 1 0 3.182 0A1.591 1.591 0 0 0 0 0" style="fill:#28965a;fill-opacity:1;fill-rule:nonzero;stroke:none" transform="translate(66.54 361.947)"/><path d="M0 0a1.59 1.59 0 1 0 3.18 0A1.59 1.59 0 0 0 0 0" style="fill:#28965a;fill-opacity:1;fill-rule:nonzero;stroke:none" transform="translate(66.54 366.016)"/><path d="M0 0a1.59 1.59 0 1 0 3.18 0A1.59 1.59 0 0 0 0 0" style="fill:#28965a;fill-opacity:1;fill-rule:nonzero;stroke:none" transform="translate(67.04 370.083)"/><path d="M0 0a1.59 1.59 0 1 0 3.18 0A1.59 1.59 0 0 0 0 0" style="fill:#28965a;fill-opacity:1;fill-rule:nonzero;stroke:none" transform="translate(68.63 373.564)"/><path d="M0 0a1.591 1.591 0 1 0 3.182 0A1.591 1.591 0 0 0 0 0" style="fill:#28965a;fill-opacity:1;fill-rule:nonzero;stroke:none" transform="translate(71.027 376.645)"/><path d="M0 0a1.591 1.591 0 1 0 3.182 0A1.591 1.591 0 0 0 0 0" style="fill:#28965a;fill-opacity:1;fill-rule:nonzero;stroke:none" transform="translate(73.951 378.914)"/><path d="M0 0a1.59 1.59 0 1 0 3.18 0A1.59 1.59 0 0 0 0 0" style="fill:#28965a;fill-opacity:1;fill-rule:nonzero;stroke:none" transform="translate(77.388 380.35)"/><path d="M0 0a1.591 1.591 0 1 0-3.182 0A1.591 1.591 0 0 0 0 0" style="fill:#28965a;fill-opacity:1;fill-rule:nonzero;stroke:none" transform="translate(85.094 380.779)"/><path d="M0 0h-24.77a.443.443 0 1 0 0 .887H0A.443.443 0 0 0 0 0" style="fill:#2ceaa3;fill-opacity:1;fill-rule:nonzero;stroke:none" transform="translate(95.525 410.096)"/><path d="M0 0h-24.77a.443.443 0 1 0 0 .887H0A.443.443 0 0 0 0 0" style="fill:#2ceaa3;fill-opacity:1;fill-rule:nonzero;stroke:none" transform="translate(95.525 407.006)"/><path d="M0 0h-24.77a.443.443 0 0 0 0 .887H0A.443.443 0 0 0 0 0" style="fill:#2ceaa3;fill-opacity:1;fill-rule:nonzero;stroke:none" transform="translate(95.525 403.916)"/><path d="M0 0h-24.77a.443.443 0 0 0 0 .887H0A.443.443 0 0 0 0 0" style="fill:#2ceaa3;fill-opacity:1;fill-rule:nonzero;stroke:none" transform="translate(95.525 400.825)"/><path d="M0 0h-24.77a.443.443 0 0 0 0 .887H0A.443.443 0 0 0 0 0" style="fill:#2ceaa3;fill-opacity:1;fill-rule:nonzero;stroke:none" transform="translate(95.525 397.735)"/><path d="M0 0h-24.77a.443.443 0 0 0 0 .887H0A.443.443 0 0 0 0 0" style="fill:#2ceaa3;fill-opacity:1;fill-rule:nonzero;stroke:none" transform="translate(95.525 394.645)"/><path d="M0 0h-24.77a.443.443 0 1 0 0 .887H0A.443.443 0 0 0 0 0" style="fill:#2ceaa3;fill-opacity:1;fill-rule:nonzero;stroke:none" transform="translate(95.525 391.555)"/><path d="M0 0h-19.628a.443.443 0 1 0 0 .887H0A.443.443 0 0 0 0 0" style="fill:#2ceaa3;fill-opacity:1;fill-rule:nonzero;stroke:none" transform="translate(92.954 388.464)"/><path d="M0 0h-14.486a.444.444 0 0 0 0 .887H0A.443.443 0 0 0 0 0" style="fill:#2ceaa3;fill-opacity:1;fill-rule:nonzero;stroke:none" transform="translate(90.383 385.374)"/><path d="M0 0h24.77a.443.443 0 1 0 0-.887H0A.444.444 0 0 0 0 0" style="fill:#2ceaa3;fill-opacity:1;fill-rule:nonzero;stroke:none" transform="translate(70.755 350.59)"/><path d="M0 0h24.77a.443.443 0 0 0 0-.887H0A.444.444 0 0 0 0 0" style="fill:#2ceaa3;fill-opacity:1;fill-rule:nonzero;stroke:none" transform="translate(70.755 347.429)"/><path d="M0 0h24.77a.443.443 0 0 0 0-.887H0A.444.444 0 0 0 0 0" style="fill:#2ceaa3;fill-opacity:1;fill-rule:nonzero;stroke:none" transform="translate(70.755 353.68)"/><path d="M0 0h24.77a.443.443 0 0 0 0-.887H0A.444.444 0 0 0 0 0" style="fill:#2ceaa3;fill-opacity:1;fill-rule:nonzero;stroke:none" transform="translate(70.755 356.77)"/><path d="M0 0h24.77a.443.443 0 0 0 0-.887H0A.444.444 0 0 0 0 0" style="fill:#2ceaa3;fill-opacity:1;fill-rule:nonzero;stroke:none" transform="translate(70.755 359.86)"/><path d="M0 0h24.77a.443.443 0 0 0 0-.887H0A.444.444 0 0 0 0 0" style="fill:#2ceaa3;fill-opacity:1;fill-rule:nonzero;stroke:none" transform="translate(70.755 362.95)"/><path d="M0 0h24.77a.443.443 0 1 0 0-.887H0A.444.444 0 0 0 0 0" style="fill:#2ceaa3;fill-opacity:1;fill-rule:nonzero;stroke:none" transform="translate(70.755 366.04)"/><path d="M0 0h24.77a.443.443 0 1 0 0-.887H0A.444.444 0 0 0 0 0" style="fill:#2ceaa3;fill-opacity:1;fill-rule:nonzero;stroke:none" transform="translate(70.755 369.131)"/><path d="M0 0h19.628a.443.443 0 1 0 0-.887H0A.443.443 0 0 0 0 0" style="fill:#2ceaa3;fill-opacity:1;fill-rule:nonzero;stroke:none" transform="translate(73.326 372.221)"/><path d="M0 0h14.486a.444.444 0 0 0 0-.887H0A.444.444 0 0 0 0 0" style="fill:#2ceaa3;fill-opacity:1;fill-rule:nonzero;stroke:none" transform="translate(75.898 375.312)"/><path d="M0 0h-62.649l-31.325-54.256 31.325-54.255H0l31.324 54.255z" style="fill:none;stroke:#28965a;stroke-width:.973;stroke-linecap:butt;stroke-linejoin:miter;stroke-miterlimit:10;stroke-dasharray:none;stroke-opacity:1" transform="translate(433.013 144.474)"/><path d="M0 0h-69.528l-34.765-60.214 34.765-60.214H0l34.765 60.214z" style="fill:none;stroke:#28965a;stroke-width:1.079;stroke-linecap:butt;stroke-linejoin:miter;stroke-miterlimit:10;stroke-dasharray:2;stroke-dashoffset:0;stroke-opacity:1" transform="translate(436.453 150.432)"/><path d="M0 0c4.726 0 8.581-3.806 8.581-8.471S4.726-16.941 0-16.941c-4.725 0-8.58 3.805-8.58 8.47C-8.58-3.806-4.725 0 0 0m-2.297 7.739-1.131-3.937a12.918 12.918 0 0 1-2.939-1.198l-3.627 1.993-3.242-3.201 2.017-3.581a12.6 12.6 0 0 1-1.213-2.901l-3.988-1.116v-4.536l3.988-1.117a12.608 12.608 0 0 1 1.213-2.902l-2.017-3.58 3.242-3.2 3.627 1.991a12.916 12.916 0 0 1 2.939-1.197l1.131-3.938h4.595l1.132 3.938c1.036.282 2.023.683 2.938 1.197l3.627-1.991 3.242 3.2-2.017 3.58c.52.903.926 1.878 1.213 2.902l3.988 1.117v4.536l-3.988 1.116a12.645 12.645 0 0 1-1.213 2.901l2.017 3.581-3.242 3.201-3.627-1.993A12.93 12.93 0 0 1 3.43 3.802L2.298 7.739Z" style="fill:#28965a;fill-opacity:1;fill-rule:nonzero;stroke:none" transform="translate(421.494 122.575)"/><g clip-path="url(#j)" opacity=".3"><path d="M0 0c7.409 0 13.455-5.969 13.455-13.283 0-7.314-6.046-13.282-13.455-13.282s-13.455 5.968-13.455 13.282S-7.409 0 0 0m-3.603 12.134-1.773-6.173a20.229 20.229 0 0 1-4.608-1.878l-5.688 3.123-5.083-5.018 3.163-5.615a19.661 19.661 0 0 1-1.901-4.549l-6.254-1.751v-7.112l6.254-1.751a19.661 19.661 0 0 1 1.901-4.549l-3.163-5.614 5.083-5.018 5.688 3.123a20.229 20.229 0 0 1 4.608-1.878l1.773-6.174h7.206l1.773 6.174a20.229 20.229 0 0 1 4.608 1.878l5.687-3.123 5.084 5.018-3.164 5.614a19.726 19.726 0 0 1 1.902 4.549l6.254 1.751v7.112l-6.254 1.751a19.707 19.707 0 0 1-1.902 4.549l3.164 5.615-5.084 5.018-5.687-3.123a20.229 20.229 0 0 1-4.608 1.878l-1.773 6.173z" style="fill:#2a6041;fill-opacity:1;fill-rule:nonzero;stroke:none" transform="translate(403.449 87.406)"/></g><g clip-path="url(#k)" opacity=".3"><path d="M0 0h-206.942l-103.471-179.216 103.471-179.217H0l103.471 179.217z" style="fill:#2ceaa3;fill-opacity:1;fill-rule:nonzero;stroke:none" transform="translate(360.903 427.703)"/></g><path d="M0 0h-197.18l-98.59-170.763 98.59-170.763H0l98.59 170.763z" style="fill:#2ceaa3;fill-opacity:1;fill-rule:nonzero;stroke:none" transform="translate(356.022 419.25)"/></g><g clip-path="url(#l)" transform="matrix(1.33333 0 0 -1.33333 0 666.667)"><path d="M0 0s8.025 28.891 14.797 33.607c6.771 4.717 27.211 5.503 27.211 3.931s-3.834-6.372-3.834-6.372L26.089-11.596Z" style="fill:#ff8775;fill-opacity:1;fill-rule:nonzero;stroke:none" transform="translate(259.048 185.017)"/><path d="m0 0 20.293 43.238 35.523-12.775-16.902-60.336L3.538-39.11Z" style="fill:#fff;fill-opacity:1;fill-rule:nonzero;stroke:none" transform="translate(238.755 141.779)"/><path d="M0 0a3.895 3.895 0 0 0-3.166 4.507L7.466 65.344a3.895 3.895 0 0 0 7.672-1.341L4.507 3.166A3.895 3.895 0 0 0 0 0" style="fill:#2a6041;fill-opacity:1;fill-rule:nonzero;stroke:none" transform="translate(281.516 177.987)"/><path d="M0 0c-2.74-15.679-17.672-26.168-33.352-23.429C-49.03-20.689-59.521-5.757-56.78 9.922c2.74 15.68 17.672 26.169 33.351 23.43C-7.75 30.611 2.74 15.68 0 0" style="fill:#fff;fill-opacity:1;fill-rule:nonzero;stroke:none" transform="translate(323.93 253.272)"/><path d="M0 0c-2.74-15.679-17.672-26.168-33.352-23.429C-49.03-20.689-59.521-5.757-56.78 9.922c2.74 15.68 17.672 26.169 33.351 23.43C-7.75 30.611 2.74 15.68 0 0Z" style="fill:none;stroke:#28965a;stroke-width:4.766;stroke-linecap:butt;stroke-linejoin:miter;stroke-miterlimit:10;stroke-dasharray:none;stroke-opacity:1" transform="translate(323.93 253.272)"/><path d="M0 0a2.55 2.55 0 0 1-1.419.569C-5.295.873-22.116 1.693-30.18-6.103c-9.147-8.843 1.121-19.653 12.398-21.619 6.866-1.196 12.397-1.154 15.675-.938a2.564 2.564 0 0 1 2.26 3.38l-.071.211a2.564 2.564 0 0 0 .583 2.596l2.328 2.421c.869.905.958 2.306.208 3.313l-.788 1.058a2.566 2.566 0 0 0 .132 3.228l.643.732c.773.878.854 2.167.199 3.135L1.995-6.531a2.565 2.565 0 0 0-.194 2.541 2.565 2.565 0 0 1-.697 3.091z" style="fill:#ff8775;fill-opacity:1;fill-rule:nonzero;stroke:none" transform="translate(304.025 215.686)"/><path d="M0 0a66.554 66.554 0 0 1-7.607-.562c-2.518-.316-5.019-.771-7.441-1.479-2.41-.718-4.79-1.608-6.865-2.977-2.074-1.337-3.819-3.227-4.598-5.53-.794-2.274-.766-4.883-.054-7.205.756-2.339 2.388-4.304 4.356-5.814 1.98-1.52 4.303-2.586 6.695-3.389 2.393-.826 4.887-1.376 7.414-1.705-2.55.103-5.085.559-7.559 1.237-2.46.721-4.875 1.725-7.006 3.237-2.138 1.482-3.901 3.625-4.765 6.147-.799 2.527-.874 5.275-.022 7.825.895 2.548 2.846 4.579 5.045 5.959 2.211 1.402 4.662 2.336 7.159 2.954C-10.248-.063-5.091.29 0 0" style="fill:#2a6041;fill-opacity:1;fill-rule:nonzero;stroke:none" transform="translate(297.222 216.183)"/><path d="m0 0-33.954-1.528" style="fill:none;stroke:#2a6041;stroke-width:1;stroke-linecap:butt;stroke-linejoin:miter;stroke-miterlimit:10;stroke-dasharray:none;stroke-opacity:1" transform="translate(305.643 210.032)"/><path d="m0 0-36.302.189" style="fill:none;stroke:#2a6041;stroke-width:1;stroke-linecap:butt;stroke-linejoin:miter;stroke-miterlimit:10;stroke-dasharray:none;stroke-opacity:1" transform="translate(305.935 201.673)"/><path d="m0 0-32.911 4.001" style="fill:none;stroke:#2a6041;stroke-width:1;stroke-linecap:butt;stroke-linejoin:miter;stroke-miterlimit:10;stroke-dasharray:none;stroke-opacity:1" transform="translate(304.092 192.186)"/><path d="m0 0 1.133-1.133L2.266 0c10.918 10.918 10.918 28.619 0 39.537L1.133 40.67 0 39.537C-10.918 28.619-10.918 10.918 0 0" style="fill:#28965a;fill-opacity:1;fill-rule:nonzero;stroke:none" transform="translate(344.775 332.33)"/><path d="M0 0v-193.16" style="fill:none;stroke:#202c23;stroke-width:.703;stroke-linecap:round;stroke-linejoin:miter;stroke-miterlimit:10;stroke-dasharray:none;stroke-opacity:1" transform="translate(345.908 373)"/><path d="m0 0-5.264-5.264-5.374 5.373" style="fill:none;stroke:#202c23;stroke-width:.703;stroke-linecap:round;stroke-linejoin:miter;stroke-miterlimit:10;stroke-dasharray:none;stroke-opacity:1" transform="translate(351.26 366.468)"/><path d="m0 0-8.532-8.532-8.675 8.676" style="fill:none;stroke:#202c23;stroke-width:.703;stroke-linecap:round;stroke-linejoin:miter;stroke-miterlimit:10;stroke-dasharray:none;stroke-opacity:1" transform="translate(354.528 358.336)"/><path d="m0 0-8.805-8.804-9.017 9.017" style="fill:none;stroke:#202c23;stroke-width:.703;stroke-linecap:round;stroke-linejoin:miter;stroke-miterlimit:10;stroke-dasharray:none;stroke-opacity:1" transform="translate(354.8 347.21)"/><path d="M0 0h1.602v1.603c0 15.439-12.517 27.956-27.956 27.956h-1.603v-1.602C-27.957 12.517-15.44 0 0 0" style="fill:#28965a;fill-opacity:1;fill-rule:nonzero;stroke:none" transform="translate(339.02 315.83)"/><path d="m0 0 34.878-34.878" style="fill:none;stroke:#202c23;stroke-width:.703;stroke-linecap:round;stroke-linejoin:miter;stroke-miterlimit:10;stroke-dasharray:none;stroke-opacity:1" transform="translate(311.063 345.388)"/><path d="M0 0v-7.444h-7.6" style="fill:none;stroke:#202c23;stroke-width:.703;stroke-linecap:round;stroke-linejoin:miter;stroke-miterlimit:10;stroke-dasharray:none;stroke-opacity:1" transform="translate(319.466 344.553)"/><path d="M0 0v-12.066h-12.269" style="fill:none;stroke:#202c23;stroke-width:.703;stroke-linecap:round;stroke-linejoin:miter;stroke-miterlimit:10;stroke-dasharray:none;stroke-opacity:1" transform="translate(327.527 341.114)"/><path d="M0 0v-12.451h-12.753" style="fill:none;stroke:#202c23;stroke-width:.703;stroke-linecap:round;stroke-linejoin:miter;stroke-miterlimit:10;stroke-dasharray:none;stroke-opacity:1" transform="translate(335.587 333.44)"/><path d="M0 0h1.602v1.603c0 15.439-12.517 27.956-27.956 27.956h-1.603v-1.602C-27.957 12.517-15.44 0 0 0" style="fill:#28965a;fill-opacity:1;fill-rule:nonzero;stroke:none" transform="translate(339.02 285.159)"/><path d="m0 0 34.878-34.877" style="fill:none;stroke:#202c23;stroke-width:.703;stroke-linecap:round;stroke-linejoin:miter;stroke-miterlimit:10;stroke-dasharray:none;stroke-opacity:1" transform="translate(311.063 314.718)"/><path d="M0 0v-7.444h-7.6" style="fill:none;stroke:#202c23;stroke-width:.703;stroke-linecap:round;stroke-linejoin:miter;stroke-miterlimit:10;stroke-dasharray:none;stroke-opacity:1" transform="translate(319.466 313.883)"/><path d="M0 0v-12.066h-12.269" style="fill:none;stroke:#202c23;stroke-width:.703;stroke-linecap:round;stroke-linejoin:miter;stroke-miterlimit:10;stroke-dasharray:none;stroke-opacity:1" transform="translate(327.527 310.444)"/><path d="M0 0v-12.451h-12.753" style="fill:none;stroke:#202c23;stroke-width:.703;stroke-linecap:round;stroke-linejoin:miter;stroke-miterlimit:10;stroke-dasharray:none;stroke-opacity:1" transform="translate(335.587 302.769)"/><path d="M0 0h-1.603v1.603c0 15.44 12.517 27.957 27.957 27.957h1.603v-1.603C27.957 12.517 15.439 0 0 0" style="fill:#28965a;fill-opacity:1;fill-rule:nonzero;stroke:none" transform="translate(352.336 303.334)"/><path d="m0 0-34.352-34.352" style="fill:none;stroke:#202c23;stroke-width:.703;stroke-linecap:round;stroke-linejoin:miter;stroke-miterlimit:10;stroke-dasharray:none;stroke-opacity:1" transform="translate(380.293 332.893)"/><path d="M0 0v-7.444h7.6" style="fill:none;stroke:#202c23;stroke-width:.703;stroke-linecap:round;stroke-linejoin:miter;stroke-miterlimit:10;stroke-dasharray:none;stroke-opacity:1" transform="translate(371.888 332.058)"/><path d="M0 0v-12.065h12.269" style="fill:none;stroke:#202c23;stroke-width:.703;stroke-linecap:round;stroke-linejoin:miter;stroke-miterlimit:10;stroke-dasharray:none;stroke-opacity:1" transform="translate(363.828 328.619)"/><path d="M0 0v-12.451h12.753" style="fill:none;stroke:#202c23;stroke-width:.703;stroke-linecap:round;stroke-linejoin:miter;stroke-miterlimit:10;stroke-dasharray:none;stroke-opacity:1" transform="translate(355.767 320.943)"/><g clip-path="url(#m)" opacity=".7"><path d="M0 0a8.516 8.516 0 0 0-8.516 8.516v108.417H8.516V8.516A8.516 8.516 0 0 0 0 0" style="fill:#fff;fill-opacity:1;fill-rule:nonzero;stroke:none" transform="translate(345.359 148.974)"/><g clip-path="url(#n)" opacity=".3"><path d="M0 0a1.014 1.014 0 1 1 0-2.026h.542v-108.417a8.514 8.514 0 0 1 4.637-7.58V0Z" style="fill:#80f2c8;fill-opacity:1;fill-rule:nonzero;stroke:none" transform="translate(336.301 267.933)"/></g><path d="M0 0h-18.115a1.013 1.013 0 1 1 0-2.026H0A1.014 1.014 0 0 1 0 0" style="fill:#fff;fill-opacity:1;fill-rule:nonzero;stroke:none" transform="translate(354.417 267.933)"/><g clip-path="url(#o)" opacity=".2"><path d="M336.843 264.635h17.031v1.272h-17.031z" style="fill:#2a6041;fill-opacity:1;fill-rule:nonzero;stroke:none"/></g></g><path d="M0 0c7.125-6.58 11.288-15.868 13.32-25.351 2.033-9.482 2.104-19.261 2.168-28.96 3.311-2.332 6.763-4.69 9.932-7.211a49.298 49.298 0 0 0-9.795-7.814s.919-28.455-10.823-34.469c-11.743-6.015-32.683 1.397-32.683 1.397l-.649-23.766 17.091-21.316s-14.05-7.904-39.295 6.366c-25.245 14.269-37.758 43.686-37.758 43.686l27.001 95.273z" style="fill:#ff8775;fill-opacity:1;fill-rule:nonzero;stroke:none" transform="translate(240.085 361.22)"/><path d="m0 0 36.735-5.301s40.564-38.93 42.905-53.42c2.34-14.489-20.122-63.297-20.122-63.297z" style="fill:#2a6041;fill-opacity:1;fill-rule:nonzero;stroke:none" transform="translate(185.866 226.57)"/><path d="M0 0s30.74 238.728 39.897 265.544c9.157 26.816 36.627 53.559 36.627 53.559s48.244-18.241 61.729-47.672c13.487-29.433 16.102-105.956 16.102-105.956V-19.387s-32.198-19.856-80.522-10.7C25.508-20.93 0 0 0 0" style="fill:#fff;fill-opacity:1;fill-rule:nonzero;stroke:none" transform="translate(97.377 -82.368)"/><path d="M0 0c-2.478 4.506-6.744 9.409-15.592 3.804-8.848-5.604-.442-21.527 4.602-24.89 5.044-3.363 8.407-2.51 8.407-2.51S-8.468-58.965-37.331-91.47c-28.862-32.506-48.285-166.606-48.285-166.606s-26.738 3.524-37.67 25.909c-10.931 22.383-5.205 57.402-5.205 57.402s-8.85-7.939-12.494-18.615c-3.643-10.677 0-31.838 0-31.838s-24.127 27.979-6.597 74.024c17.529 46.044 49.284 56.976 63.339 106.95C-70.188 5.73-64.828 64.554-26.904 74.445c37.924 9.891 79.737 2.213 90.951-13.875 9.219-13.223.601-22.37-1.913-25.638-2.513-3.267-7.541-7.792-7.541-7.792s3.511 8.295 1.756 14.579c-1.756 6.284-5.104 10.557-5.104 10.557s3.851-16.338-3.187-23.377c-7.038-7.038-18.6-4.775-18.6-4.775s4.272 2.513 6.283 6.786 2.263 9.803 2.263 9.803-4.525-11.814-14.328-14.076c-9.803-2.262-10.528-1.508-10.528-1.508s.725-10.306-.28-17.595C11.862.245 3.819-11.067 3.819-11.067S2.479-4.506 0 0" style="fill:#202c23;fill-opacity:1;fill-rule:nonzero;stroke:none" transform="translate(201.458 312.27)"/><path d="M0 0c0-2.626 1.49-4.755 3.329-4.755 1.838 0 3.329 2.129 3.329 4.755S5.167 4.756 3.329 4.756C1.49 4.756 0 2.626 0 0" style="fill:#202c23;fill-opacity:1;fill-rule:nonzero;stroke:none" transform="translate(241.841 311.387)"/><path d="M0 0c.431 2.172 1.471 4.225 2.845 6.015a18.65 18.65 0 0 0 5.134 4.438c1.963 1.147 4.093 2.166 6.37 2.441 1.131.142 2.268.199 3.398.122a15.815 15.815 0 0 0 1.683-.192c.283-.059.541-.092.855-.177.295-.079.665-.249.799-.577l-.182-.137c-.401.209-.888-.05-1.442-.155l-1.585-.368c-1.044-.252-2.074-.484-3.083-.764-2.002-.564-4.059-.932-5.961-1.816a17.158 17.158 0 0 1-5.126-3.572A14.9 14.9 0 0 1 .22-.063Z" style="fill:#202c23;fill-opacity:1;fill-rule:nonzero;stroke:none" transform="translate(234.618 316.175)"/><path d="M0 0c-5.238 3.265-9.383 8.01-11.877 13.407C-8.712 8.374-4.114 4.392 1.089 2.016Z" style="fill:#202c23;fill-opacity:1;fill-rule:nonzero;stroke:none" transform="translate(254.467 276.236)"/><path d="M0 0c.598 1.977 1.311 4.062 3.054 5.62.863.76 1.945 1.317 3.179 1.475a4.882 4.882 0 0 0 1.898-.119 4.839 4.839 0 0 0 1.708-.908c.989-.816 1.628-1.852 2.086-2.866.461-1.031.793-2.012 1.138-3.012a46.822 46.822 0 0 0 1.562-6.13l.105-.581-.36-.355c-1.051-1.038-2.218-1.473-3.167-1.959-.977-.475-1.657-.999-1.826-1.802-.167-.806.269-1.84.948-2.639.698-.825 1.637-1.554 2.382-2.439-.965.629-2.014 1.069-2.97 1.825-.944.751-1.816 1.876-1.796 3.39.013.749.347 1.478.818 2.019.467.546 1.009.926 1.517 1.257 1.013.65 2.007 1.131 2.532 1.779l-.255-.935a81.757 81.757 0 0 1-1.654 5.866c-.635 1.931-1.211 3.922-2.38 5.043a2.98 2.98 0 0 1-2.144.825c-.835-.015-1.729-.314-2.513-.802C2.279 3.546 1.145 1.733 0 0" style="fill:#202c23;fill-opacity:1;fill-rule:nonzero;stroke:none" transform="translate(186.033 306.538)"/><path d="m0 0 11.509-4.07-.28-10.286z" style="fill:#202c23;fill-opacity:1;fill-rule:nonzero;stroke:none" transform="translate(200.695 262.882)"/><g clip-path="url(#p)"><path d="M0 0c0-1.957 2.547-3.542 5.69-3.542 3.143 0 5.69 1.585 5.69 3.542 0 1.956-2.547 3.542-5.69 3.542C2.547 3.542 0 1.956 0 0" style="fill:#ff8775;fill-opacity:1;fill-rule:nonzero;stroke:none" transform="translate(231.21 295.382)"/></g><g clip-path="url(#q)" opacity=".3"><path d="M0 0c-3.817-1.748-8.179-2.287-12.386-1.845-4.204.466-8.35 1.928-11.703 4.454C-20.284.879-16.33-.278-12.262-.707-8.198-1.161-4.086-.877 0 0" style="fill:#6bffb8;fill-opacity:1;fill-rule:nonzero;stroke:none" transform="translate(217.634 338.885)"/><path d="M0 0c2.108-1.632 4.021-3.517 5.772-5.543a40.46 40.46 0 0 0 4.543-6.638c2.573-4.725 4.068-10.092 4.104-15.524-.054-5.438-1.709-10.837-4.724-15.33-1.515-2.239-3.354-4.26-5.478-5.919-2.142-1.628-4.549-2.921-7.12-3.638a22.636 22.636 0 0 1 6.765 4.073 25.459 25.459 0 0 1 5.094 5.963c2.765 4.44 4.353 9.636 4.318 14.852.058 5.235-1.39 10.42-3.736 15.118a40.437 40.437 0 0 1-4.201 6.692C3.752-3.774 1.938-1.826 0 0" style="fill:#6bffb8;fill-opacity:1;fill-rule:nonzero;stroke:none" transform="translate(234.563 389.267)"/><path d="M0 0c1.012-4.495 1.904-9.053 2-13.708.022-2.32-.164-4.666-.735-6.941-.569-2.271-1.493-4.474-2.796-6.441-2.615-3.955-6.581-6.837-10.863-8.707-4.319-1.87-8.992-2.698-13.628-3-4.65-.245-9.285-.089-13.908.361-4.612.482-9.219 1.346-13.609 2.912-4.387 1.547-8.55 3.781-12.168 6.703-3.58 2.952-6.627 6.606-8.554 10.81 2.158-4.083 5.257-7.605 8.903-10.369 3.634-2.789 7.762-4.89 12.105-6.31 8.706-2.835 18.041-3.407 27.161-2.965 4.552.261 9.108 1.041 13.287 2.814 4.163 1.766 7.945 4.547 10.548 8.244 1.288 1.851 2.223 3.941 2.824 6.128.606 2.189.834 4.478.874 6.763C1.536-9.119.759-4.544 0 0" style="fill:#6bffb8;fill-opacity:1;fill-rule:nonzero;stroke:none" transform="translate(226.514 390.24)"/><path d="M0 0c-.461-2.736-1.455-5.4-2.882-7.812a26.954 26.954 0 0 0-5.403-6.425c-4.225-3.759-9.663-5.999-15.209-6.884-5.583-.788-11.302-.332-16.686 1.201-2.691.761-5.328 1.777-7.755 3.188-2.397 1.437-4.605 3.281-6.125 5.618 1.729-2.178 3.957-3.88 6.398-5.128 2.427-1.279 5.04-2.182 7.709-2.826 5.321-1.329 10.888-1.771 16.286-.922 5.399.774 10.605 2.928 14.816 6.423a26.51 26.51 0 0 1 5.496 6.052C-1.798-5.25-.713-2.679 0 0" style="fill:#6bffb8;fill-opacity:1;fill-rule:nonzero;stroke:none" transform="translate(216.795 390.79)"/><path d="M0 0c-1.738-11.504-3.467-23.011-5.464-34.478-2.027-11.46-4.311-22.882-7.123-34.187-5.589-22.583-13.451-44.788-25.149-65.019-5.87-10.084-12.868-19.526-20.737-28.123-7.778-8.649-15.961-16.984-22.287-26.715-6.394-9.663-10.273-20.898-11.547-32.422-1.271-11.518-.059-23.364 3.864-34.328-4.09 10.903-5.496 22.769-4.393 34.384 1.169 11.607 4.997 22.999 11.373 32.819 1.554 2.476 3.282 4.835 5.038 7.167 1.796 2.3 3.639 4.564 5.556 6.759 3.808 4.416 7.788 8.664 11.659 12.997 7.82 8.59 14.719 17.965 20.536 28.009 11.71 20.071 19.531 42.189 25.28 64.677 2.904 11.254 5.273 22.645 7.41 34.077C-3.815-22.956-1.912-11.477 0 0" style="fill:#6bffb8;fill-opacity:1;fill-rule:nonzero;stroke:none" transform="translate(144.499 346.068)"/><path d="M0 0c-.388-8.707-.844-17.414-1.586-26.104-.776-8.687-1.847-17.356-3.429-25.946-3.152-17.144-8.608-34.082-17.722-49.084-4.557-7.482-9.908-14.428-15.493-21.13-5.599-6.698-11.415-13.193-17.117-19.773-5.687-6.589-11.21-13.334-16.039-20.574-4.857-7.206-8.986-14.957-11.737-23.242 2.572 8.341 6.546 16.209 11.268 23.55 4.753 7.334 10.222 14.167 15.837 20.838 11.227 13.317 23.304 26.034 32.303 40.925 4.53 7.396 8.192 15.312 11.094 23.494 2.916 8.183 5.048 16.632 6.744 25.16 1.681 8.535 2.844 17.172 3.737 25.835C-1.215-17.39-.573-8.697 0 0" style="fill:#6bffb8;fill-opacity:1;fill-rule:nonzero;stroke:none" transform="translate(155.739 320.355)"/><path d="M0 0c.416-10.287.363-20.608-.485-30.887-.172-2.572-.513-5.13-.779-7.694-.361-2.553-.659-5.116-1.117-7.655-.809-5.096-1.909-10.144-3.201-15.142-1.256-5.01-2.901-9.915-4.697-14.758a143.132 143.132 0 0 0-6.348-14.135c-4.776-9.167-10.418-17.826-16.057-26.436-5.664-8.594-11.353-17.179-16.117-26.274-1.25-2.244-2.272-4.597-3.409-6.896l-1.5-3.538-.746-1.772-.65-1.807c-.428-1.207-.879-2.406-1.29-3.618l-1.078-3.686c-.766-2.445-1.27-4.96-1.765-7.471-1.825-10.077-1.811-20.502.097-30.585a79.255 79.255 0 0 1 1.751-7.496c.683-2.475 1.498-4.916 2.494-7.281 1.976-4.714 4.754-9.223 8.782-12.477-4.087 3.179-6.968 7.662-9.039 12.366-1.045 2.361-1.909 4.8-2.641 7.274a79.946 79.946 0 0 0-1.897 7.506c-2.036 10.131-2.153 20.645-.415 30.848.474 2.541.96 5.092 1.707 7.57l1.074 3.732c.411 1.226.861 2.439 1.29 3.66l.652 1.827.745 1.791 1.502 3.576c1.138 2.319 2.162 4.698 3.412 6.96 4.768 9.175 10.446 17.809 16.084 26.419 5.669 8.591 11.316 17.199 16.091 26.29a141.479 141.479 0 0 1 6.347 14.008c.476 1.19.878 2.41 1.321 3.614a71.267 71.267 0 0 1 1.242 3.642l1.17 3.667 1.041 3.707c1.335 4.956 2.48 9.969 3.337 15.036.483 2.524.805 5.074 1.191 7.615.294 2.553.651 5.101.861 7.663C-.009-20.602.23-10.293 0 0" style="fill:#6bffb8;fill-opacity:1;fill-rule:nonzero;stroke:none" transform="translate(164.56 304.66)"/></g><path d="m0 0 4.286 9.669s5.109 8 9.93 14.171a9360.275 9360.275 0 0 1 12.973 16.67l.013-11.803a39.522 39.522 0 0 1 16.691 13.996l.315.468 4.975-6.85a6.653 6.653 0 0 0 1.243-3.336l.536-6.284a6.632 6.632 0 0 1 1.288-3.397 6.643 6.643 0 0 0 1.102-5.618l-.815-3.161a6.645 6.645 0 0 1 .802-5.181l.122-.195a6.637 6.637 0 0 0 .36-6.388L52.964.968a6.637 6.637 0 0 0-3.295-3.202L14.401-14.935Z" style="fill:#ff8775;fill-opacity:1;fill-rule:nonzero;stroke:none" transform="translate(309.652 168.377)"/><path d="m0 0 74.364 49.273 14.018-34.098S60.777-7.077 37.191-27.104C13.604-47.13-3.362-54.711-3.362-54.711Z" style="fill:#fff;fill-opacity:1;fill-rule:nonzero;stroke:none" transform="translate(239.574 128.772)"/><path d="M0 0c4.483.099 8.983-.408 13.358-1.445 4.369-1.037 8.661-2.659 12.409-5.216.91-.672 1.887-1.261 2.701-2.057l1.273-1.129c.437-.364.771-.831 1.161-1.242l1.132-1.275c.358-.437.682-.895 1.025-1.341.677-.899 1.36-1.793 2.003-2.713 2.644-3.634 5.127-7.371 7.621-11.103 4.951-7.483 9.786-15.04 14.582-22.621a2219.71 2219.71 0 0 0 14.144-22.894l-.619.138L93.405-58.09c7.535 4.943 15.134 9.788 22.698 14.687-7.46-5.056-14.884-10.164-22.374-15.176L71.276-73.633l-.378-.253-.241.391c-4.7 7.635-9.449 15.241-14.237 22.821-4.76 7.599-9.558 15.173-14.47 22.67-2.478 3.733-4.94 7.48-7.511 11.143-.629.926-1.295 1.823-1.956 2.724-.334.448-.652.91-.998 1.344L30.4-11.538c-.376.405-.693.866-1.115 1.226l-1.229 1.12c-.784.79-1.734 1.377-2.617 2.048-3.649 2.545-7.848 4.241-12.16 5.384C8.958-.625 4.483-.009 0 0" style="fill:#202c23;fill-opacity:1;fill-rule:nonzero;stroke:none" transform="translate(176.696 207.441)"/><path d="M0 0a1588.145 1588.145 0 0 0-15.375-9.293l-.206-.123-.159.187C-20.762-3.33-25.783 2.57-30.747 8.518c-4.979 5.934-9.969 11.86-14.893 17.841-9.895 11.922-19.724 23.9-29.396 36.008 10.167-11.695 20.176-23.522 30.12-35.404 4.996-5.922 9.925-11.898 14.865-17.865 4.956-5.954 9.854-11.957 14.752-17.96l-.365.064A1624.234 1624.234 0 0 0 0 0" style="fill:#202c23;fill-opacity:1;fill-rule:nonzero;stroke:none" transform="translate(251.732 83.107)"/><path d="m0 0 13.387-36.444" style="fill:none;stroke:#202c23;stroke-width:1;stroke-linecap:butt;stroke-linejoin:miter;stroke-miterlimit:10;stroke-dasharray:none;stroke-opacity:1" transform="translate(301.706 169.94)"/><path d="M0 0c0-12.982-10.524-23.506-23.506-23.506-12.982 0-23.507 10.524-23.507 23.506 0 12.982 10.525 23.506 23.507 23.506C-10.524 23.506 0 12.982 0 0Z" style="fill:none;stroke:#202c23;stroke-width:1;stroke-linecap:butt;stroke-linejoin:miter;stroke-miterlimit:10;stroke-dasharray:none;stroke-opacity:1" transform="translate(420.7 244.914)"/><path d="M0 0v20.859l-15.688 15.688" style="fill:none;stroke:#202c23;stroke-width:1;stroke-linecap:butt;stroke-linejoin:miter;stroke-miterlimit:10;stroke-dasharray:none;stroke-opacity:1" transform="translate(397.195 268.42)"/><path d="M0 0a2.631 2.631 0 1 1-3.723-3.722A2.631 2.631 0 0 1 0 0" style="fill:#202c23;fill-opacity:1;fill-rule:nonzero;stroke:none" transform="translate(383.46 306.736)"/><path d="M0 0c0 7.997 6.483 14.48 14.48 14.48 7.997 0 14.48-6.483 14.48-14.48 0-7.997-6.483-14.48-14.48-14.48C6.483-14.48 0-7.997 0 0Z" style="fill:none;stroke:#202c23;stroke-width:1;stroke-linecap:butt;stroke-linejoin:miter;stroke-miterlimit:10;stroke-dasharray:none;stroke-opacity:1" transform="translate(280.052 386.564)"/><path d="M0 0v-12.849l8.984-8.985" style="fill:none;stroke:#202c23;stroke-width:1;stroke-linecap:butt;stroke-linejoin:miter;stroke-miterlimit:10;stroke-dasharray:none;stroke-opacity:1" transform="translate(294.533 372.084)"/><path d="M0 0a2.633 2.633 0 1 1 0 3.722A2.633 2.633 0 0 1 0 0" style="fill:#202c23;fill-opacity:1;fill-rule:nonzero;stroke:none" transform="translate(301.563 348.482)"/></g><g clip-path="url(#r)" transform="matrix(1.33333 0 0 -1.33333 0 666.667)"><path d="M0 0h-74.115l-37.057-64.186 37.057-64.184H0l37.057 64.184z" style="fill:#28965a;fill-opacity:1;fill-rule:nonzero;stroke:none" transform="translate(160.5 160.766)"/><path d="M0 0h-67.655l-33.828-58.592 33.828-58.591H0l33.828 58.591z" style="fill:none;stroke:#6bffb8;stroke-width:.977;stroke-linecap:butt;stroke-linejoin:miter;stroke-miterlimit:10;stroke-dasharray:2;stroke-dashoffset:0;stroke-opacity:1" transform="translate(157.27 155.173)"/><path d="M0 0c0 25.571-20.73 46.302-46.301 46.302-25.572 0-46.302-20.731-46.302-46.302 0-25.571 20.73-46.301 46.302-46.301C-20.73-46.301 0-25.571 0 0" style="fill:#6bffb8;fill-opacity:1;fill-rule:nonzero;stroke:none" transform="translate(169.696 96.645)"/><path d="M0 0c0 25.571-20.73 46.302-46.301 46.302-25.572 0-46.302-20.731-46.302-46.302 0-25.571 20.73-46.301 46.302-46.301C-20.73-46.301 0-25.571 0 0" style="fill:#6bffb8;fill-opacity:1;fill-rule:nonzero;stroke:none" transform="translate(169.696 96.645)"/><g clip-path="url(#s)" opacity=".5"><path d="M0 0c-25.571 0-46.301-20.73-46.301-46.302a46.147 46.147 0 0 1 3.368-17.36L23.826-6.596A46.075 46.075 0 0 1 0 0" style="fill:#fff;fill-opacity:1;fill-rule:nonzero;stroke:none" transform="translate(123.395 142.947)"/><path d="m0 0-70.282-60.077a46.481 46.481 0 0 1 7.123-6.088L4.913-7.978A46.28 46.28 0 0 1 0 0" style="fill:#fff;fill-opacity:1;fill-rule:nonzero;stroke:none" transform="translate(160.193 124.745)"/><path d="M0 0a46.1 46.1 0 0 1 21.17-5.113c25.572 0 46.302 20.729 46.302 46.301a46.24 46.24 0 0 1-2.321 14.503z" style="fill:#fff;fill-opacity:1;fill-rule:nonzero;stroke:none" transform="translate(102.224 55.458)"/></g><g clip-path="url(#t)" opacity=".7"><path d="M0 0c0 23.21-18.815 42.024-42.024 42.024-23.21 0-42.025-18.814-42.025-42.024 0-23.209 18.815-42.024 42.025-42.024C-18.815-42.024 0-23.209 0 0" style="fill:#fff;fill-opacity:1;fill-rule:nonzero;stroke:none" transform="translate(165.42 96.645)"/></g><path d="m0 0-22.782-22.782a1.561 1.561 0 0 0-2.21 0l-.052.052c-.61.61-.61 1.599 0 2.209L-2.262 2.262c.61.61 1.6.61 2.21 0L0 2.21C.61 1.6.61.61 0 0" style="fill:#28965a;fill-opacity:1;fill-rule:nonzero;stroke:none" transform="translate(130.986 89.99)"/><path d="m0 0-9.113-9.113a1.561 1.561 0 0 0-2.21 0l-.052.052c-.61.611-.61 1.6 0 2.21l9.113 9.113c.61.61 1.599.61 2.21 0L0 2.21C.61 1.6.61.61 0 0" style="fill:#2ceaa3;fill-opacity:1;fill-rule:nonzero;stroke:none" transform="translate(143.924 102.928)"/><path d="m0 0-9.113-9.112a1.561 1.561 0 0 0-2.21 0l-.052.051c-.61.611-.61 1.6 0 2.21l9.113 9.114c.61.609 1.599.609 2.21 0L0 2.21C.61 1.6.61.61 0 0" style="fill:#28965a;fill-opacity:1;fill-rule:nonzero;stroke:none" transform="translate(156.863 115.867)"/><path d="m0 0-31.895-31.895c-.61-.61-1.6-.61-2.21 0l-.052.052a1.563 1.563 0 0 0 0 2.21L-2.262 2.263c.61.61 1.599.61 2.21 0L0 2.21C.61 1.6.61.61 0 0" style="fill:#2ceaa3;fill-opacity:1;fill-rule:nonzero;stroke:none" transform="translate(147.153 92.047)"/><path d="m0 0-5.82-5.82a1.561 1.561 0 0 0-2.21 0l-.052.052c-.61.61-.61 1.6 0 2.209l5.82 5.822c.61.609 1.6.609 2.21 0L0 2.21C.61 1.6.61.61 0 0" style="fill:#28965a;fill-opacity:1;fill-rule:nonzero;stroke:none" transform="translate(156.799 101.694)"/><path d="m0 0-1.51-1.51a1.563 1.563 0 0 0-2.21 0l-.052.052c-.61.61-.61 1.6 0 2.21l1.51 1.51c.61.61 1.599.61 2.21 0L0 2.21C.61 1.6.61.61 0 0" style="fill:#28965a;fill-opacity:1;fill-rule:nonzero;stroke:none" transform="translate(161.433 106.328)"/><path d="m0 0-20.581-20.581c-.61-.61-1.6-.61-2.21 0l-.052.053c-.61.61-.61 1.599 0 2.21L-2.262 2.263c.61.61 1.599.61 2.21 0L0 2.21C.61 1.6.61.61 0 0" style="fill:#2ceaa3;fill-opacity:1;fill-rule:nonzero;stroke:none" transform="translate(129.908 81.802)"/><path d="m0 0-9.113-9.112a1.561 1.561 0 0 0-2.21 0l-.052.051c-.61.611-.61 1.6 0 2.21l9.113 9.114c.61.61 1.599.61 2.21 0L0 2.21C.61 1.6.61.61 0 0" style="fill:#28965a;fill-opacity:1;fill-rule:nonzero;stroke:none" transform="translate(142.847 94.74)"/><path d="m0 0-11.889-11.889a1.563 1.563 0 0 0-2.21 0l-.052.052c-.61.61-.61 1.601 0 2.211L-2.263 2.262c.611.61 1.6.61 2.211 0L0 2.21C.61 1.6.61.61 0 0" style="fill:#2ceaa3;fill-opacity:1;fill-rule:nonzero;stroke:none" transform="translate(158.562 110.456)"/><path d="m0 0 17.486 17.485a1.561 1.561 0 0 1 0 2.21l-.052.053c-.61.61-1.6.61-2.21 0L-2.262 2.262c-.61-.611-.61-1.6 0-2.21L-2.21 0C-1.6-.61-.61-.61 0 0" style="fill:#28965a;fill-opacity:1;fill-rule:nonzero;stroke:none" transform="translate(144.635 82.53)"/><path d="m0 0 9.113 9.112c.61.611.61 1.6 0 2.21l-.052.053c-.611.609-1.6.609-2.21 0l-9.113-9.113a1.561 1.561 0 0 1 0-2.21L-2.21 0C-1.6-.61-.61-.61 0 0" style="fill:#2ceaa3;fill-opacity:1;fill-rule:nonzero;stroke:none" transform="translate(131.696 69.593)"/><path d="m0 0 6.955 6.955c.61.61.61 1.6 0 2.21l-.052.052c-.611.61-1.6.61-2.21 0l-6.955-6.955a1.561 1.561 0 0 1 0-2.21L-2.21 0C-1.6-.61-.61-.61 0 0" style="fill:#28965a;fill-opacity:1;fill-rule:nonzero;stroke:none" transform="translate(120.916 58.811)"/><path d="m0 0 18.191 18.191c.61.611.61 1.6 0 2.21l-.052.052c-.611.61-1.6.61-2.21 0L-2.262 2.263a1.561 1.561 0 0 1 0-2.21L-2.21 0C-1.6-.61-.61-.61 0 0" style="fill:#2ceaa3;fill-opacity:1;fill-rule:nonzero;stroke:none" transform="translate(142.577 66.363)"/><path d="m0 0 1.683 1.683c.61.61.61 1.6 0 2.21l-.053.052a1.561 1.561 0 0 1-2.21 0l-1.682-1.682a1.561 1.561 0 0 1 0-2.21L-2.21 0C-1.6-.609-.61-.609 0 0" style="fill:#28965a;fill-opacity:1;fill-rule:nonzero;stroke:none" transform="translate(137.807 61.593)"/><path d="M0 0c.61.61.61 1.6 0 2.21l-.052.053a1.563 1.563 0 0 1-2.21-2.21L-2.21 0C-1.6-.61-.61-.61 0 0" style="fill:#2ceaa3;fill-opacity:1;fill-rule:nonzero;stroke:none" transform="translate(134.917 58.703)"/><path d="m0 0 9.6 9.6c.609.61.609 1.599 0 2.21l-.053.051c-.61.611-1.6.611-2.21 0l-9.599-9.599a1.561 1.561 0 0 1 0-2.21L-2.21 0C-1.6-.61-.61-.61 0 0" style="fill:#2ceaa3;fill-opacity:1;fill-rule:nonzero;stroke:none" transform="translate(152.822 83.608)"/><path d="m0 0 9.113 9.112c.61.611.61 1.6 0 2.21l-.052.053c-.611.61-1.6.61-2.21 0l-9.113-9.113a1.561 1.561 0 0 1 0-2.21L-2.21 0C-1.6-.61-.61-.61 0 0" style="fill:#28965a;fill-opacity:1;fill-rule:nonzero;stroke:none" transform="translate(139.883 70.67)"/><path d="m0 0 9.113 9.113c.61.611.61 1.6 0 2.21l-.052.053c-.611.609-1.6.609-2.21 0l-9.113-9.113a1.561 1.561 0 0 1 0-2.21L-2.21 0C-1.6-.609-.61-.609 0 0" style="fill:#2ceaa3;fill-opacity:1;fill-rule:nonzero;stroke:none" transform="translate(126.945 57.73)"/><path d="m0 0 26.075-26.074a1.602 1.602 0 0 0 0-2.263 1.602 1.602 0 0 0-2.263 0L-2.262-2.263A1.6 1.6 0 0 0 0 0" style="fill:#2ceaa3;fill-opacity:1;fill-rule:nonzero;stroke:none" transform="translate(112.926 134.49)"/><path d="m0 0 15.918-15.919a1.599 1.599 0 1 0-2.262-2.262L-2.262-2.263A1.6 1.6 0 0 0 0 0" style="fill:#2ceaa3;fill-opacity:1;fill-rule:nonzero;stroke:none" transform="translate(124.962 136.565)"/><path d="m0 0 1.813-1.812A1.6 1.6 0 0 0-.449-4.075l-1.813 1.813A1.599 1.599 0 1 0 0 0" style="fill:#28965a;fill-opacity:1;fill-rule:nonzero;stroke:none" transform="translate(144.147 117.38)"/><path d="m0 0 10.98-10.98a1.599 1.599 0 1 0-2.262-2.262L-2.262-2.263A1.6 1.6 0 0 0 0 0" style="fill:#28965a;fill-opacity:1;fill-rule:nonzero;stroke:none" transform="translate(122.08 132.447)"/><path d="m0 0 6.192-6.192A1.599 1.599 0 1 0 3.93-8.454l-6.192 6.192A1.599 1.599 0 1 0 0 0" style="fill:#2ceaa3;fill-opacity:1;fill-rule:nonzero;stroke:none" transform="translate(136.389 118.138)"/><path d="m0 0 .563-.563a1.6 1.6 0 0 0-2.262-2.263l-.563.563A1.6 1.6 0 0 0 0 0" style="fill:#2ceaa3;fill-opacity:1;fill-rule:nonzero;stroke:none" transform="translate(118.202 136.325)"/><path d="m0 0-1.078 1.078A1.599 1.599 0 1 1-3.34-1.184l1.078-1.078A1.599 1.599 0 1 1 0 0" style="fill:#28965a;fill-opacity:1;fill-rule:nonzero;stroke:none" transform="translate(134.239 134.287)"/><path d="m0 0-11.36 11.36a1.6 1.6 0 0 1-2.263-2.261L-2.262-2.263A1.6 1.6 0 0 1 0 0" style="fill:#2ceaa3;fill-opacity:1;fill-rule:nonzero;stroke:none" transform="translate(149.477 119.049)"/><path d="m0 0-2.492 2.491A1.599 1.599 0 1 1-4.754.229l2.492-2.492A1.599 1.599 0 1 1 0 0" style="fill:#2ceaa3;fill-opacity:1;fill-rule:nonzero;stroke:none" transform="translate(146.1 129.536)"/><path d="m0 0-3.601 3.601a1.599 1.599 0 1 1-2.262-2.262l3.601-3.601A1.599 1.599 0 1 1 0 0" style="fill:#28965a;fill-opacity:1;fill-rule:nonzero;stroke:none" transform="translate(152.882 122.753)"/><path d="M0 0a8.579 8.579 0 1 0-17.157.001A8.579 8.579 0 0 0 0 0" style="fill:#80f2c8;fill-opacity:1;fill-rule:nonzero;stroke:none" transform="translate(115.616 113.111)"/><path d="M0 0a5.619 5.619 0 1 0-11.237 0A5.619 5.619 0 0 0 0 0" style="fill:#2ceaa3;fill-opacity:1;fill-rule:nonzero;stroke:none" transform="translate(123.395 98.54)"/><path d="M0 0a5.619 5.619 0 1 0-11.237 0A5.619 5.619 0 0 0 0 0" style="fill:#2ceaa3;fill-opacity:1;fill-rule:nonzero;stroke:none" transform="translate(98.819 100.589)"/><path d="M0 0a8.718 8.718 0 1 0-17.436.002A8.718 8.718 0 0 0 0 0" style="fill:#28965a;fill-opacity:1;fill-rule:nonzero;stroke:none" transform="translate(113.966 87.44)"/><path d="M0 0a3.844 3.844 0 1 0-7.687.001A3.844 3.844 0 0 0 0 0Z" style="fill:none;stroke:#28965a;stroke-width:.5;stroke-linecap:butt;stroke-linejoin:miter;stroke-miterlimit:10;stroke-dasharray:none;stroke-opacity:1" transform="translate(125.462 110.068)"/><path d="M0 0a3.843 3.843 0 1 0-7.687.001A3.843 3.843 0 0 0 0 0Z" style="fill:none;stroke:#28965a;stroke-width:.5;stroke-linecap:butt;stroke-linejoin:miter;stroke-miterlimit:10;stroke-dasharray:none;stroke-opacity:1" transform="translate(93.2 87.44)"/><path d="M0 0h-56.426l-28.212-48.866 28.212-48.865H0l28.213 48.865z" style="fill:#2a6041;fill-opacity:1;fill-rule:nonzero;stroke:none" transform="translate(442.811 443.959)"/><path d="M0 0h-52.414l-26.208-45.393 26.208-45.392H0l26.208 45.392z" style="fill:none;stroke:#6bffb8;stroke-width:.977;stroke-linecap:butt;stroke-linejoin:miter;stroke-miterlimit:10;stroke-dasharray:2;stroke-dashoffset:0;stroke-opacity:1" transform="translate(440.805 440.486)"/><path d="M0 0a6.57 6.57 0 0 0-6.571 6.571v52.794H6.57V6.571A6.57 6.57 0 0 0 0 0" style="fill:#2ceaa3;fill-opacity:1;fill-rule:nonzero;stroke:none" transform="translate(424.783 357.775)"/><path d="M0 0c0-.656 1.455-1.187 3.25-1.187S6.499-.656 6.499 0 5.045 1.187 3.25 1.187C1.455 1.187 0 .656 0 0" style="fill:#20b07a;fill-opacity:1;fill-rule:nonzero;stroke:none" transform="translate(423.53 404.045)"/><path d="M0 0c-1-.013-1.799-.211-2.43-.484v-40.254a5.248 5.248 0 1 1 10.495 0v39.372c-.576-.471-1.373-.883-2.399-.883C3.266-2.249 3.417.043 0 0" style="fill:#fff;fill-opacity:1;fill-rule:nonzero;stroke:none" transform="translate(421.964 405.384)"/><g clip-path="url(#u)" opacity=".3"><path d="M0 0a.782.782 0 1 1 0-1.563h.418v-52.794a6.57 6.57 0 0 1 3.578-5.85V0Z" style="fill:#fff;fill-opacity:1;fill-rule:nonzero;stroke:none" transform="translate(417.794 418.703)"/></g><path d="M0 0h-13.978a.782.782 0 0 1 0-1.563H0A.781.781 0 1 1 0 0" style="fill:#2ceaa3;fill-opacity:1;fill-rule:nonzero;stroke:none" transform="translate(431.771 418.703)"/><g clip-path="url(#v)" opacity=".2"><path d="M418.212 416.158h13.142v.981h-13.142z" style="fill:#2a6041;fill-opacity:1;fill-rule:nonzero;stroke:none"/></g><g clip-path="url(#w)" opacity=".34"><path d="M0 0a1.284 1.284 0 1 1-2.567 0A1.284 1.284 0 0 1 0 0" style="fill:#28965a;fill-opacity:1;fill-rule:nonzero;stroke:none" transform="translate(429.086 390.246)"/><path d="M0 0a1.31 1.31 0 1 1-2.62.001A1.31 1.31 0 0 1 0 0" style="fill:#28965a;fill-opacity:1;fill-rule:nonzero;stroke:none" transform="translate(427.801 396.565)"/><path d="M0 0a.936.936 0 1 1-1.872 0A.936.936 0 0 1 0 0" style="fill:#28965a;fill-opacity:1;fill-rule:nonzero;stroke:none" transform="translate(424.334 399.84)"/><path d="M0 0a2.32 2.32 0 1 1-4.642 0A2.32 2.32 0 0 1 0 0" style="fill:#28965a;fill-opacity:1;fill-rule:nonzero;stroke:none" transform="translate(425.12 392.625)"/><path d="M0 0a1.284 1.284 0 1 0 2.568 0A1.284 1.284 0 0 0 0 0" style="fill:#28965a;fill-opacity:1;fill-rule:nonzero;stroke:none" transform="translate(420.48 376.832)"/><path d="M0 0a1.311 1.311 0 1 0 2.622 0A1.311 1.311 0 0 0 0 0" style="fill:#28965a;fill-opacity:1;fill-rule:nonzero;stroke:none" transform="translate(421.763 383.152)"/><path d="M0 0a.937.937 0 1 0 1.874-.002A.937.937 0 0 0 0 0" style="fill:#28965a;fill-opacity:1;fill-rule:nonzero;stroke:none" transform="translate(425.231 386.427)"/><path d="M0 0a2.32 2.32 0 1 0 4.64.002A2.32 2.32 0 0 0 0 0" style="fill:#28965a;fill-opacity:1;fill-rule:nonzero;stroke:none" transform="translate(424.445 379.212)"/></g><path d="M0 0a1.284 1.284 0 1 1-2.568 0A1.284 1.284 0 0 1 0 0Z" style="fill:none;stroke:#6bffb8;stroke-width:.162;stroke-linecap:butt;stroke-linejoin:miter;stroke-miterlimit:10;stroke-dasharray:none;stroke-opacity:1" transform="translate(409.69 422.1)"/><path d="M0 0a1.311 1.311 0 1 1-2.622 0A1.311 1.311 0 0 1 0 0Z" style="fill:none;stroke:#6bffb8;stroke-width:.162;stroke-linecap:butt;stroke-linejoin:miter;stroke-miterlimit:10;stroke-dasharray:none;stroke-opacity:1" transform="translate(408.406 428.42)"/><path d="M0 0a.937.937 0 1 1-1.874-.002A.937.937 0 0 1 0 0Z" style="fill:none;stroke:#6bffb8;stroke-width:.162;stroke-linecap:butt;stroke-linejoin:miter;stroke-miterlimit:10;stroke-dasharray:none;stroke-opacity:1" transform="translate(404.938 431.694)"/><path d="M0 0a2.32 2.32 0 1 1-4.64.002A2.32 2.32 0 0 1 0 0Z" style="fill:none;stroke:#6bffb8;stroke-width:.162;stroke-linecap:butt;stroke-linejoin:miter;stroke-miterlimit:10;stroke-dasharray:none;stroke-opacity:1" transform="translate(405.724 424.479)"/><path d="M0 0a6.57 6.57 0 0 0-6.57 6.571v52.794H6.571V6.571A6.57 6.57 0 0 0 0 0" style="fill:#2ceaa3;fill-opacity:1;fill-rule:nonzero;stroke:none" transform="translate(405.386 357.775)"/><path d="M0 0c0-.656 1.455-1.187 3.249-1.187 1.795 0 3.25.531 3.25 1.187s-1.455 1.187-3.25 1.187C1.455 1.187 0 .656 0 0" style="fill:#2a6041;fill-opacity:1;fill-rule:nonzero;stroke:none" transform="translate(404.135 404.045)"/><path d="M0 0c-.999-.013-1.798-.211-2.429-.484v-40.254a5.247 5.247 0 1 1 10.495 0v39.372c-.576-.471-1.373-.883-2.4-.883C3.267-2.249 3.417.043 0 0" style="fill:#28965a;fill-opacity:1;fill-rule:nonzero;stroke:none" transform="translate(402.568 405.384)"/><path d="M0 0h-13.979a.782.782 0 0 1 0-1.563H0A.782.782 0 1 1 0 0" style="fill:#2ceaa3;fill-opacity:1;fill-rule:nonzero;stroke:none" transform="translate(412.376 418.703)"/><g clip-path="url(#x)" opacity=".2"><path d="M398.816 416.158h13.142v.981h-13.142z" style="fill:#2a6041;fill-opacity:1;fill-rule:nonzero;stroke:none"/></g><g clip-path="url(#y)" opacity=".34"><path d="M0 0a1.284 1.284 0 1 1-2.568 0A1.284 1.284 0 0 1 0 0" style="fill:#28965a;fill-opacity:1;fill-rule:nonzero;stroke:none" transform="translate(409.69 390.246)"/><path d="M0 0a1.311 1.311 0 1 1-2.622 0A1.311 1.311 0 0 1 0 0" style="fill:#28965a;fill-opacity:1;fill-rule:nonzero;stroke:none" transform="translate(408.406 396.565)"/><path d="M0 0a.937.937 0 1 1-1.874-.002A.937.937 0 0 1 0 0" style="fill:#28965a;fill-opacity:1;fill-rule:nonzero;stroke:none" transform="translate(404.938 399.84)"/><path d="M0 0a2.32 2.32 0 1 1-4.64.002A2.32 2.32 0 0 1 0 0" style="fill:#28965a;fill-opacity:1;fill-rule:nonzero;stroke:none" transform="translate(405.724 392.625)"/><path d="M0 0a1.283 1.283 0 1 0 2.567.001A1.283 1.283 0 0 0 0 0" style="fill:#28965a;fill-opacity:1;fill-rule:nonzero;stroke:none" transform="translate(401.084 376.832)"/><path d="M0 0a1.311 1.311 0 1 0 2.623 0A1.311 1.311 0 0 0 0 0" style="fill:#28965a;fill-opacity:1;fill-rule:nonzero;stroke:none" transform="translate(402.367 383.152)"/><path d="M0 0a.936.936 0 1 0 1.872 0A.936.936 0 0 0 0 0" style="fill:#28965a;fill-opacity:1;fill-rule:nonzero;stroke:none" transform="translate(405.836 386.427)"/><path d="M0 0a2.32 2.32 0 1 0 4.642 0A2.32 2.32 0 0 0 0 0" style="fill:#28965a;fill-opacity:1;fill-rule:nonzero;stroke:none" transform="translate(405.048 379.212)"/></g><g clip-path="url(#z)" opacity=".3"><path d="M0 0a.781.781 0 0 1 0-1.563h.419v-52.794a6.572 6.572 0 0 1 3.577-5.85V0Z" style="fill:#fff;fill-opacity:1;fill-rule:nonzero;stroke:none" transform="translate(398.397 418.703)"/></g><path d="M0 0a1.283 1.283 0 1 0-2.567-.001A1.283 1.283 0 0 0 0 0Z" style="fill:none;stroke:#6bffb8;stroke-width:.162;stroke-linecap:butt;stroke-linejoin:miter;stroke-miterlimit:10;stroke-dasharray:none;stroke-opacity:1" transform="translate(428.274 431.346)"/><path d="M0 0a1.311 1.311 0 1 0-2.622 0A1.311 1.311 0 0 0 0 0Z" style="fill:none;stroke:#6bffb8;stroke-width:.162;stroke-linecap:butt;stroke-linejoin:miter;stroke-miterlimit:10;stroke-dasharray:none;stroke-opacity:1" transform="translate(426.99 425.027)"/><path d="M0 0a.936.936 0 1 0-1.872 0A.936.936 0 0 0 0 0Z" style="fill:none;stroke:#6bffb8;stroke-width:.162;stroke-linecap:butt;stroke-linejoin:miter;stroke-miterlimit:10;stroke-dasharray:none;stroke-opacity:1" transform="translate(423.522 421.752)"/><path d="M0 0a2.32 2.32 0 1 0-4.64 0A2.32 2.32 0 0 0 0 0Z" style="fill:none;stroke:#6bffb8;stroke-width:.162;stroke-linecap:butt;stroke-linejoin:miter;stroke-miterlimit:10;stroke-dasharray:none;stroke-opacity:1" transform="translate(424.31 428.966)"/></g></svg>