<svg width="667" height="667" viewBox="0 0 667 667" fill="none" xmlns="http://www.w3.org/2000/svg">
<mask id="mask0_762_231" style="mask-type:luminance" maskUnits="userSpaceOnUse" x="63" y="122" width="543" height="435">
<path d="M63.8264 122.122H605.916V556.441H63.8264V122.122Z" fill="white"/>
</mask>
<g mask="url(#mask0_762_231)">
<path d="M603.694 422.06C594.802 468.337 559.216 511.169 516.289 530.207C471.187 550.213 420.3 555.421 371.456 556.355C311.507 557.502 251.27 547.157 195.381 525.351C143.668 505.177 103.236 458.95 81.8677 407.922C48.8038 328.96 60.4757 232.62 122.78 171.51C145.842 148.89 174.782 131.794 206.391 125.132C238.002 118.472 272.257 122.728 300.031 139.224C348.876 168.236 371.752 229.418 420.881 257.947C433.552 265.304 447.391 269.992 461.548 273.536C474.987 276.9 488.351 276.596 501.953 279.3C528.816 284.639 554.045 298.457 572.6 318.66C587.752 335.157 598.284 355.739 603.29 377.542C606.961 393.533 606.485 407.536 603.694 422.06Z" fill="#F0F0E6"/>
</g>
<mask id="mask1_762_231" style="mask-type:luminance" maskUnits="userSpaceOnUse" x="56" y="59" width="549" height="532">
<path d="M56.9465 59.2139H604.281V590.426H56.9465V59.2139Z" fill="white"/>
</mask>
<g mask="url(#mask1_762_231)">
<path d="M223.218 454.825L110.08 516.465C105.312 511.905 98.8639 509.087 91.7466 509.087C77.0853 509.087 65.2 520.973 65.2 535.634C65.2 550.295 77.0853 562.181 91.7466 562.181C106.408 562.181 118.293 550.295 118.293 535.634C118.293 529.498 116.192 523.865 112.696 519.37L225.038 458.165L223.218 454.825Z" fill="#CBDDFE"/>
<path d="M572.861 410.797C557.239 410.797 544.284 422.201 541.855 437.137L465.011 424.441L464.784 424.042L464.292 424.322L298.393 396.913L297.774 400.664L462.597 427.894L527.165 541.785C520.032 546.545 515.329 554.659 515.329 563.878C515.329 578.539 527.215 590.425 541.876 590.425C556.537 590.425 568.423 578.539 568.423 563.878C568.423 549.217 556.537 537.331 541.876 537.331C537.792 537.331 533.94 538.281 530.484 539.927L467.42 428.692L541.472 440.926C541.453 441.357 541.442 441.787 541.44 442.218C541.44 459.572 555.508 473.64 572.861 473.64C590.215 473.64 604.282 459.572 604.282 442.218C604.282 424.865 590.215 410.797 572.861 410.797Z" fill="#CBDDFE"/>
<path d="M318.871 82.5831C318.871 69.6765 308.409 59.2139 295.502 59.2139C282.595 59.2139 272.131 69.6765 272.131 82.5831C272.131 87.7444 273.826 92.4991 276.659 96.3658L157.413 198.095L108.434 136.784C112.722 132.425 115.123 126.554 115.117 120.439C115.117 107.532 104.654 97.0698 91.7478 97.0698C78.8411 97.0698 68.3772 107.532 68.3772 120.439C68.3772 133.346 78.8411 143.808 91.7478 143.808C96.9184 143.808 101.68 142.108 105.55 139.266L166.057 215.008L108.225 334.669C104.953 333.829 101.522 333.383 97.9891 333.383C75.3212 333.383 56.9465 351.757 56.9465 374.424C56.9465 397.09 75.3212 415.465 97.9891 415.465C120.656 415.465 139.03 397.09 139.03 374.424C139.03 356.641 127.718 341.504 111.9 335.805L168.689 218.301L198.449 255.556L201.42 253.183L159.786 201.067L279.135 99.2524C283.497 103.551 289.378 105.958 295.502 105.952C308.409 105.952 318.871 95.4898 318.871 82.5831Z" fill="#CBDDFE"/>
<path d="M388.754 150.06C393.808 150.06 398.579 148.86 402.81 146.74L462.008 219.963L461.382 221.435L464.151 222.613L486.067 249.72L489.023 247.329L466.4 219.348L491.234 160.958C497.941 164.146 505.276 165.797 512.703 165.788C540.351 165.788 562.764 143.375 562.764 115.727C562.764 88.0792 540.351 65.6659 512.703 65.6659C485.055 65.6659 462.642 88.0792 462.642 115.727C462.642 134.33 472.798 150.551 487.859 159.18L463.694 216L406.139 144.811C414.598 139.182 420.175 129.563 420.175 118.639C420.175 101.286 406.107 87.2178 388.754 87.2178C371.4 87.2178 357.333 101.286 357.333 118.639C357.333 135.992 371.4 150.06 388.754 150.06Z" fill="#CBDDFE"/>
</g>
<path d="M579.921 361.993H262.275C260.734 361.993 259.256 361.381 258.166 360.291C257.077 359.202 256.465 357.724 256.465 356.183V148.112C256.465 147.349 256.615 146.594 256.907 145.889C257.199 145.184 257.627 144.544 258.167 144.004C258.706 143.465 259.347 143.037 260.052 142.745C260.757 142.453 261.512 142.303 262.275 142.303H579.921C580.684 142.303 581.44 142.453 582.145 142.745C582.85 143.037 583.49 143.465 584.03 144.004C584.569 144.544 584.997 145.184 585.289 145.889C585.581 146.594 585.732 147.349 585.732 148.112V356.183C585.732 357.724 585.12 359.202 584.03 360.291C582.94 361.381 581.462 361.993 579.921 361.993Z" fill="#5075F7"/>
<path d="M568.109 349.66H274.09C272.757 349.66 271.48 349.13 270.537 348.188C269.595 347.246 269.066 345.968 269.066 344.636V159.66C269.066 158.328 269.595 157.05 270.537 156.108C271.48 155.166 272.757 154.636 274.09 154.636H568.109C569.442 154.636 570.72 155.166 571.662 156.108C572.604 157.05 573.133 158.328 573.133 159.66V344.636C573.133 345.968 572.604 347.246 571.662 348.188C570.72 349.13 569.442 349.66 568.109 349.66Z" fill="#C8DCFE"/>
<path d="M552.654 307.876L551.501 307.796L554.9 258.673L533.468 229.929L534.396 229.237L556.082 258.325L552.654 307.876Z" fill="white"/>
<path d="M462.857 196.396H296.498C294.6 196.396 292.78 195.642 291.437 194.3C290.095 192.958 289.341 191.138 289.341 189.24V183.851C289.341 181.953 290.095 180.133 291.437 178.791C292.78 177.449 294.6 176.695 296.498 176.695H462.857C463.797 176.695 464.728 176.88 465.596 177.24C466.464 177.599 467.253 178.126 467.918 178.791C468.582 179.455 469.109 180.244 469.469 181.112C469.828 181.981 470.013 182.911 470.013 183.851V189.24C470.013 191.138 469.26 192.958 467.918 194.3C466.576 195.642 464.755 196.396 462.857 196.396Z" fill="#4269D3"/>
<path d="M347.087 210.432H291.722C290.407 210.432 289.341 209.365 289.341 208.051V206.257C289.341 204.941 290.407 203.875 291.722 203.875H347.087C348.403 203.875 349.468 204.941 349.468 206.257V208.051C349.468 209.365 348.403 210.432 347.087 210.432Z" fill="#4269D3"/>
<path d="M347.087 222.88H291.722C290.407 222.88 289.341 221.813 289.341 220.499V218.705C289.341 217.389 290.407 216.323 291.722 216.323H347.087C348.403 216.323 349.468 217.389 349.468 218.705V220.499C349.468 221.813 348.403 222.88 347.087 222.88Z" fill="#4269D3"/>
<path d="M521.663 315.424L520.095 288.08L553.979 277.285L554.331 278.387L521.3 288.909L522.816 315.357L521.663 315.424Z" fill="white"/>
<path d="M540.34 229.583C540.352 230.432 540.195 231.275 539.879 232.063C539.562 232.851 539.092 233.569 538.496 234.173C537.899 234.778 537.189 235.258 536.405 235.586C535.622 235.914 534.781 236.083 533.932 236.083C533.082 236.082 532.242 235.914 531.458 235.586C530.675 235.258 529.964 234.777 529.368 234.172C528.772 233.567 528.302 232.85 527.986 232.062C527.669 231.274 527.513 230.431 527.525 229.581C527.55 227.898 528.235 226.292 529.435 225.11C530.634 223.929 532.25 223.266 533.933 223.267C535.617 223.267 537.232 223.929 538.431 225.111C539.63 226.293 540.316 227.899 540.34 229.583Z" fill="#4269D3"/>
<path d="M527.105 288.495C527.118 289.344 526.961 290.187 526.644 290.975C526.328 291.763 525.857 292.48 525.261 293.085C524.665 293.69 523.954 294.17 523.171 294.498C522.387 294.826 521.547 294.994 520.697 294.994C519.848 294.994 519.007 294.825 518.224 294.497C517.44 294.17 516.73 293.689 516.134 293.084C515.538 292.479 515.068 291.762 514.751 290.974C514.435 290.186 514.278 289.343 514.291 288.493C514.315 286.81 515.001 285.204 516.2 284.022C517.399 282.841 519.015 282.178 520.699 282.178C522.382 282.179 523.998 282.841 525.197 284.023C526.396 285.205 527.081 286.811 527.105 288.495Z" fill="#4269D3"/>
<path d="M558.485 307.836C558.497 308.685 558.341 309.528 558.024 310.316C557.707 311.104 557.237 311.822 556.641 312.426C556.045 313.031 555.334 313.511 554.551 313.839C553.767 314.167 552.927 314.336 552.077 314.336C551.228 314.336 550.387 314.167 549.604 313.839C548.82 313.511 548.11 313.03 547.514 312.426C546.918 311.821 546.448 311.103 546.131 310.315C545.815 309.527 545.658 308.684 545.671 307.835C545.695 306.151 546.381 304.545 547.58 303.363C548.779 302.182 550.395 301.519 552.079 301.52C553.762 301.52 555.378 302.183 556.577 303.364C557.776 304.546 558.461 306.153 558.485 307.836Z" fill="#4269D3"/>
<path d="M560.411 258.5C560.411 259.805 559.892 261.056 558.97 261.978C558.047 262.9 556.796 263.419 555.492 263.419C554.187 263.419 552.936 262.9 552.014 261.978C551.091 261.056 550.573 259.805 550.573 258.5C550.573 257.196 551.091 255.944 552.014 255.022C552.936 254.1 554.187 253.581 555.492 253.581C556.796 253.581 558.047 254.1 558.97 255.022C559.892 255.944 560.411 257.196 560.411 258.5Z" fill="#4269D3"/>
<path d="M527.159 315.391C527.169 316.043 527.05 316.692 526.807 317.298C526.565 317.904 526.204 318.456 525.746 318.922C525.288 319.387 524.742 319.757 524.14 320.009C523.538 320.261 522.892 320.391 522.239 320.391C521.586 320.391 520.939 320.261 520.337 320.008C519.735 319.756 519.189 319.386 518.731 318.921C518.274 318.455 517.913 317.903 517.671 317.297C517.428 316.691 517.309 316.042 517.32 315.389C517.341 314.099 517.869 312.868 518.79 311.963C519.71 311.058 520.949 310.551 522.24 310.551C523.531 310.551 524.77 311.059 525.69 311.964C526.61 312.869 527.138 314.1 527.159 315.391Z" fill="#4269D3"/>
<path d="M527.239 191.258L485.256 177.899C485.219 178.042 485.19 178.183 485.144 178.327C484.96 178.912 484.808 179.5 484.671 180.09L526.552 193.416C527.944 193.859 528.631 191.7 527.239 191.258Z" fill="#DCAB2B"/>
<path d="M523.313 200.556L483.923 188.023C483.935 188.823 483.96 189.624 484.006 190.425L521.516 202.361C522.127 201.767 522.724 201.165 523.313 200.556Z" fill="#DCAB2B"/>
<path d="M514.926 208.436L484.746 198.834C484.822 199.65 484.891 200.464 484.948 201.275L512.223 209.953C513.191 209.597 514.082 209.061 514.926 208.436Z" fill="#DCAB2B"/>
<path d="M503.545 231.185L478.353 223.169C477.723 223.764 477.091 224.356 476.456 224.943L504.277 233.796C504.02 232.93 503.776 232.059 503.545 231.185Z" fill="#DCAB2B"/>
<path d="M507.036 242.844L469.934 231.039C469.324 231.633 468.72 232.232 468.127 232.84L507.704 245.433C507.5 244.567 507.276 243.704 507.036 242.844Z" fill="#DCAB2B"/>
<path d="M507.428 253.517L463.186 239.44C462.947 239.362 462.689 239.373 462.458 239.471C462.219 239.801 461.987 240.14 461.755 240.479C461.719 240.943 461.924 241.416 462.499 241.599L506.742 255.676C508.134 256.119 508.82 253.96 507.428 253.517Z" fill="#DCAB2B"/>
<path d="M459.596 250.72L503.839 264.797C505.231 265.24 505.917 263.081 504.526 262.639L460.283 248.561C458.891 248.119 458.204 250.277 459.596 250.72Z" fill="#DCAB2B"/>
<path d="M501.59 272.28C501.548 272.263 501.523 272.232 501.478 272.217L457.731 258.299C457.767 259.119 457.836 259.932 457.938 260.741L499.724 274.037C500.35 273.455 500.978 272.875 501.59 272.28Z" fill="#DCAB2B"/>
<path d="M492.844 280.019L460.018 269.573C460.296 270.459 460.584 271.341 460.878 272.224L490.61 281.685C491.356 281.132 492.103 280.58 492.844 280.019Z" fill="#DCAB2B"/>
<path d="M482.085 306.231L451.712 296.567C451.128 297.164 450.577 297.787 450.02 298.405L483.321 309.001C482.981 308.079 482.561 307.156 482.085 306.231Z" fill="#DCAB2B"/>
<path d="M484.896 317.672L444.842 304.927C444.391 305.572 443.952 306.225 443.524 306.885L484.868 320.04C484.902 319.249 484.914 318.46 484.896 317.672Z" fill="#DCAB2B"/>
<path d="M483.995 327.988C483.922 327.945 483.863 327.893 483.772 327.864L439.615 313.813C439.286 314.485 438.967 315.161 438.658 315.841C438.722 315.875 438.767 315.921 438.843 315.945L483.086 330.023C483.277 330.083 483.482 330.089 483.676 330.039C483.784 329.353 483.891 328.669 483.995 327.988Z" fill="#DCAB2B"/>
<path d="M482.771 170.508C475.832 184.472 482.507 200.386 489.36 213.108C496.073 225.571 505.667 238.235 505.427 253.028C505.292 261.304 500.904 269.648 494.825 275.073C488.343 280.86 479.212 283.424 471.181 286.18C455.372 291.605 439.352 301.464 434.721 318.652C433.775 322.167 439.167 323.899 440.117 320.369C445.381 300.831 465.172 294.532 482.037 288.321C496.379 283.041 507.668 273.456 510.573 257.823C512.998 244.776 506.695 232.335 500.496 221.308C493.121 208.188 479.847 189.036 487.517 173.599C489.125 170.363 484.392 167.246 482.771 170.508Z" fill="#00BFB2"/>
<path d="M526.857 186.116C524.273 202.658 503.268 210.756 489.941 216.969C478.168 222.457 465.884 228.812 459.695 240.844C452.589 254.656 456.132 269.227 464.164 281.612C474.247 297.16 488.039 313.445 480.728 333.292C479.464 336.721 484.865 338.424 486.124 335.008C492.047 318.932 485.404 301.943 476.052 288.724C470.995 281.575 465.411 274.58 462.655 266.145C460.056 258.195 461.58 248.852 465.667 241.671C472.843 229.064 488.961 223.807 501.287 217.897C514.631 211.501 530.047 202.152 532.517 186.338C533.079 182.739 527.415 182.547 526.857 186.116Z" fill="#00BFB2"/>
<path d="M329.293 301.643L306.519 254.277L307.561 253.776L330.335 301.141L329.293 301.643Z" fill="white"/>
<path d="M289.79 296.361L288.891 295.635L312.445 266.469L313.343 267.196L289.79 296.361Z" fill="white"/>
<path d="M312.894 250.42C312.894 252.49 312.072 254.475 310.608 255.938C309.145 257.402 307.16 258.224 305.09 258.224C303.02 258.224 301.035 257.402 299.572 255.938C298.108 254.475 297.286 252.49 297.286 250.42C297.286 248.35 298.108 246.365 299.572 244.902C301.035 243.438 303.02 242.616 305.09 242.616C307.16 242.616 309.145 243.438 310.608 244.902C312.072 246.365 312.894 248.35 312.894 250.42Z" fill="#00BFB2"/>
<path d="M338.991 303.908C338.991 305.978 338.169 307.963 336.706 309.426C335.242 310.89 333.257 311.712 331.187 311.712C329.118 311.712 327.133 310.89 325.669 309.426C324.206 307.963 323.383 305.978 323.383 303.908C323.383 301.838 324.206 299.853 325.669 298.39C327.133 296.926 329.118 296.104 331.187 296.104C333.257 296.104 335.242 296.926 336.706 298.39C338.169 299.853 338.991 301.838 338.991 303.908Z" fill="#00BFB2"/>
<path d="M293.731 296.801C293.731 298.218 293.169 299.578 292.167 300.58C291.165 301.582 289.806 302.145 288.389 302.145C286.972 302.145 285.612 301.583 284.61 300.581C283.608 299.579 283.045 298.22 283.045 296.803C283.045 295.385 283.607 294.026 284.609 293.024C285.611 292.022 286.97 291.459 288.387 291.459C289.804 291.458 291.164 292.021 292.166 293.023C293.168 294.025 293.731 295.384 293.731 296.801Z" fill="#00BFB2"/>
<path d="M470.365 197.807C466.932 214.759 449.975 225.629 432.492 222.088C415.008 218.547 403.619 201.933 407.052 184.982C410.485 168.031 427.443 157.159 444.925 160.7C462.409 164.243 473.799 180.855 470.365 197.807Z" fill="#080A54"/>
<path d="M329.826 253.235C328.477 243.592 327.581 233.788 328.814 224.129C330.047 214.472 333.554 204.888 340.101 197.68C350.251 186.502 366.49 184.459 380.772 185.516C391.05 186.276 400.634 189.467 410.684 191.328C419.544 192.969 428.354 192.588 436.564 197.009C445.072 201.592 448.586 209.364 450.127 218.491C454.584 219.193 458.692 221.873 461.132 225.669C466.084 233.371 464.884 244.443 463.118 252.885C460.962 263.196 456.879 273.109 451.092 281.915" fill="#050766"/>
<path d="M333.408 247.899C329.012 247.496 325.184 250.993 322.933 254.791C319.631 260.357 318.387 267.113 319.49 273.491C320.657 280.239 324.392 287.456 331.538 289.228" fill="#E86B66"/>
<path d="M480.3 376.76C465.654 349.864 418.847 345.737 403.736 345.108C397.814 349.588 390.44 352.178 383.007 352.09C374.866 351.996 366.871 348.694 360.83 343.256C360.727 343.26 360.629 343.281 360.523 343.278C346.65 342.901 305.353 344.825 293.681 379.897C279.582 422.262 335.807 460.249 335.807 460.249C335.807 460.249 306.309 551.439 309.413 553.126C312.517 554.811 399.055 594.123 485.712 545.583L472.356 502.917L505.88 435.326C505.88 435.326 498.811 410.753 480.3 376.76Z" fill="#FFEBE3"/>
<path d="M409.891 452.234C418.203 443.445 429.471 430.174 429.339 417.514C429.265 410.494 426.251 403.55 421.171 398.705C425.915 397.656 430.805 396.542 434.745 393.7C445.997 385.582 439.772 369.756 433.509 360.497C429.809 355.026 425.047 350.28 419.616 346.486C413.048 345.629 407.438 345.261 403.736 345.106C401.886 346.495 399.902 347.696 397.815 348.693L376.106 444.434L374.612 474.882C388.016 470.423 400.196 462.486 409.891 452.234Z" fill="#EFDDD7"/>
<path d="M334.056 353.091C326.595 361.413 318.277 376.246 328.32 385.818C331.838 389.17 336.532 390.937 341.09 392.621C335.398 396.732 331.468 403.201 330.442 410.146C328.591 422.67 337.952 437.349 344.992 447.186C353.204 458.661 364.192 468.18 376.866 474.418L379.524 444.049L371.328 349.752C367.471 348.227 363.916 346.027 360.83 343.256C360.727 343.26 360.628 343.281 360.523 343.277C355.212 343.145 349.898 343.407 344.626 344.063C340.732 346.611 337.155 349.635 334.056 353.091Z" fill="#EFDDD7"/>
<path d="M403.736 345.108C397.815 349.588 390.44 352.178 383.007 352.09C374.866 351.996 366.871 348.694 360.831 343.256C360.727 343.26 360.628 343.281 360.523 343.279C358.152 343.218 355.779 343.237 353.408 343.337C353.682 366.401 356.063 436.59 374.53 469.536C374.53 469.536 403.082 419.337 412.135 345.665C408.803 345.368 405.928 345.2 403.736 345.108Z" fill="#00BFB2"/>
<path d="M365.91 327.141L365.339 338.813C365.281 340.04 364.743 341.194 363.843 342.029C362.943 342.864 361.751 343.313 360.523 343.279C360.628 343.281 360.727 343.26 360.831 343.256C366.871 348.694 374.866 351.996 383.007 352.09C390.44 352.178 397.815 349.588 403.736 345.108L403.258 345.086C402.084 345.042 400.971 344.56 400.136 343.734C399.301 342.909 398.806 341.8 398.748 340.628L398.158 328.768C415.968 326.108 433.36 308.585 433.36 308.585C433.36 308.585 452.5 313.711 457.464 292.324C462.436 270.911 439.702 269.805 439.702 269.805C439.702 269.805 443.495 253.533 440.532 229.251C437.571 204.968 374.166 198.835 374.166 198.835C374.166 198.835 346.23 194.006 335.763 232.613C325.295 271.22 319.33 322.799 365.91 327.141Z" fill="#F67671"/>
<path d="M450.16 283.019C450.235 282.965 450.042 282.444 449.36 281.728C448.69 281.016 447.458 280.172 445.722 279.731C443.66 279.232 441.493 279.409 439.54 280.236C437.311 281.175 435.342 283.097 434.068 285.489C432.891 287.74 432.291 290.248 432.323 292.788C432.336 295.099 432.782 297.124 433.275 298.755C434.314 302.016 435.447 303.793 435.63 303.712C435.874 303.613 435.132 301.661 434.428 298.456C434.098 296.855 433.804 294.928 433.875 292.811C433.928 290.703 434.432 288.404 435.554 286.28C436.675 284.175 438.347 282.504 440.175 281.652C441.832 280.885 443.679 280.622 445.484 280.896C446.719 281.084 447.898 281.539 448.939 282.229C449.683 282.732 450.051 283.105 450.16 283.019Z" fill="#9F3A35"/>
<path d="M442.243 296.052C442.432 296.133 443.008 295.419 443.139 293.993C443.281 292.611 442.816 290.476 441.131 288.921C439.428 287.384 437.26 287.115 435.897 287.383C434.489 287.643 433.829 288.281 433.928 288.463C434.031 288.692 434.807 288.499 435.977 288.571C437.132 288.627 438.748 289.035 439.995 290.165C441.235 291.303 441.788 292.876 441.948 294.021C442.127 295.181 442.004 295.971 442.243 296.052Z" fill="#9F3A35"/>
<path d="M378.416 274.712C378.32 274.635 377.824 275.136 376.946 275.996C376.074 276.807 374.716 278.137 372.718 278.285C371.784 278.349 370.686 277.965 370.151 277.115C369.57 276.257 369.78 275.132 370.492 273.929C371.196 272.741 372.11 271.351 372.826 269.903C373.592 268.453 374.256 266.891 374.876 265.269C377.283 258.727 377.702 252.316 377.294 247.823C376.928 243.296 375.907 240.649 375.738 240.7C375.458 240.759 376.052 243.471 376.104 247.881C376.2 252.271 375.607 258.401 373.296 264.688C372.699 266.247 372.074 267.753 371.356 269.155C370.664 270.597 369.892 271.815 369.131 273.185C368.768 273.88 368.438 274.641 368.359 275.499C368.279 276.35 368.505 277.202 368.998 277.901C369.983 279.26 371.584 279.633 372.831 279.471C373.928 279.312 374.96 278.853 375.812 278.145C376.548 277.553 377.048 276.936 377.436 276.431C378.192 275.404 378.5 274.78 378.416 274.712Z" fill="#9F3A35"/>
<path d="M353.904 270.113C354.368 270.128 354.86 266.501 355.002 262.013C355.142 257.525 354.88 253.875 354.415 253.86C353.951 253.845 353.459 257.472 353.318 261.96C353.178 266.448 353.439 270.099 353.904 270.113Z" fill="#9F3A35"/>
<path d="M399.292 274.729C399.758 274.744 400.248 271.117 400.39 266.629C400.53 262.141 400.268 258.491 399.803 258.476C399.339 258.461 398.847 262.088 398.706 266.576C398.566 271.064 398.827 274.715 399.292 274.729Z" fill="#9F3A35"/>
<path d="M362.32 234.292C362.356 234.084 361.236 233.649 359.319 233.492C357.411 233.331 354.703 233.549 351.914 234.529C349.13 235.517 346.884 237.048 345.502 238.372C344.107 239.699 343.51 240.74 343.667 240.88C344.028 241.232 347.26 237.905 352.475 236.116C357.656 234.235 362.262 234.793 362.32 234.292Z" fill="#9F3A35"/>
<path d="M414.515 245.284C414.695 245.184 414.311 243.995 413.127 242.38C411.956 240.769 409.888 238.82 407.142 237.435C404.39 236.059 401.591 235.564 399.602 235.587C397.599 235.6 396.415 236.003 396.443 236.207C396.468 236.463 397.666 236.491 399.512 236.773C401.901 237.137 404.219 237.868 406.386 238.939C408.538 240.037 410.509 241.46 412.227 243.16C413.556 244.472 414.293 245.416 414.515 245.284Z" fill="#9F3A35"/>
<path d="M365.899 286.711C367.602 290.939 372.071 293.852 377.199 293.627C383.043 293.369 387.684 289.129 388.24 283.867C381.504 287.143 373.432 288.073 365.899 286.711Z" fill="white"/>
<path d="M344.133 209.171C356.283 220.563 375.776 223.251 390.558 215.573C392.011 222.408 398.326 227.453 405.116 229.096C411.907 230.74 419.075 229.519 425.771 227.524C420.64 238.761 421.062 252.377 426.876 263.276C428.868 267.011 432.076 270.771 436.308 270.837C439.754 270.891 442.812 268.347 444.399 265.289C445.986 262.232 446.388 258.717 446.764 255.293C447.523 248.376 448.283 241.395 447.538 234.476C446.792 227.559 444.408 220.613 439.628 215.556C434.958 210.616 428.448 207.887 422.012 205.695C406.419 200.385 390.015 197.435 373.544 197.101C364.351 196.915 354.166 197.973 347.897 204.7" fill="#050766"/>
<path d="M413.755 345.817C410.422 345.488 407.081 345.251 403.735 345.107C397.814 349.588 390.44 352.177 383.006 352.09C374.866 351.994 366.87 348.694 360.83 343.256C360.727 343.26 360.627 343.28 360.523 343.277C358.001 343.213 355.478 343.239 352.958 343.356C360.792 354.553 374.904 361.245 388.543 359.74C398.347 358.66 407.462 353.384 413.755 345.817Z" fill="#009D90"/>
<path d="M482.955 536.774C479.956 538.234 476.925 539.879 473.663 541.283C472.017 542.017 470.364 542.797 468.661 543.525L463.445 545.646C456.355 548.379 448.819 551.05 440.802 553.105C432.546 555.281 424.168 556.959 415.711 558.129C407.243 559.213 398.718 559.786 390.182 559.845C381.907 559.959 373.934 559.353 366.375 558.57L363.11 558.171C361.454 558.485 359.791 558.76 358.123 558.997C358.938 559.137 359.755 559.268 360.572 559.39L366.199 560.111C373.81 560.943 381.844 561.586 390.187 561.494C398.524 561.453 407.159 560.929 415.934 559.797C424.462 558.619 432.91 556.916 441.228 554.698C449.304 552.605 456.891 549.881 464.019 547.087L469.261 544.918C470.972 544.174 472.633 543.378 474.284 542.627C477.477 541.226 480.447 539.594 483.377 538.126L482.955 536.774Z" fill="#E0C0B4"/>
<path d="M240.602 361.574L222.742 284.297L155.714 299.496L173.829 377.873C136.82 399.416 112.064 439.854 112.83 485.477C113.689 536.591 145.996 580.041 191.233 597.334C196.387 599.305 202.026 599.644 207.403 598.402L309.787 574.738C315.114 573.507 320.002 570.778 323.742 566.79C344.204 544.973 356.736 515.63 356.73 483.358C356.714 417.968 305.236 364.618 240.602 361.574Z" fill="white"/>
<path d="M276.438 436.685C285.769 433.605 295.835 431.725 305.674 432.848C312.249 433.597 326.086 435.582 323.339 444.917C322.526 447.679 320.65 449.99 318.725 452.131C304.582 467.859 285.471 478.643 265.235 484.799C244.999 490.955 223.626 492.671 202.481 492.129C188.113 491.759 173.628 490.287 159.809 486.173C152.992 484.143 146.677 481.162 140.193 478.305C135.281 476.139 136.202 471.875 139.286 468.173C145.014 461.299 155.288 457.586 163.702 455.382C174.629 452.521 186.101 452.741 197.385 453.209C208.67 453.677 220.065 454.369 231.187 452.406C246.938 449.626 261.25 441.698 276.438 436.685Z" fill="#ABE5F2"/>
<path d="M307.381 438.166C287.106 444.309 270.915 459.398 251.55 467.677C229.173 477.245 204.455 481.581 180.133 480.802C164.786 480.311 150.166 478.501 136.58 473.43C136.331 475.771 136.166 478.12 136.084 480.473C134.672 526.291 164.716 565.769 206.705 578.183C237.745 571.143 268.875 564.465 299.961 557.614C319.743 540.201 332.563 514.975 333.439 486.557C333.986 469.401 330.029 452.402 321.962 437.252C317.365 436.437 312.515 436.61 307.381 438.166Z" fill="#BCF1FF"/>
<path d="M206.37 226.712C208.144 227.186 209.816 227.983 211.301 229.063C222.945 237.624 217.835 252.34 215.319 263.904C213.669 271.487 209.39 278.217 206.33 285.404C202.96 293.32 200.057 301.427 197.638 309.684C195.831 315.855 195.495 321.689 194.273 327.86C193.046 334.05 191.446 340.801 192.957 347.086C188.554 328.76 178.954 310.953 165.608 297.569C161.357 293.305 156.073 290.088 151.552 286.072C145.33 280.544 139.801 273.613 138.418 265.407C137.034 257.199 140.973 247.695 148.818 244.915C141.946 241.028 135.03 236.944 129.656 231.161C123.11 224.119 115.502 211.565 120.622 202.02C123.348 196.94 129.002 193.573 134.766 193.599C124.034 184.493 113.212 175.294 104.686 164.095C98.193 155.563 93.0557 145.734 90.977 135.15C89.1917 126.068 88.4757 108.355 99.0077 103.578C104.202 101.22 113.834 105.55 118.54 107.798C141.03 118.54 153.993 147.451 156.812 171.083C158.297 162.363 169.97 158.514 177.985 162.258C185.998 166.003 190.569 174.624 193.053 183.114C195.434 191.248 196.227 199.091 196.095 207.513C195.97 215.457 194.053 222.64 192.173 230.417C195.559 226.464 201.313 225.339 206.37 226.712Z" fill="#00BFB2"/>
<path d="M229.257 195.65C219.995 202.239 214.601 213.198 212.401 224.349C210.41 234.443 210.754 244.816 211.323 255.108C209.483 244.581 207.542 234.389 205.743 224.559C205.374 222.552 205.025 220.589 204.669 218.612C208.663 208.836 214.287 199.775 219.046 190.324C224.335 179.82 228.625 168.347 227.918 156.608C218.081 162.303 211.683 172.707 208.45 183.604C205.245 194.403 204.793 205.796 204.387 217.055C202.499 206.492 200.819 196.343 199.518 186.714C198.887 181.945 198.311 177.17 197.789 172.388C202.093 162.751 208.001 153.879 213.057 144.591C218.679 134.263 223.334 122.932 223.005 111.178C212.99 116.554 206.262 126.748 202.681 137.535C199.175 148.096 198.337 159.322 197.578 170.428C196.958 164.539 196.459 158.882 196.102 153.499C195.643 146.952 195.418 140.391 195.427 133.828C200.506 124.351 207.222 115.819 213.097 106.791C219.509 96.9338 225.035 86.0018 225.627 74.2578C215.222 78.8338 207.718 88.4698 203.303 98.9444C198.89 109.419 197.195 120.803 195.538 132.048L195.429 132.37C195.515 121.516 196.297 112.376 197.37 105.312C197.511 104.403 197.654 103.542 197.797 102.702C201.614 92.2725 207.383 82.6565 212.195 72.6312C217.285 62.0299 221.355 50.4779 220.427 38.754C210.699 44.6326 204.501 55.1579 201.474 66.1139C198.741 76.0032 198.303 86.3405 198.102 96.6191C197.394 99.4346 196.775 102.272 196.245 105.126C194.93 112.292 193.93 121.636 193.669 132.739L193.286 131.296C192.383 119.966 191.451 108.494 187.746 97.7484C184.041 87.0031 177.196 76.8872 167.12 71.6272C166.926 83.3858 171.712 94.6605 177.453 104.924C182.86 114.59 189.189 123.791 193.647 133.912C193.534 139.994 193.637 146.576 194.035 153.622C194.33 159.123 194.774 164.899 195.345 170.914L195.225 170.571C193.438 159.347 191.611 147.982 187.077 137.56C182.542 127.138 174.928 117.587 164.47 113.132C165.197 124.87 170.85 135.736 177.377 145.519C183.416 154.57 190.306 163.104 195.511 172.639C195.971 177.296 196.502 182.091 197.11 187.028C197.883 193.148 198.81 199.47 199.846 205.963C198.191 198.456 196.137 191.058 192.854 184.128C187.989 173.856 180.072 164.555 169.477 160.438C170.58 172.146 176.577 182.826 183.414 192.394C189.525 200.946 196.423 208.986 201.853 217.963C202.258 220.309 202.663 222.652 203.089 225.039C204.859 235.18 206.846 245.688 208.699 256.527C205.657 246.116 202.458 235.645 196.923 226.331C191.117 216.56 182.364 208.04 171.43 204.932C173.625 216.485 180.596 226.557 188.298 235.444C195.23 243.441 202.906 250.848 209.175 259.349C211.993 276.145 214.425 293.72 215.185 311.973C215.949 327.509 215.634 342.719 214.613 357.348C213.487 371.97 211.683 386.026 209.169 399.272C206.725 412.524 203.529 424.974 200.95 436.752C198.337 448.517 196.317 459.625 195.45 469.892C194.587 480.157 194.822 489.538 195.973 497.65C196.871 504.605 198.595 511.428 201.109 517.975C203.203 523.35 205.422 527.257 207.025 529.819C207.835 531.097 208.537 532.018 208.986 532.647C209.446 533.27 209.701 533.575 209.743 533.546C210.055 533.37 206.049 528.297 202.177 517.578C199.892 511.062 198.356 504.307 197.597 497.443C196.617 489.437 196.531 480.196 197.513 470.084C198.498 459.957 200.613 448.982 203.318 437.285C205.987 425.578 209.281 413.126 211.819 399.774C214.425 386.448 216.301 372.293 217.473 357.561C218.542 342.823 218.879 327.495 218.11 311.836C217.445 296.177 215.593 280.935 213.225 266.38C212.834 263.961 212.423 261.585 212.017 259.2C215.081 249.224 219.773 239.787 223.579 230.048C227.862 219.095 231.058 207.271 229.257 195.65Z" fill="#5075F7"/>
<path d="M258.139 525.166L256.375 523.483L254.307 521.389C252.807 519.882 251.069 518.155 249.214 516.11C245.411 512.113 241.011 506.982 236.223 500.79C230.816 493.766 225.871 486.397 221.421 478.73C216.037 469.442 211.365 459.759 207.445 449.765C203.194 438.997 199.661 427.129 197.456 414.326C195.313 401.506 194.332 387.848 193.906 373.648C193.42 359.448 193.408 344.683 192.42 329.552C192.313 327.665 192.174 325.78 192.004 323.897C191.829 322.021 191.732 320.141 191.494 318.285L190.234 307.207L188.625 296.337C188.47 295.2 188.278 294.075 188.077 292.952C189.73 288.851 192.826 280.124 196.205 269.929C200.925 255.681 204.394 244.012 203.954 243.867C203.513 243.72 199.328 255.152 194.606 269.4C191.573 278.553 189.064 286.621 187.769 291.275L187.716 290.985L186.736 285.692C186.398 283.937 186.113 282.181 185.737 280.451L184.59 275.291C183.814 271.871 183.133 268.463 182.213 265.148L179.629 255.28L176.762 245.731C175.509 241.806 174.204 237.897 172.848 234.007C173.521 229.7 174.664 218.572 175.737 205.499C177.121 188.66 177.866 174.98 177.402 174.942C176.94 174.904 175.442 188.523 174.06 205.362C173.096 217.096 172.442 227.291 172.29 232.408C169.606 224.825 166.776 217.596 163.714 210.819C161.488 205.418 158.864 200.416 156.536 195.523C155.368 193.076 154.017 190.784 152.806 188.486C151.554 186.208 150.392 183.946 149.141 181.802C147.805 179.503 146.44 177.221 145.045 174.958C144.729 171.635 143.252 162.824 141.237 152.492C138.682 139.383 136.24 128.828 135.784 128.916C135.328 129.006 137.029 139.706 139.585 152.815C141.298 161.606 142.957 169.228 144.005 173.283C135.886 160.302 128.206 150.271 122.144 143.388L119.613 140.388C118.798 139.468 117.986 138.652 117.257 137.872L113.521 133.974C111.488 131.88 110.388 130.816 110.314 130.887C110.241 130.956 111.2 132.158 113.088 134.374L116.605 138.448C117.297 139.256 118.072 140.099 118.849 141.044L121.266 144.116C127.022 151.083 134.352 161.078 142.13 173.907C138.674 171.218 132.656 166.832 125.724 161.99C114.685 154.279 105.521 148.338 105.254 148.719C104.989 149.1 113.721 155.66 124.76 163.371C132.8 168.987 139.828 173.651 143.165 175.631C144.588 178.01 145.979 180.407 147.34 182.822C148.553 184.967 149.678 187.23 150.893 189.504C152.068 191.802 153.382 194.09 154.514 196.532C156.772 201.418 159.325 206.403 161.486 211.786C164.541 218.709 167.357 226.107 170.028 233.861C169.012 232.868 167.975 231.896 166.918 230.947C163.585 227.932 158.808 223.952 153.288 219.875C147.764 215.802 142.553 212.41 138.69 210.112C134.828 207.814 132.333 206.575 132.217 206.767C132.092 206.974 134.365 208.57 138.046 211.114C141.729 213.658 146.8 217.181 152.288 221.229C157.773 225.281 162.636 229.088 166.152 231.856C168.002 233.313 169.473 234.463 170.488 235.209C171.767 238.966 172.999 242.739 174.185 246.527L176.98 256.019L179.5 265.823C180.4 269.115 181.061 272.5 181.821 275.897L182.941 281.021C183.309 282.74 183.588 284.484 183.917 286.225L184.877 291.48C185.01 292.191 185.138 292.904 185.264 293.619C182.426 290.385 176.938 284.584 170.501 278.061C160.878 268.312 152.809 260.673 152.478 261C152.148 261.327 159.68 269.495 169.302 279.244C176.334 286.369 182.522 292.352 185.481 294.937C185.581 295.555 185.684 296.171 185.766 296.793L187.345 307.581L188.584 318.575C188.818 320.419 188.913 322.277 189.086 324.136C189.248 325.996 189.398 327.863 189.498 329.741C190.478 344.751 190.513 359.489 191.04 373.746C191.506 387.998 192.55 401.8 194.797 414.786C197.108 427.769 200.796 439.828 205.188 450.66C209.241 460.728 214.073 470.465 219.638 479.784C224.231 487.462 229.342 494.818 234.935 501.801C239.886 507.946 244.442 513.002 248.394 516.901C250.322 518.897 252.134 520.57 253.703 522.017L255.875 524.018L257.742 525.603C259.975 527.485 261.178 528.433 261.243 528.357C261.31 528.281 260.238 527.182 258.139 525.166Z" fill="#006D62"/>
<mask id="mask2_762_231" style="mask-type:luminance" maskUnits="userSpaceOnUse" x="138" y="259" width="97" height="42">
<path d="M138.361 259.495H234.761V300.44H138.361V259.495Z" fill="white"/>
</mask>
<g mask="url(#mask2_762_231)">
<g opacity="0.39">
<path d="M225.698 283.628L152.83 300.151C149.821 300.832 146.665 300.291 144.055 298.646C141.445 297.001 139.596 294.386 138.913 291.377L138.652 290.225C138.314 288.735 138.273 287.194 138.531 285.688C138.788 284.182 139.341 282.742 140.155 281.45C140.97 280.157 142.031 279.038 143.278 278.156C144.525 277.274 145.934 276.646 147.424 276.308L220.292 259.785C223.301 259.104 226.457 259.645 229.067 261.29C231.678 262.935 233.527 265.55 234.21 268.559L234.47 269.711C234.808 271.2 234.849 272.742 234.591 274.248C234.333 275.754 233.781 277.194 232.967 278.486C232.152 279.779 231.091 280.898 229.844 281.78C228.597 282.662 227.188 283.29 225.698 283.628Z" fill="white"/>
</g>
</g>
<path d="M474.712 274.571C471.826 269.511 465.847 267.009 460.758 264.805C453.934 261.851 446.67 259.675 439.418 257.584C439.251 259.325 439.029 261.061 438.751 262.788C444.999 264.909 451.252 267.029 457.362 269.5C460.94 270.948 465.21 272.013 467.935 274.931C471.699 278.96 470.49 283.189 469.243 287.945C469.071 288.601 468.931 289.392 469.4 289.881C469.948 290.455 470.914 290.192 471.598 289.791C476.995 286.624 477.638 279.696 474.712 274.571Z" fill="white"/>
<path d="M342.221 495.187C335.677 494.467 329.046 494.533 322.515 495.367C316.378 496.153 310.627 498.177 304.535 499.001C300.062 499.604 295.553 499.892 291.039 499.862C288.903 499.847 281.811 498.503 281.678 502.371C281.594 504.831 287.653 506.738 289.494 507.275C292.825 508.249 298.846 507.611 301.466 509.665C297.266 510.793 291.993 510.343 287.609 510.594L273.311 511.413C268.506 511.687 266.299 515.745 271.989 517.049C275.079 517.758 278.226 518.186 281.385 518.435C287.759 518.939 294.165 518.689 300.543 518.434L269.397 520.865C267.578 521.007 261.699 521.379 264.359 524.795C264.957 525.561 265.911 525.947 266.835 526.243C276.779 529.429 288.358 528.119 298.633 527.454C290.102 529.966 281.233 530.859 272.453 532.069C270.981 532.271 269.309 532.601 268.553 533.881C267.662 535.387 268.659 537.439 270.183 538.301C271.707 539.162 273.553 539.158 275.303 539.13L302.295 538.71L282.343 542.518C280.595 542.853 278.467 543.565 278.235 545.33C278.087 546.459 278.887 547.545 279.891 548.082C280.895 548.621 282.069 548.726 283.205 548.803C288.797 549.187 294.407 549.154 300.013 549.119C309.794 549.059 319.611 548.998 329.297 547.619C339.065 546.229 347.284 542.631 356.363 539.162C363.778 536.329 368.818 527.495 370.271 519.922" fill="#F67671"/>
<path d="M461.611 358.976C461.611 358.976 431.774 367.497 441.22 408.745C450.668 449.993 455.564 462.414 455.564 462.414L322.369 486.201L335.809 559.905C335.809 559.905 477.936 546.326 514.339 501.263C516.307 498.811 517.685 495.938 518.367 492.867C529.039 445.498 477.872 362.613 461.611 358.976Z" fill="#FFEBE3"/>
<path d="M340.874 528.793C337.866 512.343 335.593 497.374 334.062 486.519L333.731 484.171L332.625 484.37C332.706 485.117 332.791 485.879 332.881 486.67C334.111 497.579 336.203 512.611 339.218 529.095C341.046 539.052 343.099 548.966 345.375 558.83L346.827 558.65C344.696 548.727 342.712 538.774 340.874 528.793Z" fill="#E0C0B4"/>
<path d="M454.388 460.219C454.526 460.183 454.276 458.618 453.59 455.846C452.907 453.073 451.743 449.106 450.206 444.252C448.686 439.394 446.772 433.652 445.096 427.184C443.47 420.706 441.896 413.493 441.288 405.849C440.662 398.218 441.192 390.86 442.972 384.518C444.736 378.161 447.675 372.876 450.742 368.952C453.86 365.049 457.063 362.489 459.423 360.976L461.01 359.984L462.208 359.309C462.856 358.936 463.186 358.704 463.158 358.634C463.128 358.564 462.743 358.658 462.026 358.905C461.67 359.034 461.222 359.18 460.714 359.401L458.988 360.24C456.43 361.565 452.946 364.029 449.542 367.966C446.191 371.921 442.978 377.354 441.027 383.958C439.058 390.558 438.456 398.185 439.099 406.022C440.464 421.74 445.308 435.209 448.735 444.748L452.771 456.09C453.706 458.774 454.234 460.261 454.388 460.219Z" fill="#E0C0B4"/>
<path d="M462.868 459.161C462.832 459.014 460.872 459.37 457.359 460.141L442.507 463.486C429.974 466.326 412.636 470.126 393.4 473.862C374.162 477.586 356.671 480.538 343.994 482.585L328.979 485.03C325.437 485.627 323.483 486.03 323.502 486.179C323.519 486.33 325.506 486.215 329.085 485.878C332.664 485.549 337.831 484.953 344.204 484.122C356.952 482.466 374.516 479.751 393.791 476.021C413.066 472.278 430.388 468.229 442.85 464.998C449.082 463.385 454.106 462.005 457.559 460.97C461.012 459.945 462.904 459.308 462.868 459.161Z" fill="#E0C0B4"/>
<path d="M518.64 489.987C518.407 489.921 517.919 492.747 515.521 497.178C514.288 499.367 512.508 501.898 510.041 504.495C507.591 507.106 504.428 509.733 500.7 512.331C496.981 514.925 492.683 517.562 488.033 520.206C483.357 522.821 478.185 525.315 472.6 527.623C461.447 532.283 448.644 536.149 435.179 540.054C408.228 547.826 383.338 553.075 365.24 556.37C356.19 558.018 348.834 559.191 343.754 560.038C341.212 560.449 339.238 560.767 337.903 561.017C336.567 561.263 335.871 561.429 335.88 561.505C335.89 561.579 336.606 561.561 337.96 561.455C339.315 561.347 341.31 561.166 343.874 560.885C348.996 560.297 356.403 559.355 365.511 557.899C383.719 554.99 408.756 549.962 435.802 542.163C449.302 538.246 462.152 534.306 473.407 529.485C479.035 527.098 484.251 524.506 488.957 521.782C493.651 519.022 497.883 516.319 501.627 513.587C505.36 510.863 508.532 508.086 510.965 505.319C513.415 502.567 515.145 499.882 516.292 497.571C517.397 495.237 518.019 493.333 518.32 492.018C518.604 490.698 518.715 490.003 518.64 489.987Z" fill="#E0C0B4"/>
</svg>
