<svg width="456" height="577" fill="none" xmlns="http://www.w3.org/2000/svg"><circle cx="136.111" cy="300.363" r="136.111" fill="#1D119F" fill-opacity=".6"/><circle cx="228" cy="136.111" r="136.111" fill="#E200B0" fill-opacity=".6"/><circle cx="319.889" cy="300.363" r="136.111" fill="#EA624A" fill-opacity=".6"/><path d="M53.859 307.425c0 1.133-.292 2.142-.875 3.025-.583.867-1.417 1.55-2.5 2.05-1.067.5-2.358.75-3.875.75-1.5 0-2.808-.25-3.925-.75-1.1-.517-1.967-1.242-2.6-2.175-.633-.933-1-2.033-1.1-3.3h3.85c.05 1 .383 1.792 1 2.375.633.583 1.533.875 2.7.875.65 0 1.217-.092 1.7-.275.5-.183.892-.45 1.175-.8.283-.35.425-.758.425-1.225 0-.567-.208-1.017-.625-1.35-.417-.35-1.008-.6-1.775-.75l-2.95-.575a7.643 7.643 0 0 1-1.9-.575 5.763 5.763 0 0 1-1.525-1 4.317 4.317 0 0 1-1.025-1.45c-.25-.567-.375-1.217-.375-1.95 0-1.067.283-2.017.85-2.85.583-.833 1.375-1.483 2.375-1.95 1.017-.467 2.175-.7 3.475-.7 1.35 0 2.55.25 3.6.75a6.48 6.48 0 0 1 2.55 2.125c.65.9 1.008 1.975 1.075 3.225h-3.85c-.033-.633-.2-1.183-.5-1.65a2.81 2.81 0 0 0-1.15-1.1c-.483-.267-1.042-.4-1.675-.4-.617 0-1.142.108-1.575.325-.417.2-.742.475-.975.825-.233.333-.35.717-.35 1.15 0 .4.108.733.325 1 .233.267.533.483.9.65.367.15.767.267 1.2.35l3.075.625c1.583.317 2.783.858 3.6 1.625.833.75 1.25 1.783 1.25 3.1Zm7.627 5.825c-1.283 0-2.417-.292-3.4-.875-.967-.583-1.725-1.4-2.275-2.45-.55-1.05-.825-2.25-.825-3.6 0-1.333.275-2.517.825-3.55a6.397 6.397 0 0 1 2.325-2.475c.983-.6 2.1-.9 3.35-.9 1.15 0 2.192.25 3.125.75a5.911 5.911 0 0 1 2.275 2.075c.583.883.942 1.925 1.075 3.125h-3.65c-.083-.883-.383-1.583-.9-2.1-.5-.517-1.142-.775-1.925-.775-.6 0-1.125.158-1.575.475-.433.317-.775.758-1.025 1.325-.233.567-.35 1.25-.35 2.05 0 .783.117 1.467.35 2.05.25.583.592 1.033 1.025 1.35.45.3.975.45 1.575.45.8 0 1.442-.25 1.925-.75.5-.517.8-1.225.9-2.125h3.65c-.117 1.217-.467 2.275-1.05 3.175a6.034 6.034 0 0 1-2.25 2.05c-.917.483-1.975.725-3.175.725Zm11.681-.25h-3.475v-13.35h3.475V313Zm.55-16.45a1.93 1.93 0 0 1-.65 1.475c-.417.383-.975.575-1.675.575-.683 0-1.242-.192-1.675-.575a1.965 1.965 0 0 1-.625-1.475c0-.617.208-1.117.625-1.5.433-.4.992-.6 1.675-.6.7 0 1.258.2 1.675.6.433.383.65.883.65 1.5Zm7.843 16.675c-1.334 0-2.509-.283-3.526-.85a5.99 5.99 0 0 1-2.325-2.45c-.55-1.05-.825-2.267-.825-3.65 0-1.333.284-2.517.85-3.55a6.204 6.204 0 0 1 2.35-2.425c1-.6 2.142-.9 3.425-.9 1.05 0 2 .2 2.85.6a5.763 5.763 0 0 1 2.175 1.65c.584.717 1 1.55 1.25 2.5.25.933.292 1.942.125 3.025H76.934v-2.2h7.3c-.033-.933-.308-1.667-.825-2.2-.5-.55-1.158-.825-1.975-.825-.65 0-1.2.167-1.65.5-.45.333-.8.825-1.05 1.475-.233.633-.35 1.417-.35 2.35 0 .917.117 1.692.35 2.325.234.633.584 1.117 1.05 1.45.467.333 1.034.5 1.7.5.767 0 1.4-.183 1.9-.55.5-.367.85-.875 1.05-1.525h3.45c-.383 1.5-1.124 2.667-2.225 3.5-1.1.833-2.466 1.25-4.1 1.25Zm11.652-7.5V313h-3.475v-13.35h3.2v1.9a5.785 5.785 0 0 1 1.75-1.575c.683-.383 1.467-.575 2.35-.575 1.35 0 2.442.433 3.275 1.3.833.85 1.25 2.075 1.25 3.675V313h-3.45v-7.45c0-1-.2-1.758-.6-2.275-.383-.533-.967-.8-1.75-.8-.467 0-.9.125-1.3.375-.383.233-.692.592-.925 1.075-.217.467-.325 1.067-.325 1.8Zm16.469 7.525c-1.283 0-2.416-.292-3.4-.875-.966-.583-1.725-1.4-2.275-2.45-.55-1.05-.825-2.25-.825-3.6 0-1.333.275-2.517.825-3.55a6.402 6.402 0 0 1 2.325-2.475c.984-.6 2.1-.9 3.35-.9 1.15 0 2.192.25 3.125.75a5.905 5.905 0 0 1 2.275 2.075c.584.883.942 1.925 1.075 3.125h-3.65c-.083-.883-.383-1.583-.9-2.1-.5-.517-1.141-.775-1.925-.775-.6 0-1.125.158-1.575.475-.433.317-.775.758-1.025 1.325-.233.567-.35 1.25-.35 2.05 0 .783.117 1.467.35 2.05.25.583.592 1.033 1.025 1.35.45.3.975.45 1.575.45.8 0 1.442-.25 1.925-.75.5-.517.8-1.225.9-2.125h3.65c-.116 1.217-.466 2.275-1.05 3.175a6.03 6.03 0 0 1-2.25 2.05c-.916.483-1.975.725-3.175.725Zm13.958-.025c-1.334 0-2.509-.283-3.525-.85a5.99 5.99 0 0 1-2.325-2.45c-.55-1.05-.825-2.267-.825-3.65 0-1.333.283-2.517.85-3.55a6.2 6.2 0 0 1 2.35-2.425c1-.6 2.141-.9 3.425-.9 1.05 0 2 .2 2.85.6a5.773 5.773 0 0 1 2.175 1.65c.583.717 1 1.55 1.25 2.5.25.933.291 1.942.125 3.025h-10.975v-2.2h7.3c-.034-.933-.309-1.667-.825-2.2-.5-.55-1.159-.825-1.975-.825-.65 0-1.2.167-1.65.5-.45.333-.8.825-1.05 1.475-.234.633-.35 1.417-.35 2.35 0 .917.116 1.692.35 2.325.233.633.583 1.117 1.05 1.45.466.333 1.033.5 1.7.5.766 0 1.4-.183 1.9-.55.5-.367.85-.875 1.05-1.525h3.45c-.384 1.5-1.125 2.667-2.225 3.5-1.1.833-2.467 1.25-4.1 1.25ZM318.375 309.7v3.3H306.3v-17.95h11.9v3.3h-8.1v3.775h7.35v3.275h-7.35v4.3h8.275Zm5.615-3.975V313h-3.475v-13.35h3.2v1.9a5.782 5.782 0 0 1 1.75-1.575c.683-.383 1.467-.575 2.35-.575 1.35 0 2.442.433 3.275 1.3.833.85 1.25 2.075 1.25 3.675V313h-3.45v-7.45c0-1-.2-1.758-.6-2.275-.383-.533-.967-.8-1.75-.8-.467 0-.9.125-1.3.375-.383.233-.692.592-.925 1.075-.217.467-.325 1.067-.325 1.8Zm14.294-6.075v13.3c0 1.2-.2 2.175-.6 2.925-.4.767-.941 1.325-1.625 1.675-.683.35-1.475.525-2.375.525-.3 0-.608-.017-.925-.05a3.912 3.912 0 0 1-.95-.225v-3.225c.2.1.425.175.675.225.234.05.492.075.775.075.467 0 .842-.15 1.125-.45.3-.3.45-.825.45-1.575v-13.2h3.45Zm.575-3.1c0 .583-.216 1.075-.65 1.475-.433.383-.991.575-1.675.575-.683 0-1.241-.192-1.675-.575a1.93 1.93 0 0 1-.65-1.475c0-.617.217-1.117.65-1.5.434-.4.992-.6 1.675-.6.684 0 1.242.2 1.675.6.434.383.65.883.65 1.5Zm7.918 16.7a6.899 6.899 0 0 1-2.7-.525 6.605 6.605 0 0 1-2.15-1.475 7.248 7.248 0 0 1-1.425-2.2 7.402 7.402 0 0 1-.5-2.725c0-.983.167-1.892.5-2.725a7.248 7.248 0 0 1 1.425-2.2 6.605 6.605 0 0 1 2.15-1.475 6.899 6.899 0 0 1 2.7-.525c.967 0 1.858.175 2.675.525.833.35 1.55.842 2.15 1.475a6.663 6.663 0 0 1 1.425 2.2c.35.833.525 1.742.525 2.725 0 .967-.175 1.875-.525 2.725a6.663 6.663 0 0 1-1.425 2.2 6.273 6.273 0 0 1-2.15 1.475c-.817.35-1.708.525-2.675.525Zm0-3.075c.583 0 1.117-.15 1.6-.45.483-.3.867-.733 1.15-1.3.3-.583.45-1.283.45-2.1 0-.833-.15-1.533-.45-2.1-.283-.567-.667-.992-1.15-1.275a2.974 2.974 0 0 0-1.6-.45c-.567 0-1.1.15-1.6.45-.483.283-.875.708-1.175 1.275-.283.567-.425 1.267-.425 2.1 0 .817.142 1.517.425 2.1.3.567.692 1 1.175 1.3.5.3 1.033.45 1.6.45Zm20.054-10.525-6.5 18.175h-3.775l1.9-4.975-5.25-13.2h3.75l3.35 9.15 3.05-9.15h3.475Zm4.5 13.35h-3.475v-13.35h3.2v1.9c.483-.683 1.05-1.208 1.7-1.575.65-.383 1.416-.575 2.3-.575.916 0 1.708.208 2.375.625.683.4 1.191.983 1.525 1.75.533-.733 1.15-1.308 1.85-1.725.7-.433 1.55-.65 2.55-.65 1.35 0 2.441.433 3.275 1.3.833.85 1.25 2.075 1.25 3.675V313h-3.45v-7.525c0-.95-.2-1.683-.6-2.2-.384-.533-.959-.8-1.725-.8-.45 0-.867.125-1.25.375-.384.233-.692.575-.925 1.025-.217.45-.325 1.008-.325 1.675V313h-3.45v-7.525c0-.95-.2-1.683-.6-2.2-.384-.533-.959-.8-1.725-.8-.467 0-.892.125-1.275.375-.384.233-.684.575-.9 1.025-.217.45-.325 1.008-.325 1.675V313Zm24.823.225c-1.334 0-2.509-.283-3.525-.85a5.99 5.99 0 0 1-2.325-2.45c-.55-1.05-.825-2.267-.825-3.65 0-1.333.283-2.517.85-3.55a6.2 6.2 0 0 1 2.35-2.425c1-.6 2.141-.9 3.425-.9 1.05 0 2 .2 2.85.6a5.773 5.773 0 0 1 2.175 1.65c.583.717 1 1.55 1.25 2.5.25.933.291 1.942.125 3.025h-10.975v-2.2h7.3c-.034-.933-.309-1.667-.825-2.2-.5-.55-1.159-.825-1.975-.825-.65 0-1.2.167-1.65.5-.45.333-.8.825-1.05 1.475-.234.633-.35 1.417-.35 2.35 0 .917.116 1.692.35 2.325.233.633.583 1.117 1.05 1.45.466.333 1.033.5 1.7.5.766 0 1.4-.183 1.9-.55.5-.367.85-.875 1.05-1.525h3.45c-.384 1.5-1.125 2.667-2.225 3.5-1.1.833-2.467 1.25-4.1 1.25Zm11.652-7.5V313h-3.475v-13.35h3.2v1.9a5.794 5.794 0 0 1 1.75-1.575c.684-.383 1.467-.575 2.35-.575 1.35 0 2.442.433 3.275 1.3.834.85 1.25 2.075 1.25 3.675V313h-3.45v-7.45c0-1-.2-1.758-.6-2.275-.383-.533-.966-.8-1.75-.8-.466 0-.9.125-1.3.375-.383.233-.691.592-.925 1.075-.216.467-.325 1.067-.325 1.8Zm19.047 3.9v3.025a4.651 4.651 0 0 1-1.275.45c-.417.1-.883.15-1.4.15-.9 0-1.692-.167-2.375-.5a3.662 3.662 0 0 1-1.55-1.55c-.367-.7-.55-1.542-.55-2.525v-6.05h-2.7v-2.975h2.7v-3.95h3.45v3.95h3.825v2.975h-3.825v5.25c0 .767.167 1.325.5 1.675.35.333.833.5 1.45.5.333 0 .65-.033.95-.1.3-.083.567-.192.8-.325ZM191.832 125h-11.6v-17.95h3.8v14.525h7.8V125Zm7.316.225c-1.333 0-2.508-.283-3.525-.85a5.99 5.99 0 0 1-2.325-2.45c-.55-1.05-.825-2.267-.825-3.65 0-1.333.284-2.517.85-3.55a6.207 6.207 0 0 1 2.35-2.425c1-.6 2.142-.9 3.425-.9 1.05 0 2 .2 2.85.6a5.757 5.757 0 0 1 2.175 1.65c.584.717 1 1.55 1.25 2.5.25.933.292 1.942.125 3.025h-10.975v-2.2h7.3c-.033-.933-.308-1.667-.825-2.2-.5-.55-1.158-.825-1.975-.825-.65 0-1.2.167-1.65.5-.45.333-.8.825-1.05 1.475-.233.633-.35 1.417-.35 2.35 0 .917.117 1.692.35 2.325.234.633.584 1.117 1.05 1.45.467.333 1.034.5 1.7.5.767 0 1.4-.183 1.9-.55.5-.367.85-.875 1.05-1.525h3.45c-.383 1.5-1.125 2.667-2.225 3.5-1.1.833-2.466 1.25-4.1 1.25Zm16.128-.225v-1.65a4.376 4.376 0 0 1-1.65 1.425c-.667.317-1.458.475-2.375.475-1.383 0-2.5-.375-3.35-1.125-.85-.75-1.275-1.75-1.275-3 0-1.3.517-2.292 1.55-2.975 1.033-.683 2.517-1.025 4.45-1.025.383 0 .75.017 1.1.05.35.017.725.05 1.125.1v-.8c0-.75-.2-1.333-.6-1.75-.4-.417-.967-.625-1.7-.625-.75 0-1.342.208-1.775.625-.433.417-.683 1-.75 1.75h-3.125c.067-1.033.342-1.925.825-2.675a5.066 5.066 0 0 1 1.975-1.775c.833-.417 1.783-.625 2.85-.625 1.75 0 3.108.458 4.075 1.375.983.917 1.475 2.192 1.475 3.825v8.4h-2.825Zm-5.375-3.975c0 .55.183.992.55 1.325.383.333.9.5 1.55.5.883 0 1.575-.225 2.075-.675.517-.467.775-1.083.775-1.85v-.95a9.712 9.712 0 0 0-1.075-.125 8.933 8.933 0 0 0-.925-.05c-.967 0-1.7.15-2.2.45-.5.3-.75.758-.75 1.375Zm14.169-2.5V125h-3.475v-13.35h3.2v2.575c.5-.85 1.225-1.517 2.175-2a6.586 6.586 0 0 1 3.025-.725v3.6c-.966-.067-1.825-.017-2.575.15-.733.15-1.308.492-1.725 1.025-.416.517-.625 1.267-.625 2.25Zm9.705-.8V125H230.3v-13.35h3.2v1.9a5.794 5.794 0 0 1 1.75-1.575c.684-.383 1.467-.575 2.35-.575 1.35 0 2.442.433 3.275 1.3.834.85 1.25 2.075 1.25 3.675V125h-3.45v-7.45c0-1-.2-1.758-.6-2.275-.383-.533-.966-.8-1.75-.8-.466 0-.9.125-1.3.375-.383.233-.691.592-.925 1.075-.216.467-.325 1.067-.325 1.8Zm14.32 7.275h-3.475v-13.35h3.475V125Zm.55-16.45a1.93 1.93 0 0 1-.65 1.475c-.417.383-.975.575-1.675.575-.684 0-1.242-.192-1.675-.575a1.964 1.964 0 0 1-.625-1.475c0-.617.208-1.117.625-1.5.433-.4.991-.6 1.675-.6.7 0 1.258.2 1.675.6.433.383.65.883.65 1.5Zm5.517 9.175V125h-3.475v-13.35h3.2v1.9a5.794 5.794 0 0 1 1.75-1.575c.684-.383 1.467-.575 2.35-.575 1.35 0 2.442.433 3.275 1.3.834.85 1.25 2.075 1.25 3.675V125h-3.45v-7.45c0-1-.2-1.758-.6-2.275-.383-.533-.966-.8-1.75-.8-.466 0-.9.125-1.3.375-.383.233-.691.592-.925 1.075-.216.467-.325 1.067-.325 1.8Zm16.52 12.35c-1.184 0-2.234-.208-3.15-.625-.917-.4-1.634-.983-2.15-1.75-.517-.75-.8-1.633-.85-2.65h3.35c.083.767.358 1.342.825 1.725.466.4 1.116.6 1.95.6.966 0 1.691-.25 2.175-.75.5-.5.75-1.233.75-2.2v-1.95a4.003 4.003 0 0 1-1.525 1.5c-.65.35-1.384.525-2.2.525-1.084 0-2.059-.283-2.925-.85-.867-.567-1.55-1.342-2.05-2.325-.5-1-.75-2.125-.75-3.375 0-1.3.233-2.442.7-3.425.483-.983 1.141-1.75 1.975-2.3.85-.55 1.825-.825 2.925-.825.9 0 1.691.175 2.375.525.683.333 1.266.85 1.75 1.55v-1.825h3.175v12.725c0 1.783-.567 3.175-1.7 4.175-1.117 1.017-2.667 1.525-4.65 1.525Zm-3.075-12.125c0 1.083.266 1.95.8 2.6.533.633 1.241.95 2.125.95.616 0 1.15-.142 1.6-.425.45-.3.8-.717 1.05-1.25s.375-1.15.375-1.85c0-1.083-.275-1.95-.825-2.6-.55-.65-1.284-.975-2.2-.975-.884 0-1.592.325-2.125.975-.534.633-.8 1.492-.8 2.575Z" fill="#fff"/><path stroke="#444" stroke-width="2" stroke-dasharray="5 5" d="M228 242v270"/><circle cx="228" cy="243" r="5" fill="#16171D"/><g clip-path="url(#a)"><path d="M126.902 565.384h9.574v-33.989h12.697v-8.446h-35.071v8.446h12.8v33.989ZM161.768 547.315h15.82v18.069h9.574v-42.435h-9.574v16.227h-15.82v-16.227h-9.676v42.435h9.676v-18.069Z" fill="#1A2357"/><path d="M203.597 522.949h-10.086v11.978l10.086-2.815v-9.163Z" fill="#C02626"/><path d="m203.597 535.541-10.086 2.816v27.027h10.086v-29.843ZM236.569 547.673l-19.046-24.724h-7.731v42.435h9.523v-27.386l19.097 27.386h7.731v-42.435h-9.574v24.724ZM270.206 542.605s16.23-16.892 17.715-19.656h-11.418l-14.182 15.971v-15.971h-9.676v42.435h9.676v-17.711s10.291 8.344 15.001 17.762h11.622c-.051-.051-10.495-16.585-18.738-22.83Z" fill="#1A2357"/><path d="M302.256 532.47c-17.305 0-15.615 19.81-15.615 19.81s.153 19.452 28.107 11.927l-1.177-7.474s-15.462 5.631-17.561-4.453h20.53s3.021-19.81-14.284-19.81Zm-6.246 13.565s.717-6.143 6.041-6.143c5.325 0 6.042 6.143 6.042 6.143H296.01Z" fill="#1A2357"/><path d="m333.487 554.225-6.809-21.09h-9.728l12.031 30.816c-2.662 7.883-10.598 3.89-10.598 3.89l-1.587 7.269s2.304 1.177 9.933 1.024c7.628-.154 14.438-19.452 14.438-19.452l7.935-23.547h-9.523l-6.092 21.09Z" fill="#1A2357"/></g><defs><clipPath id="a"><path fill="#fff" transform="translate(114 523)" d="M0 0h235v53.236H0z"/></clipPath></defs></svg>