<svg width="313" height="388" viewBox="0 0 313 388" fill="none" xmlns="http://www.w3.org/2000/svg">
<circle cx="93.4269" cy="206.17" r="93.4269" fill="#1D119F" fill-opacity="0.6"/>
<circle cx="157.5" cy="93.4269" r="93.4269" fill="#E200B0" fill-opacity="0.6"/>
<circle cx="219.573" cy="206.17" r="93.4269" fill="#EA624A" fill-opacity="0.6"/>
<path d="M40.8704 212.521C40.8704 213.337 40.6604 214.063 40.2404 214.699C39.8204 215.323 39.2204 215.815 38.4404 216.175C37.6724 216.535 36.7424 216.715 35.6504 216.715C34.5704 216.715 33.6284 216.535 32.8244 216.175C32.0324 215.803 31.4084 215.281 30.9524 214.609C30.4964 213.937 30.2324 213.145 30.1604 212.233H32.9324C32.9684 212.953 33.2084 213.523 33.6524 213.943C34.1084 214.363 34.7564 214.573 35.5964 214.573C36.0644 214.573 36.4724 214.507 36.8204 214.375C37.1804 214.243 37.4624 214.051 37.6664 213.799C37.8704 213.547 37.9724 213.253 37.9724 212.917C37.9724 212.509 37.8224 212.185 37.5224 211.945C37.2224 211.693 36.7964 211.513 36.2444 211.405L34.1204 210.991C33.6284 210.907 33.1724 210.769 32.7524 210.577C32.3324 210.385 31.9664 210.145 31.6544 209.857C31.3424 209.569 31.0964 209.221 30.9164 208.813C30.7364 208.405 30.6464 207.937 30.6464 207.409C30.6464 206.641 30.8504 205.957 31.2584 205.357C31.6784 204.757 32.2484 204.289 32.9684 203.953C33.7004 203.617 34.5344 203.449 35.4704 203.449C36.4424 203.449 37.3064 203.629 38.0624 203.989C38.8184 204.349 39.4304 204.859 39.8984 205.519C40.3664 206.167 40.6244 206.941 40.6724 207.841H37.9004C37.8764 207.385 37.7564 206.989 37.5404 206.653C37.3364 206.305 37.0604 206.041 36.7124 205.861C36.3644 205.669 35.9624 205.573 35.5064 205.573C35.0624 205.573 34.6844 205.651 34.3724 205.807C34.0724 205.951 33.8384 206.149 33.6704 206.401C33.5024 206.641 33.4184 206.917 33.4184 207.229C33.4184 207.517 33.4964 207.757 33.6524 207.949C33.8204 208.141 34.0364 208.297 34.3004 208.417C34.5644 208.525 34.8524 208.609 35.1644 208.669L37.3784 209.119C38.5184 209.347 39.3824 209.737 39.9704 210.289C40.5704 210.829 40.8704 211.573 40.8704 212.521ZM46.362 216.715C45.438 216.715 44.622 216.505 43.914 216.085C43.218 215.665 42.672 215.077 42.276 214.321C41.88 213.565 41.682 212.701 41.682 211.729C41.682 210.769 41.88 209.917 42.276 209.173C42.684 208.417 43.242 207.823 43.95 207.391C44.658 206.959 45.462 206.743 46.362 206.743C47.19 206.743 47.94 206.923 48.612 207.283C49.284 207.631 49.83 208.129 50.25 208.777C50.67 209.413 50.928 210.163 51.024 211.027H48.396C48.336 210.391 48.12 209.887 47.748 209.515C47.388 209.143 46.926 208.957 46.362 208.957C45.93 208.957 45.552 209.071 45.228 209.299C44.916 209.527 44.67 209.845 44.49 210.253C44.322 210.661 44.238 211.153 44.238 211.729C44.238 212.293 44.322 212.785 44.49 213.205C44.67 213.625 44.916 213.949 45.228 214.177C45.552 214.393 45.93 214.501 46.362 214.501C46.938 214.501 47.4 214.321 47.748 213.961C48.108 213.589 48.324 213.079 48.396 212.431H51.024C50.94 213.307 50.688 214.069 50.268 214.717C49.848 215.353 49.308 215.845 48.648 216.193C47.988 216.541 47.226 216.715 46.362 216.715ZM54.7723 216.535H52.2703V206.923H54.7723V216.535ZM55.1683 204.691C55.1683 205.111 55.0123 205.465 54.7003 205.753C54.4003 206.029 53.9983 206.167 53.4943 206.167C53.0023 206.167 52.6003 206.029 52.2883 205.753C51.9883 205.465 51.8383 205.111 51.8383 204.691C51.8383 204.247 51.9883 203.887 52.2883 203.611C52.6003 203.323 53.0023 203.179 53.4943 203.179C53.9983 203.179 54.4003 203.323 54.7003 203.611C55.0123 203.887 55.1683 204.247 55.1683 204.691ZM60.8148 216.697C59.8548 216.697 59.0088 216.493 58.2768 216.085C57.5568 215.665 56.9988 215.077 56.6028 214.321C56.2068 213.565 56.0088 212.689 56.0088 211.693C56.0088 210.733 56.2128 209.881 56.6208 209.137C57.0288 208.393 57.5928 207.811 58.3128 207.391C59.0328 206.959 59.8548 206.743 60.7788 206.743C61.5348 206.743 62.2188 206.887 62.8308 207.175C63.4548 207.451 63.9768 207.847 64.3968 208.363C64.8168 208.879 65.1168 209.479 65.2968 210.163C65.4768 210.835 65.5068 211.561 65.3868 212.341H57.4848V210.757H62.7408C62.7168 210.085 62.5188 209.557 62.1468 209.173C61.7868 208.777 61.3128 208.579 60.7248 208.579C60.2568 208.579 59.8608 208.699 59.5368 208.939C59.2128 209.179 58.9608 209.533 58.7808 210.001C58.6128 210.457 58.5288 211.021 58.5288 211.693C58.5288 212.353 58.6128 212.911 58.7808 213.367C58.9488 213.823 59.2008 214.171 59.5368 214.411C59.8728 214.651 60.2808 214.771 60.7608 214.771C61.3128 214.771 61.7688 214.639 62.1288 214.375C62.4888 214.111 62.7408 213.745 62.8848 213.277H65.3688C65.0928 214.357 64.5588 215.197 63.7668 215.797C62.9748 216.397 61.9908 216.697 60.8148 216.697ZM69.2047 211.297V216.535H66.7027V206.923H69.0067V208.291C69.3667 207.811 69.7867 207.433 70.2667 207.157C70.7587 206.881 71.3227 206.743 71.9587 206.743C72.9307 206.743 73.7167 207.055 74.3167 207.679C74.9167 208.291 75.2167 209.173 75.2167 210.325V216.535H72.7327V211.171C72.7327 210.451 72.5887 209.905 72.3007 209.533C72.0247 209.149 71.6047 208.957 71.0407 208.957C70.7047 208.957 70.3927 209.047 70.1047 209.227C69.8287 209.395 69.6067 209.653 69.4387 210.001C69.2827 210.337 69.2047 210.769 69.2047 211.297ZM81.0626 216.715C80.1386 216.715 79.3226 216.505 78.6146 216.085C77.9186 215.665 77.3726 215.077 76.9766 214.321C76.5806 213.565 76.3826 212.701 76.3826 211.729C76.3826 210.769 76.5806 209.917 76.9766 209.173C77.3846 208.417 77.9426 207.823 78.6506 207.391C79.3586 206.959 80.1626 206.743 81.0626 206.743C81.8906 206.743 82.6406 206.923 83.3126 207.283C83.9846 207.631 84.5306 208.129 84.9506 208.777C85.3706 209.413 85.6286 210.163 85.7246 211.027H83.0966C83.0366 210.391 82.8206 209.887 82.4486 209.515C82.0886 209.143 81.6266 208.957 81.0626 208.957C80.6306 208.957 80.2526 209.071 79.9286 209.299C79.6166 209.527 79.3706 209.845 79.1906 210.253C79.0226 210.661 78.9386 211.153 78.9386 211.729C78.9386 212.293 79.0226 212.785 79.1906 213.205C79.3706 213.625 79.6166 213.949 79.9286 214.177C80.2526 214.393 80.6306 214.501 81.0626 214.501C81.6386 214.501 82.1006 214.321 82.4486 213.961C82.8086 213.589 83.0246 213.079 83.0966 212.431H85.7246C85.6406 213.307 85.3886 214.069 84.9686 214.717C84.5486 215.353 84.0086 215.845 83.3486 216.193C82.6886 216.541 81.9266 216.715 81.0626 216.715ZM91.1118 216.697C90.1518 216.697 89.3058 216.493 88.5738 216.085C87.8538 215.665 87.2958 215.077 86.8998 214.321C86.5038 213.565 86.3058 212.689 86.3058 211.693C86.3058 210.733 86.5098 209.881 86.9178 209.137C87.3258 208.393 87.8898 207.811 88.6098 207.391C89.3298 206.959 90.1518 206.743 91.0758 206.743C91.8318 206.743 92.5158 206.887 93.1278 207.175C93.7518 207.451 94.2738 207.847 94.6938 208.363C95.1138 208.879 95.4138 209.479 95.5938 210.163C95.7738 210.835 95.8038 211.561 95.6838 212.341H87.7818V210.757H93.0378C93.0138 210.085 92.8158 209.557 92.4438 209.173C92.0838 208.777 91.6098 208.579 91.0218 208.579C90.5538 208.579 90.1578 208.699 89.8338 208.939C89.5098 209.179 89.2578 209.533 89.0778 210.001C88.9098 210.457 88.8258 211.021 88.8258 211.693C88.8258 212.353 88.9098 212.911 89.0778 213.367C89.2458 213.823 89.4978 214.171 89.8338 214.411C90.1698 214.651 90.5778 214.771 91.0578 214.771C91.6098 214.771 92.0658 214.639 92.4258 214.375C92.7858 214.111 93.0378 213.745 93.1818 213.277H95.6658C95.3898 214.357 94.8558 215.197 94.0638 215.797C93.2718 216.397 92.2878 216.697 91.1118 216.697Z" fill="white"/>
<path d="M214.85 214.159V216.535H206.156V203.611H214.724V205.987H208.892V208.705H214.184V211.063H208.892V214.159H214.85ZM218.893 211.297V216.535H216.391V206.923H218.695V208.291C219.055 207.811 219.475 207.433 219.955 207.157C220.447 206.881 221.011 206.743 221.647 206.743C222.619 206.743 223.405 207.055 224.005 207.679C224.605 208.291 224.905 209.173 224.905 210.325V216.535H222.421V211.171C222.421 210.451 222.277 209.905 221.989 209.533C221.713 209.149 221.293 208.957 220.729 208.957C220.393 208.957 220.081 209.047 219.793 209.227C219.517 209.395 219.295 209.653 219.127 210.001C218.971 210.337 218.893 210.769 218.893 211.297ZM229.184 206.923V216.499C229.184 217.363 229.04 218.065 228.752 218.605C228.464 219.157 228.074 219.559 227.582 219.811C227.09 220.063 226.52 220.189 225.872 220.189C225.656 220.189 225.434 220.177 225.206 220.153C224.978 220.129 224.75 220.075 224.522 219.991V217.669C224.666 217.741 224.828 217.795 225.008 217.831C225.176 217.867 225.362 217.885 225.566 217.885C225.902 217.885 226.172 217.777 226.376 217.561C226.592 217.345 226.7 216.967 226.7 216.427V206.923H229.184ZM229.598 204.691C229.598 205.111 229.442 205.465 229.13 205.753C228.818 206.029 228.416 206.167 227.924 206.167C227.432 206.167 227.03 206.029 226.718 205.753C226.406 205.465 226.25 205.111 226.25 204.691C226.25 204.247 226.406 203.887 226.718 203.611C227.03 203.323 227.432 203.179 227.924 203.179C228.416 203.179 228.818 203.323 229.13 203.611C229.442 203.887 229.598 204.247 229.598 204.691ZM235.299 216.715C234.603 216.715 233.955 216.589 233.355 216.337C232.767 216.085 232.251 215.731 231.807 215.275C231.375 214.819 231.033 214.291 230.781 213.691C230.541 213.079 230.421 212.425 230.421 211.729C230.421 211.021 230.541 210.367 230.781 209.767C231.033 209.167 231.375 208.639 231.807 208.183C232.251 207.727 232.767 207.373 233.355 207.121C233.955 206.869 234.603 206.743 235.299 206.743C235.995 206.743 236.637 206.869 237.225 207.121C237.825 207.373 238.341 207.727 238.773 208.183C239.217 208.639 239.559 209.167 239.799 209.767C240.051 210.367 240.177 211.021 240.177 211.729C240.177 212.425 240.051 213.079 239.799 213.691C239.559 214.291 239.217 214.819 238.773 215.275C238.341 215.731 237.825 216.085 237.225 216.337C236.637 216.589 235.995 216.715 235.299 216.715ZM235.299 214.501C235.719 214.501 236.103 214.393 236.451 214.177C236.799 213.961 237.075 213.649 237.279 213.241C237.495 212.821 237.603 212.317 237.603 211.729C237.603 211.129 237.495 210.625 237.279 210.217C237.075 209.809 236.799 209.503 236.451 209.299C236.103 209.083 235.719 208.975 235.299 208.975C234.891 208.975 234.507 209.083 234.147 209.299C233.799 209.503 233.517 209.809 233.301 210.217C233.097 210.625 232.995 211.129 232.995 211.729C232.995 212.317 233.097 212.821 233.301 213.241C233.517 213.649 233.799 213.961 234.147 214.177C234.507 214.393 234.891 214.501 235.299 214.501ZM249.738 206.923L245.058 220.009H242.34L243.708 216.427L239.928 206.923H242.628L245.04 213.511L247.236 206.923H249.738ZM252.978 216.535H250.476V206.923H252.78V208.291C253.128 207.799 253.536 207.421 254.004 207.157C254.472 206.881 255.024 206.743 255.66 206.743C256.32 206.743 256.89 206.893 257.37 207.193C257.862 207.481 258.228 207.901 258.468 208.453C258.852 207.925 259.296 207.511 259.8 207.211C260.304 206.899 260.916 206.743 261.636 206.743C262.608 206.743 263.394 207.055 263.994 207.679C264.594 208.291 264.894 209.173 264.894 210.325V216.535H262.41V211.117C262.41 210.433 262.266 209.905 261.978 209.533C261.702 209.149 261.288 208.957 260.736 208.957C260.412 208.957 260.112 209.047 259.836 209.227C259.56 209.395 259.338 209.641 259.17 209.965C259.014 210.289 258.936 210.691 258.936 211.171V216.535H256.452V211.117C256.452 210.433 256.308 209.905 256.02 209.533C255.744 209.149 255.33 208.957 254.778 208.957C254.442 208.957 254.136 209.047 253.86 209.227C253.584 209.395 253.368 209.641 253.212 209.965C253.056 210.289 252.978 210.691 252.978 211.171V216.535ZM270.851 216.697C269.891 216.697 269.045 216.493 268.313 216.085C267.593 215.665 267.035 215.077 266.639 214.321C266.243 213.565 266.045 212.689 266.045 211.693C266.045 210.733 266.249 209.881 266.657 209.137C267.065 208.393 267.629 207.811 268.349 207.391C269.069 206.959 269.891 206.743 270.815 206.743C271.571 206.743 272.255 206.887 272.867 207.175C273.491 207.451 274.013 207.847 274.433 208.363C274.853 208.879 275.153 209.479 275.333 210.163C275.513 210.835 275.543 211.561 275.423 212.341H267.521V210.757H272.777C272.753 210.085 272.555 209.557 272.183 209.173C271.823 208.777 271.349 208.579 270.761 208.579C270.293 208.579 269.897 208.699 269.573 208.939C269.249 209.179 268.997 209.533 268.817 210.001C268.649 210.457 268.565 211.021 268.565 211.693C268.565 212.353 268.649 212.911 268.817 213.367C268.985 213.823 269.237 214.171 269.573 214.411C269.909 214.651 270.317 214.771 270.797 214.771C271.349 214.771 271.805 214.639 272.165 214.375C272.525 214.111 272.777 213.745 272.921 213.277H275.405C275.129 214.357 274.595 215.197 273.803 215.797C273.011 216.397 272.027 216.697 270.851 216.697ZM279.24 211.297V216.535H276.738V206.923H279.042V208.291C279.402 207.811 279.822 207.433 280.302 207.157C280.794 206.881 281.358 206.743 281.994 206.743C282.966 206.743 283.752 207.055 284.352 207.679C284.952 208.291 285.252 209.173 285.252 210.325V216.535H282.768V211.171C282.768 210.451 282.624 209.905 282.336 209.533C282.06 209.149 281.64 208.957 281.076 208.957C280.74 208.957 280.428 209.047 280.14 209.227C279.864 209.395 279.642 209.653 279.474 210.001C279.318 210.337 279.24 210.769 279.24 211.297ZM292.954 214.105V216.283C292.654 216.439 292.348 216.547 292.036 216.607C291.736 216.679 291.4 216.715 291.028 216.715C290.38 216.715 289.81 216.595 289.318 216.355C288.838 216.103 288.466 215.731 288.202 215.239C287.938 214.735 287.806 214.129 287.806 213.421V209.065H285.862V206.923H287.806V204.079H290.29V206.923H293.044V209.065H290.29V212.845C290.29 213.397 290.41 213.799 290.65 214.051C290.902 214.291 291.25 214.411 291.694 214.411C291.934 214.411 292.162 214.387 292.378 214.339C292.594 214.279 292.786 214.201 292.954 214.105Z" fill="white"/>
<path d="M130.525 85.9541H122.173V73.0301H124.909V83.4881H130.525V85.9541ZM135.793 86.1161C134.833 86.1161 133.987 85.9121 133.255 85.5041C132.535 85.0841 131.977 84.4961 131.581 83.7401C131.185 82.9841 130.987 82.1081 130.987 81.1121C130.987 80.1521 131.191 79.3001 131.599 78.5561C132.007 77.8121 132.571 77.2301 133.291 76.8101C134.011 76.3781 134.833 76.1621 135.757 76.1621C136.513 76.1621 137.197 76.3061 137.809 76.5941C138.433 76.8701 138.955 77.2661 139.375 77.7821C139.795 78.2981 140.095 78.8981 140.275 79.5821C140.455 80.2541 140.485 80.9801 140.365 81.7601H132.463V80.1761H137.719C137.695 79.5041 137.497 78.9761 137.125 78.5921C136.765 78.1961 136.291 77.9981 135.703 77.9981C135.235 77.9981 134.839 78.1181 134.515 78.3581C134.191 78.5981 133.939 78.9521 133.759 79.4201C133.591 79.8761 133.507 80.4401 133.507 81.1121C133.507 81.7721 133.591 82.3301 133.759 82.7861C133.927 83.2421 134.179 83.5901 134.515 83.8301C134.851 84.0701 135.259 84.1901 135.739 84.1901C136.291 84.1901 136.747 84.0581 137.107 83.7941C137.467 83.5301 137.719 83.1641 137.863 82.6961H140.347C140.071 83.7761 139.537 84.6161 138.745 85.2161C137.953 85.8161 136.969 86.1161 135.793 86.1161ZM147.404 85.9541V84.7661C147.092 85.2101 146.696 85.5521 146.216 85.7921C145.736 86.0201 145.166 86.1341 144.506 86.1341C143.51 86.1341 142.706 85.8641 142.094 85.3241C141.482 84.7841 141.176 84.0641 141.176 83.1641C141.176 82.2281 141.548 81.5141 142.292 81.0221C143.036 80.5301 144.104 80.2841 145.496 80.2841C145.772 80.2841 146.036 80.2961 146.288 80.3201C146.54 80.3321 146.81 80.3561 147.098 80.3921V79.8161C147.098 79.2761 146.954 78.8561 146.666 78.5561C146.378 78.2561 145.97 78.1061 145.442 78.1061C144.902 78.1061 144.476 78.2561 144.164 78.5561C143.852 78.8561 143.672 79.2761 143.624 79.8161H141.374C141.422 79.0721 141.62 78.4301 141.968 77.8901C142.328 77.3381 142.802 76.9121 143.39 76.6121C143.99 76.3121 144.674 76.1621 145.442 76.1621C146.702 76.1621 147.68 76.4921 148.376 77.1521C149.084 77.8121 149.438 78.7301 149.438 79.9061V85.9541H147.404ZM143.534 83.0921C143.534 83.4881 143.666 83.8061 143.93 84.0461C144.206 84.2861 144.578 84.4061 145.046 84.4061C145.682 84.4061 146.18 84.2441 146.54 83.9201C146.912 83.5841 147.098 83.1401 147.098 82.5881V81.9041C146.81 81.8561 146.552 81.8261 146.324 81.8141C146.096 81.7901 145.874 81.7781 145.658 81.7781C144.962 81.7781 144.434 81.8861 144.074 82.1021C143.714 82.3181 143.534 82.6481 143.534 83.0921ZM153.736 81.2921V85.9541H151.234V76.3421H153.538V78.1961C153.898 77.5841 154.42 77.1041 155.104 76.7561C155.789 76.4081 156.515 76.2341 157.283 76.2341V78.8261C156.586 78.7781 155.968 78.8141 155.429 78.9341C154.901 79.0421 154.487 79.2881 154.186 79.6721C153.886 80.0441 153.736 80.5841 153.736 81.2921ZM160.724 80.7161V85.9541H158.222V76.3421H160.526V77.7101C160.886 77.2301 161.306 76.8521 161.786 76.5761C162.278 76.3001 162.842 76.1621 163.478 76.1621C164.45 76.1621 165.236 76.4741 165.836 77.0981C166.436 77.7101 166.736 78.5921 166.736 79.7441V85.9541H164.252V80.5901C164.252 79.8701 164.108 79.3241 163.82 78.9521C163.544 78.5681 163.124 78.3761 162.56 78.3761C162.224 78.3761 161.912 78.4661 161.624 78.6461C161.348 78.8141 161.126 79.0721 160.958 79.4201C160.802 79.7561 160.724 80.1881 160.724 80.7161ZM171.034 85.9541H168.532V76.3421H171.034V85.9541ZM171.43 74.1101C171.43 74.5301 171.274 74.8841 170.962 75.1721C170.662 75.4481 170.26 75.5861 169.756 75.5861C169.264 75.5861 168.862 75.4481 168.55 75.1721C168.25 74.8841 168.1 74.5301 168.1 74.1101C168.1 73.6661 168.25 73.3061 168.55 73.0301C168.862 72.7421 169.264 72.5981 169.756 72.5981C170.26 72.5981 170.662 72.7421 170.962 73.0301C171.274 73.3061 171.43 73.6661 171.43 74.1101ZM175.403 80.7161V85.9541H172.901V76.3421H175.205V77.7101C175.565 77.2301 175.985 76.8521 176.465 76.5761C176.957 76.3001 177.521 76.1621 178.157 76.1621C179.129 76.1621 179.915 76.4741 180.515 77.0981C181.115 77.7101 181.415 78.5921 181.415 79.7441V85.9541H178.931V80.5901C178.931 79.8701 178.787 79.3241 178.499 78.9521C178.223 78.5681 177.803 78.3761 177.239 78.3761C176.903 78.3761 176.591 78.4661 176.303 78.6461C176.027 78.8141 175.805 79.0721 175.637 79.4201C175.481 79.7561 175.403 80.1881 175.403 80.7161ZM187.297 89.6081C186.445 89.6081 185.689 89.4581 185.029 89.1581C184.369 88.8701 183.853 88.4501 183.481 87.8981C183.109 87.3581 182.905 86.7221 182.869 85.9901H185.281C185.341 86.5421 185.539 86.9561 185.875 87.2321C186.211 87.5201 186.679 87.6641 187.279 87.6641C187.975 87.6641 188.497 87.4841 188.845 87.1241C189.205 86.7641 189.385 86.2361 189.385 85.5401V84.1361C189.121 84.5921 188.755 84.9521 188.287 85.2161C187.819 85.4681 187.291 85.5941 186.703 85.5941C185.923 85.5941 185.221 85.3901 184.597 84.9821C183.973 84.5741 183.481 84.0161 183.121 83.3081C182.761 82.5881 182.581 81.7781 182.581 80.8781C182.581 79.9421 182.749 79.1201 183.085 78.4121C183.433 77.7041 183.907 77.1521 184.507 76.7561C185.119 76.3601 185.821 76.1621 186.613 76.1621C187.261 76.1621 187.831 76.2881 188.323 76.5401C188.815 76.7801 189.235 77.1521 189.583 77.6561V76.3421H191.869V85.5041C191.869 86.7881 191.461 87.7901 190.645 88.5101C189.841 89.2421 188.725 89.6081 187.297 89.6081ZM185.083 80.8781C185.083 81.6581 185.275 82.2821 185.659 82.7501C186.043 83.2061 186.553 83.4341 187.189 83.4341C187.633 83.4341 188.017 83.3321 188.341 83.1281C188.665 82.9121 188.917 82.6121 189.097 82.2281C189.277 81.8441 189.367 81.4001 189.367 80.8961C189.367 80.1161 189.169 79.4921 188.773 79.0241C188.377 78.5561 187.849 78.3221 187.189 78.3221C186.553 78.3221 186.043 78.5561 185.659 79.0241C185.275 79.4801 185.083 80.0981 185.083 80.8781Z" fill="white"/>
<g clip-path="url(#clip0_232_225)">
<path d="M78.25 350.066V355.947H87.0368V379.695H93.6094V355.947H102.322V350.066H78.25Z" fill="#16171D"/>
<path d="M104.326 350.066V379.695H110.969V367.058H121.826V379.695H128.398V350.066H121.826V361.395H110.969V350.066H104.326Z" fill="#16171D"/>
<path d="M132.756 350.066V358.416L139.684 356.458V350.066H132.756Z" fill="#E31F4C"/>
<path d="M139.684 358.851L132.756 360.813V379.695H139.684V358.851Z" fill="#16171D"/>
<path d="M143.919 350.066V379.695H150.453V360.559L163.581 379.695H168.884V350.066H162.294V367.312L149.223 350.066H143.919Z" fill="#16171D"/>
<path d="M173.33 350.066V379.695H179.973V367.315C179.973 367.315 187.045 373.125 190.261 379.695H198.243C198.243 379.695 191.062 368.13 185.386 363.775C185.386 363.775 196.531 351.992 197.547 350.069H189.723L179.973 361.217V350.066H173.33Z" fill="#16171D"/>
<path d="M207.406 356.693C195.512 356.693 196.689 370.527 196.689 370.527C196.689 370.527 196.795 384.089 215.978 378.859L215.173 373.632C215.173 373.632 204.566 377.555 203.118 370.527H217.208C217.208 370.527 219.299 356.693 207.402 356.693H207.406ZM203.121 366.168C203.121 366.168 203.603 361.867 207.272 361.867C210.941 361.867 211.423 366.168 211.423 366.168H203.118H203.121Z" fill="#16171D"/>
<path d="M217.479 357.183H224.174L228.835 371.888L233.014 357.183H239.551L234.086 373.632C234.086 373.632 229.425 387.084 224.174 387.194C218.923 387.301 217.349 386.487 217.349 386.487L218.438 381.421C218.438 381.421 223.904 384.197 225.724 378.698L217.472 357.186L217.479 357.183Z" fill="#16171D"/>
</g>
<line x1="156.814" y1="166.11" x2="156.814" y2="351.439" stroke="#444444" stroke-width="2" stroke-dasharray="5 5"/>
<defs>
<clipPath id="clip0_232_225">
<rect width="161.305" height="37.7522" fill="white" transform="translate(78.25 350.066)"/>
</clipPath>
</defs>
</svg>
