<svg width="150" height="48" fill="none" xmlns="http://www.w3.org/2000/svg"><g clip-path="url(#a)"><path d="M0 .985v5.37h8.171v21.689h6.112V6.355h8.102V.985H0ZM24.248.985v27.059h6.178v-11.54h10.096v11.54h6.112V.984h-6.112v10.347H30.426V.985h-6.178Z" fill="#16171D"/><path d="M50.686.985V8.61l6.442-1.788V.985h-6.442Z" fill="#D32828"/><path d="M57.128 9.008 50.686 10.8v17.245h6.442V9.008ZM61.067.985v27.059h6.076V10.568L79.35 28.044h4.932V.984h-6.128v15.75L65.999.985h-4.932ZM88.417.985v27.059h6.177V16.738s6.576 5.306 9.567 11.306h7.422s-6.677-10.562-11.956-14.54c0 0 10.364-10.76 11.309-12.516h-7.275l-9.067 10.18V.985h-6.177Z" fill="#16171D"/><path d="M120.104 7.037c-11.06 0-9.965 12.634-9.965 12.634s.098 12.386 17.937 7.61l-.749-4.774s-9.864 3.583-11.211-2.836h13.103s1.945-12.634-9.118-12.634h.003Zm-3.984 8.654s.447-3.929 3.86-3.929c3.412 0 3.86 3.929 3.86 3.929h-7.724.004Z" fill="#16171D"/><path d="M129.471 7.484h6.226l4.334 13.43 3.886-13.43h6.08l-5.083 15.023s-4.334 12.285-9.217 12.386c-4.883.098-6.347-.646-6.347-.646l1.013-4.627s5.083 2.535 6.776-2.486l-7.674-19.646.006-.004ZM7.6 45.288c.748.431 1.872.803 3.052.803 1.48 0 2.304-.692 2.304-1.72 0-.952-.637-1.513-2.249-2.094-2.078-.747-3.409-1.85-3.409-3.665 0-2.055 1.723-3.628 4.459-3.628 1.366 0 2.379.3 3.036.636l-.562 1.85c-.451-.241-1.33-.597-2.51-.597-1.461 0-2.099.787-2.099 1.514 0 .973.732 1.423 2.416 2.076 2.193.822 3.258 1.925 3.258 3.739 0 2.02-1.536 3.795-4.794 3.795-1.33 0-2.717-.392-3.41-.803l.507-1.909v.003ZM19.794 37.118h-3.596v-1.925h9.534v1.925h-3.634v10.68h-2.304v-10.68ZM34.276 42.205h-4.759v3.704h5.321v1.889h-7.625V35.193h7.344v1.89h-5.04v3.253h4.759v1.87ZM39.388 44.225l-1.085 3.573h-2.38l4.046-12.605h2.942l4.102 12.605h-2.474l-1.144-3.573h-4.01.003Zm3.614-1.74-.993-3.102c-.245-.767-.451-1.629-.638-2.356h-.035c-.187.73-.376 1.608-.599 2.356l-.974 3.103h3.24ZM59.377 42.652c-.075-1.628-.17-3.589-.15-5.312h-.056a65.914 65.914 0 0 1-1.497 4.842l-1.836 5.462H54.06l-1.687-5.387a61.156 61.156 0 0 1-1.275-4.917h-.039c-.055 1.664-.13 3.664-.225 5.387l-.281 5.068h-2.154l.843-12.605h3.033l1.647 5.067a61.996 61.996 0 0 1 1.16 4.376h.056a61.523 61.523 0 0 1 1.255-4.395l1.742-5.048h2.997l.73 12.605h-2.25l-.241-5.143h.006Z" fill="#16171D"/><path d="M69.081 48c-.824 0-1.405-.617-1.386-1.458 0-.862.582-1.459 1.406-1.459.823 0 1.405.597 1.425 1.459 0 .841-.562 1.458-1.425 1.458h-.02Zm-.863-4.095-.336-8.715h2.435l-.337 8.715h-1.762Z" fill="#D32828"/></g><defs><clipPath id="a"><path fill="#fff" transform="translate(0 .985)" d="M0 0h150v47.016H0z"/></clipPath></defs></svg>