<svg width="120" height="38" viewBox="0 0 120 38" fill="none" xmlns="http://www.w3.org/2000/svg">
<g clip-path="url(#clip0_114_24)">
<path d="M0 0V4.3409H6.5368V21.8706H11.4263V4.3409H17.9082V0H0Z" fill="#16171D"/>
<path d="M19.3986 0V21.8706H24.3404V12.5427H32.4173V21.8706H37.3068V0H32.4173V8.36269H24.3404V0H19.3986Z" fill="#16171D"/>
<path d="M40.5491 0V6.16323L45.7027 4.71802V0H40.5491Z" fill="#EA624A"/>
<path d="M45.7027 6.48486L40.5491 7.93271V21.8705H45.7027V6.48486Z" fill="#16171D"/>
<path d="M48.8535 0V21.8706H53.7142V7.74558L63.4802 21.8706H67.4258V0H62.5232V12.73L52.7991 0H48.8535Z" fill="#16171D"/>
<path d="M70.7334 0V21.8706H75.6752V12.7326C75.6752 12.7326 80.936 17.0208 83.3285 21.8706H89.2665C89.2665 21.8706 83.9247 13.3339 79.7019 10.1191C79.7019 10.1191 87.9932 1.42147 88.7488 0.00263724H82.9285L75.6752 8.23083V0H70.7334Z" fill="#16171D"/>
<path d="M96.0831 4.89209C87.2349 4.89209 88.1108 15.1035 88.1108 15.1035C88.1108 15.1035 88.1893 25.1145 102.46 21.2535L101.862 17.3952C101.862 17.3952 93.9704 20.2909 92.8932 15.1035H103.376C103.376 15.1035 104.931 4.89209 96.0805 4.89209H96.0831ZM92.8958 11.8861C92.8958 11.8861 93.254 8.71081 95.9838 8.71081C98.7135 8.71081 99.0717 11.8861 99.0717 11.8861H92.8932H92.8958Z" fill="#16171D"/>
<path d="M103.577 5.25342H108.558L112.025 16.1083L115.134 5.25342H119.997L115.931 17.3953C115.931 17.3953 112.464 27.3245 108.558 27.4062C104.652 27.4854 103.48 26.8841 103.48 26.8841L104.291 23.1445C104.291 23.1445 108.357 25.1936 109.711 21.1349L103.572 5.25606L103.577 5.25342Z" fill="#16171D"/>
<path d="M6.07935 35.8084C6.67812 36.1565 7.57759 36.4571 8.5215 36.4571C9.70597 36.4571 10.3649 35.8981 10.3649 35.0673C10.3649 34.2972 9.85501 33.8436 8.56595 33.3742C6.90299 32.7703 5.8388 31.8789 5.8388 30.4126C5.8388 28.7511 7.21676 27.48 9.40528 27.48C10.4982 27.48 11.3088 27.7226 11.8344 27.9942L11.3846 29.4896C11.0238 29.2944 10.3204 29.0069 9.37652 29.0069C8.20774 29.0069 7.69787 29.6425 7.69787 30.2306C7.69787 31.0165 8.28356 31.3805 9.63014 31.9079C11.3846 32.5725 12.237 33.4639 12.237 34.9302C12.237 36.5626 11.0081 37.9973 8.40123 37.9973C7.33703 37.9973 6.22839 37.6808 5.67407 37.3485L6.07935 35.8058V35.8084Z" fill="#16171D"/>
<path d="M15.8349 29.2049H12.9587V27.6489H20.5858V29.2049H17.6782V37.8366H15.8349V29.2049Z" fill="#16171D"/>
<path d="M27.4207 33.3164H23.6136V36.3096H27.8704V37.8366H21.7703V27.6489H27.6455V29.1759H23.6136V31.8052H27.4207V33.3164Z" fill="#16171D"/>
<path d="M31.5101 34.9488L30.642 37.8366H28.7385L31.9755 27.6489H34.3288L37.6103 37.8366H35.6309L34.7158 34.9488H31.5075H31.5101ZM34.402 33.5432L33.6071 31.0351C33.411 30.4154 33.2463 29.7192 33.0973 29.1311H33.0685C32.9195 29.7218 32.7678 30.4312 32.59 31.0351L31.8108 33.5432H34.402Z" fill="#16171D"/>
<path d="M47.5017 33.6776C47.4416 32.3616 47.3658 30.7766 47.3814 29.3842H47.337C47.0075 30.6395 46.5866 32.0135 46.1395 33.2978L44.67 37.7126H43.2476L41.8984 33.3585C41.5088 32.0583 41.1479 30.6685 40.8786 29.3842H40.8473C40.8028 30.7292 40.7427 32.3458 40.6668 33.7383L40.442 37.8339H38.7189L39.3935 27.6462H41.8199L43.1377 31.7419C43.4986 32.9365 43.8123 34.1444 44.066 35.2784H44.1104C44.3797 34.176 44.7249 32.9207 45.1145 31.7261L46.5081 27.6462H48.9058L49.4889 37.8339H47.69L47.4965 33.6776H47.5017Z" fill="#16171D"/>
<path d="M55.2649 38C54.6059 38 54.1405 37.5016 54.1562 36.8212C54.1562 36.125 54.6216 35.6424 55.2805 35.6424C55.9394 35.6424 56.4049 36.125 56.4206 36.8212C56.4206 37.5016 55.9708 38 55.2805 38H55.2649ZM54.5746 34.6903L54.3052 27.6462H56.2532L55.9839 34.6903H54.5746Z" fill="#EA624A"/>
</g>
<defs>
<clipPath id="clip0_114_24">
<rect width="120" height="38" fill="white"/>
</clipPath>
</defs>
</svg>
