<?xml version="1.0" encoding="UTF-8"?>
<svg id="Layer_1" data-name="Layer 1" xmlns="http://www.w3.org/2000/svg" viewBox="0 0 458.94 103.94">
  <defs>
    <style>
      .cls-1 {
        fill: #e31f4c;
      }

      .cls-2 {
        fill: #232c55;
      }
    </style>
  </defs>
  <polygon class="cls-2" points="0 0 0 16.46 25 16.46 25 82.93 43.7 82.93 43.7 16.46 68.49 16.46 68.49 0 0 0"/>
  <polygon class="cls-2" points="74.19 0 74.19 82.93 93.09 82.93 93.09 47.56 123.98 47.56 123.98 82.93 142.68 82.93 142.68 0 123.98 0 123.98 31.71 93.09 31.71 93.09 0 74.19 0"/>
  <polygon class="cls-1" points="155.08 0 155.08 23.37 174.79 17.89 174.79 0 155.08 0"/>
  <polygon class="cls-2" points="174.79 24.59 155.08 30.08 155.08 82.93 174.79 82.93 174.79 24.59"/>
  <polygon class="cls-2" points="186.84 0 186.84 82.93 205.43 82.93 205.43 29.37 242.78 82.93 257.87 82.93 257.87 0 239.12 0 239.12 48.27 201.93 0 186.84 0"/>
  <path class="cls-2" d="m270.52,0v82.93h18.9v-34.65s20.12,16.26,29.27,34.65h22.71s-20.43-32.37-36.58-44.56c0,0,31.71-32.98,34.6-38.36h-22.26l-27.74,31.2V0h-18.9Z"/>
  <path class="cls-2" d="m367.47,18.55c-33.84,0-30.49,38.72-30.49,38.72,0,0,.3,37.96,54.88,23.32l-2.29-14.63s-30.18,10.98-34.3-8.69h40.09s5.95-38.72-27.9-38.72Zm-12.19,26.52s1.37-12.04,11.81-12.04,11.81,12.04,11.81,12.04h-23.63Z"/>
  <path class="cls-2" d="m396.13,19.92h19.05l13.26,41.16,11.89-41.16h18.6l-15.55,46.04s-13.26,37.65-28.2,37.96c-14.94.3-19.42-1.98-19.42-1.98l3.1-14.18s15.55,7.77,20.73-7.62l-23.48-60.21Z"/>
</svg>